<?xml version="1.0" encoding="utf-8"?>
<svg viewBox="0 0 252 114" width="252" height="114" hape-rendering="geometricPrecision" xmlns:a="http://www.adobe.com/svg10-extensions" xmlns="http://www.w3.org/2000/svg" xmlns:xlink="http://www.w3.org/1999/xlink">
  <desc>600</desc>
  
  <defs>
    <radialGradient id="56_0_0_1_radialgradient" fx="0.5" fy="0.5" gradientUnits="objectBoundingBox">
      <stop offset="0.00" stop-color="rgb(255,255,255)" stop-opacity="1.0"/>
      <stop offset="1.00" stop-color="rgb(146,208,80)" stop-opacity="1.0"/>
    </radialGradient>
    <radialGradient id="57_0_0_3_radialgradient" fx="0.5" fy="0.5" gradientUnits="objectBoundingBox">
      <stop offset="0.00" stop-color="rgb(64,64,64)" stop-opacity="1.0"/>
      <stop offset="1.00" stop-color="rgb(191,191,191)" stop-opacity="1.0"/>
    </radialGradient>
    <radialGradient id="57_0_0_4_radialgradient" fx="0.5" fy="0.5" gradientUnits="objectBoundingBox">
      <stop offset="0.00" stop-color="rgb(255,255,255)" stop-opacity="1.0"/>
      <stop offset="1.00" stop-color="rgb(89,89,89)" stop-opacity="1.0"/>
    </radialGradient>
    <linearGradient id="49_0_0_6_linearGradient" x1="0" y1="0" x2="1" y2="0">
      <stop offset="0.00" stop-color="rgb(166,166,166)" stop-opacity="1.0"/>
      <stop offset="0.5" stop-color="rgb(255,255,255)" stop-opacity="1.0"/>
      <stop offset="1" stop-color="rgb(166,166,166)" stop-opacity="1.0"/>
    </linearGradient>
    <linearGradient id="45_0_0_7_linearGradient" x1="0" y1="0" x2="1" y2="0">
      <stop offset="0.00" stop-color="rgb(166,166,166)" stop-opacity="1.0"/>
      <stop offset="1.00" stop-color="rgb(89,89,89)" stop-opacity="1.0"/>
    </linearGradient>
    <radialGradient id="57_0_0_9_radialgradient" fx="0.5" fy="0.5" gradientUnits="objectBoundingBox">
      <stop offset="0.00" stop-color="rgb(255,255,255)" stop-opacity="1.0"/>
      <stop offset="1.00" stop-color="rgb(89,89,89)" stop-opacity="1.0"/>
    </radialGradient>
    <radialGradient id="56_0_0_11_radialgradient" fx="0.5" fy="0.5" gradientUnits="objectBoundingBox">
      <stop offset="0.00" stop-color="rgb(255,255,255)" stop-opacity="1.0"/>
      <stop offset="1.00" stop-color="rgb(146,208,80)" stop-opacity="1.0"/>
    </radialGradient>
    <linearGradient id="49_0_0_14_linearGradient" x1="0" y1="0" x2="1" y2="0">
      <stop offset="0.00" stop-color="rgb(217,217,217)" stop-opacity="1.0"/>
      <stop offset="0.5" stop-color="rgb(255,255,255)" stop-opacity="1.0"/>
      <stop offset="1" stop-color="rgb(217,217,217)" stop-opacity="1.0"/>
    </linearGradient>
    <linearGradient id="49_0_0_15_linearGradient" x1="0" y1="0" x2="1" y2="0">
      <stop offset="0.00" stop-color="rgb(166,166,166)" stop-opacity="1.0"/>
      <stop offset="0.5" stop-color="rgb(255,255,255)" stop-opacity="1.0"/>
      <stop offset="1" stop-color="rgb(166,166,166)" stop-opacity="1.0"/>
    </linearGradient>
    <linearGradient id="45_0_0_16_linearGradient" x1="0" y1="0" x2="1" y2="0">
      <stop offset="0.00" stop-color="rgb(166,166,166)" stop-opacity="1.0"/>
      <stop offset="1.00" stop-color="rgb(89,89,89)" stop-opacity="1.0"/>
    </linearGradient>
    <linearGradient id="49_0_0_18_linearGradient" x1="0" y1="0" x2="1" y2="0">
      <stop offset="0.00" stop-color="rgb(217,217,217)" stop-opacity="1.0"/>
      <stop offset="0.5" stop-color="rgb(191,191,191)" stop-opacity="1.0"/>
      <stop offset="1" stop-color="rgb(217,217,217)" stop-opacity="1.0"/>
    </linearGradient>
    <linearGradient id="49_0_0_19_linearGradient" x1="0" y1="0" x2="1" y2="0">
      <stop offset="0.00" stop-color="rgb(217,217,217)" stop-opacity="1.0"/>
      <stop offset="0.5" stop-color="rgb(191,191,191)" stop-opacity="1.0"/>
      <stop offset="1" stop-color="rgb(217,217,217)" stop-opacity="1.0"/>
    </linearGradient>
    <linearGradient id="49_0_0_20_linearGradient" x1="0" y1="0" x2="1" y2="0">
      <stop offset="0.00" stop-color="rgb(217,217,217)" stop-opacity="1.0"/>
      <stop offset="0.5" stop-color="rgb(255,255,255)" stop-opacity="1.0"/>
      <stop offset="1" stop-color="rgb(217,217,217)" stop-opacity="1.0"/>
    </linearGradient>
    <linearGradient id="49_0_0_21_linearGradient" x1="0" y1="0" x2="1" y2="0">
      <stop offset="0.00" stop-color="rgb(217,217,217)" stop-opacity="1.0"/>
      <stop offset="0.5" stop-color="rgb(255,255,255)" stop-opacity="1.0"/>
      <stop offset="1" stop-color="rgb(217,217,217)" stop-opacity="1.0"/>
    </linearGradient>
    <linearGradient id="49_0_0_22_linearGradient" x1="0" y1="0" x2="1" y2="0">
      <stop offset="0.00" stop-color="rgb(217,217,217)" stop-opacity="1.0"/>
      <stop offset="0.5" stop-color="rgb(255,255,255)" stop-opacity="1.0"/>
      <stop offset="1" stop-color="rgb(217,217,217)" stop-opacity="1.0"/>
    </linearGradient>
    <linearGradient id="49_0_0_23_linearGradient" x1="0" y1="0" x2="1" y2="0">
      <stop offset="0.00" stop-color="rgb(217,217,217)" stop-opacity="1.0"/>
      <stop offset="0.5" stop-color="rgb(255,255,255)" stop-opacity="1.0"/>
      <stop offset="1" stop-color="rgb(217,217,217)" stop-opacity="1.0"/>
    </linearGradient>
    <radialGradient id="56_0_1_0_radialgradient" fx="0.5" fy="0.5" gradientUnits="objectBoundingBox">
      <stop offset="0.00" stop-color="rgb(0,196,0)" stop-opacity="1.0"/>
      <stop offset="1.00" stop-color="rgb(39,123,0)" stop-opacity="1.0"/>
    </radialGradient>
    <radialGradient id="56_0_1_1_radialgradient" fx="0.5" fy="0.5" gradientUnits="objectBoundingBox">
      <stop offset="0.00" stop-color="rgb(0,196,0)" stop-opacity="1.0"/>
      <stop offset="1.00" stop-color="rgb(39,123,0)" stop-opacity="1.0"/>
    </radialGradient>
    <radialGradient id="56_0_1_2_radialgradient" fx="0.5" fy="0.5" gradientUnits="objectBoundingBox">
      <stop offset="0.00" stop-color="rgb(0,196,0)" stop-opacity="1.0"/>
      <stop offset="1.00" stop-color="rgb(39,123,0)" stop-opacity="1.0"/>
    </radialGradient>
  </defs>
  <g id="0">
    <g id="0_0">
      <g id="0_0_0" fill="none" stroke="rgb(0,0,0)" stroke-width="1" stroke-opacity="1.0" stroke-linecap="butt" stroke-linejoin="miter" stroke-miterlimit="10">
        <path id="path_0_0_0" d="M 162 94 C 158 94 156 91 156 86 156 82 158 79 160 78 161 78 161 78 161 78 L 203 66 C 204 66 204 66 205 66 211 66 215 73 215 80 215 88 211 93 205 94 205 94 205 94 205 94 L 162 94"/>
        <text id="Text_0_0_0" x="186" text-anchor="middle" y="85" vertical-align="middle" font-family="Times New Roman" font-size="9.000000pt" fill="rgb(0,0,0)" stroke="none" stextLength="0" font-weight="400" xml:space="preserve"> </text>
      </g>
      <g id="0_0_1" fill="url(#56_0_0_1_radialgradient)" stroke="rgb(0,0,0)" stroke-width="1" stroke-opacity="1.0" stroke-linecap="butt" stroke-linejoin="miter" stroke-miterlimit="10">
        <path id="path_0_0_1" d="M 207 96 L 207 96 C 197 96 189 88 189 78 L 189 78 C 189 69 197 61 207 61 L 208 61 C 218 61 226 69 226 78 L 226 78 C 226 88 218 96 208 96 L 207 96 Z"/>
        <text id="Text_0_0_1" x="208" text-anchor="middle" y="84" vertical-align="middle" font-family="Times New Roman" font-size="9.000000pt" fill="rgb(0,0,0)" stroke="none" stextLength="0" font-weight="400" xml:space="preserve"> </text>
      </g>
      <g id="0_0_2" fill="none" stroke="none" stroke-width="0" stroke-opacity="0" stroke-linecap="butt" stroke-linejoin="miter" stroke-miterlimit="10">
        <path id="path_0_0_2" d="M 207 93 C 215 93 221 86 221 80 221 71 215 64 207 64 199 64 193 71 193 80 193 86 199 93 207 93"/>
      </g>
      <g id="0_0_3" fill="url(#57_0_0_3_radialgradient)" stroke="none" stroke-width="0" stroke-opacity="0" stroke-linecap="butt" stroke-linejoin="miter" stroke-miterlimit="10">
        <path id="path_0_0_3" d="M 125 111 L 125 111 C 56 111 0 109 0 106 L 0 105 C 0 102 56 100 125 100 L 125 100 C 194 100 250 102 250 105 L 250 106 C 250 109 194 111 125 111 L 125 111 Z"/>
        <text id="Text_0_0_3" x="125" text-anchor="middle" y="111" vertical-align="middle" font-family="Times New Roman" font-size="9.000000pt" fill="rgb(0,0,0)" stroke="none" stextLength="0" font-weight="400" xml:space="preserve"> </text>
      </g>
      <g id="0_0_4" fill="url(#57_0_0_4_radialgradient)" stroke="rgb(0,0,0)" stroke-width="1" stroke-opacity="1.0" stroke-linecap="butt" stroke-linejoin="miter" stroke-miterlimit="10">
        <path id="path_0_0_4" d="M 93 106 L 93 106 C 89 106 84 102 84 99 L 84 98 C 84 94 89 90 93 90 L 93 90 C 97 90 102 94 102 98 L 102 99 C 102 102 97 106 93 106 L 93 106 Z"/>
        <text id="Text_0_0_4" x="88.000000" text-anchor="start" y="101.000000" vertical-align="top" font-family="SimSun" font-size="9.000000pt" fill="rgb(0,0,0)" stroke="none" stextLength="0" font-weight="400" xml:space="preserve"> </text>
      </g>
      <g id="0_0_5" fill="rgb(255,255,255)" stroke="none" stroke-width="0" stroke-opacity="0" stroke-linecap="butt" stroke-linejoin="miter" stroke-miterlimit="10">
        <path id="path_0_0_5" d="M 98 98 C 98 94 96 92 93 92 89 92 87 94 87 98 87 101 89 103 93 103 96 103 98 101 98 98 Z"/>
      </g>
      <g id="0_0_6" fill="url(#49_0_0_6_linearGradient)" stroke="rgb(0,0,0)" stroke-width="1" stroke-opacity="1.0" stroke-linecap="butt" stroke-linejoin="miter" stroke-miterlimit="10">
        <path id="path_0_0_6" d="M 86 101 L 100 101 106 90 80 90 86 101 Z"/>
      </g>
      <g id="0_0_7" fill="url(#45_0_0_7_linearGradient)" stroke="rgb(0,0,0)" stroke-width="1" stroke-opacity="1.0" stroke-linecap="butt" stroke-linejoin="miter" stroke-miterlimit="10">
        <path id="path_0_0_7" d="M 80 72 L 106 72 106 90 80 90 80 72 Z"/>
      </g>
      <g id="0_0_8" fill="rgb(255,255,255)" stroke="rgb(36,33,29)" stroke-width="1" stroke-opacity="1.0" stroke-linecap="butt" stroke-linejoin="miter" stroke-miterlimit="10">
        <path id="path_0_0_8" d="M 95 81 C 95 79 94 78 93 78 91 78 90 79 90 81 90 82 91 83 93 83 94 83 95 82 95 81 Z"/>
      </g>
      <g id="0_0_9" fill="url(#57_0_0_9_radialgradient)" stroke="rgb(0,0,0)" stroke-width="1" stroke-opacity="1.0" stroke-linecap="butt" stroke-linejoin="miter" stroke-miterlimit="10">
        <path id="path_0_0_9" d="M 32 107 L 32 107 C 28 107 23 103 23 100 L 23 98 C 23 95 28 91 32 91 L 32 91 C 36 91 41 95 41 98 L 41 100 C 41 103 36 107 32 107 L 32 107 Z"/>
        <text id="Text_0_0_9" x="27.000000" text-anchor="start" y="102.000000" vertical-align="top" font-family="SimSun" font-size="9.000000pt" fill="rgb(0,0,0)" stroke="none" stextLength="0" font-weight="400" xml:space="preserve"> </text>
      </g>
      <g id="0_0_10" fill="rgb(255,255,255)" stroke="none" stroke-width="0" stroke-opacity="0" stroke-linecap="butt" stroke-linejoin="miter" stroke-miterlimit="10">
        <path id="path_0_0_10" d="M 37 99 C 37 95 35 93 32 93 28 93 26 95 26 99 26 102 28 104 32 104 35 104 37 102 37 99 Z"/>
      </g>
      <g id="0_0_11" fill="url(#56_0_0_11_radialgradient)" stroke="rgb(0,0,0)" stroke-width="1" stroke-opacity="1.0" stroke-linecap="butt" stroke-linejoin="miter" stroke-miterlimit="10">
        <path id="path_0_0_11" d="M 175 86 C 175 92 171 96 165 96 160 96 155 92 155 86 155 81 160 77 165 77 171 77 175 81 175 86 L 175 86 Z"/>
      </g>
      <g id="0_0_12" fill="rgb(134,255,14)" stroke="rgb(0,0,0)" stroke-width="1" stroke-opacity="1.0" stroke-linecap="butt" stroke-linejoin="miter" stroke-miterlimit="10">
        <path id="path_0_0_12" d="M 172 86 C 172 90 169 93 166 93 162 93 159 90 159 86 159 83 162 80 166 80 169 80 172 83 172 86 L 172 86 Z"/>
      </g>
      <g id="0_0_13" stroke="rgb(36,33,29)" stroke-width="1" stroke-opacity="1.0" stroke-linecap="butt" stroke-linejoin="miter" stroke-miterlimit="10">
        <path id="path_0_0_13" d="M 182 27 L 184 27 184 94 182 94 182 27 Z"/>
      </g>
      <g id="0_0_14" fill="url(#49_0_0_14_linearGradient)" stroke="rgb(0,0,0)" stroke-width="1" stroke-opacity="1.0" stroke-linecap="butt" stroke-linejoin="miter" stroke-miterlimit="10">
        <path id="path_0_0_14" d="M 138 78 L 46 78 C 45 78 43 80 43 81 L 43 81 C 43 82 45 84 46 84 L 53 84 53 86 134 86 C 135 87 137 88 138 88 141 88 143 85 143 83 143 80 141 78 138 78 L 138 78 Z"/>
      </g>
      <g id="0_0_15" fill="url(#49_0_0_15_linearGradient)" stroke="rgb(0,0,0)" stroke-width="1" stroke-opacity="1.0" stroke-linecap="butt" stroke-linejoin="miter" stroke-miterlimit="10">
        <path id="path_0_0_15" d="M 25 102 L 39 102 45 91 19 91 25 102 Z"/>
      </g>
      <g id="0_0_16" fill="url(#45_0_0_16_linearGradient)" stroke="rgb(0,0,0)" stroke-width="1" stroke-opacity="1.0" stroke-linecap="butt" stroke-linejoin="miter" stroke-miterlimit="10">
        <path id="path_0_0_16" d="M 19 73 L 45 73 45 91 19 91 19 73 Z"/>
      </g>
      <g id="0_0_17" fill="rgb(255,255,255)" stroke="rgb(36,33,29)" stroke-width="1" stroke-opacity="1.0" stroke-linecap="butt" stroke-linejoin="miter" stroke-miterlimit="10">
        <path id="path_0_0_17" d="M 34 82 C 34 80 33 79 32 79 30 79 29 80 29 82 29 83 30 84 32 84 33 84 34 83 34 82 Z"/>
      </g>
      <g id="0_0_18" fill="url(#49_0_0_18_linearGradient)" stroke="rgb(36,33,29)" stroke-width="1" stroke-opacity="1.0" stroke-linecap="butt" stroke-linejoin="miter" stroke-miterlimit="10">
        <path id="path_0_0_18" d="M 114 43 L 168 96 166 98 113 45 114 43 Z"/>
      </g>
      <g id="0_0_19" fill="url(#49_0_0_19_linearGradient)" stroke="rgb(36,33,29)" stroke-width="1" stroke-opacity="1.0" stroke-linecap="butt" stroke-linejoin="miter" stroke-miterlimit="10">
        <path id="path_0_0_19" d="M 181 28 L 250 95 247 98 179 30 181 28 Z"/>
        <text id="Text_0_0_19" x="215" text-anchor="middle" y="68" vertical-align="middle" font-family="Times New Roman" font-size="9.000000pt" fill="rgb(0,0,0)" stroke="none" stextLength="0" font-weight="400" xml:space="preserve"> </text>
      </g>
      <g id="0_0_20" fill="url(#49_0_0_20_linearGradient)" stroke="rgb(0,0,0)" stroke-width="1" stroke-opacity="1.0" stroke-linecap="butt" stroke-linejoin="miter" stroke-miterlimit="10">
        <path id="path_0_0_20" d="M 152 94 L 252 94 252 103 152 103 152 94 Z"/>
      </g>
      <g id="0_0_21" fill="url(#49_0_0_21_linearGradient)" stroke="rgb(0,0,0)" stroke-width="1" stroke-opacity="1.0" stroke-linecap="butt" stroke-linejoin="miter" stroke-miterlimit="10">
        <path id="path_0_0_21" d="M 101 27 L 184 27 184 7 101 7 101 27 Z"/>
      </g>
      <g id="0_0_22" fill="url(#49_0_0_22_linearGradient)" stroke="rgb(0,0,0)" stroke-width="1" stroke-opacity="1.0" stroke-linecap="butt" stroke-linejoin="miter" stroke-miterlimit="10">
        <path id="path_0_0_22" d="M 7 25 L 191 25 121 86 7 86 7 25 Z"/>
      </g>
      <g id="0_0_23" fill="url(#49_0_0_23_linearGradient)" stroke="rgb(0,0,0)" stroke-width="1" stroke-opacity="1.0" stroke-linecap="butt" stroke-linejoin="miter" stroke-miterlimit="10">
        <path id="path_0_0_23" d="M 95 7 L 191 7 191 1 95 1 95 7 Z"/>
      </g>
      <g id="0_0_24" fill="rgb(104,128,55)" stroke="rgb(0,0,0)" stroke-width="1" stroke-opacity="1.0" stroke-linecap="butt" stroke-linejoin="miter" stroke-miterlimit="10">
        <path id="path_0_0_24" d="M 43 26 L 20 26 20 13 C 32 13 42 19 43 26 Z"/>
      </g>
      <g id="0_0_25" fill="rgb(104,128,55)" stroke="rgb(0,0,0)" stroke-width="1" stroke-opacity="1.0" stroke-linecap="butt" stroke-linejoin="miter" stroke-miterlimit="10">
        <path id="path_0_0_25" d="M 7 45 L 169 45 160 53 7 53 7 55 7 45 Z"/>
        <text id="Text_0_0_25" x="11.000000" text-anchor="start" y="56.000000" vertical-align="top" font-family="SimSun" font-size="9.000000pt" fill="rgb(0,0,0)" stroke="none" stextLength="0" font-weight="400" xml:space="preserve"> </text>
      </g>
      <text id="Text_0_0" x="126.500000" text-anchor="start" y="136" font-family="SimSun" font-size="9.000000pt" fill="rgb(0,0,0)" stroke="none" stextLength="0" font-weight="400" xml:space="preserve"/>
    </g>
    <g id="0_1">
      <g id="0_1_0" fill="url(#56_0_1_0_radialgradient)" stroke="none" stroke-width="0" stroke-opacity="0" stroke-linecap="butt" stroke-linejoin="miter" stroke-miterlimit="10">
        <path id="path_0_1_0" d="M 200 71 C 200 74 203 74 206 75 208 77 207 79 207 79 207 79 210 77 211 75 211 74 214 72 213 70 213 68 210 66 203 69 201 69 199 70 200 71 L 200 71 Z"/>
      </g>
      <g id="0_1_1" fill="url(#56_0_1_1_radialgradient)" stroke="none" stroke-width="0" stroke-opacity="0" stroke-linecap="butt" stroke-linejoin="miter" stroke-miterlimit="10">
        <path id="path_0_1_1" d="M 205 89 C 207 88 205 85 205 82 205 79 207 79 207 79 207 79 204 78 203 78 202 77 199 77 197 79 196 80 195 83 201 88 202 89 204 90 205 89 L 205 89 Z"/>
      </g>
      <g id="0_1_2" fill="url(#56_0_1_2_radialgradient)" stroke="none" stroke-width="0" stroke-opacity="0" stroke-linecap="butt" stroke-linejoin="miter" stroke-miterlimit="10">
        <path id="path_0_1_2" d="M 218 76 C 216 75 214 77 211 79 209 80 207 79 207 79 207 79 208 82 209 83 209 84 210 87 213 88 214 88 218 87 219 80 219 78 219 76 218 76 L 218 76 Z"/>
      </g>
      <text id="Text_0_1" x="207.500000" text-anchor="start" y="114" font-family="SimSun" font-size="9.000000pt" fill="rgb(0,0,0)" stroke="none" stextLength="0" font-weight="400" xml:space="preserve"/>
      <animateTransform id="Rotate_1" fill="freeze" type="rotate" repeatCount="indefinite" calcMode="linear" attributeType="XML" attributeName="transform" additive="replace" accumulate="none" from="0.000000,207,78" to="360.000000,207,78" begin="indefinite" end="indefinite" dur="1.000000s" restart="whenNotActive"/>
    </g>
    <g id="0_2" fill="rgb(255,255,255)" stroke="rgb(0,0,0)" stroke-width="1" stroke-opacity="1.0" stroke-linecap="butt" stroke-linejoin="miter" stroke-miterlimit="10">
      <path id="path_0_2" d="M 207 82 L 207 82 C 205 82 204 81 204 79 L 204 78 C 204 77 205 75 207 75 L 208 75 C 209 75 211 77 211 78 L 211 79 C 211 81 209 82 208 82 L 207 82 Z"/>
      <text id="Text_0_2" x="208.000000" text-anchor="start" y="86.000000" vertical-align="top" font-family="SimSun" font-size="9.000000pt" fill="rgb(0,0,0)" stroke="none" stextLength="0" font-weight="400" xml:space="preserve"> </text>
    </g>
    <text id="Text_0" x="126.500000" text-anchor="start" y="136" font-family="SimSun" font-size="9.000000pt" fill="rgb(0,0,0)" stroke="none" stextLength="0" font-weight="400" xml:space="preserve"/>
  </g>
</svg>
