<?xml version="1.0" encoding="utf-8"?>
<!-- Generator: Adobe Illustrator 21.0.0, SVG Export Plug-In . SVG Version: 6.00 Build 0)  -->
<svg version="1.0" id="图层_1" xmlns="http://www.w3.org/2000/svg" xmlns:xlink="http://www.w3.org/1999/xlink" x="0px" y="0px" width="280px" height="280px"
	 viewBox="0 0 280 280"  xml:space="preserve">
<g>
	
		<linearGradient id="SVGID_1_" gradientUnits="userSpaceOnUse" x1="141" y1="267.333" x2="141" y2="211.329" gradientTransform="matrix(1 0 0 -1 0 280)">
		<stop  offset="0" style="stop-color:#79D3E8"/>
		<stop  offset="0.534" style="stop-color:#B2F4F9"/>
		<stop  offset="1" style="stop-color:#8BD5F2"/>
	</linearGradient>
	
		<linearGradient id="SVGID_2_" gradientUnits="userSpaceOnUse" x1="6.333" y1="242" x2="275.667" y2="242" gradientTransform="matrix(1 0 0 -1 0 280)">
		<stop  offset="0" style="stop-color:#C1C1C1"/>
		<stop  offset="0.5183" style="stop-color:#848484"/>
		<stop  offset="1" style="stop-color:#303030"/>
	</linearGradient>
	<path fill="url(#SVGID_1_)" stroke="url(#SVGID_2_)" stroke-width="4" stroke-miterlimit="10" d="M273.7,18.9
		c0-6.4-5.2-11.5-11.5-11.5H19.9c-6.4,0-11.5,5.2-11.5,11.5v49.8h265.3L273.7,18.9L273.7,18.9z"/>
	<g>
		
			<image overflow="visible" opacity="0.75" enable-background="new    " width="1104" height="860" xlink:href="43CD667C.png"  transform="matrix(0.2495 0 0 0.2488 4.333 64.667)">
		</image>
		<g>
			<path fill="#FFFFFF" d="M8.3,68.7v192.5c0,6.4,5.2,11.5,11.5,11.5h242.3c6.4,0,11.5-5.2,11.5-11.5V68.7H8.3z"/>
			
				<linearGradient id="SVGID_3_" gradientUnits="userSpaceOnUse" x1="6.333" y1="109.333" x2="275.667" y2="109.333" gradientTransform="matrix(1 0 0 -1 0 280)">
				<stop  offset="0" style="stop-color:#C1C1C1"/>
				<stop  offset="0.5183" style="stop-color:#848484"/>
				<stop  offset="1" style="stop-color:#303030"/>
			</linearGradient>
			<path fill="none" stroke="url(#SVGID_3_)" stroke-width="4" stroke-miterlimit="10" d="M8.3,68.7v192.5c0,6.4,5.2,11.5,11.5,11.5
				h242.3c6.4,0,11.5-5.2,11.5-11.5V68.7H8.3z"/>
		</g>
	</g>
</g>
<g id="_x30_">
	<path id="PMC_TEXT_BGK_0" fill="none" d="M3,4h271v53H3V4z"/>
	<text id="Text_0" transform="matrix(1 0 0 1 42.5 52)" font-family="'SimSun'" font-size="26px">192.168.123.123</text>
</g>
<g>
	<path fill="#697C8A" d="M79.9,99.8H60.4c-3.7,0-7.1-2.9-7.1-7.1l0,0c0-3.7,2.9-7.1,7.1-7.1h19.6c3.7,0,7.1,2.9,7.1,7.1l0,0
		C87,96.5,83.7,99.8,79.9,99.8z"/>
	<path fill="#697C8A" d="M214.8,99.8h-19.6c-3.7,0-7.1-2.9-7.1-7.1l0,0c0-3.7,2.9-7.1,7.1-7.1h19.6c3.7,0,7.1,2.9,7.1,7.1l0,0
		C221.9,96.5,218.5,99.8,214.8,99.8z"/>
	<path fill="#B4B4B4" d="M247.2,238H37.1c-2.9,0-7.9-3.3-10.4-8.3l5-124.4c0-2.9,2.5-5.4,5.4-5.4l205.2-5
		c6.7,2.1,10.4,7.5,10.4,10.4v127.3C252.7,235.5,250.2,238,247.2,238z"/>
	<g>
		
			<linearGradient id="SVGID_4_" gradientUnits="userSpaceOnUse" x1="216.7746" y1="44.0962" x2="236.4385" y2="44.0962" gradientTransform="matrix(1 0 0 -1 0 280)">
			<stop  offset="0" style="stop-color:#8C7A6C"/>
			<stop  offset="2.688172e-02" style="stop-color:#675548"/>
			<stop  offset="0.5161" style="stop-color:#FFFFFF"/>
			<stop  offset="0.9301" style="stop-color:#817268"/>
			<stop  offset="1" style="stop-color:#97806F"/>
		</linearGradient>
		<rect x="216.9" y="229.7" fill="url(#SVGID_4_)" width="19.6" height="12.5"/>
		
			<linearGradient id="SVGID_5_" gradientUnits="userSpaceOnUse" x1="214.3167" y1="35.3567" x2="238.8964" y2="35.3567" gradientTransform="matrix(1 0 0 -1 0 280)">
			<stop  offset="0" style="stop-color:#2A2520"/>
			<stop  offset="2.688172e-02" style="stop-color:#40342C"/>
			<stop  offset="0.5161" style="stop-color:#EFEFEF"/>
			<stop  offset="0.9301" style="stop-color:#3F3832"/>
			<stop  offset="1" style="stop-color:#2A241F"/>
		</linearGradient>
		<ellipse fill="url(#SVGID_5_)" cx="226.4" cy="244.6" rx="12.5" ry="2.5"/>
		
			<linearGradient id="SVGID_6_" gradientUnits="userSpaceOnUse" x1="216.7746" y1="35.3567" x2="236.4385" y2="35.3567" gradientTransform="matrix(1 0 0 -1 0 280)">
			<stop  offset="0" style="stop-color:#2A2520"/>
			<stop  offset="2.688172e-02" style="stop-color:#40342C"/>
			<stop  offset="0.5161" style="stop-color:#EFEFEF"/>
			<stop  offset="0.9301" style="stop-color:#3F3832"/>
			<stop  offset="1" style="stop-color:#2A241F"/>
		</linearGradient>
		<polygon fill="url(#SVGID_6_)" points="233.9,247.1 219.4,247.1 216.9,242.1 236.4,242.1 		"/>
		
			<linearGradient id="SVGID_7_" gradientUnits="userSpaceOnUse" x1="226.6407" y1="33.0582" x2="226.6407" y2="37.9739" gradientTransform="matrix(1 0 0 -1 0 280)">
			<stop  offset="0.7366" style="stop-color:#2A241F;stop-opacity:0"/>
			<stop  offset="1" style="stop-color:#2A241F;stop-opacity:0.2"/>
		</linearGradient>
		<polygon fill="url(#SVGID_7_)" points="233.9,247.1 219.4,247.1 216.9,242.1 236.4,242.1 		"/>
		
			<linearGradient id="SVGID_8_" gradientUnits="userSpaceOnUse" x1="226.6407" y1="37.9739" x2="226.6407" y2="33.0582" gradientTransform="matrix(1 0 0 -1 0 280)">
			<stop  offset="0.5215" style="stop-color:#2A241F;stop-opacity:0"/>
			<stop  offset="1" style="stop-color:#2A241F;stop-opacity:0.5"/>
		</linearGradient>
		<polygon fill="url(#SVGID_8_)" points="233.9,247.1 219.4,247.1 216.9,242.1 236.4,242.1 		"/>
		
			<linearGradient id="SVGID_9_" gradientUnits="userSpaceOnUse" x1="221.6908" y1="30.3627" x2="231.5227" y2="30.3627" gradientTransform="matrix(1 0 0 -1 0 280)">
			<stop  offset="0" style="stop-color:#8C7A6C"/>
			<stop  offset="2.688172e-02" style="stop-color:#675548"/>
			<stop  offset="0.5161" style="stop-color:#FFFFFF"/>
			<stop  offset="0.9301" style="stop-color:#817268"/>
			<stop  offset="1" style="stop-color:#97806F"/>
		</linearGradient>
		<rect x="221.9" y="247.1" fill="url(#SVGID_9_)" width="10" height="5"/>
		
			<linearGradient id="SVGID_10_" gradientUnits="userSpaceOnUse" x1="231.5227" y1="31.8192" x2="238.8964" y2="31.8192" gradientTransform="matrix(1 0 0 -1 0 280)">
			<stop  offset="0" style="stop-color:#8C7A6C"/>
			<stop  offset="0.2151" style="stop-color:#DADADA"/>
			<stop  offset="1" style="stop-color:#4E473F"/>
		</linearGradient>
		<polygon fill="url(#SVGID_10_)" points="238.9,249.2 231.4,251.7 231.4,247.1 238.9,244.6 		"/>
		
			<linearGradient id="SVGID_11_" gradientUnits="userSpaceOnUse" x1="441.3091" y1="31.8192" x2="448.6833" y2="31.8192" gradientTransform="matrix(-1 0 0 -1 663 280)">
			<stop  offset="0" style="stop-color:#8C7A6C"/>
			<stop  offset="2.688172e-02" style="stop-color:#675548"/>
			<stop  offset="0.5161" style="stop-color:#FFFFFF"/>
			<stop  offset="0.9301" style="stop-color:#817268"/>
			<stop  offset="1" style="stop-color:#97806F"/>
		</linearGradient>
		<polygon fill="url(#SVGID_11_)" points="214.4,249.2 221.9,251.7 221.9,247.1 214.4,244.6 		"/>
	</g>
	<g>
		
			<linearGradient id="SVGID_12_" gradientUnits="userSpaceOnUse" x1="173.76" y1="44.0962" x2="193.4239" y2="44.0962" gradientTransform="matrix(1 0 0 -1 0 280)">
			<stop  offset="0" style="stop-color:#8C7A6C"/>
			<stop  offset="2.688172e-02" style="stop-color:#675548"/>
			<stop  offset="0.5161" style="stop-color:#FFFFFF"/>
			<stop  offset="0.9301" style="stop-color:#817268"/>
			<stop  offset="1" style="stop-color:#97806F"/>
		</linearGradient>
		<rect x="173.6" y="229.7" fill="url(#SVGID_12_)" width="19.6" height="12.5"/>
		
			<linearGradient id="SVGID_13_" gradientUnits="userSpaceOnUse" x1="171.3022" y1="35.3567" x2="195.8818" y2="35.3567" gradientTransform="matrix(1 0 0 -1 0 280)">
			<stop  offset="0" style="stop-color:#2A2520"/>
			<stop  offset="2.688172e-02" style="stop-color:#40342C"/>
			<stop  offset="0.5161" style="stop-color:#EFEFEF"/>
			<stop  offset="0.9301" style="stop-color:#3F3832"/>
			<stop  offset="1" style="stop-color:#2A241F"/>
		</linearGradient>
		<ellipse fill="url(#SVGID_13_)" cx="183.6" cy="244.6" rx="12.5" ry="2.5"/>
		
			<linearGradient id="SVGID_14_" gradientUnits="userSpaceOnUse" x1="173.76" y1="35.3567" x2="193.4239" y2="35.3567" gradientTransform="matrix(1 0 0 -1 0 280)">
			<stop  offset="0" style="stop-color:#2A2520"/>
			<stop  offset="2.688172e-02" style="stop-color:#40342C"/>
			<stop  offset="0.5161" style="stop-color:#EFEFEF"/>
			<stop  offset="0.9301" style="stop-color:#3F3832"/>
			<stop  offset="1" style="stop-color:#2A241F"/>
		</linearGradient>
		<polygon fill="url(#SVGID_14_)" points="191.1,247.1 176.1,247.1 173.6,242.1 193.6,242.1 		"/>
		
			<linearGradient id="SVGID_15_" gradientUnits="userSpaceOnUse" x1="183.5674" y1="33.0582" x2="183.5674" y2="37.9739" gradientTransform="matrix(1 0 0 -1 0 280)">
			<stop  offset="0.7366" style="stop-color:#2A241F;stop-opacity:0"/>
			<stop  offset="1" style="stop-color:#2A241F;stop-opacity:0.2"/>
		</linearGradient>
		<polygon fill="url(#SVGID_15_)" points="191.1,247.1 176.1,247.1 173.6,242.1 193.6,242.1 		"/>
		
			<linearGradient id="SVGID_16_" gradientUnits="userSpaceOnUse" x1="183.5674" y1="37.9739" x2="183.5674" y2="33.0582" gradientTransform="matrix(1 0 0 -1 0 280)">
			<stop  offset="0.5215" style="stop-color:#2A241F;stop-opacity:0"/>
			<stop  offset="1" style="stop-color:#2A241F;stop-opacity:0.5"/>
		</linearGradient>
		<polygon fill="url(#SVGID_16_)" points="191.1,247.1 176.1,247.1 173.6,242.1 193.6,242.1 		"/>
		
			<linearGradient id="SVGID_17_" gradientUnits="userSpaceOnUse" x1="178.6758" y1="30.3627" x2="188.5077" y2="30.3627" gradientTransform="matrix(1 0 0 -1 0 280)">
			<stop  offset="0" style="stop-color:#8C7A6C"/>
			<stop  offset="2.688172e-02" style="stop-color:#675548"/>
			<stop  offset="0.5161" style="stop-color:#FFFFFF"/>
			<stop  offset="0.9301" style="stop-color:#817268"/>
			<stop  offset="1" style="stop-color:#97806F"/>
		</linearGradient>
		<rect x="178.6" y="247.1" fill="url(#SVGID_17_)" width="10" height="5"/>
		
			<linearGradient id="SVGID_18_" gradientUnits="userSpaceOnUse" x1="188.5077" y1="31.8192" x2="195.8818" y2="31.8192" gradientTransform="matrix(1 0 0 -1 0 280)">
			<stop  offset="0" style="stop-color:#8C7A6C"/>
			<stop  offset="0.2151" style="stop-color:#DADADA"/>
			<stop  offset="1" style="stop-color:#4E473F"/>
		</linearGradient>
		<polygon fill="url(#SVGID_18_)" points="196.1,249.2 188.6,251.7 188.6,247.1 196.1,244.6 		"/>
		
			<linearGradient id="SVGID_19_" gradientUnits="userSpaceOnUse" x1="484.3242" y1="31.8192" x2="491.6978" y2="31.8192" gradientTransform="matrix(-1 0 0 -1 663 280)">
			<stop  offset="0" style="stop-color:#8C7A6C"/>
			<stop  offset="2.688172e-02" style="stop-color:#675548"/>
			<stop  offset="0.5161" style="stop-color:#FFFFFF"/>
			<stop  offset="0.9301" style="stop-color:#817268"/>
			<stop  offset="1" style="stop-color:#97806F"/>
		</linearGradient>
		<polygon fill="url(#SVGID_19_)" points="171.5,249.2 178.6,251.7 178.6,247.1 171.5,244.6 		"/>
	</g>
	<g>
		
			<linearGradient id="SVGID_20_" gradientUnits="userSpaceOnUse" x1="130.7455" y1="44.0962" x2="150.4093" y2="44.0962" gradientTransform="matrix(1 0 0 -1 0 280)">
			<stop  offset="0" style="stop-color:#8C7A6C"/>
			<stop  offset="2.688172e-02" style="stop-color:#675548"/>
			<stop  offset="0.5161" style="stop-color:#FFFFFF"/>
			<stop  offset="0.9301" style="stop-color:#817268"/>
			<stop  offset="1" style="stop-color:#97806F"/>
		</linearGradient>
		<rect x="130.7" y="229.7" fill="url(#SVGID_20_)" width="19.6" height="12.5"/>
		
			<linearGradient id="SVGID_21_" gradientUnits="userSpaceOnUse" x1="128.2876" y1="35.3567" x2="152.8672" y2="35.3567" gradientTransform="matrix(1 0 0 -1 0 280)">
			<stop  offset="0" style="stop-color:#2A2520"/>
			<stop  offset="2.688172e-02" style="stop-color:#40342C"/>
			<stop  offset="0.5161" style="stop-color:#EFEFEF"/>
			<stop  offset="0.9301" style="stop-color:#3F3832"/>
			<stop  offset="1" style="stop-color:#2A241F"/>
		</linearGradient>
		<ellipse fill="url(#SVGID_21_)" cx="140.7" cy="244.6" rx="12.5" ry="2.5"/>
		
			<linearGradient id="SVGID_22_" gradientUnits="userSpaceOnUse" x1="130.7455" y1="35.3567" x2="150.4093" y2="35.3567" gradientTransform="matrix(1 0 0 -1 0 280)">
			<stop  offset="0" style="stop-color:#2A2520"/>
			<stop  offset="2.688172e-02" style="stop-color:#40342C"/>
			<stop  offset="0.5161" style="stop-color:#EFEFEF"/>
			<stop  offset="0.9301" style="stop-color:#3F3832"/>
			<stop  offset="1" style="stop-color:#2A241F"/>
		</linearGradient>
		<polygon fill="url(#SVGID_22_)" points="147.8,247.1 133.2,247.1 130.7,242.1 150.3,242.1 		"/>
		
			<linearGradient id="SVGID_23_" gradientUnits="userSpaceOnUse" x1="140.4942" y1="33.0582" x2="140.4942" y2="37.9739" gradientTransform="matrix(1 0 0 -1 0 280)">
			<stop  offset="0.7366" style="stop-color:#2A241F;stop-opacity:0"/>
			<stop  offset="1" style="stop-color:#2A241F;stop-opacity:0.2"/>
		</linearGradient>
		<polygon fill="url(#SVGID_23_)" points="147.8,247.1 133.2,247.1 130.7,242.1 150.3,242.1 		"/>
		
			<linearGradient id="SVGID_24_" gradientUnits="userSpaceOnUse" x1="140.4942" y1="37.9739" x2="140.4942" y2="33.0582" gradientTransform="matrix(1 0 0 -1 0 280)">
			<stop  offset="0.5215" style="stop-color:#2A241F;stop-opacity:0"/>
			<stop  offset="1" style="stop-color:#2A241F;stop-opacity:0.5"/>
		</linearGradient>
		<polygon fill="url(#SVGID_24_)" points="147.8,247.1 133.2,247.1 130.7,242.1 150.3,242.1 		"/>
		
			<linearGradient id="SVGID_25_" gradientUnits="userSpaceOnUse" x1="135.6612" y1="30.3627" x2="145.4932" y2="30.3627" gradientTransform="matrix(1 0 0 -1 0 280)">
			<stop  offset="0" style="stop-color:#8C7A6C"/>
			<stop  offset="2.688172e-02" style="stop-color:#675548"/>
			<stop  offset="0.5161" style="stop-color:#FFFFFF"/>
			<stop  offset="0.9301" style="stop-color:#817268"/>
			<stop  offset="1" style="stop-color:#97806F"/>
		</linearGradient>
		<rect x="135.7" y="247.1" fill="url(#SVGID_25_)" width="10" height="5"/>
		
			<linearGradient id="SVGID_26_" gradientUnits="userSpaceOnUse" x1="145.4932" y1="31.8192" x2="152.8672" y2="31.8192" gradientTransform="matrix(1 0 0 -1 0 280)">
			<stop  offset="0" style="stop-color:#8C7A6C"/>
			<stop  offset="0.2151" style="stop-color:#DADADA"/>
			<stop  offset="1" style="stop-color:#4E473F"/>
		</linearGradient>
		<polygon fill="url(#SVGID_26_)" points="152.8,249.2 145.7,251.7 145.7,247.1 152.8,244.6 		"/>
		
			<linearGradient id="SVGID_27_" gradientUnits="userSpaceOnUse" x1="527.3387" y1="31.8192" x2="534.7125" y2="31.8192" gradientTransform="matrix(-1 0 0 -1 663 280)">
			<stop  offset="0" style="stop-color:#8C7A6C"/>
			<stop  offset="2.688172e-02" style="stop-color:#675548"/>
			<stop  offset="0.5161" style="stop-color:#FFFFFF"/>
			<stop  offset="0.9301" style="stop-color:#817268"/>
			<stop  offset="1" style="stop-color:#97806F"/>
		</linearGradient>
		<polygon fill="url(#SVGID_27_)" points="128.2,249.2 135.7,251.7 135.7,247.1 128.2,244.6 		"/>
	</g>
	<g>
		
			<linearGradient id="SVGID_28_" gradientUnits="userSpaceOnUse" x1="91.5101" y1="45.5528" x2="106.9952" y2="45.5528" gradientTransform="matrix(1 0 0 -1 0 280)">
			<stop  offset="0" style="stop-color:#8C7A6C"/>
			<stop  offset="2.688172e-02" style="stop-color:#675548"/>
			<stop  offset="0.5161" style="stop-color:#FFFFFF"/>
			<stop  offset="0.9301" style="stop-color:#817268"/>
			<stop  offset="1" style="stop-color:#97806F"/>
		</linearGradient>
		<rect x="91.6" y="229.7" fill="url(#SVGID_28_)" width="15.4" height="9.6"/>
		
			<linearGradient id="SVGID_29_" gradientUnits="userSpaceOnUse" x1="89.5741" y1="38.686" x2="108.9308" y2="38.686" gradientTransform="matrix(1 0 0 -1 0 280)">
			<stop  offset="0" style="stop-color:#2A2520"/>
			<stop  offset="2.688172e-02" style="stop-color:#40342C"/>
			<stop  offset="0.5161" style="stop-color:#EFEFEF"/>
			<stop  offset="0.9301" style="stop-color:#3F3832"/>
			<stop  offset="1" style="stop-color:#2A241F"/>
		</linearGradient>
		<ellipse fill="url(#SVGID_29_)" cx="99.1" cy="241.3" rx="9.6" ry="2.1"/>
		
			<linearGradient id="SVGID_30_" gradientUnits="userSpaceOnUse" x1="91.5101" y1="38.686" x2="106.9952" y2="38.686" gradientTransform="matrix(1 0 0 -1 0 280)">
			<stop  offset="0" style="stop-color:#2A2520"/>
			<stop  offset="2.688172e-02" style="stop-color:#40342C"/>
			<stop  offset="0.5161" style="stop-color:#EFEFEF"/>
			<stop  offset="0.9301" style="stop-color:#3F3832"/>
			<stop  offset="1" style="stop-color:#2A241F"/>
		</linearGradient>
		<polygon fill="url(#SVGID_30_)" points="104.9,243.4 93.3,243.4 91.6,239.2 107,239.2 		"/>
		
			<linearGradient id="SVGID_31_" gradientUnits="userSpaceOnUse" x1="99.2937" y1="36.7142" x2="99.2937" y2="40.5858" gradientTransform="matrix(1 0 0 -1 0 280)">
			<stop  offset="0.7366" style="stop-color:#2A241F;stop-opacity:0"/>
			<stop  offset="1" style="stop-color:#2A241F;stop-opacity:0.2"/>
		</linearGradient>
		<polygon fill="url(#SVGID_31_)" points="104.9,243.4 93.3,243.4 91.6,239.2 107,239.2 		"/>
		
			<linearGradient id="SVGID_32_" gradientUnits="userSpaceOnUse" x1="99.2937" y1="40.5858" x2="99.2937" y2="36.7142" gradientTransform="matrix(1 0 0 -1 0 280)">
			<stop  offset="0.5215" style="stop-color:#2A241F;stop-opacity:0"/>
			<stop  offset="1" style="stop-color:#2A241F;stop-opacity:0.5"/>
		</linearGradient>
		<polygon fill="url(#SVGID_32_)" points="104.9,243.4 93.3,243.4 91.6,239.2 107,239.2 		"/>
		
			<linearGradient id="SVGID_33_" gradientUnits="userSpaceOnUse" x1="95.3813" y1="34.7324" x2="103.1236" y2="34.7324" gradientTransform="matrix(1 0 0 -1 0 280)">
			<stop  offset="0" style="stop-color:#8C7A6C"/>
			<stop  offset="2.688172e-02" style="stop-color:#675548"/>
			<stop  offset="0.5161" style="stop-color:#FFFFFF"/>
			<stop  offset="0.9301" style="stop-color:#817268"/>
			<stop  offset="1" style="stop-color:#97806F"/>
		</linearGradient>
		<rect x="95.3" y="243.4" fill="url(#SVGID_33_)" width="7.9" height="3.7"/>
		
			<linearGradient id="SVGID_34_" gradientUnits="userSpaceOnUse" x1="103.1236" y1="35.7728" x2="108.9308" y2="35.7728" gradientTransform="matrix(1 0 0 -1 0 280)">
			<stop  offset="0" style="stop-color:#8C7A6C"/>
			<stop  offset="0.2151" style="stop-color:#DADADA"/>
			<stop  offset="1" style="stop-color:#4E473F"/>
		</linearGradient>
		<polygon fill="url(#SVGID_34_)" points="109.1,245.1 103.2,247.1 103.2,243.4 109.1,241.3 		"/>
		
			<linearGradient id="SVGID_35_" gradientUnits="userSpaceOnUse" x1="567.6187" y1="35.7728" x2="573.426" y2="35.7728" gradientTransform="matrix(-1 0 0 -1 663 280)">
			<stop  offset="0" style="stop-color:#8C7A6C"/>
			<stop  offset="2.688172e-02" style="stop-color:#675548"/>
			<stop  offset="0.5161" style="stop-color:#FFFFFF"/>
			<stop  offset="0.9301" style="stop-color:#817268"/>
			<stop  offset="1" style="stop-color:#97806F"/>
		</linearGradient>
		<polygon fill="url(#SVGID_35_)" points="89.5,245.1 95.3,247.1 95.3,243.4 89.5,241.3 		"/>
	</g>
	<g>
		
			<linearGradient id="SVGID_36_" gradientUnits="userSpaceOnUse" x1="50.0316" y1="45.5528" x2="65.5167" y2="45.5528" gradientTransform="matrix(1 0 0 -1 0 280)">
			<stop  offset="0" style="stop-color:#8C7A6C"/>
			<stop  offset="2.688172e-02" style="stop-color:#675548"/>
			<stop  offset="0.5161" style="stop-color:#FFFFFF"/>
			<stop  offset="0.9301" style="stop-color:#817268"/>
			<stop  offset="1" style="stop-color:#97806F"/>
		</linearGradient>
		<rect x="50" y="229.7" fill="url(#SVGID_36_)" width="15.4" height="9.6"/>
		
			<linearGradient id="SVGID_37_" gradientUnits="userSpaceOnUse" x1="48.096" y1="38.686" x2="67.4523" y2="38.686" gradientTransform="matrix(1 0 0 -1 0 280)">
			<stop  offset="0" style="stop-color:#2A2520"/>
			<stop  offset="2.688172e-02" style="stop-color:#40342C"/>
			<stop  offset="0.5161" style="stop-color:#EFEFEF"/>
			<stop  offset="0.9301" style="stop-color:#3F3832"/>
			<stop  offset="1" style="stop-color:#2A241F"/>
		</linearGradient>
		<ellipse fill="url(#SVGID_37_)" cx="57.9" cy="241.3" rx="9.6" ry="2.1"/>
		
			<linearGradient id="SVGID_38_" gradientUnits="userSpaceOnUse" x1="50.0316" y1="38.686" x2="65.5167" y2="38.686" gradientTransform="matrix(1 0 0 -1 0 280)">
			<stop  offset="0" style="stop-color:#2A2520"/>
			<stop  offset="2.688172e-02" style="stop-color:#40342C"/>
			<stop  offset="0.5161" style="stop-color:#EFEFEF"/>
			<stop  offset="0.9301" style="stop-color:#3F3832"/>
			<stop  offset="1" style="stop-color:#2A241F"/>
		</linearGradient>
		<polygon fill="url(#SVGID_38_)" points="63.7,243.4 52.1,243.4 50,239.2 65.4,239.2 		"/>
		
			<linearGradient id="SVGID_39_" gradientUnits="userSpaceOnUse" x1="57.677" y1="36.7142" x2="57.677" y2="40.5858" gradientTransform="matrix(1 0 0 -1 0 280)">
			<stop  offset="0.7366" style="stop-color:#2A241F;stop-opacity:0"/>
			<stop  offset="1" style="stop-color:#2A241F;stop-opacity:0.2"/>
		</linearGradient>
		<polygon fill="url(#SVGID_39_)" points="63.7,243.4 52.1,243.4 50,239.2 65.4,239.2 		"/>
		
			<linearGradient id="SVGID_40_" gradientUnits="userSpaceOnUse" x1="57.677" y1="40.5858" x2="57.677" y2="36.7142" gradientTransform="matrix(1 0 0 -1 0 280)">
			<stop  offset="0.5215" style="stop-color:#2A241F;stop-opacity:0"/>
			<stop  offset="1" style="stop-color:#2A241F;stop-opacity:0.5"/>
		</linearGradient>
		<polygon fill="url(#SVGID_40_)" points="63.7,243.4 52.1,243.4 50,239.2 65.4,239.2 		"/>
		
			<linearGradient id="SVGID_41_" gradientUnits="userSpaceOnUse" x1="53.9028" y1="34.7324" x2="61.6456" y2="34.7324" gradientTransform="matrix(1 0 0 -1 0 280)">
			<stop  offset="0" style="stop-color:#8C7A6C"/>
			<stop  offset="2.688172e-02" style="stop-color:#675548"/>
			<stop  offset="0.5161" style="stop-color:#FFFFFF"/>
			<stop  offset="0.9301" style="stop-color:#817268"/>
			<stop  offset="1" style="stop-color:#97806F"/>
		</linearGradient>
		<rect x="53.7" y="243.4" fill="url(#SVGID_41_)" width="7.9" height="3.7"/>
		
			<linearGradient id="SVGID_42_" gradientUnits="userSpaceOnUse" x1="61.6456" y1="35.7728" x2="67.4523" y2="35.7728" gradientTransform="matrix(1 0 0 -1 0 280)">
			<stop  offset="0" style="stop-color:#8C7A6C"/>
			<stop  offset="0.2151" style="stop-color:#DADADA"/>
			<stop  offset="1" style="stop-color:#4E473F"/>
		</linearGradient>
		<polygon fill="url(#SVGID_42_)" points="67.5,245.1 61.6,247.1 61.6,243.4 67.5,241.3 		"/>
		
			<linearGradient id="SVGID_43_" gradientUnits="userSpaceOnUse" x1="609.0972" y1="35.7728" x2="614.9039" y2="35.7728" gradientTransform="matrix(-1 0 0 -1 663 280)">
			<stop  offset="0" style="stop-color:#8C7A6C"/>
			<stop  offset="2.688172e-02" style="stop-color:#675548"/>
			<stop  offset="0.5161" style="stop-color:#FFFFFF"/>
			<stop  offset="0.9301" style="stop-color:#817268"/>
			<stop  offset="1" style="stop-color:#97806F"/>
		</linearGradient>
		<polygon fill="url(#SVGID_43_)" points="47.9,245.1 53.7,247.1 53.7,243.4 47.9,241.3 		"/>
	</g>
	<g>
		
			<linearGradient id="SVGID_44_" gradientUnits="userSpaceOnUse" x1="251.4162" y1="-63.6361" x2="270.7725" y2="-63.6361" gradientTransform="matrix(4.489700e-11 1 1 -4.489700e-11 83.65 -143.35)">
			<stop  offset="0" style="stop-color:#2A2520"/>
			<stop  offset="2.688172e-02" style="stop-color:#40342C"/>
			<stop  offset="0.5161" style="stop-color:#EFEFEF"/>
			<stop  offset="0.9301" style="stop-color:#3F3832"/>
			<stop  offset="1" style="stop-color:#2A241F"/>
		</linearGradient>
		<ellipse fill="url(#SVGID_44_)" cx="20" cy="117.7" rx="2.1" ry="9.6"/>
		
			<linearGradient id="SVGID_45_" gradientUnits="userSpaceOnUse" x1="253.3518" y1="-63.8442" x2="268.8369" y2="-63.8442" gradientTransform="matrix(4.489700e-11 1 1 -4.489700e-11 83.65 -143.35)">
			<stop  offset="0" style="stop-color:#2A2520"/>
			<stop  offset="2.688172e-02" style="stop-color:#40342C"/>
			<stop  offset="0.5161" style="stop-color:#EFEFEF"/>
			<stop  offset="0.9301" style="stop-color:#3F3832"/>
			<stop  offset="1" style="stop-color:#2A241F"/>
		</linearGradient>
		<polygon fill="url(#SVGID_45_)" points="17.9,123.5 17.9,111.9 21.7,109.8 21.7,125.6 		"/>
		
			<linearGradient id="SVGID_46_" gradientUnits="userSpaceOnUse" x1="253.3518" y1="-57.8097" x2="268.8369" y2="-57.8097" gradientTransform="matrix(4.489700e-11 1 1 -4.489700e-11 83.65 -143.35)">
			<stop  offset="0" style="stop-color:#8C7A6C"/>
			<stop  offset="2.688172e-02" style="stop-color:#A38773"/>
			<stop  offset="0.5161" style="stop-color:#FFFFFF"/>
			<stop  offset="0.9301" style="stop-color:#A49184"/>
			<stop  offset="1" style="stop-color:#97806F"/>
		</linearGradient>
		<path fill="url(#SVGID_46_)" d="M21.7,125.6c0,0-1.2-4.6-1.2-6.2c0-2.1,1.2-9.2,1.2-9.2h9.6v15.4H21.7z"/>
		
			<linearGradient id="SVGID_47_" gradientUnits="userSpaceOnUse" x1="261.0625" y1="-65.6953" x2="261.0625" y2="-61.8237" gradientTransform="matrix(4.489700e-11 1 1 -4.489700e-11 83.65 -143.35)">
			<stop  offset="0.7366" style="stop-color:#2A241F;stop-opacity:0"/>
			<stop  offset="1" style="stop-color:#2A241F;stop-opacity:0.2"/>
		</linearGradient>
		<polygon fill="url(#SVGID_47_)" points="17.9,123.5 17.9,111.9 21.7,109.8 21.7,125.6 		"/>
		
			<linearGradient id="SVGID_48_" gradientUnits="userSpaceOnUse" x1="261.0625" y1="-61.8237" x2="261.0625" y2="-65.6953" gradientTransform="matrix(4.489700e-11 1 1 -4.489700e-11 83.65 -143.35)">
			<stop  offset="0.5215" style="stop-color:#2A241F;stop-opacity:0"/>
			<stop  offset="1" style="stop-color:#2A241F;stop-opacity:0.5"/>
		</linearGradient>
		<polygon fill="url(#SVGID_48_)" points="17.9,123.5 17.9,111.9 21.7,109.8 21.7,125.6 		"/>
		
			<linearGradient id="SVGID_49_" gradientUnits="userSpaceOnUse" x1="257.2229" y1="-67.5897" x2="264.9657" y2="-67.5897" gradientTransform="matrix(4.489700e-11 1 1 -4.489700e-11 83.65 -143.35)">
			<stop  offset="2.688172e-02" style="stop-color:#BB9B83"/>
			<stop  offset="0.5161" style="stop-color:#FFFFFF"/>
			<stop  offset="1" style="stop-color:#BCA797"/>
		</linearGradient>
		<polygon fill="url(#SVGID_49_)" points="14.2,121.5 14.2,114 17.9,114 17.9,121.5 		"/>
		
			<linearGradient id="SVGID_50_" gradientUnits="userSpaceOnUse" x1="264.9657" y1="-66.5492" x2="270.7725" y2="-66.5492" gradientTransform="matrix(4.489700e-11 1 1 -4.489700e-11 83.65 -143.35)">
			<stop  offset="0" style="stop-color:#BCA28D"/>
			<stop  offset="0.2151" style="stop-color:#DADADA"/>
			<stop  offset="1" style="stop-color:#897D6F"/>
		</linearGradient>
		<polygon fill="url(#SVGID_50_)" points="15.9,127.3 14.2,121.5 17.9,121.5 20,127.3 		"/>
		
			<linearGradient id="SVGID_51_" gradientUnits="userSpaceOnUse" x1="405.777" y1="-66.5492" x2="411.5839" y2="-66.5492" gradientTransform="matrix(0 -1 1 0 83.65 519.65)">
			<stop  offset="0" style="stop-color:#BB9B83"/>
			<stop  offset="0.5161" style="stop-color:#FFFFFF"/>
			<stop  offset="0.9301" style="stop-color:#BCA697"/>
			<stop  offset="1" style="stop-color:#97806F"/>
		</linearGradient>
		<polygon fill="url(#SVGID_51_)" points="15.9,108.1 14.2,114 17.9,114 20,108.1 		"/>
	</g>
	<g>
		
			<linearGradient id="SVGID_52_" gradientUnits="userSpaceOnUse" x1="298.4247" y1="-63.6361" x2="317.7814" y2="-63.6361" gradientTransform="matrix(4.489700e-11 1 1 -4.489700e-11 83.65 -143.35)">
			<stop  offset="0" style="stop-color:#2A2520"/>
			<stop  offset="2.688172e-02" style="stop-color:#40342C"/>
			<stop  offset="0.5161" style="stop-color:#EFEFEF"/>
			<stop  offset="0.9301" style="stop-color:#3F3832"/>
			<stop  offset="1" style="stop-color:#2A241F"/>
		</linearGradient>
		<ellipse fill="url(#SVGID_52_)" cx="20" cy="164.7" rx="2.1" ry="9.6"/>
		
			<linearGradient id="SVGID_53_" gradientUnits="userSpaceOnUse" x1="300.3607" y1="-63.8442" x2="315.8459" y2="-63.8442" gradientTransform="matrix(4.489700e-11 1 1 -4.489700e-11 83.65 -143.35)">
			<stop  offset="0" style="stop-color:#2A2520"/>
			<stop  offset="2.688172e-02" style="stop-color:#40342C"/>
			<stop  offset="0.5161" style="stop-color:#EFEFEF"/>
			<stop  offset="0.9301" style="stop-color:#3F3832"/>
			<stop  offset="1" style="stop-color:#2A241F"/>
		</linearGradient>
		<polygon fill="url(#SVGID_53_)" points="17.9,170.6 17.9,158.9 21.7,156.8 21.7,172.6 		"/>
		
			<linearGradient id="SVGID_54_" gradientUnits="userSpaceOnUse" x1="300.3607" y1="-57.8097" x2="315.8459" y2="-57.8097" gradientTransform="matrix(4.489700e-11 1 1 -4.489700e-11 83.65 -143.35)">
			<stop  offset="0" style="stop-color:#8C7A6C"/>
			<stop  offset="2.688172e-02" style="stop-color:#A38773"/>
			<stop  offset="0.5161" style="stop-color:#FFFFFF"/>
			<stop  offset="0.9301" style="stop-color:#A49184"/>
			<stop  offset="1" style="stop-color:#97806F"/>
		</linearGradient>
		<path fill="url(#SVGID_54_)" d="M21.7,172.6c0,0-1.2-4.6-1.2-6.2c0-2.1,1.2-9.2,1.2-9.2h9.6v15.4H21.7z"/>
		
			<linearGradient id="SVGID_55_" gradientUnits="userSpaceOnUse" x1="308.0893" y1="-65.6953" x2="308.0893" y2="-61.8237" gradientTransform="matrix(4.489700e-11 1 1 -4.489700e-11 83.65 -143.35)">
			<stop  offset="0.7366" style="stop-color:#2A241F;stop-opacity:0"/>
			<stop  offset="1" style="stop-color:#2A241F;stop-opacity:0.2"/>
		</linearGradient>
		<polygon fill="url(#SVGID_55_)" points="17.9,170.6 17.9,158.9 21.7,156.8 21.7,172.6 		"/>
		
			<linearGradient id="SVGID_56_" gradientUnits="userSpaceOnUse" x1="308.0893" y1="-61.8237" x2="308.0893" y2="-65.6953" gradientTransform="matrix(4.489700e-11 1 1 -4.489700e-11 83.65 -143.35)">
			<stop  offset="0.5215" style="stop-color:#2A241F;stop-opacity:0"/>
			<stop  offset="1" style="stop-color:#2A241F;stop-opacity:0.5"/>
		</linearGradient>
		<polygon fill="url(#SVGID_56_)" points="17.9,170.6 17.9,158.9 21.7,156.8 21.7,172.6 		"/>
		
			<linearGradient id="SVGID_57_" gradientUnits="userSpaceOnUse" x1="304.2318" y1="-67.5897" x2="311.9746" y2="-67.5897" gradientTransform="matrix(4.489700e-11 1 1 -4.489700e-11 83.65 -143.35)">
			<stop  offset="2.688172e-02" style="stop-color:#BB9B83"/>
			<stop  offset="0.5161" style="stop-color:#FFFFFF"/>
			<stop  offset="1" style="stop-color:#BCA797"/>
		</linearGradient>
		<polygon fill="url(#SVGID_57_)" points="14.2,168.5 14.2,161 17.9,161 17.9,168.5 		"/>
		
			<linearGradient id="SVGID_58_" gradientUnits="userSpaceOnUse" x1="311.9746" y1="-66.5492" x2="317.7814" y2="-66.5492" gradientTransform="matrix(4.489700e-11 1 1 -4.489700e-11 83.65 -143.35)">
			<stop  offset="0" style="stop-color:#BCA28D"/>
			<stop  offset="0.2151" style="stop-color:#DADADA"/>
			<stop  offset="1" style="stop-color:#897D6F"/>
		</linearGradient>
		<polygon fill="url(#SVGID_58_)" points="15.9,174.3 14.2,168.5 17.9,168.5 20,174.3 		"/>
		
			<linearGradient id="SVGID_59_" gradientUnits="userSpaceOnUse" x1="358.7682" y1="-66.5492" x2="364.5753" y2="-66.5492" gradientTransform="matrix(0 -1 1 0 83.65 519.65)">
			<stop  offset="0" style="stop-color:#BB9B83"/>
			<stop  offset="0.5161" style="stop-color:#FFFFFF"/>
			<stop  offset="0.9301" style="stop-color:#BCA697"/>
			<stop  offset="1" style="stop-color:#97806F"/>
		</linearGradient>
		<polygon fill="url(#SVGID_59_)" points="15.9,155.2 14.2,161 17.9,161 20,155.2 		"/>
	</g>
	<g>
		
			<linearGradient id="SVGID_60_" gradientUnits="userSpaceOnUse" x1="342.6686" y1="-63.6361" x2="362.0249" y2="-63.6361" gradientTransform="matrix(4.489700e-11 1 1 -4.489700e-11 83.65 -143.35)">
			<stop  offset="0" style="stop-color:#2A2520"/>
			<stop  offset="2.688172e-02" style="stop-color:#40342C"/>
			<stop  offset="0.5161" style="stop-color:#EFEFEF"/>
			<stop  offset="0.9301" style="stop-color:#3F3832"/>
			<stop  offset="1" style="stop-color:#2A241F"/>
		</linearGradient>
		<ellipse fill="url(#SVGID_60_)" cx="20" cy="208.9" rx="2.1" ry="9.6"/>
		
			<linearGradient id="SVGID_61_" gradientUnits="userSpaceOnUse" x1="344.6042" y1="-63.8442" x2="360.0894" y2="-63.8442" gradientTransform="matrix(4.489700e-11 1 1 -4.489700e-11 83.65 -143.35)">
			<stop  offset="0" style="stop-color:#2A2520"/>
			<stop  offset="2.688172e-02" style="stop-color:#40342C"/>
			<stop  offset="0.5161" style="stop-color:#EFEFEF"/>
			<stop  offset="0.9301" style="stop-color:#3F3832"/>
			<stop  offset="1" style="stop-color:#2A241F"/>
		</linearGradient>
		<polygon fill="url(#SVGID_61_)" points="17.9,214.7 17.9,203 21.7,201.4 21.7,216.8 		"/>
		
			<linearGradient id="SVGID_62_" gradientUnits="userSpaceOnUse" x1="344.6042" y1="-57.8097" x2="360.0894" y2="-57.8097" gradientTransform="matrix(4.489700e-11 1 1 -4.489700e-11 83.65 -143.35)">
			<stop  offset="0" style="stop-color:#8C7A6C"/>
			<stop  offset="2.688172e-02" style="stop-color:#A38773"/>
			<stop  offset="0.5161" style="stop-color:#FFFFFF"/>
			<stop  offset="0.9301" style="stop-color:#A49184"/>
			<stop  offset="1" style="stop-color:#97806F"/>
		</linearGradient>
		<path fill="url(#SVGID_62_)" d="M21.7,216.8c0,0-1.2-4.6-1.2-6.2c0-2.1,1.2-9.2,1.2-9.2h9.6v15.4H21.7z"/>
		
			<linearGradient id="SVGID_63_" gradientUnits="userSpaceOnUse" x1="352.4111" y1="-65.6953" x2="352.4111" y2="-61.8237" gradientTransform="matrix(4.489700e-11 1 1 -4.489700e-11 83.65 -143.35)">
			<stop  offset="0.7366" style="stop-color:#2A241F;stop-opacity:0"/>
			<stop  offset="1" style="stop-color:#2A241F;stop-opacity:0.2"/>
		</linearGradient>
		<polygon fill="url(#SVGID_63_)" points="17.9,214.7 17.9,203 21.7,201.4 21.7,216.8 		"/>
		
			<linearGradient id="SVGID_64_" gradientUnits="userSpaceOnUse" x1="352.4111" y1="-61.8237" x2="352.4111" y2="-65.6953" gradientTransform="matrix(4.489700e-11 1 1 -4.489700e-11 83.65 -143.35)">
			<stop  offset="0.5215" style="stop-color:#2A241F;stop-opacity:0"/>
			<stop  offset="1" style="stop-color:#2A241F;stop-opacity:0.5"/>
		</linearGradient>
		<polygon fill="url(#SVGID_64_)" points="17.9,214.7 17.9,203 21.7,201.4 21.7,216.8 		"/>
		
			<linearGradient id="SVGID_65_" gradientUnits="userSpaceOnUse" x1="348.4754" y1="-67.5897" x2="356.2181" y2="-67.5897" gradientTransform="matrix(4.489700e-11 1 1 -4.489700e-11 83.65 -143.35)">
			<stop  offset="2.688172e-02" style="stop-color:#BB9B83"/>
			<stop  offset="0.5161" style="stop-color:#FFFFFF"/>
			<stop  offset="1" style="stop-color:#BCA797"/>
		</linearGradient>
		<polygon fill="url(#SVGID_65_)" points="14.2,213 14.2,205.1 17.9,205.1 17.9,213 		"/>
		
			<linearGradient id="SVGID_66_" gradientUnits="userSpaceOnUse" x1="356.2181" y1="-66.5492" x2="362.0249" y2="-66.5492" gradientTransform="matrix(4.489700e-11 1 1 -4.489700e-11 83.65 -143.35)">
			<stop  offset="0" style="stop-color:#BCA28D"/>
			<stop  offset="0.2151" style="stop-color:#DADADA"/>
			<stop  offset="1" style="stop-color:#897D6F"/>
		</linearGradient>
		<polygon fill="url(#SVGID_66_)" points="15.9,218.8 14.2,213 17.9,213 20,218.8 		"/>
		
			<linearGradient id="SVGID_67_" gradientUnits="userSpaceOnUse" x1="314.5247" y1="-66.5492" x2="320.3314" y2="-66.5492" gradientTransform="matrix(0 -1 1 0 83.65 519.65)">
			<stop  offset="0" style="stop-color:#BB9B83"/>
			<stop  offset="0.5161" style="stop-color:#FFFFFF"/>
			<stop  offset="0.9301" style="stop-color:#BCA697"/>
			<stop  offset="1" style="stop-color:#97806F"/>
		</linearGradient>
		<polygon fill="url(#SVGID_67_)" points="15.9,199.3 14.2,205.1 17.9,205.1 20,199.3 		"/>
	</g>
	<g>
		
			<linearGradient id="SVGID_68_" gradientUnits="userSpaceOnUse" x1="251.4162" y1="171.9887" x2="270.7725" y2="171.9887" gradientTransform="matrix(-8.979300e-11 1 -1 -8.979300e-11 430.05 -143.35)">
			<stop  offset="0" style="stop-color:#2A2520"/>
			<stop  offset="2.688172e-02" style="stop-color:#40342C"/>
			<stop  offset="0.5161" style="stop-color:#EFEFEF"/>
			<stop  offset="0.9301" style="stop-color:#3F3832"/>
			<stop  offset="1" style="stop-color:#2A241F"/>
		</linearGradient>
		<ellipse fill="url(#SVGID_68_)" cx="258.1" cy="117.7" rx="2.1" ry="9.6"/>
		
			<linearGradient id="SVGID_69_" gradientUnits="userSpaceOnUse" x1="253.3518" y1="172.1968" x2="268.8369" y2="172.1968" gradientTransform="matrix(-8.979300e-11 1 -1 -8.979300e-11 430.05 -143.35)">
			<stop  offset="0" style="stop-color:#2A2520"/>
			<stop  offset="2.688172e-02" style="stop-color:#40342C"/>
			<stop  offset="0.5161" style="stop-color:#EFEFEF"/>
			<stop  offset="0.9301" style="stop-color:#3F3832"/>
			<stop  offset="1" style="stop-color:#2A241F"/>
		</linearGradient>
		<polygon fill="url(#SVGID_69_)" points="259.7,123.5 259.7,111.9 256,109.8 256,125.6 		"/>
		
			<linearGradient id="SVGID_70_" gradientUnits="userSpaceOnUse" x1="253.3518" y1="178.2312" x2="268.8369" y2="178.2312" gradientTransform="matrix(-8.979300e-11 1 -1 -8.979300e-11 430.05 -143.35)">
			<stop  offset="0" style="stop-color:#8C7A6C"/>
			<stop  offset="2.688172e-02" style="stop-color:#A38773"/>
			<stop  offset="0.5161" style="stop-color:#FFFFFF"/>
			<stop  offset="0.9301" style="stop-color:#A49184"/>
			<stop  offset="1" style="stop-color:#97806F"/>
		</linearGradient>
		<path fill="url(#SVGID_70_)" d="M256,125.6c0,0,1.2-4.6,1.2-6.2c0-2.1-1.2-9.2-1.2-9.2h-9.6v15.4H256z"/>
		
			<linearGradient id="SVGID_71_" gradientUnits="userSpaceOnUse" x1="261.0625" y1="170.1376" x2="261.0625" y2="174.0092" gradientTransform="matrix(-8.979300e-11 1 -1 -8.979300e-11 430.05 -143.35)">
			<stop  offset="0.7366" style="stop-color:#2A241F;stop-opacity:0"/>
			<stop  offset="1" style="stop-color:#2A241F;stop-opacity:0.2"/>
		</linearGradient>
		<polygon fill="url(#SVGID_71_)" points="259.7,123.5 259.7,111.9 256,109.8 256,125.6 		"/>
		
			<linearGradient id="SVGID_72_" gradientUnits="userSpaceOnUse" x1="261.0625" y1="174.0092" x2="261.0625" y2="170.1376" gradientTransform="matrix(-8.979300e-11 1 -1 -8.979300e-11 430.05 -143.35)">
			<stop  offset="0.5215" style="stop-color:#2A241F;stop-opacity:0"/>
			<stop  offset="1" style="stop-color:#2A241F;stop-opacity:0.5"/>
		</linearGradient>
		<polygon fill="url(#SVGID_72_)" points="259.7,123.5 259.7,111.9 256,109.8 256,125.6 		"/>
		
			<linearGradient id="SVGID_73_" gradientUnits="userSpaceOnUse" x1="257.2229" y1="168.2433" x2="264.9657" y2="168.2433" gradientTransform="matrix(-8.979300e-11 1 -1 -8.979300e-11 430.05 -143.35)">
			<stop  offset="2.688172e-02" style="stop-color:#BB9B83"/>
			<stop  offset="0.5161" style="stop-color:#FFFFFF"/>
			<stop  offset="1" style="stop-color:#BCA797"/>
		</linearGradient>
		<polygon fill="url(#SVGID_73_)" points="263.9,121.5 263.9,114 259.7,114 259.7,121.5 		"/>
		
			<linearGradient id="SVGID_74_" gradientUnits="userSpaceOnUse" x1="264.9657" y1="169.0756" x2="270.7725" y2="169.0756" gradientTransform="matrix(-8.979300e-11 1 -1 -8.979300e-11 430.05 -143.35)">
			<stop  offset="0" style="stop-color:#BCA28D"/>
			<stop  offset="0.2151" style="stop-color:#DADADA"/>
			<stop  offset="1" style="stop-color:#897D6F"/>
		</linearGradient>
		<polygon fill="url(#SVGID_74_)" points="261.8,127.3 263.9,121.5 259.7,121.5 258.1,127.3 		"/>
		
			<linearGradient id="SVGID_75_" gradientUnits="userSpaceOnUse" x1="405.777" y1="169.0756" x2="411.5839" y2="169.0756" gradientTransform="matrix(4.489700e-11 -1 -1 -4.489700e-11 430.05 519.65)">
			<stop  offset="0" style="stop-color:#BB9B83"/>
			<stop  offset="0.5161" style="stop-color:#FFFFFF"/>
			<stop  offset="0.9301" style="stop-color:#BCA697"/>
			<stop  offset="1" style="stop-color:#97806F"/>
		</linearGradient>
		<polygon fill="url(#SVGID_75_)" points="261.8,108.1 263.9,114 259.7,114 258.1,108.1 		"/>
	</g>
	<g>
		
			<linearGradient id="SVGID_76_" gradientUnits="userSpaceOnUse" x1="309.4856" y1="171.9887" x2="328.8423" y2="171.9887" gradientTransform="matrix(-8.979300e-11 1 -1 -8.979300e-11 430.05 -143.35)">
			<stop  offset="0" style="stop-color:#2A2520"/>
			<stop  offset="2.688172e-02" style="stop-color:#40342C"/>
			<stop  offset="0.5161" style="stop-color:#EFEFEF"/>
			<stop  offset="0.9301" style="stop-color:#3F3832"/>
			<stop  offset="1" style="stop-color:#2A241F"/>
		</linearGradient>
		<ellipse fill="url(#SVGID_76_)" cx="258.1" cy="176" rx="2.1" ry="9.6"/>
		
			<linearGradient id="SVGID_77_" gradientUnits="userSpaceOnUse" x1="311.4187" y1="172.1968" x2="326.9038" y2="172.1968" gradientTransform="matrix(-8.979300e-11 1 -1 -8.979300e-11 430.05 -143.35)">
			<stop  offset="0" style="stop-color:#2A2520"/>
			<stop  offset="2.688172e-02" style="stop-color:#40342C"/>
			<stop  offset="0.5161" style="stop-color:#EFEFEF"/>
			<stop  offset="0.9301" style="stop-color:#3F3832"/>
			<stop  offset="1" style="stop-color:#2A241F"/>
		</linearGradient>
		<polygon fill="url(#SVGID_77_)" points="259.7,181.8 259.7,170.1 256,168.1 256,183.5 		"/>
		
			<linearGradient id="SVGID_78_" gradientUnits="userSpaceOnUse" x1="311.4187" y1="178.2312" x2="326.9038" y2="178.2312" gradientTransform="matrix(-8.979300e-11 1 -1 -8.979300e-11 430.05 -143.35)">
			<stop  offset="0" style="stop-color:#8C7A6C"/>
			<stop  offset="2.688172e-02" style="stop-color:#A38773"/>
			<stop  offset="0.5161" style="stop-color:#FFFFFF"/>
			<stop  offset="0.9301" style="stop-color:#A49184"/>
			<stop  offset="1" style="stop-color:#97806F"/>
		</linearGradient>
		<path fill="url(#SVGID_78_)" d="M256,183.5c0,0,1.2-4.6,1.2-6.2c0-2.1-1.2-9.2-1.2-9.2h-9.6v15.4H256z"/>
		
			<linearGradient id="SVGID_79_" gradientUnits="userSpaceOnUse" x1="319.1177" y1="170.1376" x2="319.1177" y2="174.0092" gradientTransform="matrix(-8.979300e-11 1 -1 -8.979300e-11 430.05 -143.35)">
			<stop  offset="0.7366" style="stop-color:#2A241F;stop-opacity:0"/>
			<stop  offset="1" style="stop-color:#2A241F;stop-opacity:0.2"/>
		</linearGradient>
		<polygon fill="url(#SVGID_79_)" points="259.7,181.8 259.7,170.1 256,168.1 256,183.5 		"/>
		
			<linearGradient id="SVGID_80_" gradientUnits="userSpaceOnUse" x1="319.1177" y1="174.0092" x2="319.1177" y2="170.1376" gradientTransform="matrix(-8.979300e-11 1 -1 -8.979300e-11 430.05 -143.35)">
			<stop  offset="0.5215" style="stop-color:#2A241F;stop-opacity:0"/>
			<stop  offset="1" style="stop-color:#2A241F;stop-opacity:0.5"/>
		</linearGradient>
		<polygon fill="url(#SVGID_80_)" points="259.7,181.8 259.7,170.1 256,168.1 256,183.5 		"/>
		
			<linearGradient id="SVGID_81_" gradientUnits="userSpaceOnUse" x1="315.2928" y1="168.2433" x2="323.0356" y2="168.2433" gradientTransform="matrix(-8.979300e-11 1 -1 -8.979300e-11 430.05 -143.35)">
			<stop  offset="2.688172e-02" style="stop-color:#BB9B83"/>
			<stop  offset="0.5161" style="stop-color:#FFFFFF"/>
			<stop  offset="1" style="stop-color:#BCA797"/>
		</linearGradient>
		<polygon fill="url(#SVGID_81_)" points="263.9,179.7 263.9,171.8 259.7,171.8 259.7,179.7 		"/>
		
			<linearGradient id="SVGID_82_" gradientUnits="userSpaceOnUse" x1="323.0356" y1="169.0756" x2="328.8423" y2="169.0756" gradientTransform="matrix(-8.979300e-11 1 -1 -8.979300e-11 430.05 -143.35)">
			<stop  offset="0" style="stop-color:#BCA28D"/>
			<stop  offset="0.2151" style="stop-color:#DADADA"/>
			<stop  offset="1" style="stop-color:#897D6F"/>
		</linearGradient>
		<polygon fill="url(#SVGID_82_)" points="261.8,185.5 263.9,179.7 259.7,179.7 258.1,185.5 		"/>
		
			<linearGradient id="SVGID_83_" gradientUnits="userSpaceOnUse" x1="347.7072" y1="169.0756" x2="353.5145" y2="169.0756" gradientTransform="matrix(4.489700e-11 -1 -1 -4.489700e-11 430.05 519.65)">
			<stop  offset="0" style="stop-color:#BB9B83"/>
			<stop  offset="0.5161" style="stop-color:#FFFFFF"/>
			<stop  offset="0.9301" style="stop-color:#BCA697"/>
			<stop  offset="1" style="stop-color:#97806F"/>
		</linearGradient>
		<polygon fill="url(#SVGID_83_)" points="261.8,166 263.9,171.8 259.7,171.8 258.1,166 		"/>
	</g>
	<path fill="#EBEAE6" d="M238.9,232.6H34.2c-4.6,0-8.3-3.7-8.3-8.3V102.7c0-4.6,3.7-8.3,8.3-8.3h204.8c4.6,0,8.3,3.7,8.3,8.3v121.5
		C247.2,228.8,243.5,232.6,238.9,232.6z"/>
	<g>
		<path fill="#33383D" d="M166.9,182.6h-60.8c-4.6,0-8.3-3.7-8.3-8.3v-38.7c0-4.6,3.7-8.3,8.3-8.3h60.8c4.6,0,8.3,3.7,8.3,8.3v38.7
			C175.2,178.9,171.5,182.6,166.9,182.6z"/>
		<rect x="103.2" y="133.1" fill="#879787" width="66.2" height="33.3"/>
		<polyline opacity="0.15" fill="#FFFFFF" enable-background="new    " points="103.2,166.4 103.2,133.1 169.8,133.1 		"/>
		<g>
			<rect x="106.2" y="171.8" fill="#667079" width="2.9" height="8.3"/>
			<rect x="111.6" y="171.8" fill="#667079" width="2.9" height="2.9"/>
			<rect x="111.6" y="177.2" fill="#667079" width="2.9" height="2.9"/>
		</g>
		<g>
			<rect x="161.5" y="171.8" fill="#667079" width="2.9" height="8.3"/>
			<rect x="166.9" y="171.8" fill="#667079" width="2.9" height="2.9"/>
			<rect x="166.9" y="177.2" fill="#667079" width="2.9" height="2.9"/>
		</g>
		<g>
			<rect x="147.8" y="171.8" fill="#667079" width="2.9" height="8.3"/>
			<rect x="153.2" y="171.8" fill="#667079" width="2.9" height="2.9"/>
			<rect x="153.2" y="177.2" fill="#667079" width="2.9" height="2.9"/>
		</g>
		<g>
			<rect x="133.6" y="171.8" fill="#667079" width="2.9" height="8.3"/>
			<rect x="139.5" y="171.8" fill="#667079" width="2.9" height="2.9"/>
			<rect x="139.5" y="177.2" fill="#667079" width="2.9" height="2.9"/>
		</g>
		<g>
			<rect x="119.9" y="171.8" fill="#667079" width="2.9" height="8.3"/>
			<rect x="125.7" y="171.8" fill="#667079" width="2.9" height="2.9"/>
			<rect x="125.7" y="177.2" fill="#667079" width="2.9" height="2.9"/>
		</g>
	</g>
	<g>
		
			<linearGradient id="SVGID_84_" gradientUnits="userSpaceOnUse" x1="136.5406" y1="90.0276" x2="136.5406" y2="70.3172" gradientTransform="matrix(1 0 0 -1 0 280)">
			<stop  offset="0" style="stop-color:#D4CEC2"/>
			<stop  offset="1" style="stop-color:#C2ABA2"/>
		</linearGradient>
		<rect x="97.8" y="188.5" fill="url(#SVGID_84_)" width="77.4" height="25"/>
		<path fill="#8E9CA7" d="M157.3,196.4h-33.3c-0.8,0-1.2-0.4-1.2-1.2l0,0c0-0.8,0.4-1.2,1.2-1.2h33.3c0.8,0,1.2,0.4,1.2,1.2l0,0
			C158.6,196,158.2,196.4,157.3,196.4z"/>
		<path fill="#8E9CA7" d="M151.9,202.2h-27.5c-0.8,0-1.2-0.4-1.2-1.2l0,0c0-0.8,0.4-1.2,1.2-1.2h27.5c0.8,0,1.2,0.4,1.2,1.2l0,0
			C153.2,201.4,152.4,202.2,151.9,202.2z"/>
		<path fill="#8E9CA7" d="M160.3,207.6h-35.8c-0.8,0-1.2-0.4-1.2-1.2l0,0c0-0.8,0.4-1.2,1.2-1.2h35.8c0.8,0,1.2,0.4,1.2,1.2l0,0
			C161.5,207.2,160.7,207.6,160.3,207.6z"/>
		<line fill="none" stroke="#8E9CA7" stroke-miterlimit="10" x1="117.4" y1="191" x2="117.4" y2="210.5"/>
	</g>
</g>
</svg>
