<?xml version="1.0" encoding="utf-8"?>
<!-- Generator: Adobe Illustrator 21.0.0, SVG Export Plug-In . SVG Version: 6.00 Build 0)  -->
<svg version="1.0" id="图层_1" xmlns="http://www.w3.org/2000/svg" xmlns:xlink="http://www.w3.org/1999/xlink" x="0px" y="0px" width="100" height="208.5"
	 viewBox="0 0 100 208.5"  xml:space="preserve">
<linearGradient id="SVGID_1_" gradientUnits="userSpaceOnUse" x1="12.5736" y1="-674.6529" x2="63.4453" y2="-674.6529" gradientTransform="matrix(1.6667 0 0 -1.6667 -13.3333 -1004.25)">
	<stop  offset="0" style="stop-color:#CCCCCC"/>
	<stop  offset="0.503" style="stop-color:#FFFFFF"/>
	<stop  offset="0.8003" style="stop-color:#DBDBDB"/>
</linearGradient>
<path fill="url(#SVGID_1_)" d="M26.3,42.7L7.5,71.8v110.4c0,8.7,19.1,15.9,42.4,15.9s42.4-7.1,42.4-15.9V71.5L73.5,42.3L26.3,42.7z"
	/>
<linearGradient id="SVGID_2_" gradientUnits="userSpaceOnUse" x1="-6.3504" y1="-691.7988" x2="44.5765" y2="-691.7988" gradientTransform="matrix(1.6665 -1.747143e-02 -1.747143e-02 -1.6665 6.2102 -1064.1522)">
	<stop  offset="0" style="stop-color:#2567FF"/>
	<stop  offset="0.503" style="stop-color:#88ABFF"/>
	<stop  offset="0.7997" style="stop-color:#2567FF"/>
</linearGradient>
<path fill="url(#SVGID_2_)" d="M7.5,71.1l0.3,22.7c11,7.8,26.2,12.3,42.4,12.3c16.5-0.3,31.4-5.2,42.4-12.9l-0.3-22.7
	c-11,8.1-25.9,12.9-42.4,13.3C33.7,83.4,18.5,78.9,7.5,71.1z"/>
<linearGradient id="SVGID_3_" gradientUnits="userSpaceOnUse" x1="-6.7412" y1="-729.0797" x2="44.1857" y2="-729.0797" gradientTransform="matrix(1.6665 -1.747143e-02 -1.747143e-02 -1.6665 6.2102 -1064.1522)">
	<stop  offset="0" style="stop-color:#2567FF"/>
	<stop  offset="0.503" style="stop-color:#88ABFF"/>
	<stop  offset="0.7997" style="stop-color:#2567FF"/>
</linearGradient>
<path fill="url(#SVGID_3_)" d="M7.5,133.3l0.3,22.7c11,7.8,26.2,12.3,42.4,12.3s31.4-5.2,42.4-12.9l-0.3-22.7
	c-11,8.1-25.9,12.9-42.4,12.9C33.7,145.6,18.5,141,7.5,133.3z"/>
<linearGradient id="SVGID_4_" gradientUnits="userSpaceOnUse" x1="23.4725" y1="-619.8979" x2="52.2589" y2="-619.8979" gradientTransform="matrix(1.6667 0 0 -1.6667 -13.3333 -1004.25)">
	<stop  offset="0" style="stop-color:#2567FF"/>
	<stop  offset="0.503" style="stop-color:#88ABFF"/>
	<stop  offset="0.7997" style="stop-color:#2567FF"/>
</linearGradient>
<path fill="url(#SVGID_4_)" d="M25.7,11.3v32c7.4,2.3,15.9,3.6,24.6,3.6c8.4,0,16.2-1.3,23.3-3.9V11c-7.1,2.3-15.2,3.9-23.6,3.9
	C41.5,14.8,33.4,13.5,25.7,11.3z"/>
<radialGradient id="SVGID_5_" cx="3223.3274" cy="-9380.3984" r="27.6904" gradientTransform="matrix(0.8627 0 0 -0.2582 -2730.8667 -2410.6846)" gradientUnits="userSpaceOnUse">
	<stop  offset="0" style="stop-color:#88ABFF"/>
	<stop  offset="0.7997" style="stop-color:#2567FF"/>
</radialGradient>
<ellipse fill="url(#SVGID_5_)" cx="49.6" cy="11" rx="23.9" ry="7.1"/>
</svg>
