<?xml version="1.0" encoding="utf-8"?>
<!-- Generator: Adobe Illustrator 21.0.0, SVG Export Plug-In . SVG Version: 6.00 Build 0)  -->
<svg version="1.0" id="图层_1" xmlns="http://www.w3.org/2000/svg" xmlns:xlink="http://www.w3.org/1999/xlink" x="0px" y="0px" width="220px" height="220px"
	 viewBox="0 0 220 220" xml:space="preserve">
<linearGradient id="SVGID_1_" gradientUnits="userSpaceOnUse" x1="78.5455" y1="161.0742" x2="78.5455" y2="111.8846" gradientTransform="matrix(3.6667 0 0 -3.6667 -213.3333 593.3334)">
	<stop  offset="0" style="stop-color:#150F17"/>
	<stop  offset="0.2303" style="stop-color:#7B7B7B"/>
	<stop  offset="0.2944" style="stop-color:#58575A"/>
	<stop  offset="0.3585" style="stop-color:#3E3B41"/>
	<stop  offset="0.4229" style="stop-color:#2A272F"/>
	<stop  offset="0.4872" style="stop-color:#1F1B24"/>
	<stop  offset="0.5515" style="stop-color:#1B1720"/>
	<stop  offset="0.6521" style="stop-color:#1D1922"/>
	<stop  offset="0.7109" style="stop-color:#25222A"/>
	<stop  offset="0.759" style="stop-color:#333037"/>
	<stop  offset="0.8013" style="stop-color:#464449"/>
	<stop  offset="0.8394" style="stop-color:#5F5E60"/>
	<stop  offset="0.8727" style="stop-color:#7B7B7B"/>
	<stop  offset="1" style="stop-color:#1B1720"/>
</linearGradient>
<path fill="url(#SVGID_1_)" d="M143.2,200.6c0,11-8.8,20.2-20.2,20.2H25.9c-11,0-20.2-8.8-20.2-20.2v-180c0-11,8.8-20.2,20.2-20.2
	h97.5c11,0,20.2,8.8,20.2,20.2v180H143.2z"/>
<linearGradient id="SVGID_2_" gradientUnits="userSpaceOnUse" x1="52.0617" y1="131.6182" x2="102.0061" y2="131.6182" gradientTransform="matrix(3.6667 0 0 -3.6667 -213.3333 593.3334)">
	<stop  offset="0" style="stop-color:#150F17"/>
	<stop  offset="0.2303" style="stop-color:#7B7B7B"/>
	<stop  offset="0.2944" style="stop-color:#58575A"/>
	<stop  offset="0.3585" style="stop-color:#3E3B41"/>
	<stop  offset="0.4229" style="stop-color:#2A272F"/>
	<stop  offset="0.4872" style="stop-color:#1F1B24"/>
	<stop  offset="0.5515" style="stop-color:#1B1720"/>
	<stop  offset="0.6521" style="stop-color:#1D1922"/>
	<stop  offset="0.7109" style="stop-color:#25222A"/>
	<stop  offset="0.759" style="stop-color:#333037"/>
	<stop  offset="0.8013" style="stop-color:#464449"/>
	<stop  offset="0.8394" style="stop-color:#5F5E60"/>
	<stop  offset="0.8727" style="stop-color:#7B7B7B"/>
	<stop  offset="1" style="stop-color:#1B1720"/>
</linearGradient>
<path fill="url(#SVGID_2_)" d="M141,198c0,10.6-8.8,19.4-19.4,19.4H27.4c-10.6,0-19.4-8.8-19.4-19.4V23.5C7.9,12.8,16.7,4,27.4,4
	H122c10.6,0,19.4,8.8,19.4,19.4V198H141z"/>
<linearGradient id="SVGID_3_" gradientUnits="userSpaceOnUse" x1="105.119" y1="127.4179" x2="56.8861" y2="127.4179" gradientTransform="matrix(3.6667 0 0 -3.6667 -213.3333 593.3334)">
	<stop  offset="0" style="stop-color:#413D3C"/>
	<stop  offset="0.6503" style="stop-color:#2A262B"/>
	<stop  offset="1" style="stop-color:#1B1720"/>
</linearGradient>
<path fill="url(#SVGID_3_)" d="M10.5,49.9v142.3c0,0-1.8,10.3,7,10.3s113.3,0,113.3,0s7,0.4,7-8.8c0-9.2,0-143.7,0-143.7
	S10.5,49.9,10.5,49.9z"/>
<path opacity="0.77" fill="#281E1C" enable-background="new    " d="M9.8,198c0,0,4,9.9,12.1,10.3c8.1,0.4,116.6,0,116.6,0
	s2.9-6.2,2.6-11.7l0.7-93.5l-10.3-13.6l0.4,108.2L9.8,198z"/>
<g>
	<g>
		<polygon fill="#000221" points="134.8,200.2 14.9,200.2 12.3,197.6 131.9,176.4 134.8,178.9 		"/>
		
			<linearGradient id="SVGID_4_" gradientUnits="userSpaceOnUse" x1="54.1372" y1="110.8182" x2="99.0868" y2="110.8182" gradientTransform="matrix(3.6667 0 0 -3.6667 -213.3333 593.3334)">
			<stop  offset="0" style="stop-color:#150F17"/>
			<stop  offset="0.4848" style="stop-color:#7B7B7B"/>
			<stop  offset="0.5877" style="stop-color:#58575A"/>
			<stop  offset="0.6905" style="stop-color:#3E3B41"/>
			<stop  offset="0.7937" style="stop-color:#2A272F"/>
			<stop  offset="0.8968" style="stop-color:#1F1B24"/>
			<stop  offset="1" style="stop-color:#1B1720"/>
		</linearGradient>
		<rect x="12.3" y="176.4" fill="url(#SVGID_4_)" width="119.9" height="21.3"/>
	</g>
	<circle fill="#00A7E9" cx="123.8" cy="186.3" r="4"/>
	<g>
		<polygon fill="#000221" points="134.8,171.6 14.9,171.6 12.3,169 131.9,148.1 134.8,150.3 		"/>
		
			<linearGradient id="SVGID_5_" gradientUnits="userSpaceOnUse" x1="54.1372" y1="118.6182" x2="99.0868" y2="118.6182" gradientTransform="matrix(3.6667 0 0 -3.6667 -213.3333 593.3334)">
			<stop  offset="0" style="stop-color:#150F17"/>
			<stop  offset="0.4848" style="stop-color:#7B7B7B"/>
			<stop  offset="0.5877" style="stop-color:#58575A"/>
			<stop  offset="0.6905" style="stop-color:#3E3B41"/>
			<stop  offset="0.7937" style="stop-color:#2A272F"/>
			<stop  offset="0.8968" style="stop-color:#1F1B24"/>
			<stop  offset="1" style="stop-color:#1B1720"/>
		</linearGradient>
		<rect x="12.3" y="147.8" fill="url(#SVGID_5_)" width="119.9" height="21.3"/>
	</g>
	<circle fill="#00A7E9" cx="123.8" cy="158" r="4"/>
	<g>
		<polygon fill="#000221" points="134.8,143.4 14.9,143.4 12.3,140.8 131.9,119.5 134.8,122.1 		"/>
		
			<linearGradient id="SVGID_6_" gradientUnits="userSpaceOnUse" x1="54.1372" y1="126.3182" x2="99.0868" y2="126.3182" gradientTransform="matrix(3.6667 0 0 -3.6667 -213.3333 593.3334)">
			<stop  offset="0" style="stop-color:#150F17"/>
			<stop  offset="0.4848" style="stop-color:#7B7B7B"/>
			<stop  offset="0.5877" style="stop-color:#58575A"/>
			<stop  offset="0.6905" style="stop-color:#3E3B41"/>
			<stop  offset="0.7937" style="stop-color:#2A272F"/>
			<stop  offset="0.8968" style="stop-color:#1F1B24"/>
			<stop  offset="1" style="stop-color:#1B1720"/>
		</linearGradient>
		<rect x="12.3" y="119.5" fill="url(#SVGID_6_)" width="119.9" height="21.3"/>
	</g>
	<circle fill="#00A7E9" cx="123.8" cy="129.4" r="4"/>
	<g>
		<polygon fill="#000221" points="134.8,114.8 14.9,114.8 12.3,112.2 131.9,90.9 134.8,93.5 		"/>
		
			<linearGradient id="SVGID_7_" gradientUnits="userSpaceOnUse" x1="54.1372" y1="134.1182" x2="99.0868" y2="134.1182" gradientTransform="matrix(3.6667 0 0 -3.6667 -213.3333 593.3334)">
			<stop  offset="0" style="stop-color:#150F17"/>
			<stop  offset="0.4848" style="stop-color:#7B7B7B"/>
			<stop  offset="0.5877" style="stop-color:#58575A"/>
			<stop  offset="0.6905" style="stop-color:#3E3B41"/>
			<stop  offset="0.7937" style="stop-color:#2A272F"/>
			<stop  offset="0.8968" style="stop-color:#1F1B24"/>
			<stop  offset="1" style="stop-color:#1B1720"/>
		</linearGradient>
		<rect x="12.3" y="90.9" fill="url(#SVGID_7_)" width="119.9" height="21.3"/>
	</g>
	<circle fill="#00A7E9" cx="123.8" cy="101.2" r="4"/>
</g>
<g>
	<g>
		<circle fill="#281E1C" cx="21.5" cy="107.4" r="1.5"/>
		<circle fill="#281E1C" cx="26.6" cy="107.4" r="1.5"/>
		<circle fill="#281E1C" cx="31.8" cy="107.4" r="1.5"/>
		<circle fill="#281E1C" cx="36.9" cy="107.4" r="1.5"/>
		<circle fill="#281E1C" cx="42" cy="107.4" r="1.5"/>
		<circle fill="#281E1C" cx="47.2" cy="107.4" r="1.5"/>
		<circle fill="#281E1C" cx="52.3" cy="107.4" r="1.5"/>
		<circle fill="#281E1C" cx="57.4" cy="107.4" r="1.5"/>
		<circle fill="#281E1C" cx="62.6" cy="107.4" r="1.5"/>
	</g>
	<g>
		<circle fill="#281E1C" cx="21.5" cy="100.1" r="1.5"/>
		<circle fill="#281E1C" cx="26.6" cy="100.1" r="1.5"/>
		<circle fill="#281E1C" cx="31.8" cy="100.1" r="1.5"/>
		<circle fill="#281E1C" cx="36.9" cy="100.1" r="1.5"/>
		<circle fill="#281E1C" cx="42" cy="100.1" r="1.5"/>
		<circle fill="#281E1C" cx="47.2" cy="100.1" r="1.5"/>
		<circle fill="#281E1C" cx="52.3" cy="100.1" r="1.5"/>
		<circle fill="#281E1C" cx="57.4" cy="100.1" r="1.5"/>
		<circle fill="#281E1C" cx="62.6" cy="100.1" r="1.5"/>
	</g>
	<g>
		<circle fill="#281E1C" cx="18.6" cy="104.1" r="1.5"/>
		<circle fill="#281E1C" cx="23.7" cy="104.1" r="1.5"/>
		<circle fill="#281E1C" cx="28.8" cy="104.1" r="1.5"/>
		<circle fill="#281E1C" cx="34" cy="104.1" r="1.5"/>
		<circle fill="#281E1C" cx="39.1" cy="104.1" r="1.5"/>
		<circle fill="#281E1C" cx="44.2" cy="104.1" r="1.5"/>
		<circle fill="#281E1C" cx="49.7" cy="104.1" r="1.5"/>
		<circle fill="#281E1C" cx="54.9" cy="104.1" r="1.5"/>
		<circle fill="#281E1C" cx="60" cy="104.1" r="1.5"/>
	</g>
	<g>
		<circle fill="#281E1C" cx="18.6" cy="96.4" r="1.5"/>
		<circle fill="#281E1C" cx="23.7" cy="96.4" r="1.5"/>
		<circle fill="#281E1C" cx="28.8" cy="96.4" r="1.5"/>
		<circle fill="#281E1C" cx="34" cy="96.4" r="1.5"/>
		<circle fill="#281E1C" cx="39.1" cy="96.4" r="1.5"/>
		<circle fill="#281E1C" cx="44.2" cy="96.4" r="1.5"/>
		<circle fill="#281E1C" cx="49.7" cy="96.4" r="1.5"/>
		<circle fill="#281E1C" cx="54.9" cy="96.4" r="1.5"/>
		<circle fill="#281E1C" cx="60" cy="96.4" r="1.5"/>
	</g>
</g>
<g>
	<g>
		<circle fill="#281E1C" cx="21.5" cy="135.7" r="1.5"/>
		<circle fill="#281E1C" cx="26.6" cy="135.7" r="1.5"/>
		<circle fill="#281E1C" cx="31.8" cy="135.7" r="1.5"/>
		<circle fill="#281E1C" cx="36.9" cy="135.7" r="1.5"/>
		<circle fill="#281E1C" cx="42" cy="135.7" r="1.5"/>
		<circle fill="#281E1C" cx="47.2" cy="135.7" r="1.5"/>
		<circle fill="#281E1C" cx="52.3" cy="135.7" r="1.5"/>
		<circle fill="#281E1C" cx="57.4" cy="135.7" r="1.5"/>
		<circle fill="#281E1C" cx="62.6" cy="135.7" r="1.5"/>
	</g>
	<g>
		<circle fill="#281E1C" cx="21.5" cy="128" r="1.5"/>
		<circle fill="#281E1C" cx="26.6" cy="128" r="1.5"/>
		<circle fill="#281E1C" cx="31.8" cy="128" r="1.5"/>
		<circle fill="#281E1C" cx="36.9" cy="128" r="1.5"/>
		<circle fill="#281E1C" cx="42" cy="128" r="1.5"/>
		<circle fill="#281E1C" cx="47.2" cy="128" r="1.5"/>
		<circle fill="#281E1C" cx="52.3" cy="128" r="1.5"/>
		<circle fill="#281E1C" cx="57.4" cy="128" r="1.5"/>
		<circle fill="#281E1C" cx="62.6" cy="128" r="1.5"/>
	</g>
	<g>
		<circle fill="#281E1C" cx="18.6" cy="132" r="1.5"/>
		<circle fill="#281E1C" cx="23.7" cy="132" r="1.5"/>
		<circle fill="#281E1C" cx="28.8" cy="132" r="1.5"/>
		<circle fill="#281E1C" cx="34" cy="132" r="1.5"/>
		<circle fill="#281E1C" cx="39.1" cy="132" r="1.5"/>
		<circle fill="#281E1C" cx="44.2" cy="132" r="1.5"/>
		<circle fill="#281E1C" cx="49.7" cy="132" r="1.5"/>
		<circle fill="#281E1C" cx="54.9" cy="132" r="1.5"/>
		<circle fill="#281E1C" cx="60" cy="132" r="1.5"/>
	</g>
	<g>
		<circle fill="#281E1C" cx="18.6" cy="124.3" r="1.5"/>
		<circle fill="#281E1C" cx="23.7" cy="124.3" r="1.5"/>
		<circle fill="#281E1C" cx="28.8" cy="124.3" r="1.5"/>
		<circle fill="#281E1C" cx="34" cy="124.3" r="1.5"/>
		<circle fill="#281E1C" cx="39.1" cy="124.3" r="1.5"/>
		<circle fill="#281E1C" cx="44.2" cy="124.3" r="1.5"/>
		<circle fill="#281E1C" cx="49.7" cy="124.3" r="1.5"/>
		<circle fill="#281E1C" cx="54.9" cy="124.3" r="1.5"/>
		<circle fill="#281E1C" cx="60" cy="124.3" r="1.5"/>
	</g>
</g>
<g>
	<g>
		<circle fill="#281E1C" cx="21.5" cy="163.5" r="1.5"/>
		<circle fill="#281E1C" cx="26.6" cy="163.5" r="1.5"/>
		<circle fill="#281E1C" cx="31.8" cy="163.5" r="1.5"/>
		<circle fill="#281E1C" cx="36.9" cy="163.5" r="1.5"/>
		<circle fill="#281E1C" cx="42" cy="163.5" r="1.5"/>
		<circle fill="#281E1C" cx="47.2" cy="163.5" r="1.5"/>
		<circle fill="#281E1C" cx="52.3" cy="163.5" r="1.5"/>
		<circle fill="#281E1C" cx="57.4" cy="163.5" r="1.5"/>
		<circle fill="#281E1C" cx="62.6" cy="163.5" r="1.5"/>
	</g>
	<g>
		<circle fill="#281E1C" cx="21.5" cy="155.8" r="1.5"/>
		<circle fill="#281E1C" cx="26.6" cy="155.8" r="1.5"/>
		<circle fill="#281E1C" cx="31.8" cy="155.8" r="1.5"/>
		<circle fill="#281E1C" cx="36.9" cy="155.8" r="1.5"/>
		<circle fill="#281E1C" cx="42" cy="155.8" r="1.5"/>
		<circle fill="#281E1C" cx="47.2" cy="155.8" r="1.5"/>
		<circle fill="#281E1C" cx="52.3" cy="155.8" r="1.5"/>
		<circle fill="#281E1C" cx="57.4" cy="155.8" r="1.5"/>
		<circle fill="#281E1C" cx="62.6" cy="155.8" r="1.5"/>
	</g>
	<g>
		<circle fill="#281E1C" cx="18.6" cy="159.9" r="1.5"/>
		<circle fill="#281E1C" cx="23.7" cy="159.9" r="1.5"/>
		<circle fill="#281E1C" cx="28.8" cy="159.9" r="1.5"/>
		<circle fill="#281E1C" cx="34" cy="159.9" r="1.5"/>
		<circle fill="#281E1C" cx="39.1" cy="159.9" r="1.5"/>
		<circle fill="#281E1C" cx="44.2" cy="159.9" r="1.5"/>
		<circle fill="#281E1C" cx="49.7" cy="159.9" r="1.5"/>
		<circle fill="#281E1C" cx="54.9" cy="159.9" r="1.5"/>
		<circle fill="#281E1C" cx="60" cy="159.9" r="1.5"/>
	</g>
	<g>
		<circle fill="#281E1C" cx="18.6" cy="152.5" r="1.5"/>
		<circle fill="#281E1C" cx="23.7" cy="152.5" r="1.5"/>
		<circle fill="#281E1C" cx="28.8" cy="152.5" r="1.5"/>
		<circle fill="#281E1C" cx="34" cy="152.5" r="1.5"/>
		<circle fill="#281E1C" cx="39.1" cy="152.5" r="1.5"/>
		<circle fill="#281E1C" cx="44.2" cy="152.5" r="1.5"/>
		<circle fill="#281E1C" cx="49.7" cy="152.5" r="1.5"/>
		<circle fill="#281E1C" cx="54.9" cy="152.5" r="1.5"/>
		<circle fill="#281E1C" cx="60" cy="152.5" r="1.5"/>
	</g>
</g>
<g>
	<g>
		<circle fill="#281E1C" cx="21.5" cy="192.1" r="1.5"/>
		<circle fill="#281E1C" cx="26.6" cy="192.1" r="1.5"/>
		<circle fill="#281E1C" cx="31.8" cy="192.1" r="1.5"/>
		<circle fill="#281E1C" cx="36.9" cy="192.1" r="1.5"/>
		<circle fill="#281E1C" cx="42" cy="192.1" r="1.5"/>
		<circle fill="#281E1C" cx="47.2" cy="192.1" r="1.5"/>
		<circle fill="#281E1C" cx="52.3" cy="192.1" r="1.5"/>
		<circle fill="#281E1C" cx="57.4" cy="192.1" r="1.5"/>
		<circle fill="#281E1C" cx="62.6" cy="192.1" r="1.5"/>
	</g>
	<g>
		<circle fill="#281E1C" cx="21.5" cy="184.4" r="1.5"/>
		<circle fill="#281E1C" cx="26.6" cy="184.4" r="1.5"/>
		<circle fill="#281E1C" cx="31.8" cy="184.4" r="1.5"/>
		<circle fill="#281E1C" cx="36.9" cy="184.4" r="1.5"/>
		<circle fill="#281E1C" cx="42" cy="184.4" r="1.5"/>
		<circle fill="#281E1C" cx="47.2" cy="184.4" r="1.5"/>
		<circle fill="#281E1C" cx="52.3" cy="184.4" r="1.5"/>
		<circle fill="#281E1C" cx="57.4" cy="184.4" r="1.5"/>
		<circle fill="#281E1C" cx="62.6" cy="184.4" r="1.5"/>
	</g>
	<g>
		<circle fill="#281E1C" cx="18.6" cy="188.5" r="1.5"/>
		<circle fill="#281E1C" cx="23.7" cy="188.5" r="1.5"/>
		<circle fill="#281E1C" cx="28.8" cy="188.5" r="1.5"/>
		<circle fill="#281E1C" cx="34" cy="188.5" r="1.5"/>
		<circle fill="#281E1C" cx="39.1" cy="188.5" r="1.5"/>
		<circle fill="#281E1C" cx="44.2" cy="188.5" r="1.5"/>
		<circle fill="#281E1C" cx="49.7" cy="188.5" r="1.5"/>
		<circle fill="#281E1C" cx="54.9" cy="188.5" r="1.5"/>
		<circle fill="#281E1C" cx="60" cy="188.5" r="1.5"/>
	</g>
	<g>
		<circle fill="#281E1C" cx="18.6" cy="180.8" r="1.5"/>
		<circle fill="#281E1C" cx="23.7" cy="180.8" r="1.5"/>
		<circle fill="#281E1C" cx="28.8" cy="180.8" r="1.5"/>
		<circle fill="#281E1C" cx="34" cy="180.8" r="1.5"/>
		<circle fill="#281E1C" cx="39.1" cy="180.8" r="1.5"/>
		<circle fill="#281E1C" cx="44.2" cy="180.8" r="1.5"/>
		<circle fill="#281E1C" cx="49.7" cy="180.8" r="1.5"/>
		<circle fill="#281E1C" cx="54.9" cy="180.8" r="1.5"/>
		<circle fill="#281E1C" cx="60" cy="180.8" r="1.5"/>
	</g>
</g>
<linearGradient id="SVGID_8_" gradientUnits="userSpaceOnUse" x1="64.3041" y1="157.3182" x2="90.465" y2="157.3182" gradientTransform="matrix(3.6667 0 0 -3.6667 -213.3333 593.3334)">
	<stop  offset="0" style="stop-color:#514E4E"/>
	<stop  offset="0.4606" style="stop-color:#B0B0B1"/>
	<stop  offset="0.6273" style="stop-color:#999999"/>
	<stop  offset="0.9768" style="stop-color:#5F5D5D"/>
	<stop  offset="1" style="stop-color:#5B5959"/>
</linearGradient>
<rect x="20" y="13.2" fill="url(#SVGID_8_)" width="106.7" height="6.6"/>
<linearGradient id="SVGID_9_" gradientUnits="userSpaceOnUse" x1="59.417" y1="143.2682" x2="112.2586" y2="143.2682" gradientTransform="matrix(3.6667 0 0 -3.6667 -213.3333 593.3334)">
	<stop  offset="0" style="stop-color:#150F17"/>
	<stop  offset="0.2303" style="stop-color:#7B7B7B"/>
	<stop  offset="0.2944" style="stop-color:#58575A"/>
	<stop  offset="0.3585" style="stop-color:#3E3B41"/>
	<stop  offset="0.4229" style="stop-color:#2A272F"/>
	<stop  offset="0.4872" style="stop-color:#1F1B24"/>
	<stop  offset="0.5515" style="stop-color:#1B1720"/>
	<stop  offset="0.6521" style="stop-color:#1D1922"/>
	<stop  offset="0.7109" style="stop-color:#25222A"/>
	<stop  offset="0.759" style="stop-color:#333037"/>
	<stop  offset="0.8013" style="stop-color:#464449"/>
	<stop  offset="0.8394" style="stop-color:#5F5E60"/>
	<stop  offset="0.8727" style="stop-color:#7B7B7B"/>
	<stop  offset="1" style="stop-color:#1B1720"/>
</linearGradient>
<rect x="11.2" y="52.4" fill="url(#SVGID_9_)" width="125" height="31.2"/>
<radialGradient id="SVGID_10_" cx="245.1337" cy="115.0611" r="13.8638" gradientTransform="matrix(2.8772 0 0 -2.8772 -652.0438 434.7933)" gradientUnits="userSpaceOnUse">
	<stop  offset="0" style="stop-color:#150F17"/>
	<stop  offset="0.1939" style="stop-color:#7B7B7B"/>
	<stop  offset="1" style="stop-color:#1B1720"/>
</radialGradient>
<rect x="20" y="58.7" fill="url(#SVGID_10_)" width="20.2" height="20.2"/>
</svg>
