<?xml version="1.0" encoding="utf-8"?>
<!-- Generator: Adobe Illustrator 21.0.0, SVG Export Plug-In . SVG Version: 6.00 Build 0)  -->
<svg version="1.0" id="图层_1" xmlns="http://www.w3.org/2000/svg" xmlns:xlink="http://www.w3.org/1999/xlink" x="0px" y="0px" width="280px" height="280px"
	 viewBox="0 0 280 280"  xml:space="preserve">
<g>
	<path fill="#ADADAD" d="M5.1,133.2c0,3.3,2.3,4.7,5.6,4.7h240.8c3.7-0.5,4.7-2.8,4.7-5.1l-7.5-51.8H12.1L5.1,133.2z"/>
	<path fill="#696969" d="M9.3,131.3c0,3.3,2.3,4.7,5.6,4.7h233.3c3.7-0.5,4.7-2.8,4.7-5.1l-6.5-49H15.9L9.3,131.3z"/>
	<path fill="#333333" d="M13.5,129.5l5.6-47.6h224.9l5.6,47.1c0,2.3-0.9,4.2-4.7,5.1H18.7C15.4,134.1,13.5,132.7,13.5,129.5z"/>
	<polygon fill="#545454" points="4.7,81.4 13.5,12.8 248.7,12.8 257.6,81.4 	"/>
	<path fill="#363636" d="M7,131.3L4.7,81.4h252.5l0,0l-2.3,49.9H7z M4.7,81.4L4.7,81.4L4.7,81.4L4.7,81.4z"/>
	<polygon fill="#C4C4C4" points="6.1,71.6 13.5,12.8 248.7,12.8 256.2,71.6 	"/>
	<path fill="#545454" d="M4.7,81.4h252C253.4,72.5,0.9,69.7,4.7,81.4z"/>
	<path fill="#575757" d="M4.7,81.4h252C253.4,73.9,0.9,71.1,4.7,81.4z"/>
	<path fill="#5C5C5C" d="M4.7,81.4h252C253.4,74.9,0.5,72.5,4.7,81.4z"/>
	<path fill="#616161" d="M4.7,81.4h252C253.4,76.3,0.5,73.9,4.7,81.4z"/>
	<path fill="#6B6B6B" d="M4.7,81.4h252C253.4,77.7,0.5,75.3,4.7,81.4z"/>
	<path fill="#7D7D7D" d="M4.7,81.4h252C253.4,79.1,0.5,76.7,4.7,81.4z"/>
	<path fill="#8F8F8F" d="M4.7,81.4h252C253.4,80.5,0.5,78.1,4.7,81.4z"/>
	<path fill="#C4C4C4" d="M14,13.3h235.2C253.4,36.6,18.2,40.8,14,13.3z"/>
	<path fill="#C7C7C7" d="M14,13.3c3.3,24.7,238.9,21,235.2,0H14z"/>
	<path fill="#C7C7C7" d="M14,13.3c2.3,22.4,238,18.7,235.2,0H14z"/>
	<path fill="#CCCCCC" d="M14,13.3c1.4,19.6,237.1,16.3,235.2,0H14z"/>
	<path fill="#CFCFCF" d="M14,13.3c0.5,16.8,236.1,13.5,235.2,0H14z"/>
	<path fill="#D1D1D1" d="M14,13.3c-0.5,14.5,235.2,11.2,235.2,0H14z"/>
	<path fill="#D6D6D6" d="M14,13.3c-1.4,11.7,234.3,8.9,235.2,0H14z"/>
	<path fill="#DEDEDE" d="M14,13.3c-2.3,9.3,233.8,6.5,235.2,0H14z"/>
	<path fill="#EBEBEB" d="M14,13.3c-3.3,6.5,232.9,3.7,235.2,0H14z"/>
	<path fill="#F5F5F5" d="M14,13.3h235.2C245.5,14.7,9.8,17,14,13.3z"/>
	<g>
		<path fill="#B8B8B8" d="M55.1,49.2c0-0.9,1.4-1.9,2.3-1.9c1.4,0,2.3,0.9,2.3,1.9c0,0.9-1.4,1.9-2.3,1.9
			C56,51.1,55.1,50.1,55.1,49.2z M64.9,49.2c0-0.9,1.4-1.9,2.3-1.9c1.4,0,2.3,0.9,2.3,1.9c0,0.9-1.4,1.9-2.3,1.9
			C65.8,51.1,64.9,50.1,64.9,49.2z M74.2,49.2c0-0.9,0.9-1.9,2.3-1.9c1.4,0,2.3,0.9,2.3,1.9c0,0.9-1.4,1.9-2.3,1.9
			C75.1,51.1,74.2,50.1,74.2,49.2z M84,49.2c0-0.9,0.9-1.9,2.3-1.9s2.3,0.9,2.3,1.9c0,0.9-0.9,1.9-2.3,1.9S84,50.1,84,49.2z
			 M93.3,49.2c0-0.9,0.9-1.9,2.3-1.9c1.4,0,2.3,0.9,2.3,1.9c0,0.9-0.9,1.9-2.3,1.9C94.3,51.1,93.3,50.1,93.3,49.2z M103.1,49.2
			c0-0.9,0.9-1.9,2.3-1.9c1.4,0,2.3,0.9,2.3,1.9c0,0.9-0.9,1.9-2.3,1.9C104.1,51.1,102.7,50.1,103.1,49.2z M112.5,49.2
			c0-0.9,0.9-1.9,2.3-1.9s2.3,0.9,2.3,1.9c0,0.9-0.9,1.9-2.3,1.9S112.5,50.1,112.5,49.2z M122.3,49.2c0-0.9,0.9-1.9,2.3-1.9
			c1.4,0,2.3,0.9,2.3,1.9c0,0.9-0.9,1.9-2.3,1.9C123.2,51.1,122.3,50.1,122.3,49.2z M131.6,49.2c0-0.9,0.9-1.9,2.3-1.9
			s2.3,0.9,2.3,1.9c0,0.9-0.9,1.9-2.3,1.9S131.6,50.1,131.6,49.2z M141.4,49.2c0-0.9,0.9-1.9,2.3-1.9c1.4,0,2.3,0.9,2.3,1.9
			c0,0.9-0.9,1.9-2.3,1.9C142.3,51.1,141.4,50.1,141.4,49.2z M150.7,49.2c0-0.9,0.9-1.9,2.3-1.9s2.3,0.9,2.3,1.9
			c0,0.9-0.9,1.9-2.3,1.9C152.1,51.1,150.7,50.1,150.7,49.2z M160.5,49.2c0-0.9,0.9-1.9,2.3-1.9s2.3,0.9,2.3,1.9
			c0,0.9-0.9,1.9-2.3,1.9S160.5,50.1,160.5,49.2z M169.9,49.2c0-0.9,0.9-1.9,2.3-1.9c1.4,0,2.3,0.9,2.3,1.9c0,0.9-0.9,1.9-2.3,1.9
			C171.3,51.1,169.9,50.1,169.9,49.2z M179.7,49.2c0-0.9,0.9-1.9,2.3-1.9s2.3,0.9,2.3,1.9c0,0.9-0.9,1.9-2.3,1.9
			S179.7,50.1,179.7,49.2z M189,49.2c0-0.9,0.9-1.9,2.3-1.9s2.3,0.9,2.3,1.9c0,0.9-0.9,1.9-2.3,1.9C190.4,51.1,189.5,50.1,189,49.2z
			 M198.8,49.2c0-0.9,0.9-1.9,2.3-1.9c1.4,0,2.3,0.9,2.8,1.9c0,0.9-0.9,1.9-2.3,1.9C200.2,51.1,198.8,50.1,198.8,49.2z M197.9,41.7
			c0-0.9,0.9-1.9,2.3-1.9c1.4,0,2.3,0.9,2.8,1.9c0,0.9-0.9,1.9-2.3,1.9C199.3,43.6,198.3,43.1,197.9,41.7z M188.5,41.7
			c0-0.9,0.9-1.9,2.3-1.9s2.3,0.9,2.3,1.9c0,0.9-0.9,1.9-2.3,1.9C189.9,43.6,188.5,43.1,188.5,41.7z M179.2,41.7
			c0-0.9,0.9-1.9,2.3-1.9s2.3,0.9,2.3,1.9c0,0.9-0.9,1.9-2.3,1.9S179.2,43.1,179.2,41.7z M169.4,41.7c0-0.9,0.9-1.9,2.3-1.9
			c1.4,0,2.3,0.9,2.3,1.9c0,0.9-0.9,1.9-2.3,1.9C170.8,43.6,169.4,43.1,169.4,41.7z M160.1,41.7c0-0.9,0.9-1.9,2.3-1.9
			s2.3,0.9,2.3,1.9c0,0.9-0.9,1.9-2.3,1.9S160.1,43.1,160.1,41.7z M150.3,41.7c0-0.9,0.9-1.9,2.3-1.9s2.3,0.9,2.3,1.9
			c0,0.9-0.9,1.9-2.3,1.9C151.7,43.6,150.7,43.1,150.3,41.7z M140.9,41.7c0-0.9,0.9-1.9,2.3-1.9c1.4,0,2.3,0.9,2.3,1.9
			c0,0.9-0.9,1.9-2.3,1.9C142.3,43.6,140.9,43.1,140.9,41.7z M131.6,41.7c0-0.9,0.9-1.9,2.3-1.9s2.3,0.9,2.3,1.9
			c0,0.9-0.9,1.9-2.3,1.9S131.6,43.1,131.6,41.7z M121.8,41.7c0-0.9,0.9-1.9,2.3-1.9c1.4,0,2.3,0.9,2.3,1.9c0,0.9-0.9,1.9-2.3,1.9
			C123.2,43.6,121.8,43.1,121.8,41.7z M112.5,41.7c0-0.9,0.9-1.9,2.3-1.9s2.3,0.9,2.3,1.9c0,0.9-0.9,1.9-2.3,1.9
			S112.5,43.1,112.5,41.7z M103.1,41.7c0-0.9,0.9-1.9,2.3-1.9c1.4,0,2.3,0.9,2.3,1.9c0,0.9-0.9,1.9-2.3,1.9
			C104.1,43.6,103.1,43.1,103.1,41.7z M93.3,41.7c0-0.9,0.9-1.9,2.3-1.9c1.4,0,2.3,0.9,2.3,1.9c0,0.9-0.9,1.9-2.3,1.9
			C94.7,43.6,93.3,42.7,93.3,41.7z M84,41.7c0-0.9,0.9-1.9,2.3-1.9s2.3,0.9,2.3,1.9c0,0.9-0.9,1.9-2.3,1.9
			C84.9,43.6,84,42.7,84,41.7z M65.3,41.7c0-0.9,0.9-1.9,2.3-1.9s2.3,0.9,2.3,1.9c0,0.9-0.9,1.9-2.3,1.9
			C66.3,43.6,65.3,42.7,65.3,41.7z M74.7,41.7c0-0.9,0.9-1.9,2.3-1.9c1.4,0,2.3,0.9,2.3,1.9c0,0.9-0.9,1.9-2.3,1.9
			S74.7,42.7,74.7,41.7z M55.5,41.7c0-0.9,0.9-1.9,2.3-1.9s2.3,0.9,2.3,1.9c0,0.9-0.9,1.9-2.3,1.9S55.5,42.7,55.5,41.7z M197.4,34.7
			c0-0.9,0.9-1.9,2.3-1.9c1.4,0,2.3,0.9,2.3,1.9c0,0.9-0.9,1.9-2.3,1.9C198.8,36.6,197.4,35.7,197.4,34.7z M188.1,34.7
			c0-0.9,0.9-1.9,2.3-1.9s2.3,0.9,2.3,1.9c0,0.9-0.9,1.9-2.3,1.9S188.1,35.7,188.1,34.7z M178.3,34.7c0-0.9,0.9-1.9,2.3-1.9
			s2.3,0.9,2.3,1.9c0,0.9-0.9,1.9-2.3,1.9C179.7,36.6,178.7,35.7,178.3,34.7z M168.9,34.7c0-0.9,0.9-1.9,2.3-1.9
			c1.4,0,2.3,0.9,2.3,1.9c0,0.9-0.9,1.9-2.3,1.9C169.9,36.6,168.9,35.7,168.9,34.7z M159.6,34.7c0-0.9,0.9-1.9,2.3-1.9
			s2.3,0.9,2.3,1.9c0,0.9-0.9,1.9-2.3,1.9C160.5,36.6,159.6,35.7,159.6,34.7z M150.3,34.7c0-0.9,0.9-1.9,2.3-1.9s2.3,0.9,2.3,1.9
			c0,0.9-0.9,1.9-2.3,1.9C151.2,36.6,150.3,35.7,150.3,34.7z M140.5,34.7c0-0.9,0.9-1.9,2.3-1.9c1.4,0,2.3,0.9,2.3,1.9
			c0,0.9-0.9,1.9-2.3,1.9C141.9,36.6,140.5,35.7,140.5,34.7z M131.1,34.7c0-0.9,0.9-1.9,2.3-1.9s2.3,0.9,2.3,1.9
			c0,0.9-0.9,1.9-2.3,1.9C132.5,36.6,131.1,35.7,131.1,34.7z M121.8,34.7c0-0.9,0.9-1.9,2.3-1.9c1.4,0,2.3,0.9,2.3,1.9
			c0,0.9-0.9,1.9-2.3,1.9C122.7,36.6,121.8,35.7,121.8,34.7z M112.5,34.7c0-0.9,0.9-1.9,2.3-1.9s2.3,0.9,2.3,1.9
			c0,0.9-0.9,1.9-2.3,1.9S112.5,35.7,112.5,34.7z M102.7,34.7c0-0.9,0.9-1.9,2.3-1.9c1.4,0,2.3,0.9,2.3,1.9c0,0.9-0.9,1.9-2.3,1.9
			C104.1,36.6,103.1,35.7,102.7,34.7z M93.3,34.7c0-0.9,0.9-1.9,2.3-1.9c1.4,0,2.3,0.9,2.3,1.9c0,0.9-0.9,1.9-2.3,1.9
			C94.7,36.6,93.3,35.7,93.3,34.7z M84,34.7c0-0.9,0.9-1.9,2.3-1.9s2.3,0.9,2.3,1.9c0,0.9-0.9,1.9-2.3,1.9
			C84.9,36.6,84,35.7,84,34.7z M74.7,34.7c0-0.9,0.9-1.9,2.3-1.9c1.4,0,2.3,0.9,2.3,1.9c0,0.9-0.9,1.9-2.3,1.9S74.7,35.7,74.7,34.7z
			 M65.3,34.7c0-0.9,0.9-1.9,2.3-1.9s2.3,0.9,2.3,1.9c0,0.9-0.9,1.9-2.3,1.9C66.3,36.6,65.3,35.7,65.3,34.7z M56,34.7
			c0-0.9,0.9-1.9,2.3-1.9s2.3,0.9,2.3,1.9c0,0.9-0.9,1.9-2.3,1.9C56.9,36.6,56,35.7,56,34.7z M196.5,27.7c0-0.9,0.9-1.9,2.3-1.9
			s2.3,0.9,2.3,1.9c0,0.9-0.9,1.9-2.3,1.9C197.9,29.6,196.5,28.7,196.5,27.7z M187.1,27.7c0-0.9,0.9-1.9,2.3-1.9s2.3,0.9,2.3,1.9
			c0,0.9-0.9,1.9-2.3,1.9C188.5,29.6,187.1,28.7,187.1,27.7z M177.8,27.7c0-0.9,0.9-1.9,2.3-1.9s2.3,0.9,2.3,1.9
			c0,0.9-0.9,1.9-2.3,1.9C179.2,29.6,177.8,28.7,177.8,27.7z M168.5,27.7c0-0.9,0.9-1.9,2.3-1.9c1.4,0,2.3,0.9,2.3,1.9
			c0,0.9-0.9,1.9-2.3,1.9C169.4,29.6,168.5,28.7,168.5,27.7z M159.1,27.7c0-0.9,0.9-1.9,2.3-1.9s2.3,0.9,2.3,1.9
			c0,0.9-0.9,1.9-2.3,1.9S159.1,28.7,159.1,27.7z M149.8,27.7c0-0.9,0.9-1.9,2.3-1.9s2.3,0.9,2.3,1.9c0,0.9-0.9,1.9-2.3,1.9
			S149.8,28.7,149.8,27.7z M140.5,27.7c0-0.9,0.9-1.9,2.3-1.9c1.4,0,2.3,0.9,2.3,1.9c0,0.9-0.9,1.9-2.3,1.9
			C141.4,29.6,140.5,28.7,140.5,27.7z M130.7,27.7c0-0.9,0.9-1.9,2.3-1.9s2.3,0.9,2.3,1.9c0,0.9-0.9,1.9-2.3,1.9
			C132.1,29.6,131.1,28.7,130.7,27.7z M121.3,27.7c0-0.9,0.9-1.9,2.3-1.9c1.4,0,2.3,0.9,2.3,1.9c0,0.9-0.9,1.9-2.3,1.9
			C122.7,29.6,121.3,28.7,121.3,27.7z M112,27.7c0-0.9,0.9-1.9,2.3-1.9s2.3,0.9,2.3,1.9c0,0.9-0.9,1.9-2.3,1.9
			C113.4,29.6,112,28.7,112,27.7z M102.7,27.7c0-0.9,0.9-1.9,2.3-1.9c1.4,0,2.3,0.9,2.3,1.9c0,0.9-0.9,1.9-2.3,1.9
			C104.1,29.6,102.7,28.7,102.7,27.7z M93.3,27.7c0-0.9,0.9-1.9,2.3-1.9c1.4,0,2.3,0.9,2.3,1.9c0,0.9-0.9,1.9-2.3,1.9
			C94.3,29.6,93.3,28.7,93.3,27.7z M84,27.7c0-0.9,0.9-1.9,2.3-1.9s2.3,0.9,2.3,1.9c0,0.9-0.9,1.9-2.3,1.9
			C84.9,29.6,84,28.7,84,27.7z M74.7,27.7c0-0.9,0.9-1.9,2.3-1.9c1.4,0,2.3,0.9,2.3,1.9c0,0.9-0.9,1.9-2.3,1.9S74.7,28.7,74.7,27.7z
			 M65.3,27.7c0-0.9,0.9-1.9,2.3-1.9s2.3,0.9,2.3,1.9c0,0.9-0.9,1.9-2.3,1.9C66.3,29.6,65.3,28.7,65.3,27.7z M56,27.7
			c0-0.9,0.9-1.9,2.3-1.9s2.3,0.9,2.3,1.9c0,0.9-0.9,1.9-2.3,1.9C56.9,29.6,56,28.7,56,27.7z"/>
		<path d="M55.1,49.7c0-0.9,1.4-1.9,2.3-1.9c1.4,0,2.3,0.9,2.3,1.9c0,0.9-1.4,1.9-2.3,1.9C56,51.5,55.1,50.6,55.1,49.7z M64.4,49.7
			c0-0.9,1.4-1.9,2.3-1.9c1.4,0,2.3,0.9,2.3,1.9c0,0.9-1.4,1.9-2.3,1.9C65.3,51.5,64.4,50.6,64.4,49.7z M74.2,49.7
			c0-0.9,0.9-1.9,2.3-1.9c1.4,0,2.3,0.9,2.3,1.9c0,0.9-1.4,1.9-2.3,1.9C75.1,51.5,74.2,50.6,74.2,49.7z M83.5,49.7
			c0-0.9,0.9-1.9,2.3-1.9s2.3,0.9,2.3,1.9c0,0.9-0.9,1.9-2.3,1.9C84.5,51.5,83.5,50.6,83.5,49.7z M93.3,49.7c0-0.9,0.9-1.9,2.3-1.9
			c1.4,0,2.3,0.9,2.3,1.9c0,0.9-0.9,1.9-2.3,1.9C94.3,51.5,93.3,50.6,93.3,49.7z M102.7,49.7c0-0.9,0.9-1.9,2.3-1.9
			c1.4,0,2.3,0.9,2.3,1.9c0,0.9-0.9,1.9-2.3,1.9C103.6,51.5,102.7,50.6,102.7,49.7z M112.5,49.7c0-0.9,0.9-1.9,2.3-1.9
			s2.3,0.9,2.3,1.9c0,0.9-0.9,1.9-2.3,1.9C113.4,51.5,112.5,50.6,112.5,49.7z M121.8,49.7c0-0.9,0.9-1.9,2.3-1.9
			c1.4,0,2.3,0.9,2.3,1.9c0,0.9-0.9,1.9-2.3,1.9C122.7,51.5,121.8,50.6,121.8,49.7z M131.6,49.7c0-0.9,0.9-1.9,2.3-1.9
			s2.3,0.9,2.3,1.9c0,0.9-0.9,1.9-2.3,1.9S131.6,50.6,131.6,49.7z M140.9,49.7c0-0.9,0.9-1.9,2.3-1.9c1.4,0,2.3,0.9,2.3,1.9
			c0,0.9-0.9,1.9-2.3,1.9C142.3,51.5,140.9,50.6,140.9,49.7z M150.7,49.7c0-0.9,0.9-1.9,2.3-1.9s2.3,0.9,2.3,1.9
			c0,0.9-0.9,1.9-2.3,1.9C151.7,51.5,150.7,50.6,150.7,49.7z M160.1,49.7c0-0.9,0.9-1.9,2.3-1.9s2.3,0.9,2.3,1.9
			c0,0.9-0.9,1.9-2.3,1.9C161.5,51.5,160.1,50.6,160.1,49.7z M169.9,49.7c0-0.9,0.9-1.9,2.3-1.9c1.4,0,2.3,0.9,2.3,1.9
			c0,0.9-0.9,1.9-2.3,1.9C170.8,51.5,169.9,50.6,169.9,49.7z M179.2,49.7c0-0.9,0.9-1.9,2.3-1.9s2.3,0.9,2.3,1.9
			c0,0.9-0.9,1.9-2.3,1.9C180.6,51.5,179.7,50.6,179.2,49.7z M189,49.7c0-0.9,0.9-1.9,2.3-1.9s2.3,0.9,2.3,1.9
			c0,0.9-0.9,1.9-2.3,1.9C190.4,51.5,189,50.6,189,49.7z M198.8,49.7c0-0.9,0.9-1.9,2.3-1.9c1.4,0,2.3,0.9,2.8,1.9
			c0,0.9-0.9,1.9-2.3,1.9C199.7,51.5,198.8,50.6,198.8,49.7z M197.9,42.7c0-0.9,0.9-1.9,2.3-1.9c1.4,0,2.3,0.9,2.8,1.9
			c0,0.9-0.9,1.9-2.3,1.9C199.3,44.1,197.9,43.6,197.9,42.7z M188.5,42.7c0-0.9,0.9-1.9,2.3-1.9s2.3,0.9,2.3,1.9
			c0,0.9-0.9,1.9-2.3,1.9C189.5,44.1,188.5,43.6,188.5,42.7z M178.7,42.7c0-0.9,0.9-1.9,2.3-1.9s2.3,0.9,2.3,1.9
			c0,0.9-0.9,1.9-2.3,1.9C180.1,44.1,178.7,43.6,178.7,42.7z M169.4,42.7c0-0.9,0.9-1.9,2.3-1.9c1.4,0,2.3,0.9,2.3,1.9
			c0,0.9-0.9,1.9-2.3,1.9C170.3,44.1,169.4,43.6,169.4,42.7z M159.6,42.7c0-0.9,0.9-1.9,2.3-1.9s2.3,0.9,2.3,1.9
			c0,0.9-0.9,1.9-2.3,1.9C161,44.1,160.1,43.6,159.6,42.7z M150.3,42.7c0-0.9,0.9-1.9,2.3-1.9s2.3,0.9,2.3,1.9
			c0,0.9-0.9,1.9-2.3,1.9C151.7,44.1,150.3,43.6,150.3,42.7z M140.9,42.7c0-0.9,0.9-1.9,2.3-1.9c1.4,0,2.3,0.9,2.3,1.9
			c0,0.9-0.9,1.9-2.3,1.9C141.9,44.1,140.9,43.6,140.9,42.7z M131.1,42.7c0-0.9,0.9-1.9,2.3-1.9s2.3,0.9,2.3,1.9
			c0,0.9-0.9,1.9-2.3,1.9C132.5,44.1,131.1,43.6,131.1,42.7z M121.8,42.7c0-0.9,0.9-1.9,2.3-1.9c1.4,0,2.3,0.9,2.3,1.9
			c0,0.9-0.9,1.9-2.3,1.9C122.7,44.1,121.8,43.6,121.8,42.7z M112.5,42.2c0-0.9,0.9-1.9,2.3-1.9s2.3,0.9,2.3,1.9
			c0,0.9-0.9,1.9-2.3,1.9S112.5,43.6,112.5,42.2z M102.7,42.2c0-0.9,0.9-1.9,2.3-1.9c1.4,0,2.3,0.9,2.3,1.9c0,0.9-0.9,1.9-2.3,1.9
			C104.1,44.1,102.7,43.6,102.7,42.2z M93.3,42.2c0-0.9,0.9-1.9,2.3-1.9c1.4,0,2.3,0.9,2.3,1.9c0,0.9-0.9,1.9-2.3,1.9
			C94.3,44.1,93.3,43.6,93.3,42.2z M84,42.2c0-0.9,0.9-1.9,2.3-1.9s2.3,0.9,2.3,1.9c0,0.9-0.9,1.9-2.3,1.9
			C84.9,44.1,84,43.6,84,42.2z M64.9,42.2c0-0.9,0.9-1.9,2.3-1.9c1.4,0,2.3,0.9,2.3,1.9c0,0.9-0.9,1.9-2.3,1.9
			C65.8,44.1,64.9,43.6,64.9,42.2z M74.2,42.2c0-0.9,0.9-1.9,2.3-1.9c1.4,0,2.3,0.9,2.3,1.9c0,0.9-0.9,1.9-2.3,1.9
			C75.6,44.1,74.2,43.6,74.2,42.2z M55.5,42.2c0-0.9,0.9-1.9,2.3-1.9s2.3,0.9,2.3,1.9c0,0.9-0.9,1.9-2.3,1.9S55.5,43.6,55.5,42.2z
			 M197.4,35.2c0-0.9,0.9-1.9,2.3-1.9c1.4,0,2.3,0.9,2.3,1.9c0,0.9-0.9,1.9-2.3,1.9C198.3,37.1,197.4,36.1,197.4,35.2z M187.6,35.2
			c0-0.9,0.9-1.9,2.3-1.9s2.3,0.9,2.3,1.9c0,0.9-0.9,1.9-2.3,1.9C189,37.1,187.6,36.1,187.6,35.2z M178.3,35.2
			c0-0.9,0.9-1.9,2.3-1.9s2.3,0.9,2.3,1.9c0,0.9-0.9,1.9-2.3,1.9C179.7,37.1,178.3,36.1,178.3,35.2z M168.9,35.2
			c0-0.9,0.9-1.9,2.3-1.9c1.4,0,2.3,0.9,2.3,1.9c0,0.9-0.9,1.9-2.3,1.9C169.9,37.1,168.9,36.1,168.9,35.2z M159.1,35.2
			c0-0.9,0.9-1.9,2.3-1.9s2.3,0.9,2.3,1.9c0,0.9-0.9,1.9-2.3,1.9C160.5,37.1,159.6,36.1,159.1,35.2z M149.8,35.2
			c0-0.9,0.9-1.9,2.3-1.9s2.3,0.9,2.3,1.9c0,0.9-0.9,1.9-2.3,1.9C151.2,37.1,149.8,36.1,149.8,35.2z M140.5,35.2
			c0-0.9,0.9-1.9,2.3-1.9c1.4,0,2.3,0.9,2.3,1.9c0,0.9-0.9,1.9-2.3,1.9C141.4,37.1,140.5,36.1,140.5,35.2z M131.1,35.2
			c0-0.9,0.9-1.9,2.3-1.9s2.3,0.9,2.3,1.9c0,0.9-0.9,1.9-2.3,1.9S131.1,36.1,131.1,35.2z M121.8,35.2c0-0.9,0.9-1.9,2.3-1.9
			c1.4,0,2.3,0.9,2.3,1.9c0,0.9-0.9,1.9-2.3,1.9C122.7,37.1,121.8,36.1,121.8,35.2z M112,35.2c0-0.9,0.9-1.9,2.3-1.9
			s2.3,0.9,2.3,1.9c0,0.9-0.9,1.9-2.3,1.9C113.4,37.1,112,36.1,112,35.2z M102.7,35.2c0-0.9,0.9-1.9,2.3-1.9c1.4,0,2.3,0.9,2.3,1.9
			c0,0.9-0.9,1.9-2.3,1.9S102.7,36.1,102.7,35.2z M93.3,35.2c0-0.9,0.9-1.9,2.3-1.9c1.4,0,2.3,0.9,2.3,1.9c0,0.9-0.9,1.9-2.3,1.9
			C94.3,37.1,93.3,36.1,93.3,35.2z M84,35.2c0-0.9,0.9-1.9,2.3-1.9s2.3,0.9,2.3,1.9c0,0.9-0.9,1.9-2.3,1.9
			C84.9,37.1,84,36.1,84,35.2z M74.7,35.2c0-0.9,0.9-1.9,2.3-1.9c1.4,0,2.3,0.9,2.3,1.9c0,0.9-0.9,1.9-2.3,1.9S74.7,36.1,74.7,35.2z
			 M65.3,35.2c0-0.9,0.9-1.9,2.3-1.9s2.3,0.9,2.3,1.9c0,0.9-0.9,1.9-2.3,1.9C66.3,37.1,65.3,36.1,65.3,35.2z M56,35.2
			c0-0.9,0.9-1.9,2.3-1.9s2.3,0.9,2.3,1.9c0,0.9-0.9,1.9-2.3,1.9C56.9,37.1,55.5,36.1,56,35.2z M196.5,28.2c0-0.9,0.9-1.9,2.3-1.9
			s2.3,0.9,2.3,1.9c0,0.9-0.9,1.9-2.3,1.9C197.9,30.1,196.5,29.6,196.5,28.2z M187.1,28.2c0-0.9,0.9-1.9,2.3-1.9s2.3,0.9,2.3,1.9
			c0,0.9-0.9,1.9-2.3,1.9S187.1,29.1,187.1,28.2z M177.8,28.2c0-0.9,0.9-1.9,2.3-1.9s2.3,0.9,2.3,1.9c0,0.9-0.9,1.9-2.3,1.9
			S177.8,29.1,177.8,28.2z M168.5,28.2c0-0.9,0.9-1.9,2.3-1.9c1.4,0,2.3,0.9,2.3,1.9c0,0.9-0.9,1.9-2.3,1.9
			C169.4,30.1,168.5,29.1,168.5,28.2z M158.7,28.2c0-0.9,0.9-1.9,2.3-1.9s2.3,0.9,2.3,1.9c0,0.9-0.9,1.9-2.3,1.9
			C160.1,30.1,159.1,29.1,158.7,28.2z M149.3,28.2c0-0.9,0.9-1.9,2.3-1.9s2.3,0.9,2.3,1.9c0,0.9-0.9,1.9-2.3,1.9
			C150.7,30.1,149.3,29.1,149.3,28.2z M140,28.2c0-0.9,0.9-1.9,2.3-1.9c1.4,0,2.3,0.9,2.3,1.9c0,0.9-0.9,1.9-2.3,1.9
			C141.4,30.1,140,29.1,140,28.2z M130.7,28.2c0-0.9,0.9-1.9,2.3-1.9s2.3,0.9,2.3,1.9c0,0.9-0.9,1.9-2.3,1.9
			C132.1,30.1,130.7,29.1,130.7,28.2z M121.3,28.2c0-0.9,0.9-1.9,2.3-1.9c1.4,0,2.3,0.9,2.3,1.9c0,0.9-0.9,1.9-2.3,1.9
			C122.3,30.1,121.3,29.1,121.3,28.2z M112,28.2c0-0.9,0.9-1.9,2.3-1.9s2.3,0.9,2.3,1.9c0,0.9-0.9,1.9-2.3,1.9
			C112.9,30.1,112,29.1,112,28.2z M102.7,28.2c0-0.9,0.9-1.9,2.3-1.9c1.4,0,2.3,0.9,2.3,1.9c0,0.9-0.9,1.9-2.3,1.9
			S102.7,29.1,102.7,28.2z M93.3,28.2c0-0.9,0.9-1.9,2.3-1.9c1.4,0,2.3,0.9,2.3,1.9c0,0.9-0.9,1.9-2.3,1.9
			C94.3,30.1,93.3,29.1,93.3,28.2z M84,28.2c0-0.9,0.9-1.9,2.3-1.9s2.3,0.9,2.3,1.9c0,0.9-0.9,1.9-2.3,1.9
			C84.9,30.1,84,29.1,84,28.2z M74.7,28.2c0-0.9,0.9-1.9,2.3-1.9c1.4,0,2.3,0.9,2.3,1.9c0,0.9-0.9,1.9-2.3,1.9S74.7,29.1,74.7,28.2z
			 M65.3,28.2c0-0.9,0.9-1.9,2.3-1.9s2.3,0.9,2.3,1.9c0,0.9-0.9,1.9-2.3,1.9C66.3,30.1,65.3,29.1,65.3,28.2z M56,28.2
			c0-0.9,0.9-1.9,2.3-1.9s2.3,0.9,2.3,1.9c0,0.9-0.9,1.9-2.3,1.9C56.9,30.1,56,29.1,56,28.2z"/>
	</g>
	<path fill="#363636" d="M4.7,81.4h252C253.9,95.4,0.9,98.2,4.7,81.4z"/>
	<path fill="#3B3B3B" d="M4.7,81.4c-3.7,14.5,248.7,11.7,252,0H4.7z"/>
	<path fill="#424242" d="M4.7,81.4c-4.2,12.1,248.7,9.3,252,0H4.7z"/>
	<path fill="#4C4C4C" d="M4.7,81.4c-4.2,9.3,248.7,7.5,252,0H4.7z"/>
	<path fill="#666666" d="M4.7,81.4c-4.2,7,248.3,5.1,252,0H4.7z"/>
	<path fill="#9C9C9C" d="M4.7,81.4c-4.7,4.7,248.3,2.8,252,0H4.7z"/>
	<path fill="#D4D4D4" d="M4.7,81.4h252C252.9,81.9,0.5,83.7,4.7,81.4z"/>
	<path fill="#363636" d="M7.5,131.3h247.8C252,125.7,3.7,124.8,7.5,131.3z"/>
	<path fill="#383838" d="M7.5,131.3h247.8C252,126.7,3.3,125.7,7.5,131.3z"/>
	<path fill="#3B3B3B" d="M7.5,131.3h247.8C252,127.6,3.3,126.7,7.5,131.3z"/>
	<path fill="#404040" d="M7.5,131.3h247.8C252,128.5,3.3,127.6,7.5,131.3z"/>
	<path fill="#4A4A4A" d="M7.5,131.3h247.8C251.5,129.5,3.3,128.5,7.5,131.3z"/>
	<path fill="#636363" d="M7.5,131.3h247.8C251.5,130.4,2.8,129.5,7.5,131.3z"/>
	<path fill="#7D7D7D" d="M7.5,131.3h247.8C251.5,131.3,2.8,130.4,7.5,131.3z"/>
	<path fill="#5E5E5E" d="M7.9,123.9l-2.3-35h251.5l0,0l-2.3,35H7.9z M5.6,88.9L5.6,88.9L5.6,88.9L5.6,88.9z"/>
	<g>
		
			<linearGradient id="SVGID_1_" gradientUnits="userSpaceOnUse" x1="102.8931" y1="173.2849" x2="95.8359" y2="167.9278" gradientTransform="matrix(4.6667 0 0 -4.6667 -403.3333 903.3333)">
			<stop  offset="0" style="stop-color:#FCEBC4"/>
			<stop  offset="1" style="stop-color:#FFDEAB"/>
		</linearGradient>
		<rect x="42.9" y="94" fill="url(#SVGID_1_)" width="34.5" height="26.6"/>
		
			<linearGradient id="SVGID_2_" gradientUnits="userSpaceOnUse" x1="99.3786" y1="168.7938" x2="99.3786" y2="172.8032" gradientTransform="matrix(4.6667 0 0 -4.6667 -403.3333 903.3333)">
			<stop  offset="0" style="stop-color:#333333"/>
			<stop  offset="1" style="stop-color:#000000"/>
		</linearGradient>
		<polygon fill="url(#SVGID_2_)" points="45.3,100.1 45.3,118.7 75.6,118.7 75.6,100.1 71.9,100.1 71.9,95.9 49,95.9 49,100.1 		"/>
		<rect x="45.3" y="115.5" fill="#7C6D66" width="30.8" height="2.8"/>
		<rect x="47.6" y="108.9" width="1.9" height="6.5"/>
		<rect x="50.9" y="108.9" width="1.9" height="6.5"/>
		<rect x="54.1" y="108.9" width="1.9" height="6.5"/>
		<rect x="57.4" y="108.9" width="1.9" height="6.5"/>
		<rect x="60.7" y="108.9" width="1.9" height="6.5"/>
		<rect x="64.4" y="108.9" width="1.9" height="6.5"/>
		<rect x="67.7" y="108.9" width="1.9" height="6.5"/>
		<rect x="70.9" y="108.9" width="1.9" height="6.5"/>
		
			<linearGradient id="SVGID_3_" gradientUnits="userSpaceOnUse" x1="96.8286" y1="170.0278" x2="96.8286" y2="168.7941" gradientTransform="matrix(4.6667 0 0 -4.6667 -403.3333 903.3333)">
			<stop  offset="0" style="stop-color:#FFFFFF"/>
			<stop  offset="1" style="stop-color:#785C00"/>
		</linearGradient>
		<rect x="48.1" y="109.4" fill="url(#SVGID_3_)" width="0.9" height="6.1"/>
		
			<linearGradient id="SVGID_4_" gradientUnits="userSpaceOnUse" x1="97.5286" y1="170.0278" x2="97.5286" y2="168.7943" gradientTransform="matrix(4.6667 0 0 -4.6667 -403.3333 903.3333)">
			<stop  offset="0" style="stop-color:#FFFFFF"/>
			<stop  offset="1" style="stop-color:#785C00"/>
		</linearGradient>
		<rect x="51.3" y="109.4" fill="url(#SVGID_4_)" width="0.9" height="6.1"/>
		
			<linearGradient id="SVGID_5_" gradientUnits="userSpaceOnUse" x1="98.2286" y1="170.0278" x2="98.2286" y2="168.7941" gradientTransform="matrix(4.6667 0 0 -4.6667 -403.3333 903.3333)">
			<stop  offset="0" style="stop-color:#FFFFFF"/>
			<stop  offset="1" style="stop-color:#785C00"/>
		</linearGradient>
		<rect x="54.6" y="109.4" fill="url(#SVGID_5_)" width="0.9" height="6.1"/>
		
			<linearGradient id="SVGID_6_" gradientUnits="userSpaceOnUse" x1="98.9286" y1="170.0278" x2="98.9286" y2="168.7943" gradientTransform="matrix(4.6667 0 0 -4.6667 -403.3333 903.3333)">
			<stop  offset="0" style="stop-color:#FFFFFF"/>
			<stop  offset="1" style="stop-color:#785C00"/>
		</linearGradient>
		<rect x="57.9" y="109.4" fill="url(#SVGID_6_)" width="0.9" height="6.1"/>
		
			<linearGradient id="SVGID_7_" gradientUnits="userSpaceOnUse" x1="99.7286" y1="170.0278" x2="99.7286" y2="168.7943" gradientTransform="matrix(4.6667 0 0 -4.6667 -403.3333 903.3333)">
			<stop  offset="0" style="stop-color:#FFFFFF"/>
			<stop  offset="1" style="stop-color:#785C00"/>
		</linearGradient>
		<rect x="61.6" y="109.4" fill="url(#SVGID_7_)" width="0.9" height="6.1"/>
		
			<linearGradient id="SVGID_8_" gradientUnits="userSpaceOnUse" x1="100.4286" y1="170.0278" x2="100.4286" y2="168.7941" gradientTransform="matrix(4.6667 0 0 -4.6667 -403.3333 903.3333)">
			<stop  offset="0" style="stop-color:#FFFFFF"/>
			<stop  offset="1" style="stop-color:#785C00"/>
		</linearGradient>
		<rect x="64.9" y="109.4" fill="url(#SVGID_8_)" width="0.9" height="6.1"/>
		
			<linearGradient id="SVGID_9_" gradientUnits="userSpaceOnUse" x1="101.1286" y1="170.0278" x2="101.1286" y2="168.7941" gradientTransform="matrix(4.6667 0 0 -4.6667 -403.3333 903.3333)">
			<stop  offset="0" style="stop-color:#FFFFFF"/>
			<stop  offset="1" style="stop-color:#785C00"/>
		</linearGradient>
		<rect x="68.1" y="109.4" fill="url(#SVGID_9_)" width="0.9" height="6.1"/>
		
			<linearGradient id="SVGID_10_" gradientUnits="userSpaceOnUse" x1="101.8286" y1="170.0278" x2="101.8286" y2="168.7943" gradientTransform="matrix(4.6667 0 0 -4.6667 -403.3333 903.3333)">
			<stop  offset="0" style="stop-color:#FFFFFF"/>
			<stop  offset="1" style="stop-color:#785C00"/>
		</linearGradient>
		<rect x="71.4" y="109.4" fill="url(#SVGID_10_)" width="0.9" height="6.1"/>
	</g>
	<g>
		
			<linearGradient id="SVGID_11_" gradientUnits="userSpaceOnUse" x1="126.0288" y1="173.136" x2="118.9715" y2="167.7789" gradientTransform="matrix(4.6667 0 0 -4.6667 -403.3333 903.3333)">
			<stop  offset="0" style="stop-color:#FCE8C4"/>
			<stop  offset="1" style="stop-color:#FFDEAB"/>
		</linearGradient>
		<rect x="151.2" y="94.5" fill="url(#SVGID_11_)" width="34.5" height="26.6"/>
		
			<linearGradient id="SVGID_12_" gradientUnits="userSpaceOnUse" x1="122.5286" y1="168.6628" x2="122.5286" y2="172.6722" gradientTransform="matrix(4.6667 0 0 -4.6667 -403.3333 903.3333)">
			<stop  offset="0" style="stop-color:#333333"/>
			<stop  offset="1" style="stop-color:#000000"/>
		</linearGradient>
		<polygon fill="url(#SVGID_12_)" points="153.1,101 153.1,119.2 183.9,119.2 183.9,101 179.7,101 179.7,96.8 156.8,96.8 156.8,101 
					"/>
		<rect x="153.1" y="116.4" fill="#7C6D66" width="30.8" height="2.8"/>
		<rect x="155.4" y="109.4" width="1.9" height="6.5"/>
		<rect x="158.7" y="109.4" width="1.9" height="6.5"/>
		<rect x="161.9" y="109.4" width="1.9" height="6.5"/>
		<rect x="165.7" y="109.4" width="1.9" height="6.5"/>
		<rect x="168.9" y="109.4" width="1.9" height="6.5"/>
		<rect x="172.2" y="109.4" width="1.9" height="6.5"/>
		<rect x="175.5" y="109.4" width="1.9" height="6.5"/>
		<rect x="178.7" y="109.4" width="1.9" height="6.5"/>
		
			<linearGradient id="SVGID_13_" gradientUnits="userSpaceOnUse" x1="119.9286" y1="169.8968" x2="119.9286" y2="168.6631" gradientTransform="matrix(4.6667 0 0 -4.6667 -403.3333 903.3333)">
			<stop  offset="0" style="stop-color:#FFFFFF"/>
			<stop  offset="1" style="stop-color:#785C00"/>
		</linearGradient>
		<rect x="155.9" y="109.9" fill="url(#SVGID_13_)" width="0.9" height="6.1"/>
		
			<linearGradient id="SVGID_14_" gradientUnits="userSpaceOnUse" x1="120.6286" y1="169.8968" x2="120.6286" y2="168.6633" gradientTransform="matrix(4.6667 0 0 -4.6667 -403.3333 903.3333)">
			<stop  offset="0" style="stop-color:#FFFFFF"/>
			<stop  offset="1" style="stop-color:#785C00"/>
		</linearGradient>
		<rect x="159.1" y="109.9" fill="url(#SVGID_14_)" width="0.9" height="6.1"/>
		
			<linearGradient id="SVGID_15_" gradientUnits="userSpaceOnUse" x1="121.3286" y1="169.8968" x2="121.3286" y2="168.6631" gradientTransform="matrix(4.6667 0 0 -4.6667 -403.3333 903.3333)">
			<stop  offset="0" style="stop-color:#FFFFFF"/>
			<stop  offset="1" style="stop-color:#785C00"/>
		</linearGradient>
		<rect x="162.4" y="109.9" fill="url(#SVGID_15_)" width="0.9" height="6.1"/>
		
			<linearGradient id="SVGID_16_" gradientUnits="userSpaceOnUse" x1="122.1286" y1="169.8968" x2="122.1286" y2="168.6633" gradientTransform="matrix(4.6667 0 0 -4.6667 -403.3333 903.3333)">
			<stop  offset="0" style="stop-color:#FFFFFF"/>
			<stop  offset="1" style="stop-color:#785C00"/>
		</linearGradient>
		<rect x="166.1" y="109.9" fill="url(#SVGID_16_)" width="0.9" height="6.1"/>
		
			<linearGradient id="SVGID_17_" gradientUnits="userSpaceOnUse" x1="122.8286" y1="169.8968" x2="122.8286" y2="168.6633" gradientTransform="matrix(4.6667 0 0 -4.6667 -403.3333 903.3333)">
			<stop  offset="0" style="stop-color:#FFFFFF"/>
			<stop  offset="1" style="stop-color:#785C00"/>
		</linearGradient>
		<rect x="169.4" y="109.9" fill="url(#SVGID_17_)" width="0.9" height="6.1"/>
		
			<linearGradient id="SVGID_18_" gradientUnits="userSpaceOnUse" x1="123.5286" y1="169.8968" x2="123.5286" y2="168.6631" gradientTransform="matrix(4.6667 0 0 -4.6667 -403.3333 903.3333)">
			<stop  offset="0" style="stop-color:#FFFFFF"/>
			<stop  offset="1" style="stop-color:#785C00"/>
		</linearGradient>
		<rect x="172.7" y="109.9" fill="url(#SVGID_18_)" width="0.9" height="6.1"/>
		
			<linearGradient id="SVGID_19_" gradientUnits="userSpaceOnUse" x1="124.2286" y1="169.8968" x2="124.2286" y2="168.6631" gradientTransform="matrix(4.6667 0 0 -4.6667 -403.3333 903.3333)">
			<stop  offset="0" style="stop-color:#FFFFFF"/>
			<stop  offset="1" style="stop-color:#785C00"/>
		</linearGradient>
		<rect x="175.9" y="109.9" fill="url(#SVGID_19_)" width="0.9" height="6.1"/>
		
			<linearGradient id="SVGID_20_" gradientUnits="userSpaceOnUse" x1="124.9286" y1="169.8968" x2="124.9286" y2="168.6633" gradientTransform="matrix(4.6667 0 0 -4.6667 -403.3333 903.3333)">
			<stop  offset="0" style="stop-color:#FFFFFF"/>
			<stop  offset="1" style="stop-color:#785C00"/>
		</linearGradient>
		<rect x="179.2" y="109.9" fill="url(#SVGID_20_)" width="0.9" height="6.1"/>
	</g>
	<g>
		
			<linearGradient id="SVGID_21_" gradientUnits="userSpaceOnUse" x1="136.0426" y1="173.1465" x2="128.9854" y2="167.7894" gradientTransform="matrix(4.6667 0 0 -4.6667 -403.3333 903.3333)">
			<stop  offset="0" style="stop-color:#FCE8C7"/>
			<stop  offset="1" style="stop-color:#FFDEAB"/>
		</linearGradient>
		<rect x="197.9" y="94.5" fill="url(#SVGID_21_)" width="34.5" height="26.6"/>
		
			<linearGradient id="SVGID_22_" gradientUnits="userSpaceOnUse" x1="132.5286" y1="168.6628" x2="132.5286" y2="172.6722" gradientTransform="matrix(4.6667 0 0 -4.6667 -403.3333 903.3333)">
			<stop  offset="0" style="stop-color:#333333"/>
			<stop  offset="1" style="stop-color:#000000"/>
		</linearGradient>
		<polygon fill="url(#SVGID_22_)" points="199.7,101 199.7,119.2 230.5,119.2 230.5,101 226.8,101 226.8,96.8 203.5,96.8 203.5,101 
					"/>
		<rect x="199.7" y="116.4" fill="#7C6D66" width="30.8" height="2.8"/>
		<rect x="202.1" y="109.4" width="1.9" height="6.5"/>
		<rect x="205.3" y="109.4" width="1.9" height="6.5"/>
		<rect x="209.1" y="109.4" width="1.9" height="6.5"/>
		<rect x="212.3" y="109.4" width="1.9" height="6.5"/>
		<rect x="215.6" y="109.4" width="1.9" height="6.5"/>
		<rect x="218.9" y="109.4" width="1.9" height="6.5"/>
		<rect x="222.1" y="109.4" width="1.9" height="6.5"/>
		<rect x="225.9" y="109.4" width="1.9" height="6.5"/>
		
			<linearGradient id="SVGID_23_" gradientUnits="userSpaceOnUse" x1="129.9286" y1="169.8968" x2="129.9286" y2="168.6631" gradientTransform="matrix(4.6667 0 0 -4.6667 -403.3333 903.3333)">
			<stop  offset="0" style="stop-color:#FFFFFF"/>
			<stop  offset="1" style="stop-color:#785C00"/>
		</linearGradient>
		<rect x="202.5" y="109.9" fill="url(#SVGID_23_)" width="0.9" height="6.1"/>
		
			<linearGradient id="SVGID_24_" gradientUnits="userSpaceOnUse" x1="130.6286" y1="169.8968" x2="130.6286" y2="168.6633" gradientTransform="matrix(4.6667 0 0 -4.6667 -403.3333 903.3333)">
			<stop  offset="0" style="stop-color:#FFFFFF"/>
			<stop  offset="1" style="stop-color:#785C00"/>
		</linearGradient>
		<rect x="205.8" y="109.9" fill="url(#SVGID_24_)" width="0.9" height="6.1"/>
		
			<linearGradient id="SVGID_25_" gradientUnits="userSpaceOnUse" x1="131.4286" y1="169.8968" x2="131.4286" y2="168.6631" gradientTransform="matrix(4.6667 0 0 -4.6667 -403.3333 903.3333)">
			<stop  offset="0" style="stop-color:#FFFFFF"/>
			<stop  offset="1" style="stop-color:#785C00"/>
		</linearGradient>
		<rect x="209.5" y="109.9" fill="url(#SVGID_25_)" width="0.9" height="6.1"/>
		
			<linearGradient id="SVGID_26_" gradientUnits="userSpaceOnUse" x1="132.1286" y1="169.8968" x2="132.1286" y2="168.6633" gradientTransform="matrix(4.6667 0 0 -4.6667 -403.3333 903.3333)">
			<stop  offset="0" style="stop-color:#FFFFFF"/>
			<stop  offset="1" style="stop-color:#785C00"/>
		</linearGradient>
		<rect x="212.8" y="109.9" fill="url(#SVGID_26_)" width="0.9" height="6.1"/>
		
			<linearGradient id="SVGID_27_" gradientUnits="userSpaceOnUse" x1="132.8286" y1="169.8968" x2="132.8286" y2="168.6633" gradientTransform="matrix(4.6667 0 0 -4.6667 -403.3333 903.3333)">
			<stop  offset="0" style="stop-color:#FFFFFF"/>
			<stop  offset="1" style="stop-color:#785C00"/>
		</linearGradient>
		<rect x="216.1" y="109.9" fill="url(#SVGID_27_)" width="0.9" height="6.1"/>
		
			<linearGradient id="SVGID_28_" gradientUnits="userSpaceOnUse" x1="133.5286" y1="169.8968" x2="133.5286" y2="168.6631" gradientTransform="matrix(4.6667 0 0 -4.6667 -403.3333 903.3333)">
			<stop  offset="0" style="stop-color:#FFFFFF"/>
			<stop  offset="1" style="stop-color:#785C00"/>
		</linearGradient>
		<rect x="219.3" y="109.9" fill="url(#SVGID_28_)" width="0.9" height="6.1"/>
		
			<linearGradient id="SVGID_29_" gradientUnits="userSpaceOnUse" x1="134.2286" y1="169.8968" x2="134.2286" y2="168.6631" gradientTransform="matrix(4.6667 0 0 -4.6667 -403.3333 903.3333)">
			<stop  offset="0" style="stop-color:#FFFFFF"/>
			<stop  offset="1" style="stop-color:#785C00"/>
		</linearGradient>
		<rect x="222.6" y="109.9" fill="url(#SVGID_29_)" width="0.9" height="6.1"/>
		
			<linearGradient id="SVGID_30_" gradientUnits="userSpaceOnUse" x1="135.0286" y1="169.8968" x2="135.0286" y2="168.6633" gradientTransform="matrix(4.6667 0 0 -4.6667 -403.3333 903.3333)">
			<stop  offset="0" style="stop-color:#FFFFFF"/>
			<stop  offset="1" style="stop-color:#785C00"/>
		</linearGradient>
		<rect x="226.3" y="109.9" fill="url(#SVGID_30_)" width="0.9" height="6.1"/>
	</g>
	<rect x="5.6" y="88.4" fill="#212121" width="251.5" height="0.9"/>
	<rect x="5.6" y="89.3" fill="#B8B8B8" width="250.6" height="0.9"/>
	<rect x="140.9" y="90.3" fill="#828282" width="0.9" height="33.1"/>
	<rect x="140" y="90.3" fill="#404040" width="0.9" height="33.1"/>
	<rect x="243.1" y="90.3" fill="#828282" width="0.9" height="33.1"/>
	<rect x="242.2" y="90.3" fill="#404040" width="0.9" height="33.1"/>
	<rect x="6.1" y="72.1" fill="#212121" width="247.8" height="0.9"/>
	<rect x="6.1" y="71.1" fill="#EBEBEB" width="246.9" height="0.9"/>
	<rect x="7.5" y="123.4" fill="#212121" width="246.9" height="0.9"/>
	<rect x="7.5" y="124.3" fill="#828282" width="246.9" height="0.9"/>
</g>
</svg>
