<?xml version="1.0" encoding="utf-8"?>
<!-- Generator: Adobe Illustrator 21.0.0, SVG Export Plug-In . SVG Version: 6.00 Build 0)  -->
<svg version="1.1" id="图层_1" xmlns="http://www.w3.org/2000/svg" xmlns:xlink="http://www.w3.org/1999/xlink" x="0px" y="0px" width="283.5" height="258"
	 viewBox="0 0 60 60" style="enable-background:new 0 0 60 60;" xml:space="preserve">
<style type="text/css">
	.st0{fill:#B5B979;}
	.st1{fill:#FA9E52;}
	.st2{fill:#E68C3B;}
	.st3{fill:#96CB4F;}
	.st4{fill:#DFE99B;}
	.st5{fill:#789C00;}
	.st6{fill:#618017;}
	.st7{fill:#4F6600;}
	.st8{fill:#CB523D;}
	.st9{fill:#96C753;}
	.st10{fill:#577823;}
	.st11{fill:#A09785;}
	.st12{fill:#675844;}
	.st13{fill:#463829;}
	.st14{fill:#362A1A;}
	.st15{fill:#281C13;}
	.st16{fill:#C8E0A4;}
	.st17{fill:#6B9923;}
	.st18{fill:#4D7804;}
	.st19{fill:#94C942;}
	.st20{fill:#D9B863;}
	.st21{fill:#789508;}
	.st22{fill:#69781F;}
</style>
<g>
	<g>
		<g>
			<path class="st0" d="M57.5,22.3c-0.2-0.1-0.8,0.2-0.9,0c-0.2-0.1-0.4-0.7-0.6-0.8c-0.4-0.3-1-1.1-1.5-1.4
				c-0.8-0.3-0.9-0.4-1.5-0.9c-0.2-0.2,0.3-0.6-0.2-1c-0.5-0.5-0.6,0.1-0.9,0c-1-0.4-1.5-3.1-3.3-1.9c-0.7-1.7-2.7,0.3-2.9,1.4
				c-0.5-0.6-1.3-0.8-1.7,0.1c-0.9-1.3-2.5-1.8-3.4-1c-1.1,0.9-1.6-0.8-2.8,1.1c-0.9-0.4-3.2-1.2-3.6,0.3c-0.1,0.5,0.3,1.1,0.1,1.2
				c-0.3,0.1-1.3-0.1-1.4,0.1c-0.3,0.1-0.7,0.1-1,0.3c-0.3,0.2-0.2,0.6-0.4,0.7c-0.5,0.7-0.7,1-1.1,1.6c-0.1,0.2-0.1,0.7-0.2,0.9
				c-0.1,0.3-0.5,0.5-0.6,0.9c-0.7,1.5,0.9,2.1,0.7,3.5c0.4,0,0.9,0.1,1.2-0.1c-0.3,0.3-0.2,0.6-0.4,0.9c0.6,0.2,1.1-0.2,1.6-0.3
				c-0.1,0.3-0.1,0.9-0.1,1.1c0.7-0.2,1.8,0.3,0.7,0.9c-3.1,0.5-0.8,5.3,1.6,3.4c0.3,0.7,1.1,0.6,1.6,0.2c0.5,0.8,1.2,0,1.9,0
				c0.4-0.1,0.6,0.4,1.2,0.2c0.4-0.2,0.7-1,0.9-1.3c0.7,0.6,1.3,0,1.3-0.8c0.9,0.1,0.3-0.6,0.8-1c0.6-0.5,1-0.1,1.4-0.8
				c0.9,0.6,1.5-0.4,1.8-1.1c0.1,0.2,0.2,0.3,0.3,0.4c0.6-0.5,0.5-1.4,0.3-2.2c0.3,0.7,1.1,0.5,1.5-0.1c0.4,0.9,0.9,0.1,1.4,0.5
				c0.4,0.4,0.3,0.2,0.4,0.8c0-0.2-0.1,1.4,0,1.3c-0.1,0.3-0.1,0.4-0.2,0.5c0.5,0.2-1.2,1-1.9,1c-0.4,0.7-0.9,3,0.7,1.9
				c-0.1,0.2,0,0.5-0.1,0.7c1-0.1,1.3,1.7,2.1,0.5c0.2,0.9,1.1,1,1.7,0.3c0.5,0.4,0.9,1,1.7,0.7c0.9-0.4,0.5-1.6,1.6-1.5
				c0.1-0.2,0.1-0.5,0.1-0.7c0.2,0,0.6,0.1,0.8,0.1c0.1-0.1,0-0.3,0.2-0.3c0.9,1,2.2-0.2,2.3-1.2c0-0.2-0.9-2.1-1-2.3
				c0.6-0.5-0.1-2.9-0.7-3.3C59.2,25.6,58.8,23,57.5,22.3z"/>
		</g>
		<g>
			<path class="st1" d="M38.2,25.6C38.2,25.7,38.3,25.7,38.2,25.6C38.3,25.7,38.3,25.7,38.2,25.6z"/>
		</g>
		<g>
			<path class="st2" d="M40.1,30.7c0,0,0-0.1,0-0.1C40.1,30.6,40.1,30.6,40.1,30.7z"/>
		</g>
	</g>
	<g>
		<path class="st3" d="M50.1,18.7c-0.2-0.7-0.6-1.6-1.4-1c-0.2-0.3-1-0.3-1.3-0.1c-0.4-0.4-0.3-0.7-0.6-1c-0.4-0.3-0.4-0.7-1-0.3
			c-0.4,0.2-0.3,0.4-0.5,0.6c-0.3,0.4-0.2,0.3-0.7,0.5c-0.7,0.3-0.9,0.4-1,1.1c-0.9,0.3-0.7,1.1-0.4,1.5c-0.2,0.2-0.5-0.5-1.3-0.2
			c-0.6,0.6-0.5,1.2-0.1,2c-0.3,0.3-2,0.4-1.1,1.7c-0.4-0.2-0.9-0.2-1,0.3c-0.1,0.5,0.5,0.4,0.2,1.1c-0.1,0.3,0,0.5-0.3,0.8
			c-0.2,0.1-0.5,0.1-0.7,0.3c-0.2,0.2-0.1,0.5-0.3,0.8c-0.2,0.2-0.5,0.3-0.6,0.7c-0.6-0.5-1.6-0.7-2.1-0.2c-0.2,0.2,0,0.6-0.1,0.8
			c-0.2,0.4-0.7,0-0.8,0.5c-0.2,0.4-0.3,2.8-0.2,2.8c0.1,0.5,1.5,2.3,2.1,1.4c0.7,0.3,1.5-0.4,1.1-1.2c0.7,0.2,1.1-0.6,1.1-1.2
			c0.2,0.6,0.4,1.2,0.9,1.5c0.1-0.2,0.3-0.3,0.4-0.6c0.8,0.2,1.3-0.7,1.3-1.4c0,1.3,1.4,3.6,2,1.3c0.1,0,0.3,0.1,0.4,0.1
			c0.2-0.3,0.3-0.7,0.3-1.1c0.5,1.6,2,1.2,1.8-0.4c0.1,0.3,0.3,1,0.5,1.2c0,0,1.2,0.2,1.1,0.3c0.3,0,0.4-0.4,0.6-0.4
			c0.1-0.1,0.4,0.2,0.6,0.1c0.4-0.2,0.8-0.5,1-0.9c0,0.6,0.3,1.4,0.7,1.9c0-0.1,0.2-0.2,0.3-0.3c0.3,0.9,1,0.4,1.4,0
			c-0.2,1.8,1.1,0.4,1.6,1.3c0.1-0.1,0.5-0.5,0.6-0.6c0.6,0.9,2,1,2-0.5c0.7,1.1,3.2-0.8,1.8-1.4c0.2-0.4-0.1-0.8-0.6-0.8
			c1,0,1.7-1.6,0.8-2.2c0.5-0.3,0.3-1.3-0.3-1c-0.2-1-0.5-1.4-1.6-1.4c-0.2,0-0.4,0.1-0.6,0.1c-0.2,0-0.3-0.2-0.5-0.2
			c-0.4,0-0.6-0.1-1,0.2c-1.1-0.3,0-0.6-0.4-1.3c0.8,0,1.1-0.6,0.6-1.3c0.8-0.4,0.2-1.5-0.5-1.1c0-0.5-0.3-1-1.1-0.5
			c0.2-0.5,0.2-0.8,0-1.2c-0.3-0.4-0.4,0.2-0.8,0c0.2-0.8-0.9-0.3-0.9-0.4c0.1-0.4,0-0.7-0.2-0.8c-0.5-0.2-0.9-0.3-1.3,0L50.1,18.7z
			"/>
		<path class="st4" d="M50.7,21c0.2-0.4-0.3-0.3-0.5-0.5c0,0-0.3-0.1-0.4-0.2c-0.2-0.1-0.3-0.5-0.5-0.6c-0.2-0.1-0.4,0-0.7,0
			c-0.2-0.1-0.3-0.3-0.6-0.3c-0.6-0.1-0.4,0.3-0.8,0.5c-0.1,0-1.4-0.3-0.6,0.3c-0.2,0.3-0.5,0.4-0.7,0.6c0.2,0.1,0.3,0.2,0.4,0.4
			c0.4,0,0.6-0.5,1-0.6c0.3-0.1,0.5,0.1,0.8,0.1c0.3,0,0.3-0.2,0.6-0.2c0.1,0,0.3,0.4,0.3,0.5c0.1,0.1,0.3-0.1,0.4-0.1
			c0.1,0.1,0.2,0.3,0.3,0.3c0.5,0.1,1,0.2,1.4,0.5C51.2,21.5,51,21.2,50.7,21z"/>
		<path class="st5" d="M36.8,33c-0.6,0.9-2-0.9-2.1-1.4c-0.1,0,0-2.4,0.2-2.8c0.1-0.5,0.6-0.1,0.8-0.5c0.1-0.2-0.1-0.6,0.1-0.8
			c0.5-0.6,1.5-0.3,2.1,0.2c0.1-0.4,0.5-0.5,0.6-0.7c0.1-0.3,0.1-0.6,0.3-0.8c0.1-0.2,0.5-0.1,0.7-0.3c0.3-0.3,0.2-0.4,0.2-0.7
			c0.2,0.4-0.3,1.6,0.3,1.5c-0.5,0.6-0.2,1.1,0.3,1.2c0.4,0,0.5-0.5,0.5-0.7c0.5,0.6,1.1-0.2,1.3-0.8c0,0,0.1,0.6,0.4,0.1
			c0.1,0.4,0.3,0.6,0.7,0.5c0.2,1.8,2.2,1,1.5-0.4c0.8,0.6,1.7-0.2,1.6-0.8c0.9,0.8,1.3-0.1,1.4-0.6c0,0.9,0.4,1.1,0.9,0.8
			c0,1.6,1.2,2,2.2,0.8c0.6,1.6,2.7,1.2,2.5,0.3c0-0.6-0.9-0.3-1.1-0.5c0.5-0.6-0.3-0.8-0.6-0.7c-0.2-0.2,2.4-0.3,1.7-2
			c0.6-0.4,1.6-0.5,1-1.2c0.2-0.4,1.1-0.7,0.1-1.1c0,0,0,0,0,0c0.7-0.3,1.2,0.7,0.5,1.1c0.5,0.7,0.2,1.3-0.6,1.3
			c0.4,0.6-0.7,1,0.4,1.3c0.4-0.3,0.6-0.2,1-0.2c0.2,0,0.3,0.2,0.5,0.2c0.1,0,0.4-0.1,0.6-0.1c1.1,0,1.4,0.4,1.6,1.4
			c0.6-0.3,0.8,0.7,0.3,1c0.9,0.6,0.2,2.2-0.8,2.2c0.5,0,0.8,0.4,0.6,0.8c1.4,0.6-1,2.5-1.8,1.4c0,1.5-1.4,1.3-2,0.5
			c-0.1,0.1-0.5,0.5-0.6,0.6c-0.5-0.8-1.8,0.6-1.6-1.3c-0.4,0.5-1.1,1-1.4,0c-0.1,0.1-0.3,0.2-0.3,0.3c-0.4-0.5-0.6-1.2-0.7-1.9
			c-0.2,0.4-0.5,0.7-1,0.9c-0.1,0.1-0.4-0.2-0.6-0.1c-0.2,0-0.4,0.4-0.6,0.4c0.1,0-1.1-0.3-1.1-0.3c-0.2-0.2-0.4-0.9-0.5-1.2
			c0.1,1.6-1.3,2-1.8,0.4c0,0.4-0.1,0.8-0.3,1.1c-0.1,0-0.3-0.1-0.4-0.1c-0.6,2.2-1.9,0.1-2-1.2c0,0.7-0.5,1.5-1.3,1.3
			c0,0.2-0.3,0.4-0.4,0.6c-0.5-0.3-0.7-1-0.9-1.5c0,0.6-0.4,1.4-1.1,1.2C38.3,32.6,37.5,33.3,36.8,33z"/>
		<g>
			<path class="st6" d="M34.7,31.6c-0.1,0,0-2.4,0.2-2.8c0.1-0.5,0.6-0.1,0.8-0.5c0.2,0.5-1.1,0.3-0.3,1.2c-0.2,0.6-0.6,0.8,0,1.3
				c0-0.2,0.6,0.1,0.5-0.2c0.1,0.3,0.4,1.4,0.5,0.7c0.1,0,0.2,0.1,0.3,0.1c0.1-0.5,0.6-0.2,0.9-0.5c0.2-0.1,0.2-0.8,0.2-0.9
				c0.4-0.1,0.6-0.4,0.6-0.7c0.2,0.4,0.7,0.5,0.9,0c0.1,0.6,0.4,0.8,0.7,0c0.1,0.6,0.8,1,1,0.1c0.2,0.7,0.5,0.1,0.5-0.1
				c0.3,0.9,0.8,1,1.5,0.7c0,0,0.1-0.4,0.2-0.4c0-0.1,0.3,0,0.4-0.1c0.2-0.2,0.3-0.4,0.3-0.6c0.2,0.4,0.6,0.9,1,1
				c0.6,0.2,1-0.2,0.8-0.8c0.3,0,0.5-0.3,0.5-0.6c0.1,0.3,0.2,0.6,0.5,0.7c0-0.1,0.1-0.1,0.2-0.2c0.3,0.4,0.8,0.3,0.7-0.2
				c0.1,0.3,0.6,1.4,1,0.9c0.4,0.4,0.9-0.1,0.9-0.6c0.2,0.5,1.2-0.3,1.4-0.8c-0.2,1,0.1,1.5,0.3,1.6c0.2,0.1,0.5,0.2,0.6,0.1
				c0.1,0.6,0.6,1.6,0.8,0.8c0.3,1.1,1,0.5,1.1-0.3c0.1,0.4,0.2,1,0.7,0.8c0,0.6,0.4,1.1,1,0.6c0.4-0.3,0.1-0.3,0.2-0.6
				c0-0.1-0.5-0.5-0.7-0.9c0.8,1,1.3,0.2,0.8-0.3c0.3,0.1,0.5,0.2,0.6,0c0.1-0.4-0.4-0.6,0.3-0.9c-0.1-0.1-0.1-0.3-0.3-0.4
				c0.5,0.2,1.3-0.2,0.8-0.7c0.4-0.1,0.4-0.6,0.1-0.7c0.5-0.2,0.7-0.6,0.3-1c0.3-0.2,0.1-0.7-0.3-0.9c0.5,0.2,0.7,0.6,0.9,1.3
				c0.6-0.3,0.8,0.7,0.3,1c0.9,0.6,0.2,2.2-0.8,2.2c0.5,0,0.8,0.4,0.6,0.8c1.4,0.6-1,2.5-1.8,1.4c0,1.5-1.4,1.3-2,0.5
				c-0.1,0.1-0.5,0.5-0.6,0.6c-0.5-0.8-1.8,0.6-1.6-1.3c-0.4,0.5-1.1,1-1.4,0c-0.1,0.1-0.3,0.2-0.3,0.3c-0.4-0.5-0.6-1.2-0.7-1.9
				c-0.2,0.4-0.5,0.7-1,0.9c-0.1,0.1-0.4-0.2-0.6-0.1c-0.2,0-0.4,0.4-0.6,0.4c0.1,0-1.1-0.3-1.1-0.3c-0.2-0.2-0.4-0.9-0.5-1.2
				c0.1,1.6-1.3,2-1.8,0.4c0,0.4-0.1,0.8-0.3,1.1c-0.1,0-0.3-0.1-0.4-0.1c-0.6,2.2-1.9,0.1-2-1.2c0,0.7-0.5,1.5-1.3,1.3
				c0,0.2-0.3,0.4-0.4,0.6c-0.5-0.3-0.7-1-0.9-1.5c0,0.6-0.4,1.4-1.1,1.2c0.4,0.7-0.4,1.5-1.1,1.2C36.2,33.9,34.8,32.2,34.7,31.6z"
				/>
		</g>
		<g>
			<path class="st7" d="M45.6,30.8c0.1,0,0.1-0.4,0.2-0.5c0.1-0.2,0.3-0.2,0.4-0.5c0.4,0.2,0.3,0.8,0.6,1.1c0-0.1,0-0.3,0-0.4
				c0.2,0.4,0.4,0.6,0.9,0.5c0.2,0,0.7-0.1,0.9-0.4c0.2,0.6,1.1-0.3,1.2-0.5c0.6,0.1,0.7,1.6,1.2,1.5c0,0.1,0.2,0.2,0.2,0.3
				c0.2-0.2,0.8-0.1,1.1-0.2c0,0.2,0.1,0.3,0.3,0.2c0,0.3,0,0.5,0.2,0.8c0.1-0.1,0.1-0.3,0.1-0.5c0.1,0.1,0.3,0.4,0.4,0.4
				c0.1,0.1,0.2-0.1,0.4-0.1c0.1,0,0.2,0.1,0.4,0.1c0.3-0.1,0.3-0.3,0.6-0.2c0.3,0,0.4,0.5,0.6,0c0.3,0.3,0.9,0.4,0.6-0.1
				c0.4,0,0.5-0.4,0.4-0.6c0.1,0.2,0.5,0.3,0.6-0.1C57,31.8,57,32,57.3,32c0.3-0.1,0.4-0.4,0.2-0.6c0.9,0,0.6-0.4,0.3-0.8
				c0.5,0,0.3-0.3,0.3-0.4c0.2,0.2,0.2,0.4,0.1,0.7c1.4,0.6-1,2.5-1.8,1.4c0,1.5-1.4,1.3-2,0.5c-0.1,0.1-0.5,0.5-0.6,0.6
				c-0.5-0.8-1.8,0.6-1.6-1.3c-0.4,0.5-1.1,1-1.4,0c-0.1,0.1-0.3,0.2-0.3,0.3c-0.4-0.5-0.6-1.2-0.7-1.9c-0.2,0.4-0.5,0.7-1,0.9
				c-0.1,0.1-0.4-0.2-0.6-0.1c-0.2,0-0.4,0.4-0.6,0.4c0.1,0-1.1-0.3-1.1-0.3c-0.2-0.2-0.4-0.9-0.5-1.2c0.1,1.6-1.3,2-1.8,0.5
				c0-0.1,0.1-0.3,0.1-0.4C44.6,30.7,45.1,31.3,45.6,30.8z"/>
			<path class="st8" d="M44.1,31.3c0-0.2,0-0.3,0.1-0.5C44.2,31,44.2,31.1,44.1,31.3z"/>
		</g>
	</g>
	<g>
		<path class="st9" d="M24.6,22.6c-0.1-0.4-0.6-0.6-0.9-0.3c0-0.9-0.6-0.4-1-0.4c1.8-0.4,0.9-2.2-0.7-1c-0.4-0.8-1.1-0.3-1.6,0.1
			c0-0.8-0.8-0.8-1.3-0.5c0.6-1.8-1.9-1.1-2.5-0.8c-0.3-1.5-2.4-0.2-2.4,0.7c-0.5-1.2-1.7-0.5-1.2,0.7c-0.4,0-0.7,0.3-0.8,0.8
			c-0.4-0.4-0.9-0.5-1.4-0.5C11.9,19.9,10,18,9,20.1c-0.1-0.1-0.1-0.2-0.2-0.3c0,0.1,0,0.2,0,0.3c0,0.3,0.2,0.6,0.4,0.8c0,0,0,0,0,0
			c-0.2,0.1-0.3,0.2-0.4,0.3c-0.1,0.1-0.2,0.3-0.3,0.4c0,0,0,0,0,0c-0.2,0-0.5-0.1-0.7,0.1c-0.1,0.1-0.2,0.3-0.2,0.5
			c-0.1,0.4,0,0.8-0.1,1.2c0,0,0,0,0,0c-0.4,0-0.9,0-1.4,0.1c0.1,0,0.2,0.1,0.3,0.2c-0.3,0.2-0.5,0.6-0.3,1
			c-0.8,0.1-0.6,0.8,0.1,0.6c-1.4,0.7,0.6,1.2,1.1,1.2c-2.6,0.6-0.8,4,1.2,2.3c-0.3,0.6,0.5,1.2,1,0.7l0.1,0.1c0,0.1,0,0.1,0,0.1
			c0.2,0.4,0.8,0.4,1.2,0.3c0.4-0.1,0.5-0.5,0.8-0.7c0.4-0.1,0.1,0.4,0.2,0.7c0.2,0.4,0.7,0.2,0.6,0.6c-0.1,0.3-0.6,0.3-0.8,0.4
			c-0.1,0.1-0.3,0.2-0.4,0.3c-0.1,0.3,0.1,0.2,0.1,0.4c0,0.1,0.1,0.2,0,0.3c0,0.1-0.1,0.2-0.1,0.3c0,0.2,0,0.2,0.1,0.3
			c0.2,0.3,0.6,0.3,0.9,0.3c0,1.2,2.3,0.2,0.9-0.5c0.5-0.2,0.2-0.6,0.3-1c0-0.2,0.2-0.6,0.5-0.8c0.7-0.3,0.2,0.6,0.4,0.9
			c0.2,0.5,0.7,0.1,1,0c-0.4,1.5,1.6,1.3,1.5,0.5c0.2,0.2,0.3,0,0.5,0c0.2,0,0.3,0.1,0.5,0.1c0.6,0.2,0.7-0.1,0.9-0.6
			c0.2,0.1,0.3,0.3,0.6,0.2c0.1,0,0.5-0.5,0.5-0.7c0-0.5-0.7-0.8-0.7-1.3c0.4,0.1,0.8,0.5,1.2,0.3c0.3-0.2,0.4-0.6,0.3-0.9
			c0.3,0.3,0.7,0.5,1.1,0.2c0.4-0.2,0.8-0.7,0.5-1.1c0.3,0.1,0.6-0.1,0.6-0.5c0-0.2-0.3-0.4-0.4-0.6c1.3,0.1,0-2.1-0.6-1.1
			c0-0.1-0.2-0.3-0.3-0.5c0.3,0,1.1-0.1,0.7-0.6c0.5,0.4,2,0.1,1.5-0.7c0.5-0.1,0.3-0.8,0.1-1.1c0.3,0.1,0.5-0.1,0.6-0.3
			C24.4,23.2,24.6,22.7,24.6,22.6z"/>
		<g>
			<path class="st10" d="M11.2,32.9c-0.1-0.1-0.1-0.1-0.1-0.3c0-0.1,0.1-0.2,0.1-0.3c0-0.1,0-0.2,0-0.3c0-0.2-0.2-0.1-0.1-0.4
				c0-0.1,0.3-0.3,0.4-0.3c0.2-0.1,0.7-0.1,0.8-0.4c0.2-0.4-0.4-0.2-0.6-0.6c-0.2-0.3,0.2-0.9-0.2-0.7c-0.3,0.1-0.4,0.6-0.8,0.7
				c-0.4,0.1-1,0.1-1.2-0.3c0,0,0-0.1,0-0.1l-0.1-0.1c-0.5,0.6-1.3,0-1-0.7C7,30,5.8,29,5.8,28c0.2,0.5,0.5,0.9,0.9,0.9
				c0.4,0,1-0.8,1.1-1.1c0.2,0.4,0.6,0.5,0.6-0.1c0.4,0.5,1.1,0.5,1-0.1c0.2,0.9,1.3,1.7,1.3,0.4c0.5,0.3,0.7-0.2,0.5-0.6
				c0.4,0.1,0.5-0.1,0.4-0.4c0.9,1.2,0.7,0.6,1.4,0c0.2,0.3,0.6,0.8,0.9,0.5c0.2,0.1,0.3,0.1,0.4,0.2c0-0.2,0.1-0.3,0.1-0.4
				c1.5,1,0.7-0.9,0.5-1.4c0.7,0.1,0.6-0.4,0.3-0.9c1.3,1.2,2.8,1.4,1.8-0.2c1.3,0,0.9-0.9,0.2-1.4c1.2,0,0.8-1.6-0.6-1.5
				c-0.6,0-1,0.5-1.4,0.5c-0.3-0.1,0.7-2.1-0.9-0.6c-0.5-0.8-1.5-0.6-1.8-0.4l-0.3,0.3c0.1-0.3,0.4-0.6,0.8-0.6
				c-0.5-1.2,0.8-1.9,1.2-0.7c0-0.9,2.1-2.2,2.4-0.7c0.7-0.3,3.1-1,2.5,0.8c0.5-0.3,1.3-0.2,1.3,0.5c0.5-0.4,1.2-0.9,1.6-0.1
				c1.6-1.2,2.5,0.5,0.7,1c0.4,0,1-0.4,1,0.4c0.3-0.3,0.8-0.1,0.9,0.3c0,0.2-0.2,0.6-0.2,0.7c-0.2,0.2-0.3,0.4-0.6,0.3
				c0.2,0.3,0.4,0.9-0.1,1.1c0.5,0.9-1.1,1.1-1.5,0.7c0.4,0.5-0.3,0.6-0.7,0.6c0.1,0.1,0.2,0.3,0.3,0.5c0.6-1,1.9,1.2,0.6,1.1
				c0.1,0.1,0.4,0.4,0.4,0.6c0,0.3-0.3,0.6-0.6,0.5c0.3,0.4-0.1,0.9-0.5,1.1c-0.4,0.2-0.8,0.1-1.1-0.2c0.1,0.3,0,0.7-0.3,0.9
				c-0.4,0.2-0.8-0.2-1.2-0.3c0,0.5,0.7,0.8,0.7,1.3c0,0.2-0.4,0.6-0.5,0.7c-0.3,0.1-0.4-0.1-0.6-0.2c-0.2,0.5-0.3,0.8-0.9,0.6
				c-0.2-0.1-0.3-0.1-0.5-0.1c-0.2,0-0.2,0.2-0.5,0c0.2,0.8-1.8,1-1.5-0.5c-0.3,0.2-0.8,0.5-1,0c-0.2-0.3,0.4-1.2-0.4-0.9
				c-0.3,0.2-0.5,0.6-0.5,0.8c0,0.4,0.3,0.8-0.3,1c1.4,0.7-0.9,1.7-0.9,0.5C11.9,33.3,11.5,33.2,11.2,32.9z"/>
		</g>
	</g>
	<g>
		<path class="st11" d="M25.4,39.1c0,0,1.9,1.9,1.7,3.2c-0.1,1.4-0.4,2.7-1,3.7c-0.6,0.9-0.6,1.2-0.8,2c-0.2,0.8-0.1,1.6-1.2,1.7
			c-1.1,0.1-1.9,0-2.8,1c-0.9,1-3.3,1-4.7,1.6c-1.4,0.6-2.5,0.7-6.2,1c-3.6,0.3-4.6,0-4.6,0.7c0,0.7,5.7,0.4,6.4,0.4
			c0.7,0-0.6,0.6,1.6,0.8C16,55.4,26.2,55,27.2,55c1,0,0,0.3,1.7,0.5c1.7,0.2,4,0.4,0.1,0.4c-3.9,0-4.2,0.6-2.6,0.8
			c1.6,0.2,9.6-0.1,12.5-0.3s9.9,0.3,11.9,0.3c2,0,2.7-0.9,1.1-1c-1.6-0.1-2.9-0.6-0.2-0.3c2.7,0.2,3.4,0.1,6.1,0.1s3,0.1,3-0.6
			c0-0.6-0.9-0.5-2.3-0.5c-1.5,0-2.7-0.5-3.9-0.6c-1.2-0.1-1-0.2-1.9-0.5c-0.9-0.3-2.1-0.4-4.2-0.3c-2.1,0.1-1.5-0.2-2.5-0.4
			c-1-0.2-2.3-0.2-3.6,0c-1.3,0.2-1.7-0.5-2.3-0.8c-0.6-0.3-0.9,0.2-1.8-0.1c-0.9-0.3-1.4,0.3-2.9,0c-1.5-0.3-2.2-0.5-3.3-0.4
			c-1.1,0.1-1.4,0.1-1.5-1.1c-0.1-1.3,0.4-4.8,1.9-6.6c1.5-1.8,1.8-2.9,2.1-4.1c0.2-1.2,0.4-1.8,1.4-2c1-0.3,2.5-0.2,3.4,0.3
			c1,0.5,1.3-0.4,0.7-1s-1.2-0.7-2.7-0.7c-1.5,0-1.8,0.2-2.3-0.7c-0.5-0.8-1.1-2-1-3.7c0.1-1.7,0.5-3.2,0.8-4
			c0.3-0.7,0.2-0.9,1.4-1.5c1.2-0.6,1.9-0.7,1.8-1.7c-0.1-1-0.7-1-0.5-2.1c0.2-1,0.8-1.7,0.9-2.6c0.1-0.9-0.9-0.8-1.1,0.3
			c-0.2,1-0.1,1.3-0.5,2c-0.4,0.7-0.4,0.4-0.7,0.1c-0.2-0.3-0.2-1,0.2-2c0.4-0.9-0.8,0-0.9,0.6c-0.1,0.6-0.4,1.4,0.1,1.8
			c0.5,0.4,0.9,1.2,1.2,1.7s-0.3,0.3-0.9,0.5c-0.6,0.2-1.9,1-2.3,2.1c-0.4,1.1-0.1,1.8-0.6,2.3c-0.5,0.6-0.7-0.6-0.6-1.9
			c0.1-1.3,0.2-2-0.3-2.8c-0.4-0.8,0.3-1.6,0.1-2.6c-0.2-1-1.1-0.8-1-0.2c0.1,0.7,0.2,0.9,0,1.5c-0.2,0.7-0.1,1,0.3,1.9
			c0.4,0.9,0.2,0.9,0.3,2.4c0.1,1.5,1,9.4,0.7,10.4c-0.3,0.9-0.8,2.1-2,2.5c-1.2,0.4-1.4-0.8-1.8-1.7C28.3,37.8,25.3,38.4,25.4,39.1
			z"/>
		<path class="st12" d="M33.6,31.8c0,1.1,0.5,3.3,0.7,3.9c0.2,0.6,0.6,0.6,0.9,0.4c0.3-0.1,0.6-0.1,1.3-0.1c0.9-0.1,2.1,0,2.5,0.1
			s0.9,0.2,1.1,0.6c0.1,0.3,0.1,0.7,0.1,1c0.3-0.2,0.4-0.7,0-1.1c-0.6-0.6-1.2-0.7-2.7-0.7c-1.5,0-1.8,0.2-2.3-0.7
			c-0.5-0.8-1.1-2-1-3.7c0.1-1.7,0.5-3.2,0.8-4c0.3-0.7,0.2-0.9,1.4-1.5c1.2-0.6,1.9-0.7,1.8-1.7c-0.1-1-0.7-1-0.5-2.1
			c0.2-1,0.7-1.6,0.8-2.5c-0.1-0.2-0.3-0.3-0.6-0.1c0,0-0.1,1-0.4,1.6c-0.2,0.6-0.5,1.4-0.2,2.2c0.3,0.8,0.4,1.3-0.3,1.6
			c-0.7,0.2-2,0.8-2.6,1.5c-0.6,0.8-0.2,1.9-0.5,2.7C33.8,30.1,33.6,30.7,33.6,31.8z"/>
		<path class="st12" d="M33.2,33.8c0,0,0.2,2.6,0.1,3.4c-0.1,0.7-0.6,2.5-1.8,3.4c-1.2,0.9-2.1,1.4-2.4,1.6
			c-0.3,0.2-0.4,0.8,0.3,0.8c0.6,0.1,0.4,0.1-0.1,0.3c-0.4,0.2-0.7,0.6-0.3,0.8c0.4,0.3-1,2.5-1.8,4.4c-0.7,1.9-0.2,1.2-0.6,2
			c-0.3,0.8-0.3,1-0.2,1.3c0.1,0.3,0.7,0.8,1.5,0.4c0.8-0.4,0.8-0.6,0.8-1.6c0-1,1.1-4.7,0.8-3.1c-0.3,1.6,0.3,0.7,0.7-0.8
			c0.4-1.5,1.8-3.9,2.8-5.3c0.9-1.4,1-3.4,1.6-4.1c0.6-0.7,0-1.1-0.5-2.1c-0.5-1-0.7-1.6-1-2C32.8,32.7,33,33.3,33.2,33.8z"/>
		<path class="st13" d="M17.9,52.4c1.1-0.3,1.3,0.3,2.6,0.1c1.3-0.3,1.9-1.7,2.9-1.9c1.2-0.2,1.8,0,2.1,0c0.7-0.1,0.8-1.2,1.2-3.4
			c0.2-1.2,1.6-2.7,1.7-3.3c0.1-0.6-0.2-0.6,0.1-1.1c0.3-0.5,0.4-0.3,0-0.8c-0.4-0.6-1.9-3.5-1.9-3.5s0-0.1-0.1-0.1
			c-0.6,0.2-1,0.2-0.9,0.6c0,0,1.3,0.9,1.8,2.8c0.1,0.5,0,1.1,0.1,1.3c0.1,0.7,0,0.7-0.2,1.3c-0.2,0.7-1.4,2.7-1.6,4.6
			c-0.2,1.8-1.6,1.2-2.5,1.4c-0.7,0.2-1.3,0.6-2.2,1.2c-0.6,0.4-1.2,0.5-2.2,0.6C17.8,52.2,15.2,53.1,17.9,52.4z"/>
		<path class="st13" d="M54.6,53.8c-1.2-0.1-1-0.2-1.9-0.5c-0.9-0.3-2.1-0.4-4.2-0.3c-2.1,0.1-1.5-0.2-2.5-0.4c-1-0.2-2.3-0.2-3.6,0
			c-1.3,0.2-1.7-0.5-2.3-0.8c-0.6-0.3-0.9,0.2-1.8-0.1c-0.9-0.3-1.4,0.3-2.9,0c-1.5-0.3-2.2-0.5-3.3-0.4c-1.1,0.1-1.4,0.1-1.5-1.1
			c-0.1-1.3,0.4-4.8,1.9-6.6c1.5-1.8,1.8-2.9,2.1-4.1c0.2-1.2,0.4-1.8,1.4-2c1-0.3,2.5-0.2,3.4,0.3c0.4,0.2,0.8,0.1,0.9-0.1
			c-0.4-0.3-1.3-1-2.4-1.2c-1.5-0.3-3.1-0.2-3.8,1.7c-0.6,1.9-1.2,3.3-2.1,4.6c-1,1.3-1.7,3.1-2,4.5c-0.4,1.3-0.9,2.7-0.8,4
			c0.2,1.3,1.3,1.2,2.5,1c1.1-0.2,2.3,0.3,3.5,0.6c1.2,0.3,1.7-0.3,3.2-0.2c1.5,0.1,1.2,0.1,2.3,0.5c1,0.4,1.9-0.4,3.7-0.4
			c1.8,0,2,0.9,4.4,0.7c2.4-0.2,2.7-0.3,4,0.2c1.3,0.5,1.4,0.5,2.1,0.5c0.6,0,0.8,0,2.2,0.2C56.2,54,55.4,53.8,54.6,53.8z"/>
		<path class="st14" d="M30.6,47.8c0-0.3,0.1-1,0.1-1.3c0.1-0.2,0.1-0.3,0.1-0.6c-0.1-0.2-0.1-0.4,0.1-0.6c0.2-0.2,0.4-0.5,0.5-0.7
			c0.1-0.2,0.2-0.2,0.4-0.4c0.2-0.2,0.5-0.5,0.5-0.7c-0.1-0.3,0.3-0.5,0.3-0.8c0-0.3-0.2-0.2,0.1-0.5c0.2-0.3,0.2-0.5,0.4-0.9
			c0.2-0.4,0.1-0.5,0.2-0.7c0-0.1,0.1-0.1,0-0.1c-0.3,0.8-0.7,1.5-1.3,2.2c-1,1.3-1.7,3.1-2,4.5c0,0,0,0.1,0,0.1
			c0.1,0.3,0.1,0.5,0.1,0.5C30.1,48,30.6,48.1,30.6,47.8z"/>
		<path class="st15" d="M33.7,38.8c-0.2-0.1-0.2,0.4-0.2,0.6c0,0.2,0.2,0.1,0.1,0.3c0,0.1-0.3,0.3-0.1,0.4c0.2,0.1,0.5,0,0.6-0.1
			c0.1-0.2,0.1-0.4,0.2-0.5c0.1-0.1,0.1-0.3,0-0.3c0,0,0,0,0-0.1c0-0.1,0-0.1-0.1-0.1c-0.1,0-0.1-0.1-0.1-0.1c0,0,0,0.1-0.1,0.1
			c-0.1,0-0.1-0.1-0.2,0c-0.1,0-0.1,0-0.2,0C33.6,39.1,33.7,38.9,33.7,38.8z"/>
		<path class="st15" d="M33.9,38.9c0.1-0.1,0.2-0.2,0.4-0.4c0.2-0.2,0.5-0.8,0.8-1c0.2-0.3,0.7-0.5,1-0.6c0.4,0,0.7,0,1.3,0
			c0.6,0,0.9,0,1.1,0.1c0.2,0.1,0.4,0.1,0.5,0.1c0.1,0,0.2-0.1,0.5,0.1c0.3,0.2-0.3-0.6-1.1-0.8c-0.8-0.2-1.3-0.2-1.9-0.2
			c-0.5,0-1.3,0.2-1.6,0.4c-0.3,0.3-0.7,0.9-0.8,1.2c-0.1,0.3-0.3,0.7-0.3,0.8C33.8,38.8,33.7,39,33.9,38.9z"/>
		<path class="st12" d="M28.9,40.2c0.5,1.3,1,0.8,2,0.2c1.2-0.8,1.5-1.6,1.8-2.7c0.3-0.9-0.2-1.8-0.1-2.9c0.1-1.1,0-2.5-0.3-3.9
			c-0.3-1.4-0.4-4.1-0.3-4.8c0.1-1-0.5-1.4-0.6-2.4c0-0.5,0.2-0.8,0.2-1.4c-0.1-0.8,0.2-0.9,0.2-0.9c0,0,0.4,0.1,0.2,1.1
			c-0.1,0.5-0.2,0.9-0.2,1.5c0.1,0.7,0.4,0.8,0.6,1.7c0.1,0.5,0,0.8-0.1,1.3s0,0.6,0,1.7c0.1,1.1,0.4,1,0.7,0.9
			c0.3-0.1,0.6-0.6,0.7-1c0.1-0.4-0.2-1.2,0.2-2.1c0.4-0.8,2-1.9,2.4-1.8c0.4,0.1,0.8,0,0.8-0.3c0.1-0.3-0.1-0.4-0.5-1
			c-0.4-0.7-0.6-0.8-0.9-1.2c-0.3-0.4,0.1-1.5,0.1-1.5c0-0.1,0.1-0.3,0.2-0.6c-0.1,0.2-0.3,0.4-0.3,0.6c-0.1,0.6-0.4,1.4,0.1,1.8
			c0.5,0.4,0.9,1.2,1.2,1.7s-0.3,0.3-0.9,0.5c-0.6,0.2-1.9,1-2.3,2.1c-0.4,1.1-0.1,1.8-0.6,2.3c-0.5,0.6-0.7-0.6-0.6-1.9
			c0.1-1.3,0.2-2-0.3-2.8c-0.4-0.8,0.3-1.6,0.1-2.6c-0.2-1-1.1-0.8-1-0.2c0.1,0.7,0.2,0.9,0,1.5c-0.2,0.7-0.1,1,0.3,1.9
			c0.4,0.9,0.2,0.9,0.3,2.4c0.1,1.5,1,9.4,0.7,10.4c-0.3,0.9-0.8,2.1-2,2.5c-1.2,0.4-1.4-0.8-1.8-1.7c-0.1-0.2-0.2-0.3-0.4-0.3
			C28.7,38.9,28.7,39.6,28.9,40.2z"/>
		<path class="st12" d="M7.2,53.6c2-0.1,6.8-0.3,8.5-0.8c1.6-0.5,1.5-0.7,2.6-0.8c1.1-0.1,2.4-0.5,3.1-1.2c0.7-0.7,1.2-0.8,2.4-0.9
			c1.2-0.1,1.5-0.5,1.7-1.3c0.1-0.8,0.2-1.9,0.7-2.4c0.4-0.5,0.5-0.8,0.8-1.8c0.3-1,0.4-1.6,0.3-2.6c-0.1-0.9-1.3-2.5-1.3-2.5
			s0-0.3-0.1-0.7c-0.3,0.1-0.4,0.3-0.4,0.5c0,0,1.9,1.9,1.7,3.2c-0.1,1.4-0.4,2.7-1,3.7c-0.6,0.9-0.6,1.2-0.8,2
			c-0.2,0.8-0.1,1.6-1.2,1.7c-1.1,0.1-1.9,0-2.8,1c-0.9,1-3.3,1-4.7,1.6c-1.4,0.6-2.5,0.7-6.2,1c-3.6,0.3-4.6,0-4.6,0.7
			c0,0.2,0.3,0.3,0.7,0.3C5.8,54.2,5.6,53.7,7.2,53.6z"/>
		<path class="st12" d="M28.7,52.3c-0.8-0.3-1.7,0.6,0.1,1C30.6,53.6,31.9,53.3,28.7,52.3z"/>
		<path class="st12" d="M34.7,53.6c1.9,0.1,5,0.1,10.4,0.4c2.2,0.1,4.2,0.7,1,0.7c-3.1,0,1.6,0.6,3.5,0.9c2,0.2-2.8,0.2-7.7-0.2
			c-5-0.4,6.4-0.5-3-0.9C29.5,53.9,29.9,53.4,34.7,53.6z"/>
		<path class="st12" d="M19.7,53c-2,0-2.9,0.1-3.6,0.3c-0.7,0.2,0.1,0.3-2.1,0.4c-3.4,0.2-0.1,0.5,2.1,0.4s-0.3-0.6,3-0.6
			C22.3,53.5,22.4,53.1,19.7,53z"/>
		<path class="st12" d="M24.9,53.4c-1.5,0.1-1.2,0.8,0.3,0.6C26.5,53.8,26.2,53.3,24.9,53.4z"/>
		<path class="st14" d="M30.1,43.5c0.5-1,1.3-2,0.3,0.2c-0.9,2.2-1.4,3.3-0.7,0.8C30,43.8,30.1,43.5,30.1,43.5z"/>
	</g>
	<g>
		<path class="st3" d="M31.9,36.7c1.3,0.7,3-0.1,1.6-2.1c0.7-0.1,1.4-0.8,0.5-1.3c0.2-0.5,0.2-0.2,0-0.8c0.5,0.2,0.8,0,0.9-0.5
			c0.4,0.2,0.8-0.1,1-0.7c0.4-1.2-0.4-0.7-0.6-1.1c-0.4-0.5-0.3-0.9-0.5-1.4c-0.3-0.4-0.9-0.5-1.2-0.9c-0.2,0.1-0.3,0.1-0.4,0.2
			c-0.3-0.2-0.6-0.5-0.8-0.6c0.4-0.4,0.7-1,0.1-1.1c0.1-0.2,0.1-0.6,0.2-0.7l-0.3,0c0.5-0.7,0.3-1.7-0.6-2c0-0.6-0.3-2.8-1.1-1.4
			c-0.4-0.4-0.8-0.5-1,0c-0.5-0.3-0.8-0.3-1,0.2c-0.1-0.2-0.2-0.5-0.3-0.6c-0.2,0.4-0.4,0.5-0.2,1c-0.5,0.2-0.4,0.1-0.7,0.5
			c0.1-2-2-1.5-1.7-0.7c-0.5-0.4-1.1,0.1-1.5,0.7c-0.8-0.9-2,0.4-0.8,1.7c-0.6-1.2-2.9-0.2-2.1,1.5c-0.5-0.2-0.9,0.1-1,0.6
			c-0.6-0.4-1.2-0.2-1.5,0.4c-0.5-0.4-1,0-1.1,0.7c0.1,0,0.1,0,0-0.1c-0.1-0.4-0.4-0.6-0.8-0.5c-0.3-0.8-1.2-1.1-1.5-0.1
			c-0.7-0.7-2-0.1-1.7,0.9c-0.5-1.5-1.9,0.3-1.2,1.3c-0.5-0.1-1.5,0.8-1.5,1.3c0,0.8,1,0.7,0.1,1.8c-0.3-0.6-1.2-2.3-1.7-1
			c-0.7-0.4-0.8-2.1-1.7-1.1C7.4,30.1,6.5,29,6,30.4c-0.2-0.6-0.8-1.2-1.3-0.5C4.6,29.3,4,29,3.4,29.4c-1.2-1.4-3,0.2-2.2,1.5
			c-0.7,0.6-0.3,1.4,1.1,1.2c-0.6,0.7-0.3,1.6,0.7,1.7c-0.8,0.1-0.7,0.6-0.2,0.7c-1,0.6-1.4,1.8,0.5,2.4c-1.9,0.9-1.1,2.4,0.4,2.7
			c-0.9,1.6,2.2,4,3.8,1.2c0.1,0.4,1.9,2.6,2.3,0.3c0.3,1.9,2,2.1,2.4,0.9c-0.7,0.7,0.4,1.5,1.1,1.1c0.3,0.9,1.2,1,1.7,0.3
			c0.6,0.4,1.4-0.1,1.4-1.4c0.1,0.8,1.3,1.4,1.6,0.9c0.5,1.3,2,0.8,1.8-0.1c0.6,2.2,1.5,1.9,1.9,1.2c0.8,0.1,0.7,0.3,1.4,0.2
			c0.8-0.1,1.8-1.1,1.3-1.9c0.6-0.1,0.7-0.8,0.2-1.2c0.9-0.4,0.5-0.8,0.3-1.1c0.2,0,1.8,0.3,1.9-0.7c1,1.3,2,0.7,1.8-0.2
			c0.5,0.2,1.5,0.1,1-0.9c0.8,0.5,2.7,0.3,2.2-1.2C32,36.8,31.8,36.8,31.9,36.7z"/>
		<path class="st5" d="M1.2,31c-0.3-0.5-0.2-1.1,0.2-1.6c-0.5,0.8,0.3,1.9,1,1c0.2,0.8,0.6,0.4,0.9-0.1c0,0-0.2,0.5,0.1,0.7
			c0.1,0.1,0.4,0.2,0.6,0.1c-0.3,0.5-0.7,1.1,1.2,1c-0.5,1.3,0,1.5,0.3,1.7c0.5,0.2,1.7,0.2,2-0.1c-0.4,0.5-0.6,1.4,0.1,1.8
			c0.3,0.2,1.3-0.2,1.3-0.2c-1,1.2-0.3,2.5,0.8,1.5c0.7,1.1,1.4,0.4,1.8-0.3c-0.3,1.5,1.7,1.3,1.1,0c0.7,0.5,1.4,0,1-0.9
			c0.5,0.5,2,1.4,2-1.4c0.7,0.6,1,0.1,1.5-0.5c-0.4,0.7-0.4,1.6,0.4,1.8c0,0,0.1-0.1,0.2-0.2c-0.6,2.3,3.1,2.1,1.7,0.6
			c0.9-0.8,1.1-2.1-0.3-2.9c1.1-0.6,0.5-1.4,0.8-2.7c-0.2,1.2,0.8,3.6,2.3,2.4c0.2,0.5,0.7,2.1,1.7,2c0.7-0.1,0.7-0.7,0.9-1.2
			c0.1,0.7,0.7,0.9,0.9,0.4c0.7,0.6,1.1-0.3,0.8-1c1.1,0.9,2,1,2.6,0.2c0.3-0.5,0.4-1.3,0.8-1.8c0.4,0.3,1.3,0.4,1.1-0.5
			c1.3,0.6,2-0.4,1.6-1.2c0.7,0,0.7-0.9,0-1.1c0.4,0,1,0.4,0.5-0.4c0.1,0.1,0.2,0.2,0.3,0.3c0.1,0,0.1-0.1,0.4-0.2
			c0.2,0.5,0.8,0.5,1.2,0.9c0.3,0.5,0.2,0.9,0.5,1.4c0.3,0.4,1,0,0.6,1.1c-0.2,0.5-0.6,0.9-1,0.7c-0.1,0.5-0.4,0.7-0.9,0.5
			c0.1,0.6,0.1,0.3,0,0.8c0.9,0.4,0.2,1.1-0.5,1.3c1.4,2-0.3,2.8-1.6,2.1c-0.1,0.1,0.1,0.2,0,0.4c0.5,1.6-1.4,1.8-2.2,1.2
			c0.5,1-0.4,1.2-1,0.9c0.2,0.9-0.8,1.5-1.8,0.2c-0.1,1-1.7,0.7-1.9,0.7c0.2,0.4,0.6,0.8-0.3,1.1c0.6,0.5,0.4,1.1-0.2,1.2
			c0.5,0.9-0.5,1.9-1.3,1.9c-0.7,0.1-0.6-0.1-1.4-0.2c-0.4,0.7-1.3,1-1.9-1.2c0.1,0.9-1.3,1.3-1.8,0.1c-0.4,0.5-1.5-0.1-1.6-0.9
			c0,1.3-0.8,1.8-1.4,1.4c-0.5,0.7-1.5,0.6-1.7-0.3c-0.6,0.4-1.5-0.1-1.3-0.7c-0.6,0.7-2,0.4-2.2-1.3c-0.5,2.2-2.2,0.1-2.3-0.3
			c-1.6,2.7-4.7,0.4-3.8-1.2c-1.5-0.3-2.2-1.8-0.4-2.7c-2-0.7-1.5-1.8-0.5-2.4c-0.5-0.1-0.6-0.6,0.2-0.7c-1-0.1-1.3-1-0.7-1.7
			C0.9,32.4,0.5,31.6,1.2,31z"/>
		<g>
			<path class="st6" d="M1,31.2c-0.1,0.4,0.1,0.5,0.2,0.6c0.3,0.3,1.1,0.2,1.5,0c-0.2,0.2-0.5,0.8,0,0.8c0.1,0-0.4,0.9,0.9,0.9
				c0,0-0.7,1,0.5,1c0.1,0,0.3,0.1,0.3,0c0,0.3-0.1,0.7-0.1,1c0.3,0,0.6,0.2,0.8,0.5c-0.3,0.4,0,0.6,0.4,0.6
				c-0.4,0.6,0.6,1.7,2.3,0.2C6.8,37.7,6,39.1,7.4,39c0.1,0.3,0.8,0.3,1.2-0.7c-0.2,1.3,0.8,1.7,1.4,1c0.2,0.8,0.9,0.6,1.3,0.1
				c0.4,0.4,0.8,0.4,1-0.2c0,0.1-0.1,0.3,0,0.3c0,0-0.3,1.3,0.8,0.4c0.5,1.6,1.3,1.3,1.1-0.4c0.3,0.7,1.4,0,1.6-0.4
				c0.4,0.7,0.9-0.1,1.1-0.5c-0.1,0.5,0.1,1.1,0.5,0.5c0.1,0.6,0.8,0.8,1.1,0.2c0.4,0.3,0.7,0.2,0.9-0.1c0,0.2,0.2,0.4,0.5,0.3
				c0.1,0.5,0.3,0.4,0.7,0.5c0.2,0,0.4-0.4,0.5-0.3c0.2,0,0.2,0.2,0.5,0.2c0.5,0,0.6,0.4,1-0.1c0.2-0.3,0.2-0.7,0-1
				c0.6,0.5,0.8,0,0.8-0.6c0.5,0.5,1.2,0,1.3-1.3c0.2,1.3,1,0.9,1,0.3c0.3,0.2,0.6,0.1,0.7-0.3c0.2,0.3,0.4,0.3,0.6,0
				c0.3,0.3,0.7,0.2,0.9-0.2c0.4,0.2,0.6,0,0.7-0.3c0.4,0.2,1.3,0.6,1.3,0c0.3,0.3,1.1,0.3,0.6-1.8c0.9,1.3,1,1,1.5,1.2
				c0.8,0.2,1.2-0.5,0.5-1.1c0.4,0,0.6-0.3,0.5-0.7c0.6-0.1,0.9-0.5,1.2-0.9c0,0.1,0,0.1-0.1,0.4c0.9,0.4,0.2,1.1-0.5,1.3
				c1.4,2-0.3,2.8-1.6,2.1c-0.1,0.1,0.1,0.2,0,0.4c0.5,1.6-1.4,1.8-2.2,1.2c0.5,1-0.4,1.2-1,0.9c0.2,0.9-0.8,1.5-1.8,0.2
				c-0.1,1-1.7,0.7-1.9,0.7c0.2,0.4,0.6,0.8-0.3,1.1c0.6,0.5,0.4,1.1-0.2,1.2c0.5,0.9-0.5,1.9-1.3,1.9c-0.7,0.1-0.6-0.1-1.4-0.2
				c-0.4,0.7-1.3,1-1.9-1.2c0.1,0.9-1.3,1.3-1.8,0.1c-0.4,0.5-1.5-0.1-1.6-0.9c0,1.3-0.8,1.8-1.4,1.4c-0.5,0.7-1.5,0.6-1.7-0.3
				c-0.6,0.4-1.5-0.1-1.3-0.7c-0.6,0.7-2,0.4-2.2-1.3c-0.5,2.2-2.2,0.1-2.3-0.3c-1.6,2.7-4.7,0.4-3.8-1.2c-1.5-0.3-2.2-1.8-0.4-2.7
				c-2-0.7-1.5-1.8-0.5-2.4c-0.5-0.1-0.6-0.6,0.2-0.7c-1-0.1-1.3-1-0.7-1.7C1,32.4,0.6,31.7,1,31.2z"/>
		</g>
	</g>
	<g>
		<path class="st9" d="M35.7,40c-0.5-0.8,0.3-0.6,0.6-0.9c-1.8,0.6-1.9-1.5,0.1-1.2c0-0.9,0.8-0.8,1.5-0.7c-0.4-0.7,0.2-1.1,0.9-1.1
			c-1.5-1.3,1.1-1.9,1.8-2c-0.5-1.5,2.1-1.5,2.5-0.6c-0.2-1.3,1.3-1.3,1.5,0c0.4-0.2,0.8-0.1,1.1,0.2c0.1-0.6,0.6-0.9,1-1.2
			c-0.1,0,0.2-0.2,0.3-0.3c0.3-0.1,0.5,0,0.7,0.2c0,0,0,0,0,0c0.1-0.2,0.2-0.4,0.4-0.4c0.2,0,0.4,0.1,0.5,0.3
			c0.2,0.3,0.2,0.6,0.3,0.9c0,0,0,0,0,0c0.2-0.2,0.6-0.2,0.8-0.1c0,0,0,0,0,0c0-0.3,0.4-0.4,0.6-0.3c0,0,0,0,0,0
			c0-0.1,0.1-0.2,0.2-0.3c0.1,0,0.2,0,0.3,0c0.1,0.1,0.1,0.2,0.1,0.3c0,0,0,0,0,0c0.2-0.4,0.7-0.5,0.8-0.5c0.4,0,0.8,0.3,0.8,0.7
			c0.7-0.3,1,0.4,0.3,0.6c1.6-0.1,0.1,1.4-0.4,1.6c2.6-0.8,2.8,3.1,0.2,2.7c0.6,0.4,0.2,1.4-0.5,1.1l0,0.2c0,0.1,0,0.1,0,0.2
			c0,0.5-0.5,0.8-0.9,0.9c-0.4,0.1-0.7-0.2-1.1-0.2c-0.5,0.1,0.1,0.4,0.2,0.8c0,0.4-0.5,0.6-0.2,0.8c0.3,0.2,0.7,0,0.9,0
			c0.1,0,0.4,0,0.5,0.1c0.2,0.2,0,0.2,0.1,0.4c0,0.1,0,0.2,0.1,0.3c0,0.1,0.2,0.1,0.2,0.2c0.1,0.2,0.1,0.2,0.1,0.4
			c0,0.4-0.4,0.6-0.7,0.7c0.6,1-1.9,1.4-1,0.1c-0.6,0.1-0.5-0.4-0.8-0.7c-0.1-0.2-0.5-0.4-0.9-0.4c-0.8,0.1,0.1,0.6,0.2,1
			c0.1,0.5-0.5,0.5-0.9,0.5c1.1,1.1-0.8,1.9-1,1.2c-0.1,0.3-0.3,0.2-0.4,0.2c-0.1,0.1-0.2,0.2-0.4,0.4c-0.5,0.5-0.7,0.3-1.2,0
			c-0.1,0.2-0.1,0.5-0.4,0.5c-0.2,0-0.7-0.2-0.8-0.3c-0.3-0.4,0.2-1-0.1-1.5c-0.3,0.3-0.4,0.8-0.9,0.9c-0.4,0-0.6-0.3-0.7-0.6
			c-0.1,0.4-0.4,0.8-0.9,0.8c-0.4,0-1-0.2-1-0.7c-0.2,0.3-0.6,0.2-0.8-0.1c-0.1-0.2,0-0.5,0.1-0.7c-1.1,0.8-1.1-1.8,0-1.3
			c-0.1-0.1,0-0.4,0-0.6c-0.3,0.1-1,0.4-0.9-0.2c-0.2,0.6-1.7,1.2-1.7,0.1c-0.5,0.1-0.7-0.5-0.7-0.9c-0.3,0.3-0.4,0.2-0.7,0.1
			c-0.1-0.1-0.5-0.3-0.6-0.5C35,40.3,35.3,39.9,35.7,40z"/>
		<path class="st16" d="M45.8,34.2c0.7,0.3,0.5-1.1,1.2-0.5c0-0.2,0.2-0.4,0.3-0.6c0.1,0.3,0.2,0.4,0.5,0.2
			c-0.1,0.9,0.7-0.4,0.8,0.1c0,0.1,0.1,0.3,0.2,0.4c0.3-0.5,0.6-0.5,0.6-0.3c0,0.1,0.1,0.3,0.2,0.4c0.1-0.3,0.2-0.4,0.5-0.5
			c0.1,0,0.2,0.1,0.2,0.3c0.1-0.1,0.3-0.1,0.3-0.2c0,0.1-0.1,0.2-0.1,0.3c0.3,0,0.7-0.4,0.9-0.4c0.4,0.1,0.1,0.5-0.1,0.7
			c0.4,0,0.8-0.5,1-0.1c0.3,0.5-0.1-0.1-1.1,0.3c-0.4,0.2-0.6-0.1-1,0c-0.4,0.1-0.7,0.4-0.9,0.6c-0.1-0.2-0.2-0.3-0.1-0.6
			c-0.5,0-1.2-0.1-1.5,0.2c-0.9,0.2-1-0.7-1.4-0.2c-0.3,0.1-0.9,0.5-1.2,0.3C44.7,34.7,45.5,34.2,45.8,34.2z"/>
		<g>
			<path class="st17" d="M52.3,42.9c0-0.2,0-0.2-0.1-0.4c0-0.1-0.2-0.1-0.2-0.2c-0.1-0.1-0.1-0.2-0.1-0.3c-0.1-0.2,0.1-0.2-0.1-0.4
				c-0.1-0.1-0.4-0.1-0.5-0.1c-0.2,0-0.7,0.2-0.9,0c-0.3-0.3,0.2-0.4,0.2-0.8c0-0.4-0.6-0.7-0.2-0.8c0.4-0.1,0.7,0.3,1.1,0.2
				c0.4-0.1,0.9-0.5,0.9-0.9c0-0.1,0-0.1,0-0.2l0-0.2c0.7,0.2,1.2-0.7,0.5-1.1c1.7,0.3,2.2-1.2,1.7-2.1c0.1,0.5,0.1,1.1-0.3,1.3
				c-0.4,0.2-1.3-0.2-1.5-0.4c0,0.5-0.2,0.7-0.6,0.3c0,0.6-0.7,1-1,0.5c0.3,0.9-0.3,2.2-0.9,1c-0.3,0.5-0.7,0.2-0.8-0.3
				c-0.3,0.2-0.5,0.2-0.6-0.2c-0.2,1.5-0.3,0.9-1.2,0.7c0,0.4-0.1,1-0.6,0.9c-0.1,0.2-0.2,0.2-0.3,0.4c-0.1-0.1-0.3-0.2-0.3-0.3
				c-0.8,1.7-1-0.4-1.1-0.9c-0.6,0.4-0.8-0.1-0.7-0.6c-0.5,1.7-1.7,2.7-1.7,0.7c-1.1,0.7-1.2-0.3-0.9-1.1c-1,0.6-1.5-1-0.3-1.6
				c0.6-0.3,1.1,0,1.4-0.3c0.2-0.2-1.7-1.5,0.5-1c0-0.9,1.1-1.3,1.4-1.3l0.4,0.1c-0.3-0.2-0.6-0.3-1-0.1c-0.2-1.3-1.7-1.3-1.5,0
				c-0.4-0.8-3-0.9-2.5,0.6c-0.7,0.1-3.3,0.7-1.8,2c-0.6,0-1.3,0.5-0.9,1.1c-0.6,0-1.5-0.2-1.5,0.7c-2.1-0.2-2,1.8-0.1,1.2
				c-0.3,0.2-1.1,0.1-0.6,0.9c-0.4-0.1-0.7,0.3-0.6,0.7c0.1,0.2,0.4,0.5,0.6,0.5c0.3,0.1,0.5,0.2,0.7-0.1c-0.1,0.4,0.1,1,0.7,0.9
				c0,1,1.5,0.5,1.7-0.1c-0.1,0.6,0.6,0.3,0.9,0.2c0,0.2,0,0.4,0,0.6c-1.1-0.6-1,2,0,1.3c-0.1,0.2-0.2,0.5-0.1,0.7
				c0.2,0.3,0.6,0.4,0.8,0.1c-0.1,0.5,0.5,0.7,1,0.7c0.5,0,0.8-0.3,0.9-0.8c0.1,0.3,0.3,0.6,0.7,0.6c0.5,0,0.6-0.6,0.9-0.9
				c0.3,0.5-0.2,1.1,0.1,1.5c0.1,0.1,0.7,0.4,0.8,0.3c0.3-0.1,0.3-0.3,0.4-0.5c0.5,0.3,0.7,0.6,1.2,0c0.1-0.2,0.2-0.3,0.4-0.4
				c0.2-0.1,0.3,0.1,0.4-0.2c0.3,0.8,2.1-0.1,1-1.2c0.3,0,0.9,0,0.9-0.5c0-0.4-1-0.9-0.2-1c0.4,0,0.8,0.2,0.9,0.4
				c0.2,0.3,0.2,0.8,0.8,0.7c-0.9,1.3,1.7,1,1-0.1C51.9,43.5,52.3,43.3,52.3,42.9z"/>
		</g>
		<path class="st18" d="M35.1,40.7c0.1,0.2,0.4,0.5,0.6,0.5c0.3,0.1,0.5,0.2,0.7-0.1c-0.1,0.4,0.1,1,0.7,0.9c0,1,1.5,0.5,1.7-0.1
			c-0.1,0.6,0.6,0.3,0.9,0.2c0,0.2,0,0.4,0,0.6c-1.1-0.6-1,2,0,1.3c-0.1,0.2-0.2,0.5-0.1,0.7c0.2,0.3,0.6,0.4,0.8,0.1
			c-0.1,0.5,0.5,0.7,1,0.7c0.5,0,0.8-0.3,0.9-0.8c0.1,0.3,0.3,0.6,0.7,0.6c0.5,0,0.6-0.6,0.9-0.9c0.3,0.5-0.2,1.1,0.1,1.5
			c0.1,0.1,0.7,0.4,0.8,0.3c0.3-0.1,0.3-0.3,0.4-0.5c0.5,0.3,0.7,0.6,1.2,0c0.1-0.2,0.2-0.3,0.4-0.4c0.2-0.1,0.3,0.1,0.4-0.2
			c0.3,0.8,2.1-0.1,1-1.2c0.3,0,0.9,0,0.9-0.5c0-0.4-1-0.9-0.2-1c0.4,0,0.8,0.2,0.9,0.4c0.2,0.3,0.2,0.8,0.8,0.7
			c-0.9,1.3,1.7,1,1-0.1c0.3-0.1,0.6-0.3,0.7-0.7c0-0.2,0-0.2-0.1-0.4c0-0.1-0.2-0.1-0.2-0.2c-0.1-0.1-0.1-0.2-0.1-0.3
			c-0.1-0.2,0.1-0.2-0.1-0.4c-0.1-0.1-0.4-0.1-0.5-0.1c-0.2,0-0.7,0.2-0.9,0c-0.3-0.3,0.2-0.4,0.2-0.8c0-0.4-0.6-0.7-0.2-0.8
			c0.4-0.1,0.7,0.3,1.1,0.2c0.1,0,0.3-0.1,0.4-0.2c-0.3,0.1-0.6,0.1-0.8,0.1c-0.2-0.1-0.3-0.3-0.6-0.4c-0.1,0-0.4,0.1-0.5,0.1
			c-0.4,0.1-0.5,0.1-0.6,0.5c-0.1,0.6,0.3,0.5,0.5,0.9c0.1,0.2,0,0.4,0,0.6c-0.2,0-0.5,0.1-0.6-0.1c-0.4,0.2-0.6,0.3-0.9-0.2
			c-0.2,0.4-0.5,0.9-0.9,0.3c0.1,0.2,0.1,1.4-0.3,0.8c0.1,0.2,0.2,1.2-0.3,0.8c0.1,1.3-1.7,1.3-1.4,0.1c-0.4,0.4-0.8-0.2-0.9-0.6
			c-0.4,0.5-0.8,0.5-1-0.3c-0.2,0.4-0.1,1.1-0.5,1.3c-0.3,0.2-0.4-0.1-0.7-0.2c-0.2-0.1-0.7,0.3-0.8-0.5c0-1,1-0.9,1-1.2
			C40.8,42.7,41,42,41,41.5c0-0.1-0.2,0-0.3-0.2c0-0.1,0.1-0.2,0.1-0.3c-0.1-0.2-0.3-0.2-0.4-0.4c-0.4,0.4-0.3-0.3-0.3-0.5
			c-1,0.3-1.2,0.2-1.1-0.5c-0.3,0.4-1.1,0.2-1.3-0.2c-0.2-0.5,0.7-1,1.1-1.1c-0.4-0.4,0.3-0.8,0.4-1.1c0.1-0.1-0.1-0.3,0-0.5
			c0.1-0.2,0.4-0.4,0.6-0.5c-0.5-0.3-0.7-0.3-0.3-0.8c-1.2,0.1-0.8-0.6-0.5-0.9c-0.6,0.3-0.9,0.8-0.1,1.5c-0.6,0-1.3,0.5-0.9,1.1
			c-0.6,0-1.5-0.2-1.5,0.7c-2.1-0.2-2,1.8-0.1,1.2c-0.3,0.2-1.1,0.1-0.6,0.9C35.3,39.9,35,40.3,35.1,40.7z M50.3,42.7
			c-0.1,0,0-0.2,0.1-0.4c0.3,0.1,0.6-0.1,0.8,0.1C52.2,43,50.2,44.1,50.3,42.7z"/>
	</g>
	<g>
		<path class="st19" d="M12.5,14.6c-1.5,0.7,0.4,2.1,0.1,3.1c-0.1,0.8-1.1,0-0.5,1.3c0.3,0.7,0.6,1,1.3,0.5
			c-3.3-0.4,0.7,3.2,1.3,0.9c-0.9,0.4-0.4,1.6,0.7,1.2c0.1,0.8,0.2,1.6,1.1,1.3c0.5,2,4.2,1,3.3-0.9c0.6,1.4,2,0.1,3-0.1
			c-1.2,1.1,0.4,2.2,1.6,1.6c0.3,1.3,2.2,0.8,2.3-0.3c0,0.1,0.6,0.6,0.5,0.5c-0.1,0.4,0,0.6,0,0.8c0.3-0.1,0.4-0.1,0.8-0.2
			c0.5,0.8,1.8,0.8,1.3-0.4c1.5,0.6,0.8-1.2,0.5-2.1c0.5,0.7,0.9,0.8,1.2,0.1c0.5,1.5,1.6,0.1,1-1c0.2,1.1,1.9,2.1,1.6,0.4
			c1.1,0.5,1.3-1.1,1.9-1.8c0.7,0.1,0.4,0.1,0.8,0c0,0.2,0.1,1.8,0.2,1.9c0.8,0.7,2.4-0.1,2.4-1.1c-1.1,0.2-0.5,1.7,0,2.4
			c0.1,0.1,0.3-0.1,0.3-0.1c0.3,0.7,1.2,2,1.8,0.8c0.4,1.1,1.9,0.9,1.6-0.3c1.3,0.2,1.9-0.7,1.2-1.8c0.5,0.5,1.3,0.7,1.7,0.1
			c1.9,1.6,1.4-1.5,0.8-2.5c-0.1,0,0.3,0.3,0.3,0.3l0.2-0.5c2.1,1.6,2.1-2.2,0.7-2.4c-0.1-0.2-0.1-0.6-0.1-0.8
			c2-1.2,0.8-2.6-1.3-2.6c0.6-0.5,1.8-2.7,0-2.4c-0.3-0.5-1.5-3.2-2.2-1.7c0.6-0.8-0.6-2.3-1.6-1.9c0-0.2-0.2-0.5-0.2-0.7
			c-0.4,0.2-0.8,0-1.1,0.3c-0.3-0.5-0.6-1.2-1.3-1.2C40.3,4.8,40.1,4,39.3,4C39,2.8,38.1,1.8,37,2.9c0.7-1.2-0.4-3-1.4-1.3
			c-1-1-2.9,0.3-3,1.5c-0.5-0.6-0.9-0.4-1.2,0.3c-0.2,0.1-0.6,0.1-0.8,0.2c-0.2-0.2-0.3-0.3-0.4-0.4c-0.1,0.3-0.3,0.6-0.3,0.8
			c-0.6-0.9-1.7-1-1.8,0.4c0.1-0.8-0.3-2.6-1.3-1.6c-1.7-0.3-1.1-2.5-3.5-1.4c-1.2,0.6-0.6,0.6-1,1.5c-0.4,0.7,0.3,1.3-0.9,1.4
			c-1.2-2.9-4.1,0-3,2.3C17,7,16.6,8,17.7,8.7c-0.6,0.5-0.8,1-0.3,1.6c-0.5,0.3-0.5,0.3-1,1c-1-1-2.2-0.1-1.9,1.1
			C12.6,11.9,15,14.9,12.5,14.6z"/>
		<path class="st4" d="M19.5,8.7c-0.5,0.2-0.6-0.3-0.4-0.4c0.2,0,0.5-0.2,0.6-0.1c-0.5-0.5-0.3-0.6,0.2-0.7c-0.3-0.6-0.4-0.9,0.1-1
			c0.2,0,1,0.1,1.4,0.1C20.8,5.6,22,6,22.2,5.9c0.3-0.1,0.5-0.1,0.8-0.3c0.2-0.2,0.3-0.6,0.7-0.9c0.9-0.6,0.7,0.2,1.5,0.1
			c0.6,1,1.6,0.6,2.1-0.1c1.7,0.8,1-0.9,2.5,0.3c0.2,0.1,0.8-0.2,1-0.2C31.2,4.8,31,5,31.6,5c0.7,0,1.2-0.9,1.9,0.1
			c-0.2,0.9-0.8,0.2-1.2,0.3c-0.3,0.1-0.5,0.4-0.7,0.4c-0.6,0.3-1.3,0.5-1.9,0.5c-1.2,0.2-2.8-0.5-3.7,0.3c-1.5,1.4-2-0.3-3.1,0.3
			c-0.6,0.3-0.9,1.6-2,1c-0.5,0.5-0.2,2-1.8,2.3C18,9.6,19.5,9.1,19.5,8.7z"/>
		<g>
			<path class="st20" d="M41.7,8.6C41.7,8.6,41.7,8.6,41.7,8.6C41.7,8.6,41.7,8.6,41.7,8.6z"/>
			<path class="st21" d="M45.3,21.2c1.8,1.5,1.5-1.1,0.9-2.2c0.1,0.1,0.1,0.1,0.1,0.1l0.2-0.5c2.1,1.6,2.1-2.2,0.7-2.4
				c-0.1-0.2-0.1-0.6-0.1-0.8c2-1.2,0.8-2.6-1.3-2.6c0.6-0.5,1.8-2.7,0-2.4c-0.3-0.5-1.4-2.9-2.1-1.9c0.3-0.8-0.8-2.1-1.7-1.7
				c0-0.2-0.2-0.5-0.2-0.7c-0.4,0.2-0.8,0-1.1,0.3c-0.3-0.5-0.6-1.2-1.3-1.2c0.7-0.4,0.5-1.2-0.2-1.2c0.8,0.2,0.2,1-0.2,1.4
				c1,0.3,1.9,1.5,1.2,1.8c1.3-0.4,1.2,0.7,1.2,0.7c0.4,0.2,0.5,0.5,0.1,0.7c0.1,0,2.6,2.9,0,2.1c0.6,0.3,0.5,0.6,0.2,0.6
				c0.8,0.7,0,2-1,1.8c0.4,0.7-0.2,1-0.7,0.6c0.5,1-0.6,1.2-1,0.4c0.3,1.2-0.5,1.1-1.1,0.4c-0.1,0.3-0.3,1.4-0.5,1.4
				C37,15.9,37.1,15,37,15.1c-0.8,0.5-1.1-0.9-0.6-1.5c-1.5,0.4-1.2-0.8-0.9-1.2c-1.1,0.5-1.1-0.8-1-1.7c-0.6,1.6-1.2,1.1-1.9-0.2
				c-0.2,0.5-0.3,1.9-1.1,1.1c0.5,1.7-1.2,0.1-1.6-0.3c0,0.6,0.4,2.5-0.7,2.1c0.1,0.3-0.1,0.7-0.1,1c-0.1-0.1-0.2-0.2-0.3-0.3
				c0.1,1-0.8,1.4-1.2,0.5c0.1,1.1-1.3,1.4-1.5,0.2c-0.7-0.1-1.3,0.4-2.1-1.6c0,1-0.4,1.7-1.2,0.4c0.5,1.2,1,2.8,0.3,3.2
				c-0.4,0.2-0.9-0.1-1.1-0.5c0.3,1.7-1.2,0.2-1.6-0.2c0.1,0.5,0,1-0.1,1.4c-0.1-0.1-0.2-0.4-0.3-0.6c0,1.9-1.1,0.5-1.2-0.6
				c-0.5,0.3-0.8,0.1-1-0.4c-0.2,1.3-1.3,1.2-1.9,0.3c-0.9,0.7-2.4-0.6-1.2-1.5c-0.7,0.2-0.7-0.3-0.8-0.9c0,0.5-0.2,0.9-1.3,0.8
				c-1.5,0.7,0.4,2.1,0.1,3.1c-0.1,0.8-1.1,0-0.5,1.3c0.1,0.2,0.2,0.4,0.3,0.5c-1,0.4,0.9,2,1.9,1.5c0,0.4,0.5,0.8,1.1,0.5
				c0.1,0.8,0.2,1.6,1.1,1.3c0.5,2,4.2,1,3.3-0.9c0.6,1.4,2,0.1,3-0.1c-1.2,1.1,0.4,2.2,1.6,1.6c0.3,1.3,2.2,0.8,2.3-0.3
				c0,0.1,0.5,0.5,0.5,0.5c-0.1,0.4,0,0.5,0,0.8c0.3-0.1,0.4-0.1,0.8-0.2c0.5,0.8,1.8,0.8,1.3-0.4c1.5,0.6,0.8-1.2,0.5-2.1
				c0.5,0.7,0.9,0.8,1.2,0.1c0.4,1.3,1.3,0.5,1.1-0.5c0.5,0.9,1.7,1.4,1.4-0.1c1.1,0.5,1.3-1.1,1.9-1.8c0.7,0.1,0.4,0.1,0.8,0
				c0,0.2,0.1,1.8,0.2,1.9c0.5,0.4,1.2,0.3,1.7,0c0.1,0.5,0.3,1,0.6,1.3c0.1,0.1,0.3-0.1,0.3-0.1c0.3,0.7,1.2,2,1.8,0.8
				c0.4,1.1,1.9,0.9,1.6-0.3c1.3,0.2,1.9-0.7,1.2-1.8C44.1,21.6,44.9,21.9,45.3,21.2z"/>
			<path class="st20" d="M40.4,7.2C40.4,7.2,40.3,7.2,40.4,7.2C40.3,7.2,40.4,7.2,40.4,7.2z"/>
			<path class="st20" d="M41.6,7.9C41.6,7.9,41.6,7.9,41.6,7.9C41.6,7.9,41.6,7.9,41.6,7.9z"/>
		</g>
		<g>
			<path class="st22" d="M46.2,19c0.1,0.1,0.1,0.1,0.1,0.1l0.2-0.5c2.1,1.6,2.1-2.2,0.7-2.4c-0.1-0.2-0.1-0.6-0.1-0.8
				c2-1.2,0.8-2.6-1.3-2.6c0.6-0.5,1.8-2.7,0-2.4c-0.3-0.5-1.4-2.9-2.1-1.9c0.2-0.7-0.4-1.6-1.1-1.8c0.3,0.2,0.6,0.4,0.7,0.7
				C43.7,8,43.5,8.5,44,8.9c0.1,0.1,0.3,0,0.6,0.3c0.2,0.3,0.3,0.6-0.1,0.8c0.2,0.3,0.2,0.5,0.2,0.8c-0.2,0-0.4,0.1-0.5,0.1
				c0.4,0.1,1.1,0.5,1.1,1c-0.1,0.5-0.6,0.2-1.1,0.2c0.3,0.2,0.5,0.5,0.5,0.8c-0.1,0-0.2,0.1-0.3,0.1c0.4,0.2,1.1,0.9,0.3,1
				c0.4,0.2,0.9,0.7,0.6,1.1c-0.2,0.4-1.1,0.1-0.8,0.8c-0.2,0-0.5,0.1-0.8,0c0.3,0.5,0.9,1.9-0.3,1.5c0.2,0.4,0.5,1.6-0.3,1
				c0.3,0.7,0.6,1.3-0.2,1.7c-1.4,0.6-1.9-1.3-2.3-2.1c0.4,1-0.9,1.7-1.2,0.7c-0.2,1.3-1.3,0.6-1.3-0.4c-0.6,0.8-0.5,0.1-0.8-0.1
				c0,0-0.2-0.2-0.3-0.3c-0.2-0.1-0.4,0.1-0.6-0.1c-0.3,0.4-0.7,0.3-1,0c-0.1,0.4-0.5,0.6-0.9,0c0,0.3-0.1,0.7-0.5,0.5
				c-0.6,0.7-1.3,0.2-1.7-0.7c0.2,0.5,0.4,1.9-0.1,2.1c-0.5,0.2-0.8-0.2-1.1-0.5c-0.3,0.5-0.7,0-0.9-0.4c-0.1,0.3-0.2,0.7-0.6,0.7
				c0-0.1-0.1-0.2-0.2-0.3c0.1,1.1-0.9,0.8-1.4,0.3c-0.6,0.6-1.1,0.1-1.4-0.6c0.2,1.1,0.2,2.5-0.9,2c-0.5-0.2-0.2-0.6-0.7-0.9
				c-0.3-0.3-0.8,0.2-1-0.6c-0.1,0.7-0.8,0.8-1.3,0.3c0,0.1-0.1,0.3-0.1,0.3c0-0.1-0.2-0.1-0.3-0.2c-0.5,1.1-0.9,0.3-1.2-0.4
				c0.2,0.8-0.9,1.5-1.2,0.5c-0.1,0.6-0.6,0.7-0.8,0c0,0.6-0.4,0.7-0.8,0.8c0,0-0.4-0.1-0.5-0.1c-0.3,0.1-0.5,0.4-0.7,0.4
				c-0.1-0.2-0.1-0.4-0.1-0.5c-0.6,0.5-1,0.1-1.1-0.4c-0.6,0.4-1.4,0.1-1.6-0.4c-0.2,0-0.1-0.3-0.3-0.4c-0.2,0-0.3,0.2-0.5,0.2
				c-0.6-0.1-0.7,0.3-0.7-0.3c-0.4,0.1-1.2-0.9-1.1-1.3c-0.1,0.1-0.1,0.3,0.1,0.8c0.1,0.2,0.2,0.4,0.3,0.5c-1,0.4,0.9,2,1.9,1.5
				c0,0.4,0.5,0.8,1.1,0.5c0.1,0.8,0.2,1.6,1.1,1.3c0.5,2,4.2,1,3.3-0.9c0.6,1.4,2,0.1,3-0.1c-1.2,1.1,0.4,2.2,1.6,1.6
				c0.3,1.3,2.2,0.8,2.3-0.3c0,0.1,0.5,0.5,0.5,0.5c-0.1,0.4,0,0.5,0,0.8c0.3-0.1,0.4-0.1,0.8-0.2c0.5,0.8,1.8,0.8,1.3-0.4
				c1.5,0.6,0.8-1.2,0.5-2.1c0.5,0.7,0.9,0.8,1.2,0.1c0.4,1.3,1.3,0.5,1.1-0.5c0.5,0.9,1.7,1.4,1.4-0.1c1.1,0.5,1.3-1.1,1.9-1.8
				c0.7,0.1,0.4,0.1,0.8,0c0,0.2,0.1,1.8,0.2,1.9c0.5,0.4,1.2,0.3,1.7,0c0.1,0.5,0.3,1,0.6,1.3c0.1,0.1,0.3-0.1,0.3-0.1
				c0.3,0.7,1.2,2,1.8,0.8c0.4,1.1,1.9,0.9,1.6-0.3c1.3,0.2,1.9-0.7,1.2-1.8c0.5,0.5,1.3,0.7,1.7,0.1C47.1,22.7,46.8,20.2,46.2,19z"
				/>
		</g>
	</g>
	<path class="st16" d="M24.3,28.2c-1.7-0.1-0.4-2.6,0.2-1.3c0.2-0.7,0.7-0.8,1.2-0.2c0.4-0.3,0.4-1.1,1.1-1.1
		c-0.1,1.1,0.4,0.7,1,0.7c0.6,0.1,2-0.1,0.5,0.7c-0.3,0.2-1.7,0.4-2,0.5C25.7,27.7,24.6,27.5,24.3,28.2z"/>
	<path class="st16" d="M16.6,29.3c-0.3,0.2-0.9,0.3-1.1,1.1c0,0.1,0.3,0.3,0.3,0.3c-0.7,0-0.9,0.4-0.5,0.3c0.5,0.1,2.3-0.4,2.3-1.1
		C17.7,29.1,16.6,28.8,16.6,29.3z"/>
	<path class="st16" d="M9,30.6c-0.2-0.5-0.7-0.1-1-0.2c-0.1,0-1.3-0.6-1,0.1c0.1,0.1,0.2,0,0.3,0.1c0.1,0.1,0,0.3,0.2,0.4
		C7.7,31,8,30.7,8.2,30.8c0.2,0.1,0.3,0.4,0.6,0.3C9.1,31,9.2,30.8,9,30.6z"/>
</g>
</svg>
