<?xml version="1.0" encoding="utf-8"?>
<!-- Generator: Adobe Illustrator 21.0.0, SVG Export Plug-In . SVG Version: 6.00 Build 0)  -->
<svg version="1.0" id="图层_1" xmlns="http://www.w3.org/2000/svg" xmlns:xlink="http://www.w3.org/1999/xlink" x="0px" y="0px" width="97" height="168"
	 viewBox="0 0 97 168" xml:space="preserve">
<linearGradient id="SVGID_1_" gradientUnits="userSpaceOnUse" x1="8.4289" y1="-746.4982" x2="66.5457" y2="-746.4982" gradientTransform="matrix(1.6167 0 0 -1.6167 -11.7167 -1113.3)">
	<stop  offset="0" style="stop-color:#CCCCCC"/>
	<stop  offset="0.503" style="stop-color:#FFFFFF"/>
	<stop  offset="0.8003" style="stop-color:#DBDBDB"/>
</linearGradient>
<path fill="url(#SVGID_1_)" d="M1.9,18.5v132.7c0,9.6,21.1,17.5,47,17.5s47-7.9,47-17.5V18.5H1.9z"/>
<linearGradient id="SVGID_2_" gradientUnits="userSpaceOnUse" x1="8.4933" y1="-746.4982" x2="66.6104" y2="-746.4982" gradientTransform="matrix(1.6167 0 0 -1.6167 -11.7167 -1113.3)">
	<stop  offset="0" style="stop-color:#2567FF"/>
	<stop  offset="0.503" style="stop-color:#88ABFF"/>
	<stop  offset="0.7997" style="stop-color:#2567FF"/>
</linearGradient>
<path fill="url(#SVGID_2_)" d="M1.9,74V99c12.1,8.7,28.7,14.1,47,14.1s34.6-5.4,47-14.1V74C83.9,82.7,67.3,88,49,88
	C30.9,88,14.3,82.4,1.9,74z"/>
<radialGradient id="SVGID_3_" cx="271.2184" cy="-2476.271" r="31.5571" gradientTransform="matrix(1.4854 0 0 -0.6084 -353.911 -1487.5271)" gradientUnits="userSpaceOnUse">
	<stop  offset="0" style="stop-color:#88ABFF"/>
	<stop  offset="0.7997" style="stop-color:#2567FF"/>
</radialGradient>
<ellipse fill="url(#SVGID_3_)" cx="49" cy="19" rx="47" ry="19.2"/>
</svg>
