<?xml version="1.0" encoding="utf-8"?>
<!-- Generator: Adobe Illustrator 21.0.0, SVG Export Plug-In . SVG Version: 6.00 Build 0)  -->
<svg version="1.0" id="图层_1" xmlns="http://www.w3.org/2000/svg" xmlns:xlink="http://www.w3.org/1999/xlink" x="0px" y="0px" width="190.7px" height="242px"
	 viewBox="0 0 190.7 242"  xml:space="preserve">
<linearGradient id="SVGID_1_" gradientUnits="userSpaceOnUse" x1="45.3693" y1="-634.4952" x2="73.91" y2="-634.4952" gradientTransform="matrix(3.1783 0 0 -3.1783 -141.5917 -1878.2839)">
	<stop  offset="0" style="stop-color:#CCCCCC"/>
	<stop  offset="0.503" style="stop-color:#FFFFFF"/>
	<stop  offset="0.8003" style="stop-color:#DBDBDB"/>
</linearGradient>
<path fill="url(#SVGID_1_)" d="M2.6,40.7v178.2c0,9.3,20.2,17.1,45.4,17.1s45.4-7.4,45.4-17.1V40.7H2.6z"/>
<linearGradient id="SVGID_2_" gradientUnits="userSpaceOnUse" x1="45.4009" y1="-635.2892" x2="73.9417" y2="-635.2892" gradientTransform="matrix(3.1783 0 0 -3.1783 -141.5917 -1878.2839)">
	<stop  offset="0" style="stop-color:#2567FF"/>
	<stop  offset="0.503" style="stop-color:#88ABFF"/>
	<stop  offset="0.7997" style="stop-color:#2567FF"/>
</linearGradient>
<path fill="url(#SVGID_2_)" d="M2.6,120.7v24.1c11.6,8.5,28,13.6,45.4,13.6s33.4-5,45.4-13.6v-24.1c-11.6,8.5-28,13.6-45.4,13.6
	S14.6,129.2,2.6,120.7z M2.6,69.4v24.1c11.6,8.5,28,13.6,45.4,13.6s33.4-5,45.4-13.6V69.4C81.8,78,65.5,83,48,83S14.6,78,2.6,69.4z
	 M2.6,174.7v24.1c11.6,8.5,28,13.6,45.4,13.6s33.4-5,45.4-13.6v-24.1c-11.6,8.5-28,13.6-45.4,13.6S14.6,182.8,2.6,174.7z"/>
<radialGradient id="SVGID_3_" cx="59.6617" cy="174.802" r="10.884" gradientTransform="matrix(3.1783 0 0 -3.1783 -141.5917 596.5783)" gradientUnits="userSpaceOnUse">
	<stop  offset="0" style="stop-color:#88ABFF"/>
	<stop  offset="0.7997" style="stop-color:#2567FF"/>
</radialGradient>
<ellipse fill="url(#SVGID_3_)" cx="48" cy="41.1" rx="45.4" ry="18.6"/>
<linearGradient id="SVGID_4_" gradientUnits="userSpaceOnUse" x1="75.1757" y1="-634.4952" x2="103.7164" y2="-634.4952" gradientTransform="matrix(3.1783 0 0 -3.1783 -141.5917 -1878.2839)">
	<stop  offset="0" style="stop-color:#CCCCCC"/>
	<stop  offset="0.503" style="stop-color:#FFFFFF"/>
	<stop  offset="0.8003" style="stop-color:#DBDBDB"/>
</linearGradient>
<path fill="url(#SVGID_4_)" d="M97.3,40.7v178.2c0,9.3,20.2,17.1,45.4,17.1s45.4-7.4,45.4-17.1V40.7H97.3z"/>
<linearGradient id="SVGID_5_" gradientUnits="userSpaceOnUse" x1="75.2064" y1="-635.2892" x2="103.7473" y2="-635.2892" gradientTransform="matrix(3.1783 0 0 -3.1783 -141.5917 -1878.2839)">
	<stop  offset="0" style="stop-color:#2567FF"/>
	<stop  offset="0.503" style="stop-color:#88ABFF"/>
	<stop  offset="0.7997" style="stop-color:#2567FF"/>
</linearGradient>
<path fill="url(#SVGID_5_)" d="M97.3,120.7v24.1c11.6,8.5,28,13.6,45.4,13.6s33.4-5,45.4-13.6v-24.1c-11.6,8.5-28,13.6-45.4,13.6
	S109.4,129.2,97.3,120.7z M97.3,69.4v24.1c11.6,8.5,28,13.6,45.4,13.6s33.4-5,45.4-13.6V69.4C176.5,78,160.2,83,142.8,83
	S109.4,78,97.3,69.4z M97.3,174.7v24.1c11.6,8.5,28,13.6,45.4,13.6s33.4-5,45.4-13.6v-24.1c-11.6,8.5-28,13.6-45.4,13.6
	S109.4,182.8,97.3,174.7z"/>
<radialGradient id="SVGID_6_" cx="89.4681" cy="174.802" r="10.8834" gradientTransform="matrix(3.1783 0 0 -3.1783 -141.5917 596.5783)" gradientUnits="userSpaceOnUse">
	<stop  offset="0" style="stop-color:#88ABFF"/>
	<stop  offset="0.7997" style="stop-color:#2567FF"/>
</radialGradient>
<ellipse fill="url(#SVGID_6_)" cx="142.8" cy="41.1" rx="45.4" ry="18.6"/>
<g>
	<g>
		
			<linearGradient id="SVGID_7_" gradientUnits="userSpaceOnUse" x1="-6180.0146" y1="-594.2775" x2="-6180.0146" y2="-591.902" gradientTransform="matrix(-3.1783 0 0 -3.1783 -19584.0176 -1878.2839)">
			<stop  offset="0" style="stop-color:#88ABFF"/>
			<stop  offset="0.7997" style="stop-color:#2567FF"/>
		</linearGradient>
		<polygon fill="url(#SVGID_7_)" points="44.5,10.4 79.1,10.4 76,3 37.2,3 		"/>
		<rect x="32.1" y="12.4" fill="#CCCCCC" width="37.7" height="27.6"/>
		
			<linearGradient id="SVGID_8_" gradientUnits="userSpaceOnUse" x1="60.9443" y1="-597.7093" x2="60.9443" y2="-591.9012" gradientTransform="matrix(3.1783 0 0 -3.1783 -141.5917 -1878.2839)">
			<stop  offset="0" style="stop-color:#88ABFF"/>
			<stop  offset="0.7997" style="stop-color:#2567FF"/>
		</linearGradient>
		<polygon fill="url(#SVGID_8_)" points="68.6,21.3 28.6,21.3 35.6,3 75.6,3 		"/>
		<polygon fill="#999999" points="77.2,31 70.2,39.9 70.2,17.4 74.8,5.4 77.2,10 		"/>
		<g>
			
				<linearGradient id="SVGID_9_" gradientUnits="userSpaceOnUse" x1="56.4737" y1="-600.4252" x2="58.6067" y2="-598.2923" gradientTransform="matrix(3.1783 0 0 -3.1783 -141.5917 -1878.2839)">
				<stop  offset="0" style="stop-color:#242424"/>
				<stop  offset="1" style="stop-color:#5B5B5B"/>
			</linearGradient>
			<rect x="37.2" y="24" fill="url(#SVGID_9_)" width="8.2" height="5.4"/>
			
				<linearGradient id="SVGID_10_" gradientUnits="userSpaceOnUse" x1="56.4551" y1="-602.887" x2="58.5881" y2="-600.7539" gradientTransform="matrix(3.1783 0 0 -3.1783 -141.5917 -1878.2839)">
				<stop  offset="0" style="stop-color:#242424"/>
				<stop  offset="1" style="stop-color:#5B5B5B"/>
			</linearGradient>
			<rect x="37.2" y="31.8" fill="url(#SVGID_10_)" width="8.2" height="5.4"/>
			
				<linearGradient id="SVGID_11_" gradientUnits="userSpaceOnUse" x1="62.709" y1="-600.42" x2="64.8421" y2="-598.2869" gradientTransform="matrix(3.1783 0 0 -3.1783 -141.5917 -1878.2839)">
				<stop  offset="0" style="stop-color:#242424"/>
				<stop  offset="1" style="stop-color:#5B5B5B"/>
			</linearGradient>
			<rect x="57" y="24" fill="url(#SVGID_11_)" width="8.2" height="5.4"/>
			
				<linearGradient id="SVGID_12_" gradientUnits="userSpaceOnUse" x1="62.69" y1="-602.8821" x2="64.8231" y2="-600.749" gradientTransform="matrix(3.1783 0 0 -3.1783 -141.5917 -1878.2839)">
				<stop  offset="0" style="stop-color:#242424"/>
				<stop  offset="1" style="stop-color:#5B5B5B"/>
			</linearGradient>
			<rect x="57" y="31.8" fill="url(#SVGID_12_)" width="8.2" height="5.4"/>
		</g>
	</g>
	<rect x="71.7" y="22.8" fill="#CCCCCC" width="49.3" height="9.3"/>
	<polygon fill="#2567FF" points="120.6,22.8 71.7,22.8 76.8,16.6 120.6,16.6 	"/>
	
		<linearGradient id="SVGID_13_" gradientUnits="userSpaceOnUse" x1="69.8889" y1="-600.142" x2="71.5022" y2="-598.5286" gradientTransform="matrix(3.1783 0 0 -3.1783 -141.5917 -1878.2839)">
		<stop  offset="0" style="stop-color:#242424"/>
		<stop  offset="1" style="stop-color:#5B5B5B"/>
	</linearGradient>
	<rect x="80.6" y="24" fill="url(#SVGID_13_)" width="4.7" height="5.4"/>
	
		<linearGradient id="SVGID_14_" gradientUnits="userSpaceOnUse" x1="72.8329" y1="-600.1298" x2="74.4462" y2="-598.5163" gradientTransform="matrix(3.1783 0 0 -3.1783 -141.5917 -1878.2839)">
		<stop  offset="0" style="stop-color:#242424"/>
		<stop  offset="1" style="stop-color:#5B5B5B"/>
	</linearGradient>
	<rect x="90" y="24" fill="url(#SVGID_14_)" width="4.7" height="5.4"/>
	
		<linearGradient id="SVGID_15_" gradientUnits="userSpaceOnUse" x1="75.838" y1="-600.1785" x2="77.4513" y2="-598.5652" gradientTransform="matrix(3.1783 0 0 -3.1783 -141.5917 -1878.2839)">
		<stop  offset="0" style="stop-color:#242424"/>
		<stop  offset="1" style="stop-color:#5B5B5B"/>
	</linearGradient>
	<rect x="99.7" y="24" fill="url(#SVGID_15_)" width="4.7" height="5.4"/>
	
		<linearGradient id="SVGID_16_" gradientUnits="userSpaceOnUse" x1="78.782" y1="-600.1664" x2="80.3953" y2="-598.553" gradientTransform="matrix(3.1783 0 0 -3.1783 -141.5917 -1878.2839)">
		<stop  offset="0" style="stop-color:#242424"/>
		<stop  offset="1" style="stop-color:#5B5B5B"/>
	</linearGradient>
	<rect x="109" y="24" fill="url(#SVGID_16_)" width="4.7" height="5.4"/>
	<g>
		
			<linearGradient id="SVGID_17_" gradientUnits="userSpaceOnUse" x1="-6207.5" y1="-594.2775" x2="-6207.5" y2="-591.902" gradientTransform="matrix(-3.1783 0 0 -3.1783 -19584.0176 -1878.2839)">
			<stop  offset="0" style="stop-color:#88ABFF"/>
			<stop  offset="0.7997" style="stop-color:#2567FF"/>
		</linearGradient>
		<polygon fill="url(#SVGID_17_)" points="131.9,10.4 166.5,10.4 163,3 124.5,3 		"/>
		<rect x="119.5" y="12.4" fill="#CCCCCC" width="37.7" height="27.6"/>
		
			<linearGradient id="SVGID_18_" gradientUnits="userSpaceOnUse" x1="88.3687" y1="-597.7093" x2="88.3687" y2="-591.9012" gradientTransform="matrix(3.1783 0 0 -3.1783 -141.5917 -1878.2839)">
			<stop  offset="0" style="stop-color:#88ABFF"/>
			<stop  offset="0.7997" style="stop-color:#2567FF"/>
		</linearGradient>
		<polygon fill="url(#SVGID_18_)" points="156,21.3 115.6,21.3 123,3 163,3 		"/>
		<polygon fill="#999999" points="164.5,31 157.5,39.9 157.5,17.4 161.8,5.4 164.5,10 		"/>
		<g>
			
				<linearGradient id="SVGID_19_" gradientUnits="userSpaceOnUse" x1="83.9405" y1="-600.4439" x2="86.0735" y2="-598.3108" gradientTransform="matrix(3.1783 0 0 -3.1783 -141.5917 -1878.2839)">
				<stop  offset="0" style="stop-color:#242424"/>
				<stop  offset="1" style="stop-color:#5B5B5B"/>
			</linearGradient>
			<rect x="124.5" y="24" fill="url(#SVGID_19_)" width="8.2" height="5.4"/>
			
				<linearGradient id="SVGID_20_" gradientUnits="userSpaceOnUse" x1="83.923" y1="-602.9045" x2="86.056" y2="-600.7715" gradientTransform="matrix(3.1783 0 0 -3.1783 -141.5917 -1878.2839)">
				<stop  offset="0" style="stop-color:#242424"/>
				<stop  offset="1" style="stop-color:#5B5B5B"/>
			</linearGradient>
			<rect x="124.5" y="31.8" fill="url(#SVGID_20_)" width="8.2" height="5.4"/>
			
				<linearGradient id="SVGID_21_" gradientUnits="userSpaceOnUse" x1="90.1773" y1="-600.4371" x2="92.3102" y2="-598.3041" gradientTransform="matrix(3.1783 0 0 -3.1783 -141.5917 -1878.2839)">
				<stop  offset="0" style="stop-color:#242424"/>
				<stop  offset="1" style="stop-color:#5B5B5B"/>
			</linearGradient>
			<rect x="144.3" y="24" fill="url(#SVGID_21_)" width="8.2" height="5.4"/>
			
				<linearGradient id="SVGID_22_" gradientUnits="userSpaceOnUse" x1="90.1583" y1="-602.8993" x2="92.2912" y2="-600.7662" gradientTransform="matrix(3.1783 0 0 -3.1783 -141.5917 -1878.2839)">
				<stop  offset="0" style="stop-color:#242424"/>
				<stop  offset="1" style="stop-color:#5B5B5B"/>
			</linearGradient>
			<rect x="144.3" y="31.8" fill="url(#SVGID_22_)" width="8.2" height="5.4"/>
		</g>
	</g>
</g>
</svg>
