<?xml version="1.0" encoding="utf-8"?>
<!-- Generator: Adobe Illustrator 21.0.0, SVG Export Plug-In . SVG Version: 6.00 Build 0)  -->
<svg version="1.0" id="图层_1" xmlns="http://www.w3.org/2000/svg" xmlns:xlink="http://www.w3.org/1999/xlink" x="0px" y="0px" width="266.01px"
	 height="266.01px"
	 viewBox="0 0 266 266" xml:space="preserve">
<g>
	<g>
		<path fill="#FFFFFF" d="M69,30.4c52.8,0,62.1,1.8,114.8,1.8c4,0,6.7,1.8,7.1,4c1.8,8.4,27,69.2,28.8,77.1c0.4,2.2-3.1,4-7.1,4
			c-57.2,0.4-113.9,2.2-168.5,0c-4,0-7.5-1.8-7.1-4c1.3-8.4,23.1-70.9,24.8-79.4C61.9,32.2,65,30.4,69,30.4z"/>
		<path fill="#FBFBFC" d="M70.3,31.7c49.7,0,63.8,2.2,113.5,2.2c4,0,6.7,1.8,7.1,4c1.8,7.5,26.2,67.4,27.9,75.4c0.4,2.2-3.1,4-7.1,4
			c-53.6,0.4-113.1,2.2-164.5,0c-4,0-7.5-1.8-7.1-4c1.3-7.5,21.7-70,23.1-77.6C63.7,33.5,66.4,31.7,70.3,31.7z"/>
		<path fill="#F7F7F8" d="M71.7,33.1c46.1,0,65.6,2.7,111.7,2.7c4,0,6.7,1.8,7.1,4c1.3,7.1,25.7,66.1,27,73.2c0.4,2.2-3.1,4-7.1,4
			c-50.1,0.4-112.6,1.8-160.5,0c-4,0-7.5-1.8-7.1-4c1.3-7.1,20.4-68.7,21.7-76.3C65,34.8,67.7,33.1,71.7,33.1z"/>
		<path fill="#F2F3F5" d="M73,34.4c43,0,67.4,3.1,110.4,3.1c4,0,6.7,1.8,7.1,4c1.3,6.7,24.8,64.7,26.2,71.4c0.4,2.2-3.1,4-7.1,4
			c-46.6,0.4-112.2,1.8-156.5,0c-4,0-7.5-1.8-7.1-4c1.3-6.7,18.6-67.8,20-74.5C66.4,36.2,69,34.4,73,34.4z"/>
		<path fill="#EEEFF2" d="M74.3,35.7c39.9,0,69.2,3.5,108.6,3.5c3.5,0,6.2,1.8,6.7,4c1.3,6.2,23.9,63.4,25.3,69.6
			c0.4,2.2-3.1,4-6.7,4c-43,0.4-111.3,1.8-152.5,0c-3.5,0-7.1-1.8-6.7-4c1.3-6.2,17.3-66.9,18.6-73.2C67.7,37.5,70.3,35.7,74.3,35.7
			z"/>
		<path fill="#EAEBEE" d="M75.7,37.1c36.4,0,70.9,4,107.3,4c3.5,0,6.2,1.8,6.7,4c1.3,5.8,23.1,62.1,24.4,67.4c0.4,2.2-3.1,4-6.7,4
			c-39.5,0.4-110.8,1.3-148.5,0c-3.5,0-7.1-1.8-6.7-4c0.9-5.8,16-65.6,16.8-71.4C69,38.8,71.7,37.1,75.7,37.1z"/>
		<path fill="#E6E7EB" d="M77,38.4c33.3,0,72.7,4.4,105.5,4.4c3.5,0,6.2,1.8,6.7,4c0.9,5.3,22.6,60.3,23.5,65.6c0.4,2.2-3.1,4-6.7,4
			c-35.9,0.4-110.4,1.3-144.5,0c-3.5,0-7.1-1.8-6.7-4c0.9-5.3,14.2-64.7,15.5-70C70.3,40.2,73.5,38.4,77,38.4z"/>
		<path fill="#E2E3E7" d="M78.3,39.7c29.7,0,74,4.9,104.2,4.9c3.5,0,6.2,1.8,6.7,4c0.9,4.4,21.7,59,22.6,63.8c0.4,2.2-3.1,4-6.7,4
			c-31.9,0.4-110,0.9-140.5,0c-3.5,0-7.1-1.8-6.7-4c0.9-4.4,12.9-63.8,13.7-68.3C72.1,41.5,74.8,39.7,78.3,39.7z"/>
		<path fill="#DEE0E4" d="M79.7,41.1c26.6,0,75.8,4.9,102.4,4.9c3.5,0,6.2,1.8,6.7,3.5c0.9,4,20.8,57.6,21.7,61.6
			c0.4,2.2-3.1,3.5-6.7,3.5c-28.4,0-109.1,0.9-136.6,0c-3.5,0-6.7-1.8-6.7-3.5c0.9-4,11.5-62.5,12.4-66.9
			C73.5,42.8,76.1,41.1,79.7,41.1z"/>
		<path fill="#D9DCE1" d="M81,42.4c23.1,0,77.6,5.3,101.1,5.3c3.5,0,5.8,1.8,6.2,3.5c0.9,3.5,20,56.3,20.8,59.9
			c0.4,2.2-2.7,3.5-6.2,3.5c-24.8,0-108.6,0.9-132.6,0c-3.5,0-6.7-1.8-6.2-3.5c0.9-3.5,10.2-61.6,10.6-65.2
			C74.8,44.2,77.4,42.4,81,42.4z"/>
		<path fill="#D5D8DD" d="M82.3,43.7c20,0,79.4,5.8,99.3,5.8c3.5,0,5.8,1.8,6.2,3.5c0.4,3.1,19.5,54.5,20,57.6
			c0.4,1.8-2.7,3.5-6.2,3.5c-21.3,0-108.2,0.4-128.6,0c-3.5,0-6.7-1.8-6.2-3.5c0.4-3.1,8.4-60.7,9.3-63.8
			C76.1,45.5,78.8,43.7,82.3,43.7z"/>
		<path fill="#D1D4DA" d="M83.6,45c16.4,0,81.1,6.2,97.5,6.2c3.5,0,5.8,1.8,6.2,3.5c0.4,2.7,18.6,53.2,19.1,55.9
			c0.4,1.8-2.7,3.5-6.2,3.5c-17.7,0-107.3,0.4-124.6,0c-3.5,0-6.7-1.8-6.2-3.5c0.4-2.7,7.1-59.4,7.5-62.1
			C77.4,46.8,80.1,44.6,83.6,45z"/>
		<path fill="#CDD0D7" d="M85,46.4c13.3,0,82.9,6.7,96.2,6.7c3.5,0,5.8,1.8,6.2,3.5c0.4,2.2,17.7,51.9,18.2,54.1
			c0.4,1.8-2.7,3.5-6.2,3.5c-14.2,0-106.8,0.4-120.6,0c-3.5,0-6.7-1.8-6.2-3.5c0.4-2.2,5.8-58.5,6.2-60.7
			C78.8,48.1,81.4,45.9,85,46.4z"/>
		<path fill="#C9CCD3" d="M86.3,47.7c9.8,0,84.7,7.1,94.4,7.1c3.1,0.4,5.8,1.8,6.2,3.5c0.4,1.3,17.3,50.5,17.3,51.9
			c0.4,1.8-2.7,3.5-6.2,3.5c-10.6,0-106.4,0.4-116.6,0c-3.1,0-6.2-1.8-6.2-3.5c0.4-1.3,4-57.6,4.4-59C80.5,49,83.2,47.3,86.3,47.7z"
			/>
		<path fill="#C4C8D0" d="M87.6,49c6.7,0,86.5,7.5,93.1,7.5c3.1,0.4,5.8,1.8,5.8,3.5c0,0.9,16.4,49.2,16.4,50.1
			c0.4,1.8-2.7,3.5-5.8,3.5c-7.1,0-105.5,0-112.6,0c-3.1,0-6.2-1.8-5.8-3.5c0-0.9,2.7-56.3,3.1-57.6C81.9,50.4,84.5,48.6,87.6,49z"
			/>
		<path fill="#C0C4CC" d="M89,50.4c3.1,0,88.2,8,91.3,8c3.1,0.4,5.3,1.3,5.8,3.5c0,0.4,15.5,47.4,16,47.9c0.4,1.8-2.7,3.5-5.8,3.5
			c-3.5,0-105.1,0-108.6,0c-3.1,0-6.2-1.3-5.8-3.5c0-0.4,1.3-55.4,1.3-55.9C83.2,51.7,85.9,49.9,89,50.4z"/>
		<path fill="#BCC0C9" d="M90.3,51.7l90,8.4c3.1,0.4,5.3,1.3,5.8,3.5l15.1,46.1c0.4,1.8-2.7,3.5-5.8,3.5H90.3
			c-3.1,0-6.2-1.3-5.8-3.5v-55C84.5,53,87.2,51.2,90.3,51.7z"/>
	</g>
	<g>
		
			<linearGradient id="SVGID_1_" gradientUnits="userSpaceOnUse" x1="150.4496" y1="164.5728" x2="82.9588" y2="164.5728" gradientTransform="matrix(4.4335 0 0 -4.4335 -353.6505 825.6605)">
			<stop  offset="0" style="stop-color:#B1BBC1"/>
			<stop  offset="3.000000e-02" style="stop-color:#D7DFE3"/>
			<stop  offset="5.000000e-02" style="stop-color:#B1BBC1"/>
			<stop  offset="8.000000e-02" style="stop-color:#3A5A69"/>
			<stop  offset="0.92" style="stop-color:#3A5A69"/>
			<stop  offset="0.95" style="stop-color:#B1BBC1"/>
			<stop  offset="0.98" style="stop-color:#D7DFE3"/>
			<stop  offset="1" style="stop-color:#B1BBC1"/>
		</linearGradient>
		<path fill="url(#SVGID_1_)" d="M254.3,82.7L254.3,82.7L254.3,82.7L254.3,82.7L254.3,82.7z M241.9,109.3c-47,0-171.1,0-218.1,0
			c-8.4,0-13.7-4.4-12.4-10.2V85.8c0.9,4,5.8,7.1,12.4,7.1c24.8,0,193.3,0,218.1,0c7.1,0,11.5-3.1,12.4-7.1v13.3
			C255.7,104.9,250.3,109.3,241.9,109.3L241.9,109.3z M11.4,82.7L11.4,82.7L11.4,82.7L11.4,82.7z"/>
		<path fill="#C6C6C6" d="M241.9,93.4c-47,0-171.1,0-218.1,0c-9.3,0-14.6-7.5-12-16.4l23.1-63.8h193.7L253.9,77
			C257,85.4,251.2,93.4,241.9,93.4z"/>
		<path fill="#FFFFFF" d="M241.9,104.9c-47,0-171.1,0-218.1,0c-8.4,0-13.7-4.4-12.4-10.2v-5.3c0.9,4,5.8,7.1,12.4,7.1
			c24.8,0,193.3,0,218.1,0c7.1,0,11.5-3.1,12.4-7.1v4.9C255.7,100,250.3,104.9,241.9,104.9z"/>
		
			<linearGradient id="SVGID_2_" gradientUnits="userSpaceOnUse" x1="150.4487" y1="164.5228" x2="82.2508" y2="164.5228" gradientTransform="matrix(4.4335 0 0 -4.4335 -353.6505 825.6605)">
			<stop  offset="0" style="stop-color:#E2E2E7"/>
			<stop  offset="2.000000e-02" style="stop-color:#FBFAFA"/>
			<stop  offset="4.000000e-02" style="stop-color:#F6F7F7"/>
			<stop  offset="7.000000e-02" style="stop-color:#E2E2E7"/>
			<stop  offset="0.9" style="stop-color:#E2E2E7"/>
			<stop  offset="0.93" style="stop-color:#F4F4F6"/>
			<stop  offset="0.96" style="stop-color:#FDFDFF"/>
			<stop  offset="1" style="stop-color:#E2E2E7"/>
		</linearGradient>
		<path fill="url(#SVGID_2_)" d="M241.9,104c-47,0-171.1,0-218.1,0c-8.4,0-13.7-4.4-12.4-10.2v-5.3c0.9,4,5.8,7.1,12.4,7.1
			c24.8,0,193.3,0,218.1,0c7.1,0,11.5-3.1,12.4-7.1v4.9C255.7,99.6,250.3,104,241.9,104z"/>
		<path fill="#FFFFFF" d="M241.9,93.4c-47,0-171.1,0-218.1,0c-8.4,0-13.3-4-12.9-9.3c0.4,4.4,5.3,8,12.9,8c47,0,171.1,0,218.1,0
			c7.5,0,12-3.5,12.9-8C255.2,88.9,249.9,93.4,241.9,93.4z"/>
	</g>
	<g>
		<path fill="#32515C" d="M67.2,16.7L53.9,81.4c-3.1,13.3-37.2,15.1-31-6.2l17.7-61.6C45.1-0.6,70.8,1.6,67.2,16.7z"/>
		<path fill="#33525E" d="M66.8,16.7L53.5,81c-3.1,13.3-36.8,14.6-31-6.2l17.7-61.6C44.6-0.6,70.3,1.6,66.8,16.7z"/>
		<path fill="#34545F" d="M66.8,16.2L53.5,80.5c-3.1,13.3-36.4,14.6-30.6-5.8l17.7-61.6C44.6-0.2,70.3,1.6,66.8,16.2z"/>
		<path fill="#355561" d="M66.4,16.2L53.1,80.1C50,93.4,17.1,94.3,22.9,74.7l17.7-61.2C44.6-0.2,69.9,1.6,66.4,16.2z"/>
		<path fill="#375662" d="M66.4,16.2L53.1,79.6C50,92.5,17.6,93.8,22.9,74.3l17.7-61.2C44.6-0.2,69.9,1.6,66.4,16.2z"/>
		<path fill="#385864" d="M65.9,15.8l-13.3,63c-3.1,12.9-35,13.7-29.7-4.9l17.7-61.2C44.6,0.3,69.5,1.6,65.9,15.8z"/>
		<path fill="#395966" d="M65.9,15.8l-13.7,63c-3.1,12.9-34.6,13.7-29.3-4.4l17.7-60.7C44.2,0.3,69.5,1.2,65.9,15.8z"/>
		<path fill="#3A5A67" d="M65.9,15.8L52.2,78.3C49.1,91.2,18,91.6,22.9,73.9l17.7-60.7C44.2,0.3,69,1.2,65.9,15.8z"/>
		<path fill="#3B5C69" d="M65.5,15.8L51.7,77.8c-3.1,12.9-33.7,13.3-28.8-4l17.7-60.7C44.2,0.7,69,1.2,65.5,15.8z"/>
		<path fill="#3C5D6B" d="M65.5,15.3L51.7,77.4c-3.1,12.9-33.7,12.9-28.8-4l17.7-60.3C44.2,0.7,68.6,1.2,65.5,15.3z"/>
		<path fill="#3D5E6C" d="M65,15.3L51.3,77C48.2,89.4,18,89.8,22.9,73.4l17.7-60.3C44.2,0.7,68.6,1.2,65,15.3z"/>
		<path fill="#3E5F6E" d="M65,15.3L51.3,76.5c-3.1,12.4-32.8,12.4-27.9-3.1l17.7-60.3C44.2,1.2,68.1,1.2,65,15.3z"/>
		<path fill="#406170" d="M64.6,14.9L50.8,76.1C47.7,88.5,18.5,88.5,23.4,73l17.3-60.3C43.7,1.2,67.7,1.2,64.6,14.9z"/>
		<path fill="#416271" d="M64.6,14.9L50.4,75.6C47.3,88,18.5,87.6,22.9,73l17.3-59.9C43.7,1.2,67.7,1.2,64.6,14.9z"/>
		<path fill="#426373" d="M64.1,14.9L50,75.2c-3.1,12.4-31.5,12-27-2.7l17.3-59.4C43.7,1.6,67.2,1.2,64.1,14.9z"/>
		<path fill="#436574" d="M64.1,14.9L50,74.7c-3.1,12-31,11.5-26.6-2.2l16.8-59.4C43.7,1.6,67.2,1.2,64.1,14.9z"/>
		<path fill="#446676" d="M63.7,14.5L49.5,74.3c-2.7,12-30.6,11.5-26.6-1.8l17.3-59.4C43.7,1.6,66.8,1.2,63.7,14.5z"/>
	</g>
	<g>
		<path fill="#446676" d="M60.6,8.7L48.2,31.7L38,71.2c-4.9,18.6-20.8,19.1-14.6-0.4L40.2,14C43.7,2.5,61.5,3.8,60.6,8.7z"/>
		<path fill="#4C6C7C" d="M59.3,9.1l-12,22.6L37.1,71.2c-4.9,17.7-19.5,18.6-13.7-0.4L40.2,14C43.3,3.4,60.1,4.3,59.3,9.1z"/>
		<path fill="#547382" d="M58.4,10L46.8,31.7l-10.2,39C32.2,88,18,88.5,23.4,70.3l16.8-55.9C43.3,3.8,59.3,4.7,58.4,10z"/>
		<path fill="#5B7989" d="M57,10.5L46,31.7L35.8,70.3C31.3,86.7,18,87.2,23.4,69.9l16.8-55C43.3,4.3,58.4,5.1,57,10.5z"/>
		<path fill="#63808F" d="M56.2,11.3L46,31.7L35.8,70.3c-4.4,15.5-16.8,16-12-0.9l16.4-54.5C43.3,4.7,57,5.6,56.2,11.3z"/>
		<path fill="#6B8695" d="M54.8,11.8l-9.8,20L34.9,69.9c-4,15.1-15.5,15.5-10.6-0.9l16-53.6C43.3,5.6,56.2,6,54.8,11.8z"/>
		<path fill="#738D9B" d="M53.5,12.7l-9.3,19.5L34,70.3c-4,14.2-14.6,14.6-9.8-0.9l16-54.1C43.3,6,54.8,6.5,53.5,12.7z"/>
		<path fill="#7B93A1" d="M52.6,13.1l-8.9,18.6L34,69.4c-3.5,13.3-13.3,13.7-9.3-0.9l15.5-53.2C42.9,6.5,53.9,6.9,52.6,13.1z"/>
		<path fill="#839AA8" d="M51.3,14l-8,18.2l-9.8,37.7C30,82.7,21.1,82.7,25.1,69l15.1-52.8C42.9,6.9,53.1,7.4,51.3,14z"/>
		<path fill="#8AA0AE" d="M50.4,14.5l-7.5,17.3L33.1,69c-3.5,12-12,12.4-8-0.9l15.1-51.9C42.9,7.8,51.7,8.2,50.4,14.5z"/>
		<path fill="#92A6B4" d="M49.1,15.3L42,32.2l-9.8,37.2C29.1,80.5,22,81,25.6,68.5l14.6-51.9C42.9,8.2,50.8,8.7,49.1,15.3z"/>
		<path fill="#9AADBA" d="M47.7,15.8l-6.7,16l-9.8,36.8c-3.1,10.6-9.3,10.6-6.2-0.9l15.1-51C42.9,8.7,49.5,9.1,47.7,15.8z"/>
		<path fill="#A2B3C0" d="M46.8,16.7l-6.2,15.5l-9.8,36.4c-2.7,9.8-8.4,9.8-5.3-0.9l14.6-50.5C42.9,9.6,48.6,9.6,46.8,16.7z"/>
		<path fill="#AABAC6" d="M45.5,17.1l-5.3,14.6l-9.8,36.4C27.8,77,23.4,77,26,67.2l14.2-50.1C42.4,10,47.7,10,45.5,17.1z"/>
		<path fill="#B1C0CD" d="M44.2,18l-4.9,14.2L30,68.1c-2.2,8.4-6.2,8.4-3.5-0.9L40.6,18C42.4,10.5,46.4,10.5,44.2,18z"/>
		<path fill="#B9C7D3" d="M43.3,18.4l-4.4,13.7l-9.3,35.9c-2.2,7.5-5.3,7.5-2.7-0.9l13.7-48.8C42.4,10.9,45.5,10.9,43.3,18.4z"/>
		<path fill="#C1CDD9" d="M42,19.3l-4,12.9l-9.3,35.5c-2.2,6.7-4.4,6.7-2.2-0.9l13.7-48.3C42.4,11.8,44.2,11.3,42,19.3z"/>
	</g>
	<g>
		<path fill="#446676" d="M34.4,84.5l7.1-27.9l14.2-36.8C61,6,68.6,10.9,64.6,28.6L53.5,80.5C51.7,91.2,34.4,90.3,34.4,84.5z"/>
		<path fill="#4C6C7C" d="M35.3,84.1l7.1-27l13.7-36.4c4.9-13.3,12.4-8.4,8.4,8.4L53.5,80.5C51.7,90.7,35.3,89.8,35.3,84.1z"/>
		<path fill="#547382" d="M36.7,83.6l6.7-26.2l13.3-35.9c4.9-12.9,12-8.4,8,8L53.5,80.1C51.3,89.8,36.2,89.4,36.7,83.6z"/>
		<path fill="#5B7989" d="M37.5,82.7l6.2-24.8L56.6,22c4.4-12,11.1-8,7.5,7.5L53.5,80.1C51.3,89.4,37.1,88.9,37.5,82.7z"/>
		<path fill="#63808F" d="M38.4,82.3l6.2-23.9L57,22.9c4.4-11.5,10.6-8,7.1,7.1L53.5,79.6C51.3,88.9,38,88.5,38.4,82.3z"/>
		<path fill="#6B8695" d="M39.3,81.8l5.8-23.1l11.5-35c4-11.1,9.8-8,6.7,6.7L52.6,79.6C51.3,88,38.9,87.6,39.3,81.8z"/>
		<path fill="#738D9B" d="M40.6,81L46,59.2l11.1-35c4-10.6,9.3-7.5,6.2,6.2L53.1,79.2C51.3,87.6,39.8,87.2,40.6,81z"/>
		<path fill="#7B93A1" d="M41.5,80.5l5.3-20.8l10.6-34.6c3.5-10.2,8.9-7.5,5.8,5.3L53.1,78.7C51.3,87.2,40.6,86.7,41.5,80.5z"/>
		<path fill="#839AA8" d="M42.4,80.1l4.9-20L57.5,26c3.1-9.8,8-7.5,5.3,4.9L52.6,78.3C51.3,86.3,41.5,86.3,42.4,80.1z"/>
		<path fill="#8AA0AE" d="M43.3,79.2l4.9-18.6l9.8-34.1c3.1-9.3,7.5-7.1,4.9,4.4l-10.2,47C50.8,85.8,42.4,85.8,43.3,79.2z"/>
		<path fill="#92A6B4" d="M44.6,78.7L49.1,61l9.3-33.7c2.7-8.9,7.1-7.1,4.4,4L52.6,77.8C50.8,85.4,43.3,84.9,44.6,78.7z"/>
		<path fill="#9AADBA" d="M45.5,78.3l4-16.8l8.9-33.3c2.7-8.4,6.2-6.7,4,3.5l-9.8,46.1C50.8,84.9,44.2,84.5,45.5,78.3z"/>
		<path fill="#A2B3C0" d="M46.4,77.4l4-15.5l8.4-33.3c2.2-8,5.8-6.7,3.5,3.1L52.2,77C50.8,84.1,45.1,84.1,46.4,77.4z"/>
		<path fill="#AABAC6" d="M47.3,77l3.5-14.6l7.5-32.8c2.2-7.5,5.3-6.7,3.1,2.7L52.2,77C50.8,83.6,46.4,83.6,47.3,77z"/>
		<path fill="#B1C0CD" d="M48.6,76.1l3.1-13.7L58.8,30c1.8-7.1,4.4-6.2,2.7,1.8l-9.8,44.3C50.8,83.2,47.3,83.2,48.6,76.1z"/>
		<path fill="#B9C7D3" d="M49.5,75.6l3.1-12.4l6.7-32.4c1.8-6.7,4-6.2,2.2,1.3l-9.3,43.9C50.8,82.3,48.2,82.7,49.5,75.6z"/>
		<path fill="#C1CDD9" d="M50.4,75.2l2.7-11.5l6.2-31.9c1.3-6.2,3.5-6.2,1.8,0.9l-9.3,43.4C50.4,81.8,49.1,81.8,50.4,75.2z"/>
	</g>
	<g>
		<path fill="#FFFFFF" d="M82.8,20.7c8,0,16,0,23.9,0s16,0,23.9,0c1.3,0,2.7,0.4,3.1,0.9c0.4,1.8,0.4,3.5,0.9,4.9
			c0.4,1.8,0.4,3.5,0.9,5.3c0,0.4-1.3,0.9-2.7,0.9c-8.4,0-16.8,0-25.3,0s-16.8,0-25.3,0c-1.8,0-2.7-0.4-2.7-0.9
			c0-1.8,0.4-3.5,0.4-5.3c0-1.8,0.4-3.5,0.4-4.9C79.7,20.7,81,20.7,82.8,20.7z"/>
		<path fill="#303C3C" d="M82.8,20.2c8,0,16,0,23.5,0c8,0,16,0,23.5,0c1.3,0,2.7,0.4,2.7,0.9c0.4,1.8,0.4,3.5,0.9,4.9
			c0.4,1.8,0.4,3.5,0.9,5.3c0,0.4-1.3,0.9-2.7,0.9c-8.4,0-16.8,0-25.3,0c-8.4,0-16.8,0-25.3,0c-1.8,0-2.7-0.4-2.7-0.9
			c0-1.8,0.4-3.5,0.4-5.3c0-1.8,0.4-3.5,0.4-4.9C79.7,20.2,81,20.2,82.8,20.2z"/>
		<path fill="#808688" d="M82.8,20.2c8,0,16,0,23.9,0s16,0,23.9,0c1.3,0,2.7,0.4,3.1,0.9c0.4,1.8,0.4,3.5,0.9,4.9
			c0.4,1.8,0.4,3.5,0.9,5.3c0,0.4-1.3,0.9-2.7,0.9c-8.4,0-16.8,0-25.3,0s-16.8,0-25.3,0c-1.8,0-2.7-0.4-2.7-0.9
			c0-1.8,0.4-3.5,0.4-5.3c0-1.8,0.4-3.5,0.4-4.9C79.7,20.7,81,20.2,82.8,20.2z"/>
		<path fill="#BCC3C7" d="M83.6,20.7c7.5,0,15.1,0,22.6,0s15.1,0,22.6,0c1.3,0,2.7,0.4,2.7,0.9c0.4,1.3,0.4,3.1,0.9,4.4
			c0.4,1.8,0.4,3.1,0.9,4.9c0,0.4-1.3,0.9-2.7,0.9c-8,0-16,0-23.9,0s-16,0-23.9,0c-1.3,0-2.7-0.4-2.7-0.9c0-1.8,0.4-3.1,0.4-4.9
			c0-1.8,0.4-3.1,0.4-4.4C81,21.1,82.3,20.7,83.6,20.7z"/>
		
			<linearGradient id="SVGID_3_" gradientUnits="userSpaceOnUse" x1="100.149" y1="182.1994" x2="103.1864" y2="179.6507" gradientTransform="matrix(4.4335 0 0 -4.4335 -353.6505 825.6605)">
			<stop  offset="0" style="stop-color:#CACEC8"/>
			<stop  offset="1" style="stop-color:#FFFFFF"/>
		</linearGradient>
		<path fill="url(#SVGID_3_)" d="M83.6,20.7c6.2,0,12,0,18.2,0c6.2,0,12,0,18.2,0c-5.3,2.2-11.1,4.4-16.8,6.2
			c-6.2,2.2-12.4,4-18.2,4.9c-0.9,0-1.8,0-2.7,0c-1.3,0-2.7-0.4-2.7-0.9c0-1.8,0.4-3.1,0.4-4.9c0-1.8,0.4-3.1,0.4-4.4
			C81,21.1,82.3,20.7,83.6,20.7z"/>
	</g>
	<path fill="#1F3940" d="M117.3,51.7c2.2,0,4,0.9,4,2.2c0,1.3-1.3,2.2-3.5,2.2s-4-0.9-4-2.2C113.4,53,115.1,51.7,117.3,51.7z"/>
	<path fill="#2E7037" d="M117.3,51.7c1.8,0,3.5,0.9,4,2.2c0,1.3-1.3,2.2-3.5,2.2s-3.5-0.9-4-2.2C113.8,52.6,115.1,51.7,117.3,51.7z"
		/>
	
		<linearGradient id="SVGID_4_" gradientUnits="userSpaceOnUse" x1="106.2327" y1="174.5585" x2="106.3583" y2="173.5362" gradientTransform="matrix(4.4335 0 0 -4.4335 -353.6505 825.6605)">
		<stop  offset="0" style="stop-color:#C2D961"/>
		<stop  offset="1" style="stop-color:#FFFFFF"/>
	</linearGradient>
	<path fill="url(#SVGID_4_)" d="M117.3,51.7c1.8,0,3.5,0.9,3.5,1.8c0,0.9-1.3,1.8-3.1,1.8c-1.8,0-3.5-0.9-3.5-1.8
		C113.8,52.6,115.1,51.7,117.3,51.7z"/>
	<path fill="#1F3940" d="M93.4,51.7c2.2,0,4,0.9,4,2.2c0,1.3-1.8,2.2-4,2.2s-4-0.9-4-2.2C89.4,53,91.2,51.7,93.4,51.7z"/>
	
		<ellipse transform="matrix(1 -8.239457e-03 8.239457e-03 1 -0.441 0.7714)" fill="#2E7037" cx="93.4" cy="53.9" rx="3.5" ry="2.2"/>
	
		<linearGradient id="SVGID_5_" gradientUnits="userSpaceOnUse" x1="100.7311" y1="174.5555" x2="100.8746" y2="173.5347" gradientTransform="matrix(4.4335 0 0 -4.4335 -353.6505 825.6605)">
		<stop  offset="0" style="stop-color:#C2D961"/>
		<stop  offset="1" style="stop-color:#FFFFFF"/>
	</linearGradient>
	<path fill="url(#SVGID_5_)" d="M93,51.7c1.8,0,3.5,0.9,3.5,1.8c0,0.9-1.3,1.8-3.1,1.8c-1.8,0-3.5-0.9-3.5-1.8
		C89.9,52.6,91.2,51.7,93,51.7z"/>
	
		<linearGradient id="SVGID_6_" gradientUnits="userSpaceOnUse" x1="103.6749" y1="172.7158" x2="103.6201" y2="171.932" gradientTransform="matrix(4.4335 0 0 -4.4335 -353.6505 825.6605)">
		<stop  offset="0" style="stop-color:#FFFFFF"/>
		<stop  offset="1" style="stop-color:#C7C6D0"/>
	</linearGradient>
	<path fill="url(#SVGID_6_)" d="M89.9,57.9c10.6,0,21.3,0,31.9,0c0.9,0,2.2,0.9,2.2,2.2v0.4c0,1.3-0.9,2.2-1.8,2.2
		c-10.6,0-21.7,0-32.4,0c-0.9,0-1.8-0.9-1.8-2.2v-0.4C87.6,59.2,88.5,57.9,89.9,57.9z"/>
	<path fill="#FFFFFF" d="M89.4,58.3c10.6,0,21.7,0,32.4,0c0.4,0,0.9,0.4,1.3,0.4c-0.4,0-0.4-0.4-0.9-0.4
		C111.6,58.8,100.5,58.8,89.4,58.3c-0.4,0.4-1.3,0.9-1.3,1.8c0,0.4,0,1.3,0,1.8s0,0.4,0,0.9c-0.4-0.4-0.4-0.4-0.4-0.9s0-1.3,0-1.8
		C87.6,58.8,88.5,58.3,89.4,58.3z"/>
	<path fill="#9196A8" d="M89.4,58.3c10.6,0,21.7,0,32.4,0c0.4,0,0.9,0.4,1.3,0.4c-0.4,0-0.4-0.4-0.9-0.4
		C111.6,58.8,100.9,58.8,89.4,58.3c-0.4,0.4-1.3,0.9-1.3,1.8c0,0.4,0,1.3,0,1.8s0,0.4,0,0.9c-0.4-0.4-0.4-0.4-0.4-0.9s0-1.3,0-1.8
		C88.1,58.8,88.5,58.3,89.4,58.3z"/>
	<path fill="#FFFFFF" d="M123.5,59.2c0.4,0.4,0.4,0.4,0.4,0.9s0,1.3,0,1.8c0,0.9-0.4,1.3-1.3,1.3c-11.1,0-22.2,0-33.3,0
		c-0.4,0-0.9-0.4-1.3-0.4c0.4,0.4,0.4,0.4,0.9,0.4c11.1,0,22.2,0,33.3,0c0.9,0,1.8-0.4,1.3-1.3c0-0.4,0-1.3,0-1.8
		C124,59.7,123.5,59.7,123.5,59.2z"/>
	<path fill="#9196A8" d="M123.1,58.8c0.4,0.4,0.4,0.4,0.4,0.9s0,1.3,0,1.8c0,0.9-0.4,1.3-1.3,1.3c-11.1,0-22.2,0-33.3,0
		c-0.4,0-0.9-0.4-1.3-0.4c0.4,0.4,0.4,0.4,0.9,0.4c11.1,0,22.2,0,32.8,0c0.9,0,1.8-0.4,1.3-1.3c0-0.4,0-1.3,0-1.8
		C123.5,59.2,123.1,59.2,123.1,58.8z"/>
	<g>
		<g>
			<path fill="#9196A8" d="M99.6,58.8C99.6,58.3,100.1,58.3,99.6,58.8c0.4-0.4,0.4,0,0.4,0c0,1.3,0,3.1,0,4.4c0,0,0,0.4-0.4,0.4
				c0,0-0.4,0-0.4-0.4C99.6,61.4,99.6,60.1,99.6,58.8z"/>
			<path fill="#FFFFFF" d="M100.1,58.8C100.1,58.3,100.5,58.3,100.1,58.8c0.4-0.4,0.4,0,0.4,0c0,1.3,0,3.1,0,4.4c0,0,0,0.4-0.4,0.4
				c0,0-0.4,0-0.4-0.4C100.1,61.4,100.1,60.1,100.1,58.8z"/>
		</g>
		<g>
			<path fill="#9196A8" d="M111.1,58.8C111.1,58.3,111.1,58.3,111.1,58.8c0.4-0.4,0.4,0,0.4,0c0,1.3,0,3.1,0,4.4c0,0,0,0.4-0.4,0.4
				c0,0-0.4,0-0.4-0.4C111.1,61.4,111.1,60.1,111.1,58.8z"/>
			<path fill="#FFFFFF" d="M111.6,58.8C111.6,58.3,111.6,58.3,111.6,58.8c0.4-0.4,0.4,0,0.4,0c0,1.3,0,3.1,0,4.4c0,0,0,0.4-0.4,0.4
				c0,0-0.4,0-0.4-0.4C111.6,61.4,111.6,60.1,111.6,58.8z"/>
		</g>
	</g>
	
		<linearGradient id="SVGID_7_" gradientUnits="userSpaceOnUse" x1="103.5515" y1="167.8131" x2="103.4898" y2="166.9302" gradientTransform="matrix(4.4335 0 0 -4.4335 -353.6505 825.6605)">
		<stop  offset="0" style="stop-color:#FFFFFF"/>
		<stop  offset="1" style="stop-color:#C7C6D0"/>
	</linearGradient>
	<path fill="url(#SVGID_7_)" d="M88.1,79.6c11.5,0,23.1,0,34.6,0c1.3,0,2.2,1.3,2.2,2.7c0,0.4,0,0.4,0,0.9c0,1.3-0.9,2.7-2.2,2.7
		c-11.5,0-23.5,0-35,0c-1.3,0-2.2-1.3-1.8-2.7c0-0.4,0-0.4,0-0.9C85.9,80.5,87.2,79.6,88.1,79.6z"/>
	<path fill="#FFFFFF" d="M87.6,79.6c11.5,0,23.5,0,35,0c0.4,0,1.3,0.4,1.3,0.9c-0.4,0-0.4-0.4-0.9-0.4
		C111.6,80.1,100.1,80.1,87.6,79.6c-0.4,0.4-1.3,1.3-1.3,1.8c0,0.9,0,1.3,0,2.2c0,0.4,0,0.4,0,0.9c-0.4-0.4-0.4-0.9-0.4-1.3
		c0-0.9,0-1.3,0-2.2C85.9,80.5,86.8,79.6,87.6,79.6z"/>
	<path fill="#9196A8" d="M88.1,80.1c11.5,0,23.5,0,35,0c0.4,0,1.3,0.4,1.3,0.9c-0.4,0-0.4-0.4-0.9-0.4
		C111.6,80.5,100.1,80.5,88.1,80.1c-0.4,0.4-1.3,1.3-1.3,1.8c0,0.9,0,1.3,0,2.2c0,0.4,0,0.4,0,0.9c-0.4-0.4-0.4-0.9-0.4-1.3
		c0-0.9,0-1.3,0-2.2C86.3,80.5,87.2,80.1,88.1,80.1z"/>
	<path fill="#FFFFFF" d="M124.4,81c0.4,0.4,0.4,0.9,0.4,1.3c0,0.9,0,1.3,0,2.2s-0.9,1.8-1.8,1.8c-12,0-23.9,0-35.9,0
		c-0.4,0-1.3-0.4-1.3-0.9c0.4,0.4,0.9,0.4,1.3,0.4c12,0,23.9,0,35.9,0c0.9,0,1.8-0.9,1.8-1.8s0-1.3,0-2.2
		C124.9,81.4,124.9,81.4,124.4,81z"/>
	<path fill="#9196A8" d="M124,80.5c0.4,0.4,0.4,0.9,0.4,1.3c0,0.9,0,1.3,0,2.2s-0.9,1.8-1.8,1.8c-12,0-23.9,0-35.9,0
		c-0.4,0-1.3-0.4-1.3-0.9c0.4,0.4,0.9,0.4,1.3,0.4c12,0,23.9,0,35.5,0c0.9,0,1.8-0.9,1.8-1.8s0-1.3,0-2.2
		C124.4,81,124.4,81,124,80.5z"/>
	<g>
		<g>
			<path fill="#9196A8" d="M98.7,80.1C99.2,80.1,99.2,80.1,98.7,80.1c0.4-0.4,0.4,0,0.4,0c0,1.8,0,3.5,0,5.3c0,0,0,0.4-0.4,0.4
				c0,0-0.4,0-0.4-0.4C98.7,83.6,98.7,81.8,98.7,80.1z"/>
			<path fill="#FFFFFF" d="M99.6,80.1L99.6,80.1c0.4-0.4,0.4,0,0.4,0c0,1.8,0,3.5,0,5.3c0,0,0,0.4-0.4,0.4c0,0-0.4,0-0.4-0.4
				C99.2,83.6,99.2,81.8,99.6,80.1z"/>
		</g>
		<g>
			<path fill="#9196A8" d="M111.1,80.1L111.1,80.1c0.4-0.4,0.4,0,0.4,0c0,1.8,0,3.5,0,5.3c0,0,0,0.4-0.4,0.4c0,0-0.4,0-0.4-0.4
				C111.1,83.6,111.1,81.8,111.1,80.1z"/>
			<path fill="#FFFFFF" d="M111.6,80.1L111.6,80.1c0.4-0.4,0.4,0,0.4,0c0,1.8,0,3.5,0,5.3c0,0,0,0.4-0.4,0.4c0,0-0.4,0-0.4-0.4
				C111.6,83.6,111.6,81.8,111.6,80.1z"/>
		</g>
	</g>
	
		<linearGradient id="SVGID_8_" gradientUnits="userSpaceOnUse" x1="103.5396" y1="169.5277" x2="103.4804" y2="168.6817" gradientTransform="matrix(4.4335 0 0 -4.4335 -353.6505 825.6605)">
		<stop  offset="0" style="stop-color:#FFFFFF"/>
		<stop  offset="1" style="stop-color:#C7C6D0"/>
	</linearGradient>
	<path fill="url(#SVGID_8_)" d="M88.5,72.1c11.1,0,22.2,0,33.7,0c1.3,0,2.2,0.9,2.2,2.2v0.4c0,1.3-0.9,2.7-2.2,2.7
		c-11.5,0-22.6,0-34.1,0c-1.3,0-2.2-0.9-1.8-2.7v-0.4C86.8,73,87.6,72.1,88.5,72.1z"/>
	<path fill="#FFFFFF" d="M88.5,72.1c11.5,0,22.6,0,34.1,0c0.4,0,1.3,0.4,1.3,0.9c-0.4,0-0.4-0.4-0.9-0.4
		C111.6,72.5,100.1,72.5,88.5,72.1c-0.4,0.4-1.3,0.9-1.3,1.8c0,0.9,0,1.3,0,2.2c0,0.4,0,0.4,0,0.9c-0.4-0.4-0.4-0.9-0.4-1.3
		c0-0.9,0-1.3,0-2.2C86.8,73,87.6,72.1,88.5,72.1z"/>
	<path fill="#9196A8" d="M88.5,72.5c11.5,0,22.6,0,34.1,0c0.4,0,1.3,0.4,1.3,0.9c-0.4,0-0.4-0.4-0.9-0.4
		C111.6,73,100.5,73,88.5,72.5c-0.4,0.4-1.3,0.9-1.3,1.8c0,0.9,0,1.3,0,2.2c0,0.4,0,0.4,0,0.9c-0.4-0.4-0.4-0.9-0.4-1.3
		c0-0.9,0-1.3,0-2.2S87.6,72.5,88.5,72.5z"/>
	<path fill="#FFFFFF" d="M124.4,73.4c0.4,0.4,0.4,0.4,0.4,0.9c0,0.9,0,1.3,0,2.2s-0.9,1.3-1.8,1.3c-11.5,0-23.1,0-35,0
		c-0.4,0-1.3-0.4-1.3-0.9c0.4,0.4,0.9,0.4,1.3,0.4c11.5,0,23.1,0,35,0c0.9,0,1.8-0.9,1.8-1.3c0-0.9,0-1.3,0-2.2
		C124.4,73.9,124.4,73.9,124.4,73.4z"/>
	<path fill="#9196A8" d="M124,73c0.4,0.4,0.4,0.4,0.4,0.9c0,0.9,0,1.3,0,2.2s-0.9,1.3-1.8,1.3c-11.5,0-23.1,0-34.6,0
		c-0.4,0-1.3-0.4-1.3-0.9c0.4,0.4,0.9,0.4,1.3,0.4c11.5,0,23.1,0,34.6,0c0.9,0,1.8-0.9,1.8-1.3c0-0.9,0-1.3,0-2.2
		C124,73.4,124,73.4,124,73z"/>
	<g>
		<g>
			<path fill="#9196A8" d="M99.2,72.5L99.2,72.5c0.4-0.4,0.4,0,0.4,0c0,1.8,0,3.5,0,4.9c0,0,0,0.4-0.4,0.4c0,0-0.4,0-0.4-0.4
				C99.2,76.1,99.2,74.3,99.2,72.5z"/>
			<path fill="#FFFFFF" d="M99.6,72.5L99.6,72.5c0.4-0.4,0.4,0,0.4,0c0,1.8,0,3.5,0,4.9c0,0,0,0.4-0.4,0.4c0,0-0.4,0-0.4-0.4
				C99.6,76.1,99.6,74.3,99.6,72.5z"/>
		</g>
		<g>
			<path fill="#9196A8" d="M111.1,72.5L111.1,72.5c0.4-0.4,0.4,0,0.4,0c0,1.8,0,3.5,0,4.9c0,0,0,0.4-0.4,0.4c0,0-0.4,0-0.4-0.4
				C111.1,76.1,111.1,74.3,111.1,72.5z"/>
			<path fill="#FFFFFF" d="M111.6,72.5L111.6,72.5c0.4-0.4,0.4,0,0.4,0c0,1.8,0,3.5,0,4.9c0,0,0,0.4-0.4,0.4c0,0-0.4,0-0.4-0.4
				C111.6,76.1,111.6,74.3,111.6,72.5z"/>
		</g>
	</g>
	
		<linearGradient id="SVGID_9_" gradientUnits="userSpaceOnUse" x1="103.6758" y1="171.147" x2="103.6188" y2="170.3325" gradientTransform="matrix(4.4335 0 0 -4.4335 -353.6505 825.6605)">
		<stop  offset="0" style="stop-color:#FFFFFF"/>
		<stop  offset="1" style="stop-color:#C7C6D0"/>
	</linearGradient>
	<path fill="url(#SVGID_9_)" d="M89.4,65c11.1,0,21.7,0,32.8,0c1.3,0,2.2,0.9,2.2,2.2v0.4c0,1.3-0.9,2.2-1.8,2.2
		c-11.1,0-22.2,0-33.3,0c-1.3,0-1.8-0.9-1.8-2.2v-0.4C87.2,65.9,88.1,65,89.4,65z"/>
	<path fill="#FFFFFF" d="M89,65c11.1,0,22.2,0,33.3,0c0.4,0,0.9,0.4,1.3,0.4c-0.4,0-0.4-0.4-0.9-0.4C111.6,65.4,100.5,65.4,89,65
		c-0.4,0.4-1.3,0.9-1.3,1.8c0,0.4,0,1.3,0,1.8s0,0.4,0,0.9c-0.4-0.4-0.4-0.9-0.4-1.3c0-0.9,0-1.3,0-1.8S88.1,65,89,65z"/>
	<path fill="#9196A8" d="M89,65.4c11.1,0,22.2,0,33.3,0c0.4,0,1.3,0.4,1.3,0.9c-0.4,0-0.4-0.4-0.9-0.4
		C111.6,65.4,100.5,65.4,89,65.4c-0.4,0.4-1.3,0.9-1.3,1.8c0,0.4,0,1.3,0,1.8s0,0.4,0,0.9c-0.4-0.4-0.4-0.9-0.4-1.3
		c0-0.9,0-1.3,0-1.8C87.2,65.9,88.1,65.4,89,65.4z"/>
	<path fill="#FFFFFF" d="M124,66.3c0.4,0.4,0.4,0.4,0.4,0.9s0,1.3,0,2.2c0,0.9-0.9,1.3-1.8,1.3c-11.5,0-22.6,0-34.1,0
		c-0.4,0-0.9-0.4-1.3-0.9c0.4,0.4,0.4,0.4,0.9,0.4c11.5,0,22.6,0,34.1,0c0.9,0,1.8-0.4,1.8-1.3c0-0.4,0-1.3,0-1.8
		C124,66.8,124,66.3,124,66.3z"/>
	<path fill="#9196A8" d="M123.5,65.9c0.4,0.4,0.4,0.4,0.4,0.9s0,1.3,0,1.8c0,0.9-0.4,1.3-1.8,1.3c-11.1,0-22.6,0-33.7,0
		c-0.4,0-0.9-0.4-1.3-0.9c0.4,0.4,0.4,0.4,0.9,0.4c11.1,0,22.6,0,33.7,0c0.9,0,1.8-0.4,1.8-1.3c0-0.9,0-1.3,0-1.8
		C123.5,66.3,123.5,66.3,123.5,65.9z"/>
	<g>
		<g>
			<path fill="#9196A8" d="M99.6,65.4L99.6,65.4c0.4-0.4,0.4,0,0.4,0c0,1.8,0,3.1,0,4.9c0,0,0,0.4-0.4,0.4c0,0-0.4,0-0.4-0.4
				C99.6,68.5,99.6,67.2,99.6,65.4z"/>
			<path fill="#FFFFFF" d="M100.1,65.4L100.1,65.4c0.4-0.4,0.4,0,0.4,0c0,1.8,0,3.1,0,4.9c0,0,0,0.4-0.4,0.4c0,0-0.4,0-0.4-0.4
				C100.1,68.5,100.1,67.2,100.1,65.4z"/>
		</g>
		<g>
			<path fill="#9196A8" d="M111.1,65.4L111.1,65.4c0.4-0.4,0.4,0,0.4,0c0,1.8,0,3.1,0,4.9c0,0,0,0.4-0.4,0.4c0,0-0.4,0-0.4-0.4
				C111.1,68.5,111.1,67.2,111.1,65.4z"/>
			<path fill="#FFFFFF" d="M111.6,65.4L111.6,65.4c0.4-0.4,0.4,0,0.4,0c0,1.8,0,3.1,0,4.9c0,0,0,0.4-0.4,0.4c0,0-0.4,0-0.4-0.4
				C111.6,68.5,111.6,67.2,111.6,65.4z"/>
		</g>
	</g>
	<g>
		<g>
			
				<linearGradient id="SVGID_10_" gradientUnits="userSpaceOnUse" x1="82.8883" y1="158.5417" x2="83.048" y2="163.1156" gradientTransform="matrix(4.4335 0 0 -4.4335 -353.6505 825.6605)">
				<stop  offset="0" style="stop-color:#253F48"/>
				<stop  offset="0.52" style="stop-color:#526875"/>
				<stop  offset="1" style="stop-color:#B8C1C6"/>
			</linearGradient>
			<path fill="url(#SVGID_10_)" d="M30.4,90.3c-4.9,7.5-9.8,15.1-10.2,15.1c0,0,0.4,0.4,0.4,0.9l-0.4,0.4c0,0,1.8,3.1,2.7,4
				c0,0,0,0.4-0.4,0.4c-0.4,0.4-0.9,0-1.3,0l-1.8-1.8l1.3,2.2l-0.9-0.9l1.3,2.2l-0.4,0.4c-0.4,0-0.9,0-1.3,0l-4.4-3.1l0.9,6.7
				c0,0.4-0.4,0.9-0.9,1.3c-0.4,0-0.9,0-1.3-0.4l-1.8-3.5l-0.4,5.3c0,0.4-0.4,0.9-1.3,0.9c-0.4,0-0.9-0.4-0.9-0.9l-0.9-4.4l0,0
				l-0.4-1.3l-4.4,4.4c-0.4,0.4-0.9,0.4-1.3,0l0,0l0,0l3.5-5.8H4.3l0.9-1.3l-4.9-0.4h-0.4c0-0.4,0.4-0.4,0.9-0.4l3.1-0.4l-1.8-1.3
				h1.3l-4.4-3.1l0,0c0.4-0.4,0.9-0.4,1.3-0.4l1.8,0.9L0.3,104c0,0,0-0.4-0.4-0.4l0,0l1.8,0.9l-1.8-1.8l0,0c0.4-0.4,0.9-0.4,1.3-0.4
				l3.5,1.3L3,101.8l1.3,0.4l-2.2-2.7c0,0,0,0,0.4-0.4s0.9-0.4,1.3,0l4,2.7l1.3-1.3h0.4l-0.9-2.2c0-0.4,0.4-0.4,0.4-0.4
				c0.4,0,0.9,0,1.3,0.4l0,0l1.3,1.8l-0.4-3.1c0-0.4,0.4-0.9,0.9-1.3c0.4,0,0.9,0,0.9,0.4l1.8,3.1l2.2-4.4c0-0.4,0.9-0.9,1.3-0.4
				C18,94.7,18,95.1,18,95.1l-2.2,6.2l0,0c0,0.4-0.4,0.4-0.4,0.4c-0.4,0.4-1.3,0-1.3-0.4v1.3l0,0c0,0.4,0,0.9-0.4,0.9
				c-0.4,0.4-0.9,0.4-1.3,0v0.4c-0.4,0.4-0.9,0.4-1.3,0.4l-0.9-0.9l0.4,0.4c0.4,0.4,0.4,0.9,0,0.9l0,0h-0.4v0.4
				c-0.4,0.4-0.9,0.4-1.3,0.4l-2.7-1.3l2.2,2.2l-1.8-0.9l2.7,3.1l-0.4,0.4c0,0,0,0,0,0.4v0.4c0,0,0,0,0.4,0l0.4,0.4l-0.4,0.4
				c0,0,0,0,0,0.4v0.4c0,0,0,0,0.4,0c0.4,0.4,0.4,0.9,0.4,1.3c0.4,0,0.9,0.4,0.9,0.9l0,0v-1.3l0,0c0-0.4,0.4-0.9,0.4-0.9
				c0.4-0.4,1.3,0,1.3,0.4l0.9,0.4l-0.4-3.1l0,0c0-0.4,0-0.4,0-0.9c0.4-0.4,0.9-0.4,1.3,0l2.7,1.8l-0.9-2.2l0.9,0.4l-1.3-2.7
				c0,0,0,0,0-0.4c0.4-0.4,0.9-0.4,1.3,0l2.2,2.2c0-0.4-0.4-0.9-0.4-1.3l0,0v-0.4c0-0.4,0-0.9,0.4-1.3c0.4,0,5.3-7.5,9.8-15.1
				C30,90.3,30,90.3,30.4,90.3L30.4,90.3z M21.6,111.5L21.6,111.5L21.6,111.5z"/>
		</g>
		<g>
			
				<linearGradient id="SVGID_11_" gradientUnits="userSpaceOnUse" x1="83.9146" y1="158.4286" x2="80.8749" y2="177.6205" gradientTransform="matrix(4.4335 0 0 -4.4335 -353.6505 825.6605)">
				<stop  offset="0" style="stop-color:#253F48"/>
				<stop  offset="0.52" style="stop-color:#526875"/>
				<stop  offset="1" style="stop-color:#B8C1C6"/>
			</linearGradient>
			<path fill="url(#SVGID_11_)" d="M30.9,90.7c-5.3,8-11.1,16.8-11.5,17.3l2.7,4.4c0.4,0,0.4,0.9,0,1.3s-0.9,0-1.3,0l-1.8-1.8
				l1.3,2.7c0.4,0.4,0,1.3-0.4,1.3c-0.4,0-0.9,0-1.3,0l-4.4-3.1l0.9,6.7c0,0.4-0.4,0.9-0.9,1.3c-0.4,0-0.9,0-1.3-0.4l-1.8-3.5
				l-0.4,5.3c0,0.4-0.4,0.9-1.3,0.9c-0.4,0-0.9-0.4-0.9-0.9l-1.3-5.8l-4.4,4.4c-0.4,0.4-0.9,0.4-1.3,0c-0.4-0.4-0.4-0.9,0-1.3l0,0
				l3.5-5.8l-4.9-0.4c-0.4,0-0.9-0.4-0.9-1.3c0-0.4,0.4-0.9,0.9-0.9l3.1-0.4l-4.4-3.1c-0.4-0.4-0.4-0.9-0.4-1.3
				c0.4-0.4,0.9-0.4,1.3-0.4l1.8,0.9l-1.8-1.8c0.9-0.4,0.9-0.9,1.3-1.3c0.4-0.4,0.9-0.4,1.3-0.4l3.5,1.3l-2.2-2.7
				c-0.4-0.4-0.4-1.3,0-1.3c0.4-0.4,0.9-0.4,1.3,0l4,2.7l-0.9-2.7c0-0.4,0-1.3,0.4-1.3c0.4,0,0.9,0,1.3,0.4l0,0l1.3,1.8l-0.4-3.1
				c0-0.4,0.4-0.9,0.9-1.3c0.4,0,0.9,0,0.9,0.4l1.8,3.1l2.2-5.3c0-0.4,0.4-0.4,1.3-0.4c0.4,0,0,2.2-0.4,2.7l-1.8,6.2l0,0
				c0,0.4-0.4,0.4-0.4,0.4c-0.4,0.4-1.3,0-1.3-0.4v1.3l0,0c0,0.4,0,0.9-0.4,0.9c-0.4,0.4-0.9,0.4-1.3,0v0.4
				c-0.4,0.4-0.9,0.4-1.3,0.4l-1.3-0.9l0.4,0.4c0.4,0.4,0.4,0.9,0,0.9c0,0.9-0.4,1.3-0.9,0.9l-2.7-0.9l2.7,2.7l0,0
				c0.4,0.4,0.4,0.9,0,1.3l-0.4,0.4c0,0,0,0,0,0.4v0.4c0,0,0,0,0.4,0c0.4,0.4,0.4,0.9,0.4,1.3c0.4,0,0.9,0.4,0.9,0.9l0,0v-1.3l0,0
				c0-0.4,0.4-0.9,0.4-0.9c0.4-0.4,1.3,0,1.3,0.4l0.4,1.3l-0.4-3.1l0,0c0-0.4,0-0.4,0-0.9c0.4-0.4,0.9-0.4,1.3,0l2.7,1.8l-1.3-4l0,0
				c0-0.4,0-0.9,0-1.3c0.4-0.4,0.9-0.4,1.3,0l2.7,2.2c-0.4-1.3-0.4-2.7,0-3.1c0.4,0,5.3-8.4,10.6-16C29.6,90.3,30.4,90.3,30.9,90.7
				L30.9,90.7z M20.7,113.3L20.7,113.3L20.7,113.3z"/>
		</g>
	</g>
	<g>
		
			<linearGradient id="SVGID_12_" gradientUnits="userSpaceOnUse" x1="98.8078" y1="178.0252" x2="98.7599" y2="177.3406" gradientTransform="matrix(4.4335 0 0 -4.4335 -353.6505 825.6605)">
			<stop  offset="0" style="stop-color:#FFFFFF"/>
			<stop  offset="1" style="stop-color:#C7C6D0"/>
		</linearGradient>
		<path fill="url(#SVGID_12_)" d="M81.9,35.7c0.9,0,1.8,0,2.7,0s1.8,0,2.7,0c0.4,0,0.9,0,0.9,0.4c0.4,0.4,0.4,0.9,0.4,1.3v0.4
			c0,0.4,0,0.9-0.4,1.3c-0.4,0.4-0.9,0.4-1.3,0.4c-0.9,0-1.8,0-2.7,0s-1.8,0-2.7,0c-0.4,0-0.9-0.4-0.9-0.4c-0.4-0.4-0.4-0.9-0.4-1.3
			v-0.4c0-0.4,0.4-0.9,0.4-1.3C81,35.7,81.4,35.7,81.9,35.7z"/>
		<path fill="#FFFFFF" d="M81.4,35.7c0.9,0,1.8,0,2.7,0s1.8,0,2.7,0c0.4,0,0.9,0,0.9,0.4c0,0-0.4-0.4-0.9-0.4c-0.9,0-1.8,0-2.7,0
			C83.6,36.2,82.8,36.2,81.4,35.7c-0.4,0.4-0.9,0.9-0.9,1.3c0,0.4,0,0.4,0,0.9s0,0.4,0,0.9c0,0.4,0,0.4,0,0.4
			c-0.4,0-0.4-0.4-0.4-0.9s0-0.4,0-0.9s0-0.4,0-0.9C80.1,36.2,80.5,35.7,81.4,35.7z"/>
		<path fill="#9196A8" d="M81.4,35.7c0.9,0,1.8,0,2.7,0s1.8,0,2.7,0c0.4,0,0.9,0.4,0.9,0.4s-0.4-0.4-0.9-0.4c-0.9,0-1.8,0-2.7,0
			C83.6,36.2,82.8,36.2,81.4,35.7c-0.4,0.4-0.9,0.9-0.9,1.3c0,0.4,0,0.4,0,0.9s0,0.4,0,0.9c0,0.4,0,0.4,0,0.4
			c-0.4,0-0.4-0.4-0.4-0.9s0-0.4,0-0.9s0-0.4,0-0.9C80.1,36.2,81,35.7,81.4,35.7z"/>
		<path fill="#FFFFFF" d="M88.1,36.6c0.4,0,0.4,0.4,0.4,0.9s0,0.4,0,0.9s0,0.4,0,0.9c0,0.4-0.4,1.3-1.3,1.3c-0.9,0-1.8,0-2.7,0
			s-1.8,0-2.7,0c-0.4,0-0.9-0.4-0.9-0.4s0.4,0.4,0.9,0.4c0.9,0,1.8,0,2.7,0s1.8,0,2.7,0s1.3-0.4,1.3-1.3c0-0.4,0-0.4,0-0.9
			s0-0.4,0-0.9C88.1,37.1,88.1,37.1,88.1,36.6z"/>
		<path fill="#9196A8" d="M87.6,36.2c0.4,0,0.4,0.4,0.4,0.9s0,0.4,0,0.9s0,0.4,0,0.9c0,0.9-0.4,1.3-1.3,1.3c-0.9,0-1.8,0-2.7,0
			s-1.8,0-2.7,0c-0.4,0-0.9-0.4-0.9-0.4s0.4,0.4,0.9,0.4c0.9,0,1.8,0,2.7,0s1.8,0,2.7,0s1.3-0.4,1.3-1.3c0-0.4,0-0.4,0-0.9
			s0-0.4,0-0.9C88.1,36.6,87.6,36.6,87.6,36.2z"/>
	</g>
	<g>
		
			<linearGradient id="SVGID_13_" gradientUnits="userSpaceOnUse" x1="100.9077" y1="178.0255" x2="100.8599" y2="177.3409" gradientTransform="matrix(4.4335 0 0 -4.4335 -353.6505 825.6605)">
			<stop  offset="0" style="stop-color:#FFFFFF"/>
			<stop  offset="1" style="stop-color:#C7C6D0"/>
		</linearGradient>
		<path fill="url(#SVGID_13_)" d="M91.2,35.7c0.9,0,1.8,0,2.7,0s1.8,0,2.7,0c0.4,0,0.9,0,0.9,0.4c0.4,0.4,0.4,0.9,0.4,1.3v0.4
			c0,0.4,0,0.9-0.4,1.3c-0.4,0.4-0.9,0.4-1.3,0.4c-0.9,0-1.8,0-2.7,0s-1.8,0-2.7,0c-0.4,0-0.9-0.4-0.9-0.4c-0.4-0.4-0.4-0.9-0.4-1.3
			v-0.4c0-0.4,0.4-0.9,0.4-1.3C90.3,35.7,90.7,35.7,91.2,35.7z"/>
		<path fill="#FFFFFF" d="M90.7,35.7c0.9,0,1.8,0,2.7,0s1.8,0,2.7,0c0.4,0,0.9,0,0.9,0.4c0,0-0.4-0.4-0.9-0.4c-0.9,0-1.8,0-2.7,0
			C93,36.2,92.1,36.2,90.7,35.7c-0.4,0.4-0.9,0.9-0.9,1.3c0,0.4,0,0.4,0,0.9s0,0.4,0,0.9c0,0.4,0,0.4,0,0.4
			c-0.4-0.4-0.4-0.4-0.4-0.9s0-0.4,0-0.9s0-0.4,0-0.9C89.4,36.2,89.9,35.7,90.7,35.7z"/>
		<path fill="#9196A8" d="M90.7,35.7c0.9,0,1.8,0,2.7,0s1.8,0,2.7,0c0.4,0,0.9,0.4,0.9,0.4s-0.4-0.4-0.9-0.4c-0.9,0-1.8,0-2.7,0
			C93,36.2,92.1,36.2,90.7,35.7c-0.4,0.4-0.9,0.9-0.9,1.3c0,0.4,0,0.4,0,0.9s0,0.4,0,0.9c0,0.4,0,0.4,0,0.4c-0.4,0-0.4-0.4-0.4-0.9
			s0-0.4,0-0.9s0-0.4,0-0.9C89.4,36.2,90.3,35.7,90.7,35.7z"/>
		<path fill="#FFFFFF" d="M97.4,36.6c0.4,0,0.4,0.4,0.4,0.9s0,0.4,0,0.9s0,0.4,0,0.9c0,0.4-0.4,1.3-1.3,1.3c-0.9,0-1.8,0-2.7,0
			s-1.8,0-2.7,0c-0.4,0-0.9-0.4-0.9-0.4s0.4,0.4,0.9,0.4c0.9,0,1.8,0,2.7,0s1.8,0,2.7,0s1.3-0.4,1.3-1.3c0-0.4,0-0.4,0-0.9
			s0-0.4,0-0.9C97.4,37.1,97.4,37.1,97.4,36.6z"/>
		<path fill="#9196A8" d="M96.9,36.2c0.4,0,0.4,0.4,0.4,0.9s0,0.4,0,0.9s0,0.4,0,0.9c0,0.9-0.4,1.3-1.3,1.3c-0.9,0-1.8,0-2.7,0
			s-1.8,0-2.7,0c-0.4,0-0.9-0.4-0.9-0.4s0.4,0.4,0.9,0.4c0.9,0,1.8,0,2.7,0s1.8,0,2.7,0s1.3-0.4,1.3-1.3c0-0.4,0-0.4,0-0.9
			s0-0.4,0-0.9S96.9,36.6,96.9,36.2z"/>
	</g>
	<g>
		
			<linearGradient id="SVGID_14_" gradientUnits="userSpaceOnUse" x1="102.9083" y1="178.0326" x2="102.8604" y2="177.348" gradientTransform="matrix(4.4335 0 0 -4.4335 -353.6505 825.6605)">
			<stop  offset="0" style="stop-color:#FFFFFF"/>
			<stop  offset="1" style="stop-color:#C7C6D0"/>
		</linearGradient>
		<path fill="url(#SVGID_14_)" d="M100.5,35.7c0.9,0,1.8,0,2.7,0s1.8,0,2.7,0c0.4,0,0.9,0,0.9,0.4c0,0.4,0,0.9,0,1.3v0.4
			c0,0.4,0,0.9-0.4,1.3c-0.4,0.4-0.9,0.4-1.3,0.4c-0.9,0-1.8,0-2.7,0s-1.8,0-2.7,0c-0.4,0-0.9-0.4-0.9-0.4c-0.4-0.4-0.4-0.9-0.4-1.3
			v-0.4c0-0.4,0.4-0.9,0.4-1.3C99.6,35.7,100.1,35.7,100.5,35.7z"/>
		<path fill="#FFFFFF" d="M100.1,35.7c0.9,0,1.8,0,2.7,0s1.8,0,2.7,0c0.4,0,0.9,0,0.9,0.4c0,0-0.4-0.4-0.9-0.4c-0.9,0-1.8,0-2.7,0
			C102.3,36.2,101.4,36.2,100.1,35.7c-0.4,0.4-0.9,0.9-0.9,1.3c0,0.4,0,0.4,0,0.9s0,0.4,0,0.9c0,0.4,0,0.4,0,0.4
			c-0.4-0.4-0.4-0.4-0.4-0.9s0-0.4,0-0.9s0-0.4,0-0.9C98.7,36.2,99.2,35.7,100.1,35.7z"/>
		<path fill="#9196A8" d="M100.1,35.7c0.9,0,1.8,0,2.7,0s1.8,0,2.7,0c0.4,0,0.9,0.4,0.9,0.4s-0.4-0.4-0.9-0.4c-0.9,0-1.8,0-2.7,0
			C102.3,36.2,101.4,36.2,100.1,35.7c-0.4,0.4-0.9,0.9-0.9,1.3c0,0.4,0,0.4,0,0.9s0,0.4,0,0.9c0,0.4,0,0.4,0,0.4
			c-0.4,0-0.4-0.4-0.4-0.9s0-0.4,0-0.9s0-0.4,0-0.9C98.7,36.2,99.6,35.7,100.1,35.7z"/>
		<path fill="#FFFFFF" d="M106.7,36.6c0.4,0,0.4,0.4,0.4,0.9s0,0.4,0,0.9s0,0.4,0,0.9c0,0.4-0.4,1.3-1.3,1.3c-0.9,0-1.8,0-2.7,0
			s-1.8,0-2.7,0c-0.4,0-0.9-0.4-0.9-0.4s0.4,0.4,0.9,0.4c0.9,0,1.8,0,2.7,0s1.8,0,2.7,0s1.3-0.4,1.3-1.3c0-0.4,0-0.4,0-0.9
			s0-0.4,0-0.9C106.7,37.1,106.7,37.1,106.7,36.6z"/>
		<path fill="#9196A8" d="M106.3,36.2c0.4,0.4,0.4,0.9,0.4,0.9c0,0.4,0,0.4,0,0.9s0,0.4,0,0.9c0,0.9-0.4,1.3-1.3,1.3
			c-0.9,0-1.8,0-2.7,0s-1.8,0-2.7,0c-0.4,0-0.9-0.4-0.9-0.4s0.4,0.4,0.9,0.4c0.9,0,1.8,0,2.7,0s1.8,0,2.7,0s1.3-0.4,1.3-1.3
			c0-0.4,0-0.4,0-0.9s0-0.4,0-0.9S106.7,36.6,106.3,36.2z"/>
	</g>
	<g>
		
			<linearGradient id="SVGID_15_" gradientUnits="userSpaceOnUse" x1="105.1015" y1="178.0177" x2="105.0664" y2="177.3493" gradientTransform="matrix(4.4335 0 0 -4.4335 -353.6505 825.6605)">
			<stop  offset="0" style="stop-color:#FFFFFF"/>
			<stop  offset="1" style="stop-color:#C7C6D0"/>
		</linearGradient>
		<path fill="url(#SVGID_15_)" d="M109.8,35.7c0.9,0,1.8,0,2.7,0s1.8,0,2.7,0c0.4,0,0.9,0,0.9,0.4c0.4,0.4,0.4,0.9,0.4,1.3v0.4
			c0,0.4,0,0.9-0.4,1.3c-0.4,0.4-0.9,0.4-1.3,0.4c-0.9,0-1.8,0-2.7,0s-1.8,0-2.7,0c-0.4,0-0.9-0.4-0.9-0.4c-0.4-0.4-0.4-0.9-0.4-1.3
			v-0.4c0-0.4,0.4-0.9,0.4-1.3C108.9,35.7,109.4,35.7,109.8,35.7z"/>
		<path fill="#FFFFFF" d="M109.4,35.7c0.9,0,1.8,0,2.7,0s1.8,0,2.7,0c0.4,0,0.9,0,0.9,0.4c0,0-0.4-0.4-0.9-0.4c-0.9,0-1.8,0-2.7,0
			C111.6,36.2,110.7,36.2,109.4,35.7c-0.4,0.4-0.9,0.9-0.9,1.3c0,0.4,0,0.4,0,0.9s0,0.4,0,0.9c0,0.4,0,0.4,0,0.4
			c-0.4-0.4-0.4-0.4-0.4-0.9s0-0.4,0-0.9s0-0.4,0-0.9S108.9,35.7,109.4,35.7z"/>
		<path fill="#9196A8" d="M109.4,35.7c0.9,0,1.8,0,2.7,0s1.8,0,2.7,0c0.4,0,0.9,0.4,0.9,0.4s-0.4-0.4-0.9-0.4c-0.9,0-1.8,0-2.7,0
			C111.6,36.2,110.7,36.2,109.4,35.7c-0.4,0.4-0.9,0.9-0.9,1.3c0,0.4,0,0.4,0,0.9s0,0.4,0,0.9c0,0.4,0,0.4,0,0.4
			c-0.4,0-0.4-0.4-0.4-0.9s0-0.4,0-0.9s0-0.4,0-0.9S108.9,35.7,109.4,35.7z"/>
		<path fill="#FFFFFF" d="M116,36.6c0.4,0,0.4,0.4,0.4,0.9s0,0.4,0,0.9s0,0.4,0,0.9c0,0.4-0.4,1.3-1.3,1.3c-0.9,0-1.8,0-2.7,0
			s-1.8,0-2.7,0c-0.4,0-0.9-0.4-0.9-0.4s0.4,0.4,0.9,0.4c0.9,0,1.8,0,2.7,0s1.8,0,2.7,0s1.3-0.4,1.3-1.3c0-0.4,0-0.4,0-0.9
			s0-0.4,0-0.9C116,37.1,116,37.1,116,36.6z"/>
		<path fill="#9196A8" d="M115.6,36.2c0.4,0,0.4,0.4,0.4,0.9s0,0.4,0,0.9s0,0.4,0,0.9c0,0.9-0.4,1.3-1.3,1.3c-0.9,0-1.8,0-2.7,0
			s-1.8,0-2.7,0c-0.4,0-0.9-0.4-0.9-0.4s0.4,0.4,0.9,0.4c0.9,0,1.8,0,2.7,0s1.8,0,2.7,0s1.3-0.4,1.3-1.3c0-0.4,0-0.4,0-0.9
			s0-0.4,0-0.9S116,36.6,115.6,36.2z"/>
	</g>
	<g>
		
			<linearGradient id="SVGID_16_" gradientUnits="userSpaceOnUse" x1="107.2349" y1="178.0161" x2="107.2349" y2="177.3492" gradientTransform="matrix(4.4335 0 0 -4.4335 -353.6505 825.6605)">
			<stop  offset="0" style="stop-color:#FFFFFF"/>
			<stop  offset="1" style="stop-color:#C7C6D0"/>
		</linearGradient>
		<path fill="url(#SVGID_16_)" d="M119.1,35.7c0.9,0,1.8,0,2.7,0s1.8,0,2.7,0c0.4,0,0.9,0,1.3,0.4c0.4,0.4,0.4,0.9,0.4,1.3v0.4
			c0,0.4,0,0.9-0.4,1.3c-0.4,0.4-0.9,0.4-1.3,0.4c-0.9,0-1.8,0-2.7,0s-1.8,0-2.7,0c-0.4,0-0.9-0.4-1.3-0.4c-0.4-0.4-0.4-0.9-0.4-1.3
			v-0.4c0-0.4,0-0.9,0.4-1.3C118.2,35.7,118.7,35.7,119.1,35.7z"/>
		<path fill="#FFFFFF" d="M118.7,35.7c0.9,0,1.8,0,2.7,0s1.8,0,2.7,0c0.4,0,0.9,0,0.9,0.4c0,0-0.4-0.4-0.9-0.4c-0.9,0-1.8,0-2.7,0
			C120.9,36.2,120,36.2,118.7,35.7c-0.4,0.4-0.9,0.9-0.9,1.3c0,0.4,0,0.4,0,0.9s0,0.4,0,0.9c0,0.4,0,0.4,0,0.4
			c-0.4-0.4-0.4-0.4-0.4-0.9s0-0.4,0-0.9s0-0.4,0-0.9S118.2,35.7,118.7,35.7z"/>
		<path fill="#9196A8" d="M118.7,35.7c0.9,0,1.8,0,2.7,0s1.8,0,2.7,0c0.4,0,0.9,0.4,0.9,0.4s-0.4-0.4-0.9-0.4c-0.9,0-1.8,0-2.7,0
			C120.9,36.2,120,36.2,118.7,35.7c-0.4,0.4-0.9,0.9-0.9,1.3c0,0.4,0,0.4,0,0.9s0,0.4,0,0.9c0,0.4,0,0.4,0,0.4
			c-0.4,0-0.4-0.4-0.4-0.9s0-0.4,0-0.9s0-0.4,0-0.9C117.8,36.2,118.2,35.7,118.7,35.7z"/>
		<path fill="#FFFFFF" d="M125.3,36.6c0.4,0,0.4,0.4,0.4,0.9s0,0.4,0,0.9s0,0.4,0,0.9c0,0.4-0.4,1.3-1.3,1.3c-0.9,0-1.8,0-2.7,0
			s-1.8,0-2.7,0c-0.4,0-0.9-0.4-0.9-0.4c0.4,0,0.4,0.4,0.9,0.4c0.9,0,1.8,0,2.7,0s1.8,0,2.7,0s1.3-0.4,1.3-1.3c0-0.4,0-0.4,0-0.9
			s0-0.4,0-0.9C125.8,37.1,125.3,37.1,125.3,36.6z"/>
		<path fill="#9196A8" d="M124.9,36.2c0.4,0,0.4,0.4,0.4,0.9s0,0.4,0,0.9s0,0.4,0,0.9c0,0.9-0.4,1.3-1.3,1.3c-0.9,0-1.8,0-2.7,0
			s-1.8,0-2.7,0c-0.4,0-0.9-0.4-0.9-0.4c0.4,0,0.4,0.4,0.9,0.4c0.9,0,1.8,0,2.7,0s1.8,0,2.7,0s1.3-0.4,1.3-1.3c0-0.4,0-0.4,0-0.9
			s0-0.4,0-0.9S125.3,36.6,124.9,36.2z"/>
	</g>
	<g>
		
			<linearGradient id="SVGID_17_" gradientUnits="userSpaceOnUse" x1="109.2954" y1="178.0228" x2="109.2717" y2="177.3441" gradientTransform="matrix(4.4335 0 0 -4.4335 -353.6505 825.6605)">
			<stop  offset="0" style="stop-color:#FFFFFF"/>
			<stop  offset="1" style="stop-color:#C7C6D0"/>
		</linearGradient>
		<path fill="url(#SVGID_17_)" d="M128.4,35.7c0.9,0,1.8,0,2.7,0s1.8,0,2.7,0c0.4,0,0.9,0,0.9,0.4c0.4,0.4,0.4,0.9,0.4,1.3v0.4
			c0,0.4,0,0.9-0.4,1.3c-0.4,0.4-0.9,0.4-1.3,0.4c-0.9,0-1.8,0-2.7,0s-1.8,0-2.7,0c-0.4,0-0.9-0.4-0.9-0.4c-0.4-0.4-0.4-0.9-0.4-1.3
			v-0.4c0-0.4,0-0.9,0.4-1.3C127.5,35.7,128,35.7,128.4,35.7z"/>
		<path fill="#FFFFFF" d="M128,35.7c0.9,0,1.8,0,2.7,0s1.8,0,2.7,0c0.4,0,0.9,0,0.9,0.4c0,0-0.4-0.4-0.9-0.4c-0.9,0-1.8,0-2.7,0
			C130.2,36.2,129.3,36.2,128,35.7c-0.4,0.4-0.9,0.9-0.9,1.3c0,0.4,0,0.4,0,0.9s0,0.4,0,0.9c0,0.4,0,0.4,0,0.4
			c-0.4-0.4-0.4-0.4-0.4-0.9s0-0.4,0-0.9s0-0.4,0-0.9C126.7,36.2,127.5,35.7,128,35.7z"/>
		<path fill="#9196A8" d="M128,35.7c0.9,0,1.8,0,2.7,0s1.8,0,2.7,0c0.4,0,0.9,0.4,0.9,0.4s-0.4-0.4-0.9-0.4c-0.9,0-1.8,0-2.7,0
			C130.2,36.2,129.3,36.2,128,35.7c-0.4,0.4-0.9,0.9-0.9,1.3c0,0.4,0,0.4,0,0.9s0,0.4,0,0.9c0,0.4,0,0.4,0,0.4
			c-0.4,0-0.4-0.4-0.4-0.9s0-0.4,0-0.9s0-0.4,0-0.9C127.1,36.2,127.5,35.7,128,35.7z"/>
		<path fill="#FFFFFF" d="M134.6,36.6c0.4,0,0.4,0.4,0.4,0.9s0,0.4,0,0.9s0,0.4,0,0.9c0,0.4-0.4,1.3-1.3,1.3s-1.8,0-2.7,0
			s-1.8,0-2.7,0c-0.4,0-0.9-0.4-0.9-0.4s0.4,0.4,0.9,0.4c0.9,0,1.8,0,2.7,0s1.8,0,2.7,0s1.3-0.4,1.3-1.3c0-0.4,0-0.4,0-0.9
			s0-0.4,0-0.9S134.6,37.1,134.6,36.6z"/>
		<path fill="#9196A8" d="M134.2,36.2c0.4,0,0.4,0.4,0.4,0.9s0,0.4,0,0.9s0,0.4,0,0.9c0,0.9-0.4,1.3-1.3,1.3s-1.8,0-2.7,0
			s-1.8,0-2.7,0c-0.4,0-0.9-0.4-0.9-0.4c0.4,0,0.4,0.4,0.9,0.4c0.9,0,1.8,0,2.7,0s1.8,0,2.7,0s1.3-0.4,1.3-1.3c0-0.4,0-0.4,0-0.9
			s0-0.4,0-0.9S134.6,36.6,134.2,36.2z"/>
	</g>
	<path fill="#FFFFFF" d="M160.8,16.7c3.5,0,6.7,0,10.2,0s6.7,0,10.2,0c3.1,9.3,6.2,19.5,9.8,30.6c4,12,8,25.3,12.9,39.5
		c-4.4,0-8.4,0-12.9,0s-8.4,0-12.9,0c-3.5-14.2-6.7-27.5-9.3-39.5C165.7,36.6,163,26.4,160.8,16.7z"/>
	<path fill="#FFFFFF" d="M139.1,16.7c3.5,0,6.7,0,10.2,0s6.7,0,10.2,0c2.2,9.3,4.4,19.5,7.1,30.6c2.7,12,5.8,25.3,9.3,39.5
		c-4.4,0-8.4,0-12.9,0s-8.4,0-12.9,0c-2.2-14.2-4-27.5-5.8-39.5C142.2,36.6,140.8,26.4,139.1,16.7z"/>
	<path fill="#DBDDE4" d="M148.4,79.2c2.7,0,5.3,0,8,0s5.3,0,8,0c-0.4-1.8-0.9-3.5-1.3-5.3c-2.7,0-5.3,0-8,0s-5.3,0-8,0
		c0-0.4,0-0.4,0-0.9c2.7,0,5.3,0,7.5,0c2.7,0,5.3,0,8,0c-0.4-1.8-0.9-3.5-0.9-5.3c-2.7,0-4.9,0-7.5,0c-2.7,0-4.9,0-7.5,0
		c0-0.4,0-0.4,0-0.9c2.7,0,4.9,0,7.5,0c2.7,0,4.9,0,7.5,0c-0.4-1.8-0.9-3.5-0.9-4.9c-2.7,0-4.9,0-7.5,0c-2.7,0-4.9,0-7.5,0
		c0-0.4,0-0.4,0-0.9c2.7,0,4.9,0,7.5,0c2.7,0,4.9,0,7.5,0c-0.4-1.8-0.4-3.1-0.9-4.9c-2.7,0-4.9,0-7.5,0c-2.7,0-4.9,0-7.5,0
		c0-0.4,0-0.4,0-0.9c2.2,0,4.9,0,7.1,0s4.9,0,7.1,0c-0.4-1.8-0.4-3.1-0.9-4.9c-2.2,0-4.9,0-7.1,0s-4.9,0-7.1,0c0-0.4,0-0.4,0-0.9
		c2.2,0,4.9,0,7.1,0s4.9,0,7.1,0c-0.4-1.3-0.4-3.1-0.9-4.4c-2.2,0-4.9,0-7.1,0s-4.9,0-7.1,0c0-0.4,0-0.4,0-0.9c2.2,0,4.9,0,7.1,0
		s4.9,0,7.1,0c-0.4-1.3-0.4-3.1-0.9-4.4c-2.2,0-4.4,0-7.1,0c-2.2,0-4.4,0-7.1,0c0-0.4,0-0.4,0-0.9c2.2,0,4.4,0,7.1,0
		c2.2,0,4.4,0,7.1,0c-0.4-1.3-0.4-2.7-0.9-4c-2.2,0-4.4,0-6.7,0s-4.4,0-6.7,0c0-0.4,0-0.4,0-0.9c2.2,0,4.4,0,6.7,0s4.4,0,6.7,0
		c-0.4-1.3-0.4-2.7-0.9-4c-2.2,0-4.4,0-6.7,0s-4.4,0-6.7,0c0-0.4,0-0.4,0-0.9c2.2,0,4.4,0,6.7,0s4.4,0,6.7,0c-0.4-1.3-0.4-2.7-0.9-4
		c-2.2,0-4.4,0-6.7,0s-4.4,0-6.7,0v-0.4c2.2,0,4.4,0,6.7,0s4.4,0,6.7,0c-0.4-1.3-0.4-2.7-0.9-3.5c-2.2,0-4.4,0-6.7,0s-4.4,0-6.2,0
		v-0.4c2.2,0,4.4,0,6.2,0c2.2,0,4.4,0,6.2,0c-0.4-1.3-0.4-2.7-0.9-3.5h0.4c0.4,1.3,0.4,2.7,0.9,3.5c2.2,0,4.9,0,7.1,0v0.4
		c-2.2,0-4.9,0-7.1,0c0.4,1.3,0.4,2.7,0.9,3.5c2.2,0,4.9,0,7.1,0v0.4c-2.2,0-4.9,0-7.1,0c0.4,1.3,0.4,2.7,0.9,4c2.2,0,4.9,0,7.1,0
		c0,0.4,0,0.4,0,0.9c-2.7,0-4.9,0-7.5,0c0.4,1.3,0.4,2.7,0.9,4c2.7,0,4.9,0,7.5,0c0,0.4,0,0.4,0,0.9c-2.7,0-4.9,0-7.5,0
		c0.4,1.3,0.4,2.7,0.9,4c2.7,0,4.9,0,7.5,0c0,0.4,0,0.4,0,0.9c-2.7,0-4.9,0-7.5,0c0.4,1.3,0.4,3.1,0.9,4.4c2.7,0,5.3,0,7.5,0
		c0,0.4,0,0.4,0,0.9c-2.7,0-5.3,0-7.5,0c0.4,1.3,0.4,3.1,0.9,4.4c2.7,0,5.3,0,8,0c0,0.4,0,0.4,0,0.9c-2.7,0-5.3,0-8,0
		c0.4,1.3,0.4,3.1,0.9,4.9c2.7,0,5.3,0,8,0c0,0.4,0,0.4,0,0.9c-2.7,0-5.3,0-8,0c0.4,1.8,0.4,3.1,0.9,4.9c2.7,0,5.3,0,8,0
		c0,0.4,0,0.4,0,0.9c-2.7,0-5.3,0-8.4,0c0.4,1.8,0.9,3.5,0.9,4.9c2.7,0,5.8,0,8.4,0c0,0.4,0,0.4,0,0.9c-2.7,0-5.8,0-8.4,0
		c0.4,1.8,0.9,3.5,0.9,5.3c2.7,0,5.8,0,8.4,0c0,0.4,0,0.4,0,0.9c-2.7,0-5.8,0-8.4,0c0.4,1.8,0.9,3.5,1.3,5.3c3.1,0,5.8,0,8.9,0
		c0,0.4,0,0.4,0.4,0.9c-3.1,0-5.8,0-8.9,0c0.4,2.2,0.9,4.4,1.3,7.1c-0.4,0-0.4,0-0.9,0c-0.4-2.2-0.9-4.4-1.3-7.1c-2.7,0-5.3,0-8,0
		s-5.3,0-8,0C148.8,79.6,148.4,79.6,148.4,79.2z"/>
	<g>
		<path fill="#7D90A1" d="M140.8,18c0.9,0,1.8,0,2.7,0c0.4,0,0.4,0.4,0.4,0.4c0,0.4,0,1.3,0.4,1.8c0,0.4,0,0.4-0.4,0.4
			c-0.9,0-1.8,0-2.7,0c-0.4,0-0.4-0.4-0.4-0.4c0-0.4,0-1.3-0.4-1.8C140.4,18.4,140.4,18,140.8,18z"/>
		<g>
			<path fill="#7D90A1" d="M141.3,22.4c0.9,0,1.8,0,3.1,0c0.4,0,0.4,0.4,0.4,0.4c0,0.4,0,1.3,0.4,1.8c0,0.4,0,0.4-0.4,0.4
				c-0.9,0-1.8,0-3.1,0c-0.4,0-0.4-0.4-0.4-0.4c0-0.4,0-1.3-0.4-1.8C140.8,22.4,141.3,22.4,141.3,22.4z"/>
			<path fill="#7D90A1" d="M142.2,26.9c0.9,0,1.8,0,3.1,0c0.4,0,0.4,0.4,0.4,0.4c0,0.4,0,1.3,0.4,1.8c0,0.4,0,0.4-0.4,0.4
				c-0.9,0-1.8,0-3.1,0c-0.4,0-0.4-0.4-0.4-0.4c0-0.4,0-1.3-0.4-1.8C141.7,26.9,141.7,26.9,142.2,26.9z"/>
			<path fill="#7D90A1" d="M142.6,31.3c0.9,0,2.2,0,3.1,0c0.4,0,0.4,0.4,0.9,0.4c0,0.4,0,1.3,0.4,1.8c0,0.4,0,0.9-0.4,0.9
				c-0.9,0-2.2,0-3.1,0c-0.4,0-0.4-0.4-0.9-0.9c0-0.4,0-1.3-0.4-1.8C142.2,31.7,142.6,31.3,142.6,31.3z"/>
			<path fill="#7D90A1" d="M143.5,36.2c0.9,0,2.2,0,3.1,0c0.4,0,0.4,0.4,0.9,0.9c0,0.9,0.4,1.3,0.4,2.2c0,0.4,0,0.9-0.4,0.9
				c-0.9,0-2.2,0-3.1,0c-0.4,0-0.4-0.4-0.9-0.9c0-0.9,0-1.3-0.4-2.2C143.1,36.6,143.1,36.2,143.5,36.2z"/>
			<path fill="#7D90A1" d="M144.4,41.1c0.9,0,2.2,0,3.1,0c0.4,0,0.4,0.4,0.9,0.9c0,0.9,0.4,1.3,0.4,2.2c0,0.4,0,0.9-0.4,0.9
				c-0.9,0-2.2,0-3.1,0c-0.4,0-0.4-0.4-0.9-0.9c0-0.9,0-1.3-0.4-2.2C143.9,41.5,143.9,41.1,144.4,41.1z"/>
			<path fill="#7D90A1" d="M145.3,46.4c0.9,0,2.2,0,3.1,0c0.4,0,0.4,0.4,0.9,0.9c0,0.9,0.4,1.3,0.4,2.2c0,0.4,0,0.9-0.4,0.9
				c-0.9,0-2.2,0-3.1,0c-0.4,0-0.4-0.4-0.9-0.9c0-0.9-0.4-1.3-0.4-2.2C144.4,46.4,144.8,46.4,145.3,46.4z"/>
			<path fill="#7D90A1" d="M145.7,51.7c0.9,0,2.2,0,3.1,0c0.4,0,0.4,0.4,0.9,0.9c0,0.9,0.4,1.3,0.4,2.2c0,0.4,0,0.9-0.4,0.9
				c-0.9,0-2.2,0-3.1,0c-0.4,0-0.9-0.4-0.9-0.9c0-0.9-0.4-1.3-0.4-2.2S145.7,51.7,145.7,51.7z"/>
			<path fill="#7D90A1" d="M146.6,57c0.9,0,2.2,0,3.1,0c0.4,0,0.9,0.4,0.9,0.9c0,0.9,0.4,1.8,0.4,2.2s0,0.9-0.4,0.9
				c-1.3,0-2.2,0-3.5,0c-0.4,0-0.9-0.4-0.9-0.9c0-0.9-0.4-1.8-0.4-2.2C146.2,57.5,146.6,57,146.6,57z"/>
			<path fill="#7D90A1" d="M147.5,62.8c1.3,0,2.2,0,3.5,0c0.4,0,0.9,0.4,0.9,0.9c0,0.9,0.4,1.8,0.4,2.7c0,0.4,0,0.9-0.4,0.9
				c-1.3,0-2.2,0-3.5,0c-0.4,0-0.9-0.4-0.9-0.9c0-0.9-0.4-1.8-0.4-2.7C147,63.2,147.5,62.8,147.5,62.8z"/>
			<path fill="#7D90A1" d="M148.8,69c1.3,0,2.2,0,3.5,0c0.4,0,0.9,0.4,0.9,0.9c0,0.9,0.4,1.8,0.4,2.7c0,0.4,0,0.9-0.4,0.9
				c-1.3,0-2.2,0-3.5,0c-0.4,0-0.9-0.4-0.9-0.9c0-0.9-0.4-1.8-0.4-2.7C147.9,69.4,148.4,69,148.8,69z"/>
			<path fill="#7D90A1" d="M149.7,75.2c1.3,0,2.2,0,3.5,0c0.4,0,0.9,0.4,0.9,0.9c0,0.9,0.4,1.8,0.4,2.7c0,0.4,0,0.9-0.4,0.9
				c-1.3,0-2.2,0-3.5,0c-0.4,0-0.9-0.4-0.9-0.9c0-0.9-0.4-1.8-0.4-2.7C148.8,75.6,149.3,75.2,149.7,75.2z"/>
		</g>
		<path fill="#7D90A1" d="M150.6,81.8c1.3,0,2.2,0,3.5,0c0.4,0,0.9,0.4,0.9,0.9c0,0.9,0.4,1.8,0.4,2.7c0,0.4,0,0.9-0.4,0.9
			c-1.3,0-2.2,0-3.5,0c-0.4,0-0.9-0.4-0.9-0.9c0-0.9-0.4-1.8-0.4-2.7C150.2,82.3,150.2,81.8,150.6,81.8z"/>
	</g>
	<g>
		<path fill="#BBBDCD" d="M140.8,17.1c0.9,0,1.8,0,2.7,0c0.4,0,0.4,0.4,0.4,0.4c0,0.4,0,1.3,0.4,1.8c0,0.4,0,0.4-0.4,0.4
			c-0.9,0-1.8,0-2.7,0c-0.4,0-0.4-0.4-0.4-0.4c0-0.4,0-1.3-0.4-1.8C140.4,17.6,140.4,17.1,140.8,17.1z"/>
		<g>
			<path fill="#BBBDCD" d="M141.3,21.5c0.9,0,1.8,0,3.1,0c0.4,0,0.4,0.4,0.4,0.4c0,0.4,0,1.3,0.4,1.8c0,0.4,0,0.4-0.4,0.4
				c-0.9,0-1.8,0-3.1,0c-0.4,0-0.4-0.4-0.4-0.4c0-0.4,0-1.3-0.4-1.8C140.8,22,141.3,21.5,141.3,21.5z"/>
			<path fill="#BBBDCD" d="M142.2,26c0.9,0,1.8,0,3.1,0c0.4,0,0.4,0.4,0.4,0.4c0,0.4,0,1.3,0.4,1.8c0,0.4,0,0.4-0.4,0.4
				c-0.9,0-1.8,0-3.1,0c-0.4,0-0.4-0.4-0.4-0.4c0-0.4,0-1.3-0.4-1.8C141.7,26.4,141.7,26,142.2,26z"/>
			<path fill="#BBBDCD" d="M142.6,30.4c0.9,0,2.2,0,3.1,0c0.4,0,0.4,0.4,0.9,0.4c0,0.4,0,1.3,0.4,1.8c0,0.4,0,0.9-0.4,0.9
				c-0.9,0-2.2,0-3.1,0c-0.4,0-0.4-0.4-0.9-0.9c0-0.4,0-1.3-0.4-1.8C142.2,30.9,142.6,30.4,142.6,30.4z"/>
			<path fill="#BBBDCD" d="M143.5,35.3c0.9,0,2.2,0,3.1,0c0.4,0,0.4,0.4,0.9,0.9c0,0.9,0.4,1.3,0.4,2.2c0,0.4,0,0.9-0.4,0.9
				c-0.9,0-2.2,0-3.1,0c-0.4,0-0.4-0.4-0.9-0.9c0-0.9,0-1.3-0.4-2.2C143.1,35.7,143.1,35.3,143.5,35.3z"/>
			<path fill="#BBBDCD" d="M144.4,40.2c0.9,0,2.2,0,3.1,0c0.4,0,0.4,0.4,0.9,0.9c0,0.9,0.4,1.3,0.4,2.2c0,0.4,0,0.9-0.4,0.9
				c-0.9,0-2.2,0-3.1,0c-0.4,0-0.4-0.4-0.9-0.9c0-0.9,0-1.3-0.4-2.2C143.9,40.6,143.9,40.2,144.4,40.2z"/>
			<path fill="#BBBDCD" d="M145.3,45.5c0.9,0,2.2,0,3.1,0c0.4,0,0.4,0.4,0.9,0.9c0,0.9,0.4,1.3,0.4,2.2c0,0.4,0,0.9-0.4,0.9
				c-0.9,0-2.2,0-3.1,0c-0.4,0-0.4-0.4-0.9-0.9c0-0.9-0.4-1.3-0.4-2.2C144.4,45.9,144.8,45.5,145.3,45.5z"/>
			<path fill="#BBBDCD" d="M145.7,50.8c0.9,0,2.2,0,3.1,0c0.4,0,0.4,0.4,0.9,0.9c0,0.9,0.4,1.3,0.4,2.2c0,0.4,0,0.9-0.4,0.9
				c-0.9,0-2.2,0-3.1,0c-0.4,0-0.9-0.4-0.9-0.9c0-0.9-0.4-1.3-0.4-2.2C145.3,51.2,145.7,50.8,145.7,50.8z"/>
			<path fill="#BBBDCD" d="M146.6,56.1c0.9,0,2.2,0,3.1,0c0.4,0,0.9,0.4,0.9,0.9c0,0.9,0.4,1.8,0.4,2.2s0,0.9-0.4,0.9
				c-1.3,0-2.2,0-3.5,0c-0.4,0-0.9-0.4-0.9-0.9c0-0.9-0.4-1.8-0.4-2.2C146.2,56.6,146.6,56.1,146.6,56.1z"/>
			<path fill="#BBBDCD" d="M147.5,62.3c1.3,0,2.2,0,3.5,0c0.4,0,0.9,0.4,0.9,0.9c0,0.9,0.4,1.8,0.4,2.7c0,0.4,0,0.9-0.4,0.9
				c-1.3,0-2.2,0-3.5,0c-0.4,0-0.9-0.4-0.9-0.9c0-0.9-0.4-1.8-0.4-2.7C147,62.3,147.5,62.3,147.5,62.3z"/>
			<path fill="#BBBDCD" d="M148.8,68.1c1.3,0,2.2,0,3.5,0c0.4,0,0.9,0.4,0.9,0.9c0,0.9,0.4,1.8,0.4,2.7c0,0.4,0,0.9-0.4,0.9
				c-1.3,0-2.2,0-3.5,0c-0.4,0-0.9-0.4-0.9-0.9c0-0.9-0.4-1.8-0.4-2.7C147.9,68.5,148.4,68.1,148.8,68.1z"/>
			<path fill="#BBBDCD" d="M149.7,74.3c1.3,0,2.2,0,3.5,0c0.4,0,0.9,0.4,0.9,0.9c0,0.9,0.4,1.8,0.4,2.7c0,0.4,0,0.9-0.4,0.9
				c-1.3,0-2.2,0-3.5,0c-0.4,0-0.9-0.4-0.9-0.9c0-0.9-0.4-1.8-0.4-2.7C148.8,74.7,149.3,74.3,149.7,74.3z"/>
		</g>
		<path fill="#BBBDCD" d="M150.6,81c1.3,0,2.2,0,3.5,0c0.4,0,0.9,0.4,0.9,0.9c0,0.9,0.4,1.8,0.4,2.7c0,0.4,0,0.9-0.4,0.9
			c-1.3,0-2.2,0-3.5,0c-0.4,0-0.9-0.4-0.9-0.9c0-0.9-0.4-1.8-0.4-2.7C150.2,81.4,150.2,81,150.6,81z"/>
	</g>
	<g>
		<path fill="#7D90A1" d="M162.6,18c0.9,0,1.8,0,2.7,0c0.4,0,0.4,0.4,0.9,0.4c0,0.4,0.4,1.3,0.4,1.8s0,0.4-0.4,0.4
			c-0.9,0-1.8,0-2.7,0c-0.4,0-0.4-0.4-0.9-0.4c0-0.4-0.4-1.3-0.4-1.8C162.1,18.4,162.1,18,162.6,18z"/>
		<g>
			<path fill="#7D90A1" d="M163.5,22.4c0.9,0,1.8,0,3.1,0c0.4,0,0.4,0.4,0.9,0.4c0,0.4,0.4,1.3,0.4,1.8s0,0.4-0.4,0.4
				c-0.9,0-1.8,0-3.1,0c-0.4,0-0.4-0.4-0.9-0.4c0-0.4-0.4-1.3-0.4-1.8S163.5,22.4,163.5,22.4z"/>
			<path fill="#7D90A1" d="M164.8,26.9c0.9,0,1.8,0,3.1,0c0.4,0,0.4,0.4,0.9,0.4c0,0.4,0.4,1.3,0.4,1.8s0,0.4-0.4,0.4
				c-0.9,0-1.8,0-3.1,0c-0.4,0-0.4-0.4-0.9-0.4c0-0.4-0.4-1.3-0.4-1.8S164.3,26.9,164.8,26.9z"/>
			<path fill="#7D90A1" d="M165.7,31.3c0.9,0,1.8,0,3.1,0c0.4,0,0.4,0.4,0.9,0.4c0,0.4,0.4,1.3,0.4,1.8s0,0.9-0.4,0.9
				c-0.9,0-2.2,0-3.1,0c-0.4,0-0.4-0.4-0.9-0.9c0-0.4-0.4-1.3-0.4-1.8C165.2,31.7,165.7,31.3,165.7,31.3z"/>
			<path fill="#7D90A1" d="M167,36.2c0.9,0,2.2,0,3.1,0c0.4,0,0.4,0.4,0.9,0.9c0,0.9,0.4,1.3,0.4,2.2c0,0.4,0,0.9-0.4,0.9
				c-0.9,0-2.2,0-3.1,0c-0.4,0-0.4-0.4-0.9-0.9c0-0.9-0.4-1.3-0.4-2.2C166.6,36.6,166.6,36.2,167,36.2z"/>
			<path fill="#7D90A1" d="M168.3,41.1c0.9,0,2.2,0,3.1,0c0.4,0,0.4,0.4,0.9,0.9c0,0.9,0.4,1.3,0.4,2.2c0,0.4,0,0.9-0.4,0.9
				c-0.9,0-2.2,0-3.1,0c-0.4,0-0.9-0.4-0.9-0.9c0-0.9-0.4-1.3-0.4-2.2C167.9,41.5,167.9,41.1,168.3,41.1z"/>
			<path fill="#7D90A1" d="M169.7,46.4c0.9,0,2.2,0,3.1,0c0.4,0,0.9,0.4,0.9,0.9c0,0.9,0.4,1.3,0.4,2.2c0,0.4,0,0.9-0.4,0.9
				c-0.9,0-2.2,0-3.1,0c-0.4,0-0.9-0.4-0.9-0.9c0-0.9-0.4-1.3-0.4-2.2C168.8,46.4,169.2,46.4,169.7,46.4z"/>
			<path fill="#7D90A1" d="M170.5,51.7c0.9,0,2.2,0,3.1,0c0.4,0,0.9,0.4,0.9,0.9c0,0.9,0.4,1.3,0.4,2.2c0,0.4,0,0.9-0.4,0.9
				c-0.9,0-2.2,0-3.1,0c-0.4,0-0.9-0.4-0.9-0.9c0-0.9-0.4-1.3-0.4-2.2C170.1,51.7,170.5,51.7,170.5,51.7z"/>
			<path fill="#7D90A1" d="M172.3,57c0.9,0,2.2,0,3.1,0c0.4,0,0.9,0.4,0.9,0.9c0,0.9,0.4,1.8,0.4,2.2s0,0.9-0.4,0.9
				c-1.3,0-2.2,0-3.5,0c-0.4,0-0.9-0.4-0.9-0.9c0-0.9-0.4-1.8-0.4-2.2C171.4,57.5,171.9,57,172.3,57z"/>
			<path fill="#7D90A1" d="M173.6,62.8c1.3,0,2.2,0,3.5,0c0.4,0,0.9,0.4,0.9,0.9c0,0.9,0.4,1.8,0.4,2.7c0,0.4,0,0.9-0.4,0.9
				c-1.3,0-2.2,0-3.5,0c-0.4,0-0.9-0.4-0.9-0.9c0-0.9-0.4-1.8-0.4-2.7C173.2,63.2,173.2,62.8,173.6,62.8z"/>
			<path fill="#7D90A1" d="M175,69c1.3,0,2.2,0,3.5,0c0.4,0,0.9,0.4,0.9,0.9c0,0.9,0.4,1.8,0.4,2.7c0,0.4,0,0.9-0.4,0.9
				c-1.3,0-2.2,0-3.5,0c-0.4,0-0.9-0.4-0.9-0.9c0-0.9-0.4-1.8-0.4-2.7C174.5,69.4,174.5,69,175,69z"/>
			<path fill="#7D90A1" d="M176.8,75.2c1.3,0,2.2,0,3.5,0c0.4,0,0.9,0.4,0.9,0.9c0.4,0.9,0.4,1.8,0.9,2.7c0,0.4,0,0.9-0.4,0.9
				c-1.3,0-2.2,0-3.5,0c-0.4,0-0.9-0.4-0.9-0.9c0-0.9-0.4-1.8-0.4-2.7C175.9,75.6,176.3,75.2,176.8,75.2z"/>
		</g>
		<path fill="#7D90A1" d="M178.1,81.8c1.3,0,2.2,0,3.5,0c0.4,0,0.9,0.4,0.9,0.9c0.4,0.9,0.4,1.8,0.9,2.7c0,0.4,0,0.9-0.4,0.9
			c-1.3,0-2.2,0-3.5,0c-0.4,0-0.9-0.4-0.9-0.9c-0.4-0.9-0.4-1.8-0.9-2.7C177.6,82.3,177.6,81.8,178.1,81.8z"/>
	</g>
	<g>
		<path fill="#BBBDCD" d="M162.6,17.1c0.9,0,1.8,0,2.7,0c0.4,0,0.4,0.4,0.9,0.4c0,0.4,0.4,1.3,0.4,1.8s0,0.4-0.4,0.4
			c-0.9,0-1.8,0-2.7,0c-0.4,0-0.4-0.4-0.9-0.4c0-0.4-0.4-1.3-0.4-1.8C162.1,17.6,162.1,17.1,162.6,17.1z"/>
		<g>
			<path fill="#BBBDCD" d="M163.5,21.5c0.9,0,1.8,0,3.1,0c0.4,0,0.4,0.4,0.9,0.4c0,0.4,0.4,1.3,0.4,1.8s0,0.4-0.4,0.4
				c-0.9,0-1.8,0-3.1,0c-0.4,0-0.4-0.4-0.9-0.4c0-0.4-0.4-1.3-0.4-1.8L163.5,21.5z"/>
			<path fill="#BBBDCD" d="M164.8,26c0.9,0,1.8,0,3.1,0c0.4,0,0.4,0.4,0.9,0.4c0,0.4,0.4,1.3,0.4,1.8s0,0.4-0.4,0.4
				c-0.9,0-1.8,0-3.1,0c-0.4,0-0.4-0.4-0.9-0.4c0-0.4-0.4-1.3-0.4-1.8C164.3,26.4,164.3,26,164.8,26z"/>
			<path fill="#BBBDCD" d="M165.7,30.4c0.9,0,1.8,0,3.1,0c0.4,0,0.4,0.4,0.9,0.4c0,0.4,0.4,1.3,0.4,1.8s0,0.9-0.4,0.9
				c-0.9,0-2.2,0-3.1,0c-0.4,0-0.4-0.4-0.9-0.9c0-0.4-0.4-1.3-0.4-1.8L165.7,30.4z"/>
			<path fill="#BBBDCD" d="M167,35.3c0.9,0,2.2,0,3.1,0c0.4,0,0.4,0.4,0.9,0.9c0,0.9,0.4,1.3,0.4,2.2c0,0.4,0,0.9-0.4,0.9
				c-0.9,0-2.2,0-3.1,0c-0.4,0-0.4-0.4-0.9-0.9c0-0.9-0.4-1.3-0.4-2.2C166.6,35.7,166.6,35.3,167,35.3z"/>
			<path fill="#BBBDCD" d="M168.3,40.2c0.9,0,2.2,0,3.1,0c0.4,0,0.4,0.4,0.9,0.9c0,0.9,0.4,1.3,0.4,2.2c0,0.4,0,0.9-0.4,0.9
				c-0.9,0-2.2,0-3.1,0c-0.4,0-0.9-0.4-0.9-0.9c0-0.9-0.4-1.3-0.4-2.2C167.9,40.6,167.9,40.2,168.3,40.2z"/>
			<path fill="#BBBDCD" d="M169.7,45.5c0.9,0,2.2,0,3.1,0c0.4,0,0.9,0.4,0.9,0.9c0,0.9,0.4,1.3,0.4,2.2c0,0.4,0,0.9-0.4,0.9
				c-0.9,0-2.2,0-3.1,0c-0.4,0-0.9-0.4-0.9-0.9c0-0.9-0.4-1.3-0.4-2.2C168.8,45.9,169.2,45.5,169.7,45.5z"/>
			<path fill="#BBBDCD" d="M170.5,50.8c0.9,0,2.2,0,3.1,0c0.4,0,0.9,0.4,0.9,0.9c0,0.9,0.4,1.3,0.4,2.2c0,0.4,0,0.9-0.4,0.9
				c-0.9,0-2.2,0-3.1,0c-0.4,0-0.9-0.4-0.9-0.9c0-0.9-0.4-1.3-0.4-2.2C170.1,51.2,170.5,50.8,170.5,50.8z"/>
			<path fill="#BBBDCD" d="M172.3,56.1c0.9,0,2.2,0,3.1,0c0.4,0,0.9,0.4,0.9,0.9c0,0.9,0.4,1.8,0.4,2.2s0,0.9-0.4,0.9
				c-1.3,0-2.2,0-3.5,0c-0.4,0-0.9-0.4-0.9-0.9c0-0.9-0.4-1.8-0.4-2.2C171.4,56.6,171.9,56.1,172.3,56.1z"/>
			<path fill="#BBBDCD" d="M173.6,62.3c1.3,0,2.2,0,3.5,0c0.4,0,0.9,0.4,0.9,0.9c0,0.9,0.4,1.8,0.4,2.7c0,0.4,0,0.9-0.4,0.9
				c-1.3,0-2.2,0-3.5,0c-0.4,0-0.9-0.4-0.9-0.9c0-0.9-0.4-1.8-0.4-2.7S173.2,62.3,173.6,62.3z"/>
			<path fill="#BBBDCD" d="M175,68.1c1.3,0,2.2,0,3.5,0c0.4,0,0.9,0.4,0.9,0.9c0,0.9,0.4,1.8,0.4,2.7c0,0.4,0,0.9-0.4,0.9
				c-1.3,0-2.2,0-3.5,0c-0.4,0-0.9-0.4-0.9-0.9c0-0.9-0.4-1.8-0.4-2.7C174.5,68.5,174.5,68.1,175,68.1z"/>
			<path fill="#BBBDCD" d="M176.8,74.3c1.3,0,2.2,0,3.5,0c0.4,0,0.9,0.4,0.9,0.9c0.4,0.9,0.4,1.8,0.9,2.7c0,0.4,0,0.9-0.4,0.9
				c-1.3,0-2.2,0-3.5,0c-0.4,0-0.9-0.4-0.9-0.9c0-0.9-0.4-1.8-0.4-2.7C175.9,74.7,176.3,74.3,176.8,74.3z"/>
		</g>
		<path fill="#BBBDCD" d="M178.1,81c1.3,0,2.2,0,3.5,0c0.4,0,0.9,0.4,0.9,0.9c0.4,0.9,0.4,1.8,0.9,2.7c0,0.4,0,0.9-0.4,0.9
			c-1.3,0-2.2,0-3.5,0c-0.4,0-0.9-0.4-0.9-0.9c-0.4-0.9-0.4-1.8-0.9-2.7C177.6,81.4,177.6,81,178.1,81z"/>
	</g>
	<path fill="#DBDDE4" d="M175.4,79.2c2.7,0,5.3,0,8,0s5.3,0,8,0c-0.4-1.8-0.9-3.5-1.8-5.3c-2.7,0-5.3,0-8,0s-5.3,0-8,0
		c0-0.4,0-0.4,0-0.9c2.7,0,5.3,0,8,0s5.3,0,8,0c-0.4-1.8-0.9-3.5-1.3-5.3c-2.7,0-4.9,0-7.5,0c-2.7,0-4.9,0-7.5,0c0-0.4,0-0.4,0-0.9
		c2.7,0,4.9,0,7.5,0c2.7,0,4.9,0,7.5,0c-0.4-1.8-0.9-3.5-1.3-4.9c-2.7,0-4.9,0-7.5,0c-2.7,0-4.9,0-7.5,0c0-0.4,0-0.4,0-0.9
		c2.7,0,4.9,0,7.5,0c2.7,0,4.9,0,7.5,0c-0.4-1.8-0.9-3.1-1.3-4.9c-2.2,0-4.9,0-7.5,0c-2.7,0-4.9,0-7.5,0c0-0.4,0-0.4,0-0.9
		c2.2,0,4.9,0,7.1,0s4.9,0,7.1,0c-0.4-1.8-0.9-3.1-1.3-4.9c-2.2,0-4.9,0-7.1,0s-4.9,0-7.1,0c0-0.4,0-0.4,0-0.9c2.2,0,4.9,0,7.1,0
		s4.9,0,7.1,0c-0.4-1.3-0.9-3.1-1.3-4.4c-2.2,0-4.9,0-7.1,0c-2.2,0-4.9,0-7.1,0c0-0.4,0-0.4,0-0.9c2.2,0,4.9,0,7.1,0
		c2.2,0,4.9,0,7.1,0c-0.4-1.3-0.9-3.1-1.3-4.4c-2.2,0-4.4,0-7.1,0c-2.2,0-4.4,0-7.1,0c0-0.4,0-0.4,0-0.9c2.2,0,4.4,0,7.1,0
		c2.2,0,4.4,0,7.1,0c-0.4-1.3-0.9-2.7-1.3-4c-2.2,0-4.4,0-6.7,0c-2.2,0-4.4,0-6.7,0c0-0.4,0-0.4,0-0.9c2.2,0,4.4,0,6.7,0
		c2.2,0,4.4,0,6.7,0c-0.4-1.3-0.9-2.7-1.3-4c-2.2,0-4.4,0-6.7,0s-4.4,0-6.7,0c0-0.4,0-0.4,0-0.9c2.2,0,4.4,0,6.7,0s4.4,0,6.7,0
		c-0.4-1.3-0.9-2.7-1.3-4c-2.2,0-4.4,0-6.7,0s-4.4,0-6.7,0v-0.4c2.2,0,4.4,0,6.7,0s4.4,0,6.7,0c-0.4-1.3-0.9-2.7-0.9-3.5
		c-2.2,0-4.4,0-6.2,0c-2.2,0-4.4,0-6.2,0v-0.4c2.2,0,4.4,0,6.2,0c2.2,0,4.4,0,6.2,0c-0.4-1.3-0.9-2.7-0.9-3.5h0.4
		c0.4,1.3,0.9,2.7,0.9,3.5c2.2,0,4.9,0,7.1,0v0.4c-2.2,0-4.9,0-7.1,0c0.4,1.3,0.9,2.7,0.9,3.5c2.2,0,4.9,0,7.1,0v0.4
		c-2.2,0-4.9,0-7.1,0c0.4,1.3,0.9,2.7,1.3,4c2.2,0,4.9,0,7.1,0c0,0.4,0,0.4,0,0.9c-2.7,0-4.9,0-7.5,0c0.4,1.3,0.9,2.7,1.3,4
		c2.7,0,4.9,0,7.5,0c0,0.4,0,0.4,0.4,0.9c-2.7,0-4.9,0-7.5,0c0.4,1.3,0.9,2.7,1.3,4c2.7,0,4.9,0,7.5,0c0,0.4,0,0.4,0.4,0.9
		c-2.7,0-4.9,0-7.5,0c0.4,1.3,0.9,3.1,1.3,4.4c2.7,0,5.3,0,7.5,0c0,0.4,0,0.4,0.4,0.9c-2.7,0-5.3,0-7.5,0c0.4,1.3,0.9,3.1,1.3,4.4
		c2.7,0,5.3,0,8,0c0,0.4,0,0.4,0.4,0.9c-2.7,0-5.3,0-8,0c0.4,1.3,0.9,3.1,1.3,4.9c2.7,0,5.3,0,8,0c0,0.4,0,0.4,0.4,0.9
		c-2.7,0-5.3,0-8,0c0.4,1.8,0.9,3.1,1.3,4.9c2.7,0,5.3,0,8,0c0,0.4,0,0.4,0.4,0.9c-2.7,0-5.3,0-8.4,0c0.4,1.8,0.9,3.5,1.3,4.9
		c2.7,0,5.8,0,8.4,0c0,0.4,0,0.4,0.4,0.9c-2.7,0-5.8,0-8.4,0c0.4,1.8,0.9,3.5,1.3,5.3c2.7,0,5.8,0,8.4,0c0,0.4,0,0.4,0.4,0.9
		c-2.7,0-5.8,0-8.4,0c0.4,1.8,0.9,3.5,1.8,5.3c3.1,0,5.8,0,8.9,0c0,0.4,0,0.4,0.4,0.9c-3.1,0-5.8,0-8.9,0c0.9,2.2,1.3,4.4,2.2,7.1
		c-0.4,0-0.4,0-0.9,0c-0.9-2.2-1.3-4.4-2.2-7.1c-2.7,0-5.3,0-8,0c-2.7,0-5.3,0-8,0C175.9,79.6,175.9,79.6,175.4,79.2z"/>
	<g>
		<g>
			<path fill="#32515C" d="M197.6,16.7l13.3,64.7c3.1,13.3,37.2,15.1,31-6.2l-17.7-61.6C220.2-0.6,194,1.6,197.6,16.7z"/>
			<path fill="#33525E" d="M198,16.7L211.3,81c3.1,13.3,36.8,14.6,31-6.2l-17.7-61.6C220.2-0.6,194.5,1.6,198,16.7z"/>
			<path fill="#34545F" d="M198,16.2l13.3,64.3c3.1,13.3,36.4,14.6,30.6-5.8l-17.7-61.6C220.2-0.2,194.5,1.6,198,16.2z"/>
			<path fill="#355561" d="M198.5,16.2l13.3,63.8c3.1,13.3,35.9,14.2,30.1-5.3l-17.7-61.2C220.2-0.2,194.9,1.6,198.5,16.2z"/>
			<path fill="#375662" d="M198.5,16.2l13.3,63.4c3.1,12.9,35.5,14.2,30.1-5.3l-17.7-61.2C220.2-0.2,194.9,1.6,198.5,16.2z"/>
			<path fill="#385864" d="M198.9,15.8l13.3,63c3.1,12.9,35,13.7,29.7-4.9l-17.7-61.2C220.2,0.3,195.4,1.6,198.9,15.8z"/>
			<path fill="#395966" d="M198.9,15.8l13.7,63c3.1,12.9,34.6,13.7,29.3-4.4l-17.7-60.7C220.6,0.3,195.4,1.2,198.9,15.8z"/>
			<path fill="#3A5A67" d="M199.4,15.8l13.7,62.5c3.1,12.9,34.1,13.3,29.3-4.4l-17.7-60.7C220.6,0.3,195.8,1.2,199.4,15.8z"/>
			<path fill="#3B5C69" d="M199.4,15.8l13.7,62.1c3.1,12.9,33.7,13.3,28.8-4l-17.7-60.7C220.6,0.7,195.8,1.2,199.4,15.8z"/>
			<path fill="#3C5D6B" d="M199.8,15.3l13.7,62.1c3.1,12.9,33.3,12.9,28.4-4l-17.7-60.3C220.6,0.7,196.3,1.2,199.8,15.3z"/>
			<path fill="#3D5E6C" d="M199.8,15.3L213.5,77c3.1,12.4,33.3,12.9,28.4-3.5l-17.7-60.3C220.6,0.7,196.3,1.2,199.8,15.3z"/>
			<path fill="#3E5F6E" d="M199.8,15.3l13.7,61.2c3.1,12.4,32.8,12.4,27.9-3.1l-17.7-60.3C220.6,1.2,196.7,1.2,199.8,15.3z"/>
			<path fill="#406170" d="M200.2,14.9L214,76.1c3.1,12.4,32.4,12.4,27.5-3.1l-17.3-60.3C221.1,1.2,197.1,1.2,200.2,14.9z"/>
			<path fill="#416271" d="M200.2,14.9l14.2,60.7c3.1,12.4,31.9,12,27.5-2.7l-17.3-59.9C221.1,1.2,197.1,1.2,200.2,14.9z"/>
			<path fill="#426373" d="M200.7,14.9l14.2,60.3c3.1,12.4,31.5,12,27-2.7l-17.3-59.9C221.1,1.6,197.6,1.2,200.7,14.9z"/>
			<path fill="#436574" d="M200.7,14.9l14.2,59.9c3.1,12,31,11.5,26.6-2.2l-17.3-59.9C221.1,1.6,197.6,1.2,200.7,14.9z"/>
			<path fill="#446676" d="M201.1,14.5l14.2,59.9c2.7,12,30.6,11.5,26.6-1.8l-17.3-59.4C221.1,1.6,198,1.2,201.1,14.5z"/>
		</g>
		<g>
			<path fill="#446676" d="M204.2,8.7l12.4,23.1l10.2,39.5c4.9,18.6,20.8,19.1,14.6-0.4L224.2,14C221.1,2.5,203.4,3.8,204.2,8.7z"/>
			<path fill="#4C6C7C" d="M205.6,9.1l12,22.6l10.2,39.5c4.9,17.7,19.5,18.6,13.7-0.4l-16.8-56.3C221.5,3.4,204.7,4.3,205.6,9.1z"/>
			<path fill="#547382" d="M206.5,10L218,31.7l10.2,39c4.4,17.3,18.6,17.7,13.3-0.4l-16.8-55.9C221.5,3.8,205.6,4.7,206.5,10z"/>
			<path fill="#5B7989" d="M207.8,10.5l11.1,21.3l10.2,38.6c4.4,16.4,17.7,16.8,12.4-0.4l-16.8-55C221.5,4.3,206.5,5.1,207.8,10.5z"
				/>
			<path fill="#63808F" d="M208.7,11.3l10.2,20.4l10.2,38.6c4,15.5,16.4,16,11.5-0.4l-16-55C221.5,4.7,207.8,5.6,208.7,11.3z"/>
			<path fill="#6B8695" d="M210,11.8l9.8,20L230,69.9c4,15.1,15.5,15.5,10.6-0.9l-16-54.1C221.5,5.6,208.7,6,210,11.8z"/>
			<path fill="#738D9B" d="M211.3,12.7l9.3,19.5l10.2,38.1c4,14.2,14.6,14.6,9.8-0.9l-16-53.6C221.5,6,210,6.5,211.3,12.7z"/>
			<path fill="#7B93A1" d="M212.2,13.1l8.9,18.6l9.8,37.7c3.5,13.3,13.3,13.7,9.3-0.9l-15.5-53.2C222,6.5,210.9,6.9,212.2,13.1z"/>
			<path fill="#839AA8" d="M213.5,14l8,18.2l9.8,37.7c3.5,12.9,12.4,12.9,8.4-0.9l-15.5-52.3C222,6.9,211.8,7.4,213.5,14z"/>
			<path fill="#8AA0AE" d="M214.9,14.5l7.5,17.3l9.8,37.2c3.1,12,11.5,12.4,7.5-0.9l-15.1-51.9C222,7.8,213.1,8.2,214.9,14.5z"/>
			<path fill="#92A6B4" d="M215.8,15.3l7.1,16.8l9.8,37.2c3.1,11.1,10.2,11.5,6.7-0.9l-15.1-51.4C222,8.2,214,8.7,215.8,15.3z"/>
			<path fill="#9AADBA" d="M217.1,15.8l6.7,16l9.8,36.8c3.1,10.6,9.3,10.6,6.2-0.9l-14.6-51C222,8.7,215.3,9.1,217.1,15.8z"/>
			<path fill="#A2B3C0" d="M218,16.7l6.2,15.5l9.8,36.4c2.7,9.8,8.4,9.8,5.3-0.9l-14.6-50.5C222,9.6,216.2,9.6,218,16.7z"/>
			<path fill="#AABAC6" d="M219.3,17.1l5.3,14.6l9.3,36.4c2.7,8.9,7.1,8.9,4.4-0.9l-14.2-50.1C222.4,10,217.1,10,219.3,17.1z"/>
			<path fill="#B1C0CD" d="M220.6,18l4.9,14.2l9.3,35.9c2.2,8.4,6.2,8.4,3.5-0.9L224.2,18C222.4,10.5,218.4,10.5,220.6,18z"/>
			<path fill="#B9C7D3" d="M221.5,18.4l4.4,13.7l9.3,35.9c2.2,7.5,5.3,7.5,2.7-0.9l-13.7-48.8C222.4,10.9,219.3,10.9,221.5,18.4z"/>
			<path fill="#C1CDD9" d="M222.9,19.3l4,12.9l9.3,35.5c2.2,6.7,4.4,6.7,2.2-0.9l-13.7-48.3C222.4,11.8,220.6,11.3,222.9,19.3z"/>
		</g>
		<g>
			<path fill="#446676" d="M230.4,84.5l-7.1-27.9l-14.2-36.8c-5.3-13.7-12.9-8.9-8.9,8.9l11.1,51.9
				C213.1,91.2,230.4,90.3,230.4,84.5z"/>
			<path fill="#4C6C7C" d="M229.5,84.1l-7.1-27l-13.7-36.4c-4.9-13.3-12.4-8.4-8.4,8.4l10.6,51.4C213.5,90.7,229.5,89.8,229.5,84.1z
				"/>
			<path fill="#547382" d="M228.2,83.6l-6.7-26.2l-13.3-35.9c-4.9-12.9-12-8.4-8,8l10.6,51C213.5,89.8,228.6,89.4,228.2,83.6z"/>
			<path fill="#5B7989" d="M227.3,82.7l-6.2-24.8L208.2,22c-4.4-12-11.1-8-7.5,7.5l10.6,50.1C213.5,89.4,227.7,88.9,227.3,82.7z"/>
			<path fill="#63808F" d="M226.4,82.3l-6.2-23.9l-12.4-35.5c-4.4-11.5-10.6-8-7.1,7.1l10.6,49.7C213.5,88.9,226.8,88.5,226.4,82.3z
				"/>
			<path fill="#6B8695" d="M225.5,81.8l-5.8-23.1l-12-35c-4-11.1-9.8-8-6.7,6.7l10.6,49.2C213.5,88,226,87.6,225.5,81.8z"/>
			<path fill="#738D9B" d="M224.2,81l-5.3-21.7l-11.1-35c-4-10.6-9.3-7.5-6.2,6.2l10.2,48.8C213.5,87.6,225.1,87.2,224.2,81z"/>
			<path fill="#7B93A1" d="M223.3,80.5L218,59.7l-10.6-34.6c-3.5-10.2-8.9-7.5-5.8,5.3l10.2,48.3C213.5,87.2,224.2,86.7,223.3,80.5z
				"/>
			<path fill="#839AA8" d="M222.4,80.1l-4.9-20L207.3,26c-3.1-9.8-8-7.5-5.3,4.9l10.2,47.4C213.5,86.3,223.3,86.3,222.4,80.1z"/>
			<path fill="#8AA0AE" d="M221.5,79.2l-4.9-18.6l-9.8-34.1c-3.1-9.3-7.5-7.1-4.9,4.4l10.2,47C214,85.8,222.4,85.8,221.5,79.2z"/>
			<path fill="#92A6B4" d="M220.2,78.7L215.8,61l-9.3-33.7c-2.7-8.9-7.1-7.1-4.4,4l10.2,46.6C214,85.4,221.5,84.9,220.2,78.7z"/>
			<path fill="#9AADBA" d="M219.3,78.3l-4-16.8l-8.9-33.3c-2.7-8.4-6.2-6.7-4,3.5l9.8,46.1C214,84.9,220.6,84.5,219.3,78.3z"/>
			<path fill="#A2B3C0" d="M218.4,77.4l-4-15.5L206,28.6c-2.2-8-5.8-6.7-3.5,3.1L212.7,77C214,84.1,219.8,84.1,218.4,77.4z"/>
			<path fill="#AABAC6" d="M217.5,77L214,62.3l-7.5-32.8c-2.2-7.5-5.3-6.7-3.1,2.7l9.3,44.8C214,83.6,218.9,83.6,217.5,77z"/>
			<path fill="#B1C0CD" d="M216.2,76.1l-3.1-13.3L206,30.4c-1.8-7.1-4.4-6.2-2.7,1.8l9.8,44.3C214,83.2,217.5,83.2,216.2,76.1z"/>
			<path fill="#B9C7D3" d="M215.3,75.6l-3.1-12.4l-6.7-32.4c-1.8-6.7-4-6.2-2.2,1.3l9.3,43.9C214,82.3,216.7,82.7,215.3,75.6z"/>
			<path fill="#C1CDD9" d="M214.4,75.2l-2.7-11.5l-6.2-31.9c-1.3-6.2-3.5-6.2-1.8,0.9l9.3,43.4C214.4,81.8,215.8,81.8,214.4,75.2z"
				/>
		</g>
		<g>
			<g>
				
					<linearGradient id="SVGID_18_" gradientUnits="userSpaceOnUse" x1="-329.7716" y1="158.5346" x2="-329.6118" y2="163.1085" gradientTransform="matrix(-4.4335 0 0 -4.4335 -1211.946 825.6605)">
					<stop  offset="0" style="stop-color:#253F48"/>
					<stop  offset="0.52" style="stop-color:#526875"/>
					<stop  offset="1" style="stop-color:#B8C1C6"/>
				</linearGradient>
				<path fill="url(#SVGID_18_)" d="M234.4,90.3c0.4,0,0.9-0.4,0.9-0.4c4.9,7.5,9.8,15.1,9.8,15.1c0.4,0,0.4,0.4,0.4,1.3v0.4l0,0
					c0,0.4,0,0.9-0.4,1.3l2.7-2.2c0.4-0.4,0.9-0.4,1.3,0c0,0,0,0,0,0.4l-1.3,2.7l0.9-0.4l-0.9,2.2l2.7-1.8c0.4-0.4,1.3-0.4,1.3,0
					s0.4,0.4,0,0.9l0,0l-0.4,3.1l0.4-1.3c0.4-0.4,0.9-0.9,1.3-0.4c0.4,0,0.4,0.4,0.4,0.9l0,0v1.3l0,0c0-0.4,0.4-0.9,0.9-0.9
					c0-0.4,0-0.9,0.4-1.3c0,0,0,0,0.4,0v-0.4c0,0,0,0,0-0.4c0,0-0.4,0-0.4-0.4c0,0,0-0.4,0.4-0.4c0,0,0,0,0.4,0v-0.4c0,0,0,0,0-0.4
					c0,0-0.4,0-0.4-0.4l2.2-2.7l-1.8,0.9l2.2-2.2l-2.7,1.3c-0.4,0-0.9,0-1.3-0.4v-0.4h-0.4l0,0c0-0.4,0-0.9,0-0.9l0.4-0.4l-0.9,0.4
					c-0.4,0.4-1.3,0-1.3-0.4v-0.4c-0.4,0.4-0.9,0.4-1.3,0c-0.4-0.4-0.4-0.4-0.4-0.9l0,0v-1.3c-0.4,0.4-0.9,0.9-1.3,0.4
					c-0.4,0-0.4-0.4-0.4-0.4l0,0l-2.2-6.2c0-0.4-0.4-0.9-0.4-1.3c0.4,0,0.9,0,1.3,0.4l2.2,5.3l1.8-3.1c0-0.4,0.4-0.9,0.9-0.4
					c0.4,0,0.9,0.4,0.9,1.3l0.4,4l1.3-1.8l0,0c0.4-0.4,0.9-0.4,1.3-0.4s0.4,0.4,0.4,0.4l-0.9,2.2h0.4l-0.4,1.8l4-2.7
					c0.4-0.4,0.9-0.4,1.3,0c0,0,0,0,0.4,0.4l-2.2,2.7l1.3-0.4l-1.8,1.8l3.5-1.3c0.4,0,0.9,0,1.3,0.4l0,0l-1.8,1.8l1.8-0.9l0,0
					c0,0,0,0.4-0.4,0.4l-1.8,1.8l1.8-0.9c0.4-0.4,0.9,0,1.3,0.4l0,0l-4.4,3.1h1.3l-1.8,1.3l3.1,0.4c0.4,0,0.4,0,0.9,0.4h-0.4
					l-4.9,0.4l0.9,1.3h-1.3l3.5,5.8l0,0l0,0c-0.4,0.4-0.9,0.4-1.3,0l-4.4-4.4l-0.4,1.3l0,0l-0.9,4.4c0,0.4-0.4,0.4-0.9,0.9
					c-0.4,0-0.9-0.4-1.3-0.9l-0.4-5.3l-1.8,3.5c0,0.4-0.4,0.9-1.3,0.4c-0.4,0-0.9-0.4-0.9-1.3l0.9-6.7l-4.4,3.1
					c-0.4,0.4-0.9,0.4-1.3,0l-0.4-0.4l1.3-2.2l0.9,0.4l1.3-2.2l-1.8,1.8c-0.4,0.4-0.9,0.4-1.3,0l-0.4-0.4c0.9-0.9,2.7-4,2.7-4
					s0,0-0.4-0.4c0.4-0.4,0.9-0.9,0.4-0.9C244.1,105.3,239.3,97.8,234.4,90.3L234.4,90.3z M243.3,111.1L243.3,111.1L243.3,111.1z"/>
			</g>
			<g>
				
					<linearGradient id="SVGID_19_" gradientUnits="userSpaceOnUse" x1="-328.7922" y1="158.4536" x2="-331.8319" y2="177.6455" gradientTransform="matrix(-4.4335 0 0 -4.4335 -1211.946 825.6605)">
					<stop  offset="0" style="stop-color:#253F48"/>
					<stop  offset="0.52" style="stop-color:#526875"/>
					<stop  offset="1" style="stop-color:#B8C1C6"/>
				</linearGradient>
				<path fill="url(#SVGID_19_)" d="M233.9,90.7c0.9,0,1.3-0.4,2.2-0.9c4.9,8,10.2,16,10.6,16c0.4,0.4,0.4,1.8,0,3.1l2.7-2.2
					c0.4-0.4,0.9-0.4,1.3,0s0.4,0.9,0,1.3l0,0l-2.2,3.5l2.7-1.8c0.4-0.4,1.3-0.4,1.3,0s0.4,0.4,0,0.9l0,0l-0.4,3.1l0.9-1.3
					c0.4-0.4,0.9-0.9,1.3-0.4c0.4,0,0.4,0.4,0.4,0.9l0,0v1.3l0,0c0-0.4,0.4-0.9,0.9-0.9c0-0.4,0-0.9,0.4-1.3c0,0,0,0,0.4,0v-0.4
					c0,0,0,0,0-0.4l-0.4-0.4c0-0.4,0-0.9,0-1.3l0,0l2.7-2.7l-2.7,1.3c-0.4,0-1.3,0-1.3-0.4s0-0.9,0-0.9l0.4-0.4l-0.9,0.4
					c-0.4,0.4-1.3,0-1.3-0.4v-0.4c-0.4,0.4-0.9,0.4-1.3,0c-0.4-0.4-0.4-0.4-0.4-0.9l0,0v-1.3c-0.4,0.4-0.9,0.9-1.3,0.4
					c-0.4,0-0.4-0.4-0.4-0.4l0,0l-2.2-6.2c0-0.4-0.9-2.2-0.4-2.7c0.4,0,1.3,0,1.3,0.4l2.2,5.3l1.8-3.1c0-0.4,0.4-0.9,0.9-0.4
					c0.4,0,0.9,0.4,0.9,1.3l-0.4,3.1l1.3-1.8l0,0c0.4-0.4,0.9-0.4,1.3-0.4c0.4,0,0.9,0.9,0.4,1.3l-0.9,2.7l4-2.7
					c0.4-0.4,0.9-0.4,1.3,0c0.4,0.4,0.4,0.9,0,1.3l-2.2,2.7l3.5-1.3c0.4,0,0.9,0,1.3,0.4c0.4,0.4,0.4,0.9,0,1.3l-1.8,1.8l1.8-0.9
					c0.4-0.4,0.9,0,1.3,0.4c0.4,0.4,0.4,1.3-0.4,1.3l-4.4,3.1l3.1,0.4c0.4,0,0.9,0.4,0.9,0.9c0,0.4-0.4,0.9-0.9,1.3l-4.9,0.4
					l3.5,5.8l0,0c0.4,0.4,0.4,0.9,0,1.3c-0.4,0.4-0.9,0.4-1.3,0l-4.4-4.4l-1.3,5.8c0,0.4-0.4,0.9-0.9,0.9c-0.4,0-0.9-0.4-1.3-0.9
					l0.4-5.8l-1.8,3.5c0,0.4-0.4,0.9-1.3,0.4c-0.4,0-0.9-0.4-0.9-1.3l0.9-6.7l-4.4,3.1c-0.4,0.4-0.9,0.4-1.3,0s-0.9-0.9-0.4-1.3
					l1.3-2.7l-0.9,1.8c-0.4,0.4-0.9,0.4-1.3,0s-0.4-0.9-0.4-1.3c0,0,3.1-4.4,2.7-4.4S238.8,98.7,233.9,90.7L233.9,90.7z
					 M244.1,113.3L244.1,113.3L244.1,113.3z"/>
			</g>
		</g>
	</g>
</g>
</svg>
