<?xml version="1.0" encoding="utf-8"?>
<!-- Generator: Adobe Illustrator 21.0.0, SVG Export Plug-In . SVG Version: 6.00 Build 0)  -->
<svg version="1.0" id="图层_1" xmlns="http://www.w3.org/2000/svg" xmlns:xlink="http://www.w3.org/1999/xlink" x="0px" y="0px" width="225" height="134.5"
	 viewBox="0 0 225 134.5" xml:space="preserve">
<rect x="3.3" y="33.9" fill="#2567FF" width="190.2" height="9.3"/>
<rect x="3.3" y="43.2" fill="#E5E5E5" width="190.2" height="29.6"/>
<polygon fill="#CCCCCC" points="193.5,33.9 3.3,33.9 26.8,4.4 217,4.4 "/>
<polygon fill="#2567FF" points="217,14 193.5,43.2 193.5,33.9 217,4.4 "/>
<rect x="3.3" y="72.7" fill="#2567FF" width="190.2" height="9.3"/>
<rect x="3.3" y="82" fill="#E5E5E5" width="190.2" height="49.1"/>
<polygon fill="#2567FF" points="217,52.4 193.5,82 193.5,72.7 217,43.2 "/>
<polygon fill="#CCCCCC" points="217,43.2 193.5,72.7 193.5,43.2 217,14 "/>
<polygon fill="#CCCCCC" points="217,101.6 193.5,131.1 193.5,82 217,52.4 "/>
<g>
	
		<linearGradient id="SVGID_1_" gradientUnits="userSpaceOnUse" x1="30.7889" y1="-804.8999" x2="37.771" y2="-797.9178" gradientTransform="matrix(2.2417 0 0 -2.2417 -57.8083 -1738.3999)">
		<stop  offset="0" style="stop-color:#242424"/>
		<stop  offset="1" style="stop-color:#5B5B5B"/>
	</linearGradient>
	<rect x="9" y="52.4" fill="url(#SVGID_1_)" width="19.9" height="11.4"/>
	
		<linearGradient id="SVGID_2_" gradientUnits="userSpaceOnUse" x1="41.9238" y1="-804.8853" x2="48.9059" y2="-797.9032" gradientTransform="matrix(2.2417 0 0 -2.2417 -57.8083 -1738.3999)">
		<stop  offset="0" style="stop-color:#242424"/>
		<stop  offset="1" style="stop-color:#5B5B5B"/>
	</linearGradient>
	<rect x="34" y="52.4" fill="url(#SVGID_2_)" width="19.9" height="11.4"/>
	
		<linearGradient id="SVGID_3_" gradientUnits="userSpaceOnUse" x1="53.0586" y1="-804.8707" x2="60.0407" y2="-797.8887" gradientTransform="matrix(2.2417 0 0 -2.2417 -57.8083 -1738.3999)">
		<stop  offset="0" style="stop-color:#242424"/>
		<stop  offset="1" style="stop-color:#5B5B5B"/>
	</linearGradient>
	<rect x="58.9" y="52.4" fill="url(#SVGID_3_)" width="19.9" height="11.4"/>
	
		<linearGradient id="SVGID_4_" gradientUnits="userSpaceOnUse" x1="64.1936" y1="-804.8561" x2="71.1755" y2="-797.8741" gradientTransform="matrix(2.2417 0 0 -2.2417 -57.8083 -1738.3999)">
		<stop  offset="0" style="stop-color:#242424"/>
		<stop  offset="1" style="stop-color:#5B5B5B"/>
	</linearGradient>
	<rect x="83.8" y="52.4" fill="url(#SVGID_4_)" width="19.9" height="11.4"/>
	
		<linearGradient id="SVGID_5_" gradientUnits="userSpaceOnUse" x1="87.1883" y1="-804.8962" x2="94.1704" y2="-797.9142" gradientTransform="matrix(2.2417 0 0 -2.2417 -57.8083 -1738.3999)">
		<stop  offset="0" style="stop-color:#242424"/>
		<stop  offset="1" style="stop-color:#5B5B5B"/>
	</linearGradient>
	<rect x="135.4" y="52.4" fill="url(#SVGID_5_)" width="19.9" height="11.4"/>
	
		<linearGradient id="SVGID_6_" gradientUnits="userSpaceOnUse" x1="98.3232" y1="-804.8817" x2="105.3052" y2="-797.8996" gradientTransform="matrix(2.2417 0 0 -2.2417 -57.8083 -1738.3999)">
		<stop  offset="0" style="stop-color:#242424"/>
		<stop  offset="1" style="stop-color:#5B5B5B"/>
	</linearGradient>
	<rect x="160.4" y="52.4" fill="url(#SVGID_6_)" width="19.9" height="11.4"/>
</g>
<g>
	
		<linearGradient id="SVGID_7_" gradientUnits="userSpaceOnUse" x1="30.2042" y1="-825.7394" x2="38.3473" y2="-817.5963" gradientTransform="matrix(2.2417 0 0 -2.2417 -57.8083 -1738.3999)">
		<stop  offset="0" style="stop-color:#242424"/>
		<stop  offset="1" style="stop-color:#5B5B5B"/>
	</linearGradient>
	<rect x="9" y="95.2" fill="url(#SVGID_7_)" width="19.9" height="16.7"/>
	
		<linearGradient id="SVGID_8_" gradientUnits="userSpaceOnUse" x1="41.339" y1="-825.7249" x2="49.4821" y2="-817.5818" gradientTransform="matrix(2.2417 0 0 -2.2417 -57.8083 -1738.3999)">
		<stop  offset="0" style="stop-color:#242424"/>
		<stop  offset="1" style="stop-color:#5B5B5B"/>
	</linearGradient>
	<rect x="34" y="95.2" fill="url(#SVGID_8_)" width="19.9" height="16.7"/>
	
		<linearGradient id="SVGID_9_" gradientUnits="userSpaceOnUse" x1="52.4738" y1="-825.7103" x2="60.617" y2="-817.5672" gradientTransform="matrix(2.2417 0 0 -2.2417 -57.8083 -1738.3999)">
		<stop  offset="0" style="stop-color:#242424"/>
		<stop  offset="1" style="stop-color:#5B5B5B"/>
	</linearGradient>
	<rect x="58.9" y="95.2" fill="url(#SVGID_9_)" width="19.9" height="16.7"/>
	
		<linearGradient id="SVGID_10_" gradientUnits="userSpaceOnUse" x1="63.6088" y1="-825.6957" x2="71.7518" y2="-817.5527" gradientTransform="matrix(2.2417 0 0 -2.2417 -57.8083 -1738.3999)">
		<stop  offset="0" style="stop-color:#242424"/>
		<stop  offset="1" style="stop-color:#5B5B5B"/>
	</linearGradient>
	<rect x="83.8" y="95.2" fill="url(#SVGID_10_)" width="19.9" height="16.7"/>
	
		<linearGradient id="SVGID_11_" gradientUnits="userSpaceOnUse" x1="86.6035" y1="-825.7358" x2="94.7467" y2="-817.5927" gradientTransform="matrix(2.2417 0 0 -2.2417 -57.8083 -1738.3999)">
		<stop  offset="0" style="stop-color:#242424"/>
		<stop  offset="1" style="stop-color:#5B5B5B"/>
	</linearGradient>
	<rect x="135.4" y="95.2" fill="url(#SVGID_11_)" width="19.9" height="16.7"/>
	
		<linearGradient id="SVGID_12_" gradientUnits="userSpaceOnUse" x1="97.7384" y1="-825.7213" x2="105.8815" y2="-817.5781" gradientTransform="matrix(2.2417 0 0 -2.2417 -57.8083 -1738.3999)">
		<stop  offset="0" style="stop-color:#242424"/>
		<stop  offset="1" style="stop-color:#5B5B5B"/>
	</linearGradient>
	<rect x="160.4" y="95.2" fill="url(#SVGID_12_)" width="19.9" height="16.7"/>
</g>
</svg>
