<?xml version="1.0" encoding="utf-8"?>
<!-- Generator: Adobe Illustrator 16.0.0, SVG Export Plug-In . SVG Version: 6.00 Build 0)  -->
<!DOCTYPE svg PUBLIC "-//W3C//DTD SVG 1.1 Basic//EN" "http://www.w3.org/Graphics/SVG/1.1/DTD/svg11-basic.dtd">
<svg version="1.1" baseProfile="basic" id="图层_1"
	 xmlns="http://www.w3.org/2000/svg" xmlns:xlink="http://www.w3.org/1999/xlink" x="0px" y="0px" width="200px" height="20px"
	 viewBox="0 0 200 20" xml:space="preserve">
<symbol  id="_x3001_" viewBox="-157.087 -4.242 314.175 8.485">
	
		<use xlink:href="#新建符号"  width="54" height="9.398" x="-27" y="-4.699" transform="matrix(-0.9028 0 0 -0.9028 132.7114 0)" overflow="visible"/>
	
		<use xlink:href="#新建符号"  width="54" height="9.398" x="-27" y="-4.699" transform="matrix(-0.9028 0 0 -0.9028 88.4746 0)" overflow="visible"/>
	
		<use xlink:href="#新建符号"  width="54" height="9.398" x="-27" y="-4.699" transform="matrix(-0.9028 0 0 -0.9028 44.2373 0)" overflow="visible"/>
	
		<use xlink:href="#新建符号"  width="54" height="9.398" x="-27" y="-4.699" transform="matrix(-0.9028 0 0 -0.9028 0 0)" overflow="visible"/>
	
		<use xlink:href="#新建符号"  width="54" height="9.398" x="-27" y="-4.699" transform="matrix(-0.9028 0 0 -0.9028 -44.2373 0)" overflow="visible"/>
	
		<use xlink:href="#新建符号"  width="54" height="9.398" x="-27" y="-4.699" transform="matrix(-0.9028 0 0 -0.9028 -88.4746 0)" overflow="visible"/>
	
		<use xlink:href="#新建符号"  width="54" height="9.398" x="-27" y="-4.699" transform="matrix(-0.9028 0 0 -0.9028 -132.7114 0)" overflow="visible"/>
	<polygon display="none" fill="none" points="157.087,-3.611 -157.087,-3.611 -157.087,3.611 157.087,3.611 	"/>
</symbol>
<symbol  id="新建符号" viewBox="-27 -4.699 54 9.398">
	<polygon fill="#231815" points="-26.172,-3.976 -25.449,-4.699 -16.773,3.977 -17.497,4.699 	"/>
	<polygon fill="#231815" points="-20.037,-3.976 -19.314,-4.699 -10.639,3.977 -11.361,4.699 	"/>
	<polygon fill="#231815" points="-13.902,-3.976 -13.18,-4.699 -4.504,3.977 -5.227,4.699 	"/>
	<polygon fill="#231815" points="-7.767,-3.976 -7.044,-4.699 1.632,3.977 0.908,4.699 	"/>
	<polygon fill="#231815" points="-1.632,-3.976 -0.909,-4.699 7.767,3.977 7.044,4.699 	"/>
	<polygon fill="#231815" points="4.503,-3.976 5.227,-4.699 13.901,3.977 13.179,4.699 	"/>
	<polygon fill="#231815" points="10.639,-3.976 11.361,-4.699 20.037,3.977 19.313,4.699 	"/>
	<polygon fill="#231815" points="16.773,-3.976 17.496,-4.699 26.172,3.977 25.449,4.699 	"/>
	<polygon display="none" fill="none" points="-27,4 27,4 27,-4 -27,-4 	"/>
</symbol>
<g>
	<g>
		<g>
			<rect id="SVGID_1_" x="0.416" y="0.823" fill="#E73828" width="198.833" height="8.344"/>
		</g>
		<g>
			<defs>
				<rect id="SVGID_5_" x="0.416" y="0.823" width="198.833" height="8.344"/>
			</defs>
			<clipPath id="SVGID_6_">
				<use xlink:href="#SVGID_5_"  overflow="visible"/>
			</clipPath>
			<g transform="matrix(1 0 0 1 3.600903e-006 2.481077e-007)" clip-path="url(#SVGID_6_)">
				<g>
					
						<use xlink:href="#新建符号"  width="54" height="9.398" x="-27" y="-4.699" transform="matrix(0.9447 0 0 1.8832 -35.3818 6.2173)" overflow="visible"/>
					
						<use xlink:href="#新建符号"  width="54" height="9.398" x="-27" y="-4.699" transform="matrix(0.9447 0 0 1.8832 10.9121 6.2173)" overflow="visible"/>
					
						<use xlink:href="#新建符号"  width="54" height="9.398" x="-27" y="-4.699" transform="matrix(0.9447 0 0 1.8832 57.207 6.2173)" overflow="visible"/>
					
						<use xlink:href="#新建符号"  width="54" height="9.398" x="-27" y="-4.699" transform="matrix(0.9447 0 0 1.8832 103.5 6.2173)" overflow="visible"/>
					
						<use xlink:href="#新建符号"  width="54" height="9.398" x="-27" y="-4.699" transform="matrix(0.9447 0 0 1.8832 149.7939 6.2173)" overflow="visible"/>
					
						<use xlink:href="#新建符号"  width="54" height="9.398" x="-27" y="-4.699" transform="matrix(0.9447 0 0 1.8832 196.0879 6.2173)" overflow="visible"/>
					
						<use xlink:href="#新建符号"  width="54" height="9.398" x="-27" y="-4.699" transform="matrix(0.9447 0 0 1.8832 242.3818 6.2173)" overflow="visible"/>
					<polygon display="none" fill="none" points="-60.89,-1.316 267.892,-1.316 267.892,13.751 -60.89,13.751 					"/>
				</g>
				
					<use xlink:href="#_x3001_"  width="314.175" height="8.485" x="-157.087" y="-4.242" transform="matrix(1.0465 0 0 2.0861 103.5 6.2173)" overflow="visible"/>
			</g>
		</g>
		<g>
			<rect id="SVGID_2_" x="0.416" y="0.823" fill="none" stroke="#231815" stroke-miterlimit="1" width="198.833" height="8.344"/>
		</g>
	</g>
	<g>
		<g>
			<rect id="SVGID_3_" x="192.916" y="0.823" fill="#E73828" width="6.333" height="18.764"/>
		</g>
		<g>
			<defs>
				<rect id="SVGID_7_" x="192.916" y="0.823" width="6.333" height="18.764"/>
			</defs>
			<clipPath id="SVGID_8_">
				<use xlink:href="#SVGID_7_"  overflow="visible"/>
			</clipPath>
			<g transform="matrix(1 1.639336e-018 -1.639336e-018 1 9.471102e-008 -1.213893e-006)" clip-path="url(#SVGID_8_)">
				
					<use xlink:href="#_x3001_"  width="314.175" height="8.485" x="-157.087" y="-4.242" transform="matrix(2.251328e-011 -2.0848 -1.5834 2.251326e-011 199.3174 157.1689)" overflow="visible"/>
			</g>
		</g>
		<g>
			<rect id="SVGID_4_" x="192.916" y="0.823" fill="none" stroke="#231815" stroke-miterlimit="1" width="6.333" height="18.764"/>
		</g>
	</g>
</g>
</svg>
