<?xml version="1.0" encoding="utf-8"?>
<!-- Generator: Adobe Illustrator 21.0.0, SVG Export Plug-In . SVG Version: 6.00 Build 0)  -->
<svg version="1.0" id="图层_1" xmlns="http://www.w3.org/2000/svg" xmlns:xlink="http://www.w3.org/1999/xlink" x="0px" y="0px" width="220px" height="220px"
	 viewBox="0 0 220 220" xml:space="preserve">
<g>
	<g>
		<path fill="#FFFFFF" d="M59.1,103.8c40.7,0,47.7,1.1,88.7,1.1c2.9,0,5.1,1.1,5.5,2.6c1.5,5.1,20.9,43.3,22.4,48.4
			c0.4,1.5-2.6,2.6-5.5,2.6c-44,0.4-87.6,1.5-129.8,0c-2.9,0-5.9-1.1-5.5-2.6c1.1-4.8,17.6-44.4,18.7-49.5
			C53.9,104.9,56.1,103.8,59.1,103.8z"/>
		<path fill="#FBFBFC" d="M60.2,104.5c38.1,0,49.1,1.5,87.3,1.5c2.9,0,5.1,1.1,5.5,2.6c1.1,4.8,20.2,42.5,21.6,47.3
			c0.4,1.5-2.6,2.6-5.5,2.6c-41.4,0.4-87.3,1.5-126.9,0c-2.9,0-5.9-1.1-5.5-2.6c1.1-4.8,16.9-44,18-48.8
			C55,105.6,57.2,104.5,60.2,104.5z"/>
		<path fill="#F7F7F8" d="M61.3,105.2c35.6,0,50.6,1.8,86.2,1.8c2.9,0,5.1,1.1,5.5,2.6c1.1,4.4,19.8,41.4,20.9,46.2
			c0.4,1.5-2.6,2.6-5.5,2.6c-38.5,0.4-86.9,1.5-123.6,0c-2.9,0-5.9-1.1-5.5-2.6c1.1-4.4,15.4-43.3,16.5-47.7
			C56.1,106.7,58.3,105.2,61.3,105.2z"/>
		<path fill="#F2F3F5" d="M62.4,106.3c33,0,51.7,1.8,85.1,1.8c2.9,0,5.1,1.1,5.5,2.6c1.1,4,19.1,40.7,20.2,44.7
			c0.4,1.5-2.6,2.6-5.5,2.6c-35.9,0.4-86.2,1.1-120.6,0c-2.9,0-5.5-1.1-5.5-2.6c1.1-4,14.3-42.5,15.4-46.9
			C57.2,107.4,59.4,106.3,62.4,106.3z"/>
		<path fill="#EEEFF2" d="M63.5,107.1c30.4,0,53.2,2.2,83.6,2.2c2.9,0,4.8,1.1,5.1,2.6c1.1,4,18.3,40,19.4,43.6
			c0.4,1.5-2.2,2.6-5.1,2.6c-33,0.4-85.8,1.1-117.7,0c-2.9,0-5.5-1.1-5.1-2.6c0.7-4,13.2-42.2,14.3-45.8
			C58.3,108.2,60.5,107.1,63.5,107.1z"/>
		<path fill="#EAEBEE" d="M64.6,107.8c27.9,0,54.6,2.6,82.5,2.6c2.9,0,4.8,1.1,5.1,2.6c0.7,3.7,18,38.9,18.7,42.5
			c0.4,1.5-2.2,2.6-5.1,2.6c-30.4,0-85.4,0.7-114.4,0c-2.9,0-5.5-1.1-5.1-2.6c0.7-3.7,12.1-41.4,13.2-45.1
			C59.4,108.9,61.6,107.8,64.6,107.8z"/>
		<path fill="#E6E7EB" d="M65.3,108.9c25.7,0,55.7,2.6,81.4,2.6c2.9,0,4.8,1.1,5.1,2.6c0.7,3.3,17.2,38.1,18.3,41.1
			c0.4,1.5-2.2,2.6-5.1,2.6c-27.5,0-85.1,0.7-111.5,0c-2.9,0-5.5-1.1-5.1-2.6c0.7-3.3,11-40.7,11.7-44
			C60.5,110,62.7,108.5,65.3,108.9z"/>
		<path fill="#E2E3E7" d="M66.4,109.6c23.1,0,57.2,2.9,80.3,2.9c2.9,0,4.8,1.1,5.1,2.6c0.7,2.9,16.9,37,17.6,40
			c0.4,1.5-2.2,2.2-5.1,2.6c-24.9,0-84.7,0.7-108.2,0c-2.9,0-5.5-1.1-5.1-2.6c0.7-2.9,9.9-40,10.6-42.9
			C61.6,110.7,63.8,109.6,66.4,109.6z"/>
		<path fill="#DEE0E4" d="M67.5,110.4c20.5,0,58.7,3.3,78.8,3.3c2.6,0,4.8,1.1,5.1,2.2c0.7,2.6,16.1,36.3,16.9,38.9
			c0.4,1.5-2.2,2.2-5.1,2.2c-22,0-84,0.7-105.2,0c-2.6,0-5.1-1.1-5.1-2.2c0.7-2.6,8.8-39.2,9.5-42.2
			C62.7,111.5,64.9,110.4,67.5,110.4z"/>
		<path fill="#D9DCE1" d="M68.6,111.1c18,0,59.8,3.3,77.7,3.3c2.6,0,4.8,1.1,4.8,2.2c0.7,2.2,15.4,35.2,16.1,37.4
			c0.4,1.1-2.2,2.2-4.8,2.2c-19.4,0-83.6,0.4-102.3,0c-2.6,0-5.1-1.1-4.8-2.2c0.4-2.2,7.7-38.9,8.1-41.1
			C63.8,112.2,66,111.1,68.6,111.1z"/>
		<path fill="#D5D8DD" d="M69.7,112.2c15.4,0,61.2,3.7,76.6,3.7c2.6,0,4.4,1.1,4.8,2.2c0.4,1.8,15,34.5,15.4,36.3
			c0.4,1.1-2.2,2.2-4.8,2.2c-16.5,0-83.2,0.4-99,0c-2.6,0-5.1-1.1-4.8-2.2c0.4-1.8,6.6-38.1,7-40C64.9,113.3,66.8,111.8,69.7,112.2z
			"/>
		<path fill="#D1D4DA" d="M70.8,112.9c12.8,0,62.7,4,75.2,4c2.6,0,4.4,1.1,4.8,2.2c0.4,1.5,14.3,33.4,14.7,35.2
			c0.4,1.1-2.2,2.2-4.8,2.2c-13.9,0-82.9,0.4-96.1,0c-2.6,0-5.1-1.1-4.8-2.2c0.4-1.5,5.5-37.4,5.9-39.2
			C66,114,67.9,112.9,70.8,112.9z"/>
		<path fill="#CDD0D7" d="M71.5,113.7c10.3,0,63.8,4,74.1,4c2.6,0,4.4,1.1,4.8,2.2c0.4,1.5,13.9,32.6,14.3,33.7
			c0.4,1.1-2.2,2.2-4.8,2.2c-11,0-82.5,0.4-92.8,0c-2.6,0-5.1-1.1-4.8-2.2c0.4-1.5,4.4-36.7,4.8-38.1
			C67.1,114.8,69,113.7,71.5,113.7z"/>
		<path fill="#C9CCD3" d="M72.6,114.8c7.7,0,65.3,4.4,73,4.4c2.6,0,4.4,1.1,4.8,2.2c0.4,1.1,13.2,31.9,13.6,32.6
			c0.4,1.1-2.2,2.2-4.8,2.2c-8.4,0-81.8,0-89.8,0c-2.6,0-4.8-1.1-4.8-2.2c0.4-1.1,3.3-36.3,3.3-37C68.2,115.5,70.1,114.4,72.6,114.8
			z"/>
		<path fill="#C4C8D0" d="M73.7,115.5c5.1,0,66.7,4.8,71.5,4.8c2.6,0,4.4,1.1,4.4,2.2c0,0.7,12.5,30.8,12.8,31.5
			c0.4,1.1-2.2,2.2-4.4,2.2c-5.5,0-81.4,0-86.5,0c-2.6,0-4.8-1.1-4.4-2.2c0-0.7,2.2-35.6,2.2-36.3C69.3,116.2,71.2,115.1,73.7,115.5
			z"/>
		<path fill="#C0C4CC" d="M74.8,116.2c2.6,0,67.8,4.8,70.4,4.8s4.4,1.1,4.4,2.2c0,0.4,12.1,30.1,12.1,30.1c0.4,1.1-2.2,2.2-4.4,2.2
			c-2.9,0-81,0-83.6,0s-4.8-1.1-4.4-2.2c0-0.4,1.1-34.8,1.1-35.2C70.4,117.3,72.3,116.2,74.8,116.2z"/>
		<path fill="#BCC0C9" d="M75.9,117l69.3,5.1c2.6,0,4,1.1,4.4,2.2l11.4,29c0.4,1.1-1.8,2.2-4.4,2.2H75.9c-2.6,0-4.8-1.1-4.4-2.2
			v-34.1C71.2,118.1,73.4,117,75.9,117z"/>
	</g>
	<g>
		<path fill="#FFFFFF" d="M41.5,76.6c63.8,0,74.8,1.1,138.2,1.1c4.8,0,8.1,1.1,8.8,2.6c2.2,5.1,32.6,43.3,34.8,48.4
			c0.7,1.5-4,2.6-8.8,2.6c-68.6,0.4-136.8,1.5-202.8,0c-4.8,0-9.2-1.1-8.8-2.6c1.8-5.1,27.9-44.7,29.7-49.9
			C33.4,77.7,36.7,76.6,41.5,76.6z"/>
		<path fill="#FBFBFC" d="M43.3,77.4c59.8,0,76.6,1.5,136.4,1.5c4.8,0,8.1,1.1,8.4,2.6c1.8,4.8,31.5,42.5,33.7,47.3
			c0.7,1.5-3.7,2.6-8.4,2.6c-64.5,0.4-136,1.5-198,0c-4.8,0-9.2-1.1-8.4-2.6c1.8-4.8,26-44,27.9-48.8C35.2,78.5,38.5,77.4,43.3,77.4
			z"/>
		<path fill="#F7F7F8" d="M44.8,78.1c55.7,0,78.8,1.8,134.6,1.8c4.8,0,7.7,1.1,8.4,2.6c1.8,4.4,30.8,41.4,32.6,46.2
			c0.7,1.5-3.7,2.6-8.4,2.6c-60.1,0.4-135.3,1.5-192.9,0c-4.8,0-8.8-1.1-8.4-2.6c1.5-4.4,24.2-43.3,26-48
			C36.7,79.2,40,78.1,44.8,78.1z"/>
		<path fill="#F2F3F5" d="M46.2,79.2c51.7,0,81,1.8,132.7,1.8c4.4,0,7.7,1.1,8.4,2.6c1.8,4,29.7,40.7,31.5,44.7
			c0.7,1.5-3.7,2.6-8.4,2.6c-55.7,0.4-134.6,1.1-188.1,0c-4.4,0-8.8-1.1-8.4-2.6c1.5-4,22.7-42.5,24.2-46.9
			C38.5,80.3,41.8,78.8,46.2,79.2z"/>
		<path fill="#EEEFF2" d="M48.1,79.9c47.7,0,82.9,2.2,130.5,2.2c4.4,0,7.7,1.1,8.1,2.6c1.5,4,29,40,30.4,43.6
			c0.7,1.5-3.7,2.6-8.1,2.6c-51.3,0.4-134.2,1.1-183.3,0c-4.4,0-8.8-1.1-8.1-2.6c1.5-4,20.9-42.2,22.4-45.8
			C40,81,43.3,79.9,48.1,79.9z"/>
		<path fill="#EAEBEE" d="M49.5,80.7c43.6,0,85.1,2.6,128.7,2.6c4.4,0,7.7,1.1,8.1,2.6c1.5,3.7,27.9,38.9,29.3,42.5
			c0.7,1.5-3.7,2.6-8.1,2.6c-47.3,0-133.5,0.7-178.6,0c-4.4,0-8.4-1.1-8.1-2.6C22,124.7,40,86.9,41.1,83.2
			C41.8,81.8,45.1,80.7,49.5,80.7z"/>
		<path fill="#E6E7EB" d="M51.4,81.4c39.6,0,87.3,2.6,126.9,2.6c4.4,0,7.3,1.1,8.1,2.6c1.1,3.3,27.1,38.1,28.2,41.1
			c0.7,1.5-3.7,2.6-8.1,2.6c-42.9,0-132.7,0.7-173.8,0c-4.4,0-8.4-1.1-8.1-2.6c1.1-3.3,17.2-40.7,18.3-44
			C43.7,82.5,47,81.4,51.4,81.4z"/>
		<path fill="#E2E3E7" d="M52.8,82.5c35.9,0,89.1,2.9,125,2.9c4.4,0,7.3,1.1,8.1,2.2c1.1,2.9,26,37,27.5,40c0.7,1.5-3.7,2.2-8.1,2.6
			c-38.5,0-132,0.7-169,0c-4.4,0-8.4-1.1-8.1-2.6c1.1-2.9,15.4-40,16.5-42.9C45.1,83.6,48.4,82.1,52.8,82.5z"/>
		<path fill="#DEE0E4" d="M54.3,83.2c31.9,0,91.3,3.3,123.2,3.3c4.4,0,7.3,1.1,7.7,2.2c1.1,2.6,25.3,36.3,26.4,38.9
			c0.7,1.5-3.7,2.2-7.7,2.2c-34.5,0-131.3,0.7-164.3,0c-4.4,0-8.1-1.1-7.7-2.2C33,125,45.9,88.4,46.6,85.4
			C47,84.3,50.3,83.2,54.3,83.2z"/>
		<path fill="#D9DCE1" d="M56.1,84c27.9,0,93.5,3.3,121.4,3.3c4,0,7.3,1.1,7.7,2.2c0.7,2.2,24.2,35.2,25.3,37.4
			c0.7,1.5-3.3,2.2-7.7,2.2c-30.1,0-130.5,0.4-159.5,0c-4,0-8.1-1.1-7.7-2.2c0.7-2.2,12.1-38.9,12.8-41.1C48.4,85.1,51.7,84,56.1,84
			z"/>
		<path fill="#D5D8DD" d="M57.6,84.7c23.8,0,95.3,3.7,119.5,3.7c4,0,7,1.1,7.7,2.2c0.7,1.8,23.5,34.5,24.2,36.3
			c0.7,1.1-3.3,2.2-7.7,2.2c-25.7,0-129.8,0.4-154.4,0c-4,0-8.1-1.1-7.7-2.2c0.7-1.8,10.3-38.1,11-40C50.3,85.8,53.6,84.7,57.6,84.7
			z"/>
		<path fill="#D1D4DA" d="M59.4,85.8c19.8,0,97.5,4,117.3,4c4,0,7,1.1,7.3,2.2c0.7,1.5,22.4,33.4,23.1,35.2c0.7,1.1-3.3,2.2-7.3,2.2
			c-21.6,0-129.1,0.4-149.6,0c-4,0-8.1-1.1-7.3-2.2c0.7-1.5,8.4-37.4,9.2-39.2C52.1,86.9,55,85.4,59.4,85.8z"/>
		<path fill="#CDD0D7" d="M60.9,86.5c15.8,0,99.7,4,115.5,4c4,0,7,1.1,7.3,2.2c0.4,1.5,21.6,32.6,22,33.7c0.7,1.1-3.3,2.2-7.3,2.2
			c-17.2,0-128.3,0.4-144.8,0c-4,0-7.7-1.1-7.3-2.2c0.4-1.5,7-36.7,7.3-38.1C53.6,87.6,56.9,86.5,60.9,86.5z"/>
		<path fill="#C9CCD3" d="M62.4,87.3c12.1,0,101.9,4.4,113.7,4.4c4,0,6.6,1.1,7.3,2.2c0.4,1.1,20.5,31.9,20.9,32.6
			c0.7,1.1-3.3,2.2-7.3,2.2c-12.8,0-127.6,0-140.1,0c-4,0-7.7-1.1-7.3-2.2s5.1-36.3,5.5-37C55.4,88.4,58.7,87.3,62.4,87.3z"/>
		<path fill="#C4C8D0" d="M64.2,88.4c8.1,0,103.8,4.8,111.8,4.8c4,0,6.6,1.1,7,2.2c0.4,0.7,19.8,30.8,19.8,31.5
			c0.7,1.1-3.3,2.2-7,2.2c-8.4,0-127.2,0-135.3,0c-4,0-7.7-1.1-7-2.2c0.4-0.7,3.3-35.6,3.7-36.3C56.9,89.1,60.2,88,64.2,88.4z"/>
		<path fill="#C0C4CC" d="M65.7,89.1c4,0,106,4.8,110,4.8c3.7,0,6.6,1.1,7,2.2c0,0.4,18.7,30.1,19.1,30.1c0.7,1.1-3.3,2.2-7,2.2
			c-4.4,0-126.5,0-130.5,0c-4,0-7.3-1.1-7-2.2c0-0.4,1.5-34.8,1.8-35.2C58.7,89.8,62,88.7,65.7,89.1z"/>
		<path fill="#BCC0C9" d="M67.5,89.8L175.7,95c3.7,0,6.6,1.1,7,2.2l17.6,29c0.7,1.1-3.3,2.2-7,2.2H67.5c-3.7,0-7.3-1.1-7-2.2
			L60.2,92C60.5,90.9,63.5,89.8,67.5,89.8z"/>
	</g>
	
		<linearGradient id="SVGID_1_" gradientUnits="userSpaceOnUse" x1="89.4623" y1="143.816" x2="89.4623" y2="156.0192" gradientTransform="matrix(3.6667 0 0 -3.6667 -213.3333 593.3334)">
		<stop  offset="0" style="stop-color:#F2F2F5"/>
		<stop  offset="1" style="stop-color:#FFFFFF"/>
	</linearGradient>
	<path fill="url(#SVGID_1_)" d="M27.5,72.2c58.3-2.6,116.2-4.8,174.5-7.3c4,0,7-2.6,5.1-5.1c-4.4-6.6-9.2-12.5-13.6-18.7
		c-48,0-96.1,0-144.1,0c-6.6,0-7.7-1.1-11.7,4.4C32.7,52.8,27.5,60.1,22,67.1C20.6,69.7,23.1,72.2,27.5,72.2z"/>
	
		<linearGradient id="SVGID_2_" gradientUnits="userSpaceOnUse" x1="103.7923" y1="136.3647" x2="114.6779" y2="136.3647" gradientTransform="matrix(3.6667 0 0 -3.6667 -213.3333 593.3334)">
		<stop  offset="0" style="stop-color:#3A5A69"/>
		<stop  offset="0.56" style="stop-color:#7F8F9A"/>
		<stop  offset="0.72" style="stop-color:#CED5DA"/>
		<stop  offset="0.84" style="stop-color:#CAD0D5"/>
		<stop  offset="1" style="stop-color:#A0ADB4"/>
	</linearGradient>
	<path fill="url(#SVGID_2_)" d="M197.7,125h1.8l0,0c5.5-0.7,8.8-4,8.1-8.1V61.2c-0.7,3.3-4.4,4-9.9,4c-56.1,0-112.6,0.4-168.7,0.4
		c-4.4,0-8.1,3.7-8.1,8.1v43.6c0,4.4,3.7,8.1,8.1,8.1C85.1,125,141.6,125,197.7,125z"/>
	
		<linearGradient id="SVGID_3_" gradientUnits="userSpaceOnUse" x1="103.7923" y1="136.3647" x2="114.6779" y2="136.3647" gradientTransform="matrix(3.6667 0 0 -3.6667 -213.3333 593.3334)">
		<stop  offset="0" style="stop-color:#3A5A69"/>
		<stop  offset="0.56" style="stop-color:#7F8F9A"/>
		<stop  offset="0.72" style="stop-color:#CED5DA"/>
		<stop  offset="0.84" style="stop-color:#CAD0D5"/>
		<stop  offset="1" style="stop-color:#A0ADB4"/>
	</linearGradient>
	<path fill="url(#SVGID_3_)" d="M197.7,125h1.8l0,0c5.5-0.7,8.8-4,8.1-8.1V61.2c-0.7,3.3-4.4,4-9.9,4c-56.1,0-112.6,0.4-168.7,0.4
		c-4.4,0-8.1,3.7-8.1,8.1v43.6c0,4.4,3.7,8.1,8.1,8.1C85.1,125,141.6,125,197.7,125z"/>
	
		<linearGradient id="SVGID_4_" gradientUnits="userSpaceOnUse" x1="99.8546" y1="141.1099" x2="107.8525" y2="141.1099" gradientTransform="matrix(3.6667 0 0 -3.6667 -213.3333 593.3334)">
		<stop  offset="0" style="stop-color:#3A5A69"/>
		<stop  offset="0.56" style="stop-color:#7F8F9A"/>
		<stop  offset="0.72" style="stop-color:#CED5DA"/>
		<stop  offset="0.84" style="stop-color:#CAD0D5"/>
		<stop  offset="1" style="stop-color:#A0ADB4"/>
	</linearGradient>
	<path fill="url(#SVGID_4_)" d="M182.3,62v-5.5c-1.5,2.2-5.1,3.7-9.9,3.7c-56.5,0-88,0.4-144.5,0.4c-2.9,0-5.9,2.6-7,5.1v0.7
		c0,21.6,0,49.1,0,7c0-4.4,3.7-8.1,8.1-8.1c48.4,0,96.8-0.4,145.2-0.4C176.8,64.9,181.5,64.9,182.3,62z"/>
	<g>
		<path fill="#446676" d="M29,125c-4.4,0-8.1-3.7-8.1-8.1v-48c0-4.4,3.7-8.1,8.1-8.1C204.3,65.3,214.2,129.8,29,125z"/>
		<path fill="#476979" d="M28.6,124.7c-4,0-7.7-3.7-7.7-8.1V68.9c0-4.4,3.3-8.1,7.7-8.1C193.3,65.3,202.4,129.1,28.6,124.7z"/>
		<path fill="#4B6B7B" d="M28.3,124.3c-4,0-7-3.7-7-7.7V69.3c0-4.4,3.3-8.1,7-7.7C181.9,65.6,190.7,128.3,28.3,124.3z"/>
		<path fill="#4E6E7E" d="M27.9,123.9c-3.7,0-6.6-3.3-6.6-7.7V69.7c0-4.4,2.9-7.7,6.6-7.7C170.9,65.6,179,127.6,27.9,123.9z"/>
		<path fill="#517080" d="M27.9,123.2c-3.3,0-6.2-3.3-6.2-7.7V70c0-4,2.9-7.7,6.2-7.7C159.9,66,167.2,126.9,27.9,123.2z"/>
		<path fill="#557383" d="M27.5,122.8c-3.3,0-5.9-3.3-5.9-7.3V70.4c0-4,2.6-7.7,5.9-7.3C148.9,66,155.5,126.1,27.5,122.8z"/>
		<path fill="#587585" d="M27.2,122.5c-2.9,0-5.5-3.3-5.5-7.3V70.8c0-4,2.6-7.3,5.5-7.3C137.5,66,144.1,125.4,27.2,122.5z"/>
		<path fill="#5B7888" d="M26.8,122.1c-2.6,0-4.8-3.3-4.8-7.3V71.1c0-4,2.2-7.3,4.8-7.3C126.5,66.4,132.4,124.7,26.8,122.1z"/>
		<path fill="#5F7A8A" d="M26.4,121.7c-2.6,0-4.4-3.3-4.4-7.3V71.5c0-4,2.2-7.3,4.4-7.3C115.5,66.4,120.7,123.9,26.4,121.7z"/>
		<path fill="#627D8D" d="M26.4,121.4c-2.2,0-4-3.3-4-7V71.5c0-4,1.8-7,4-7C104.5,66.7,108.9,123.2,26.4,121.4z"/>
		<path fill="#657F8F" d="M26.1,121c-1.8,0-3.7-3.3-3.7-7V71.9c0-3.7,1.5-7,3.7-7C93.2,66.7,97.2,122.5,26.1,121z"/>
		<path fill="#688292" d="M25.7,120.3c-1.8,0-3.3-2.9-3.3-7V72.2c0-3.7,1.5-7,3.3-7C82.2,66.7,85.5,121.7,25.7,120.3z"/>
		<path fill="#6C8494" d="M25.3,119.9c-1.5,0-2.6-2.9-2.6-6.6V72.6c0-3.7,1.1-6.6,2.6-6.6C71.2,67.1,73.7,121,25.3,119.9z"/>
		<path fill="#6F8797" d="M25.3,119.5c-1.1,0-2.2-2.9-2.2-6.6V73c0-3.7,1.1-6.6,2.2-6.6C60.2,67.1,62,120.3,25.3,119.5z"/>
		<path fill="#728999" d="M25,119.2c-1.1,0-1.8-2.9-1.8-6.6V73.3c0-3.7,0.7-6.6,1.8-6.6C48.8,67.1,50.3,119.5,25,119.2z"/>
		<path fill="#768C9C" d="M24.6,118.8c-0.7,0-1.5-2.9-1.5-6.6V73.7c0-3.7,0.7-6.6,1.5-6.6C37.8,67.5,38.5,118.8,24.6,118.8z"/>
		<path fill="#798E9E" d="M24.2,118.4c-0.4,0-1.1-2.9-1.1-6.2V73.7c0.4-3.3,0.7-6.2,1.1-6.2C26.8,67.5,26.8,118.4,24.2,118.4z"/>
	</g>
	
		<linearGradient id="SVGID_5_" gradientUnits="userSpaceOnUse" x1="77.2712" y1="152.5694" x2="70.19" y2="157.3457" gradientTransform="matrix(3.6667 0 0 -3.6667 -213.3333 593.3334)">
		<stop  offset="0" style="stop-color:#5C7481"/>
		<stop  offset="0.56" style="stop-color:#7F8F9A"/>
		<stop  offset="0.72" style="stop-color:#CED5DA"/>
		<stop  offset="0.84" style="stop-color:#CAD0D5"/>
		<stop  offset="1" style="stop-color:#A0ADB4"/>
	</linearGradient>
	<path fill="url(#SVGID_5_)" d="M182.3,57.2c0-0.7,0-1.1-0.4-1.8c-3.3-7-6.2-12.1-9.2-18.7c-48.4,0-75.9,0-124.3,0
		c-6.6,0-7.7-1.1-11.7,4.4c-5.1,7.3-9.9,15.8-15,23.1c-0.7,0.7-1.1,2.2-1.1,2.9c1.5-2.6,4-5.9,7-5.9c56.5,0,88-0.4,144.5-0.4
		C177.9,60.5,181.5,59.8,182.3,57.2z"/>
	<polygon fill="#1F3940" points="50.6,86.2 168.3,86.2 164.7,89.1 164.3,125.4 50.6,125.4 	"/>
	<path fill="#FFFFFF" d="M201.3,93.1h1.1l0,0c2.9-0.4,4.8-2.2,4.4-4.4V60.9c-0.4,1.8-2.6,2.9-5.5,2.9c-30.8,0-126.9,0-157.7,0
		c-2.6,0-4.4,1.8-4.4,4.4v20.2c0,2.6,1.8,4.4,4.4,4.4C74.1,93.1,170.5,93.1,201.3,93.1z"/>
	<path fill="#C1CBD7" d="M202.1,94.6h1.1l0,0c2.9-0.4,4.8-2.2,4.4-4.4V62.3c-0.4,1.8-2.6,2.9-5.5,2.9c-30.4,0-127.2,0-158,0
		c-2.6,0-4.4,1.8-4.4,4.4v20.2c0,2.6,1.8,4.4,4.4,4.4C74.8,94.6,171.6,94.6,202.1,94.6z"/>
	<path fill="#1F3940" d="M202.1,94.2h1.1l0,0c2.9-0.4,4.8-2.2,4.4-4.4V62c-0.4,1.8-2.6,2.9-5.5,2.9c-30.4,0-127.2,0-158,0
		c-2.6,0-4.4,1.8-4.4,4.4v20.2c0,2.6,1.8,4.4,4.4,4.4C74.8,94.2,171.6,94.2,202.1,94.2z"/>
	
		<linearGradient id="SVGID_6_" gradientUnits="userSpaceOnUse" x1="115.6361" y1="140.7147" x2="108.7332" y2="140.7147" gradientTransform="matrix(3.6667 0 0 -3.6667 -213.3333 593.3334)">
		<stop  offset="0" style="stop-color:#E2E2E7"/>
		<stop  offset="0.37" style="stop-color:#FBFAFA"/>
		<stop  offset="0.59" style="stop-color:#F6F7F7"/>
		<stop  offset="0.79" style="stop-color:#E2E2E7"/>
		<stop  offset="1" style="stop-color:#E2E2E7"/>
	</linearGradient>
	<path fill="url(#SVGID_6_)" d="M202.1,93.5h1.1l0,0c2.9-0.4,4.8-2.2,4.4-4.4V61.2c-0.4,1.8-2.6,2.9-5.5,2.9c-30.4,0-127.2,0-158,0
		c-2.6,0-4.4,1.8-4.4,4.4v20.2c0,2.6,1.8,4.4,4.4,4.4C74.8,93.5,171.6,93.5,202.1,93.5z"/>
	<rect x="53.6" y="86.2" fill="#99A8B8" width="114.8" height="38.9"/>
	<rect x="53.6" y="86.2" fill="#FFFFFF" width="114.8" height="7.3"/>
	<polygon fill="#ADB2BA" points="50.6,93.5 164.7,93.5 164.7,89.1 168.3,86.2 50.6,86.2 	"/>
	<rect x="53.6" y="88.7" fill="#446676" width="111.1" height="36.7"/>
	<rect x="55" y="100.1" fill="#1F3940" width="108.2" height="24.9"/>
	
		<linearGradient id="SVGID_7_" gradientUnits="userSpaceOnUse" x1="87.9427" y1="122.5878" x2="87.9427" y2="130.6712" gradientTransform="matrix(3.6667 0 0 -3.6667 -213.3333 593.3334)">
		<stop  offset="0" style="stop-color:#788995"/>
		<stop  offset="0.55" style="stop-color:#325564"/>
		<stop  offset="1" style="stop-color:#1C2F37"/>
	</linearGradient>
	<polygon fill="url(#SVGID_7_)" points="174.9,145.9 157.7,114.8 60.2,114.8 43.3,145.9 	"/>
	
		<linearGradient id="SVGID_8_" gradientUnits="userSpaceOnUse" x1="87.8927" y1="120.8929" x2="87.8927" y2="122.1382" gradientTransform="matrix(3.6667 0 0 -3.6667 -213.3333 593.3334)">
		<stop  offset="0" style="stop-color:#3A5A69"/>
		<stop  offset="1" style="stop-color:#CED4D9"/>
	</linearGradient>
	<rect x="43.3" y="145.6" fill="url(#SVGID_8_)" width="131.3" height="3.3"/>
	<g>
		
			<linearGradient id="SVGID_9_" gradientUnits="userSpaceOnUse" x1="87.6164" y1="122.7041" x2="87.6164" y2="130.4787" gradientTransform="matrix(3.6667 0 0 -3.6667 -213.3333 593.3334)">
			<stop  offset="0" style="stop-color:#788995"/>
			<stop  offset="0.55" style="stop-color:#325564"/>
			<stop  offset="1" style="stop-color:#1C2F37"/>
		</linearGradient>
		<path fill="url(#SVGID_9_)" d="M75.9,114.8c-0.4,1.8-0.7,3.7-1.1,5.5c-2.2,8.4-4.4,16.9-7.3,25.3h80.7c1.1-6.6-3.3-16.5-5.1-25.3
			c-0.4-1.8-0.7-3.7-1.1-5.5H75.9z"/>
		
			<linearGradient id="SVGID_10_" gradientUnits="userSpaceOnUse" x1="87.5547" y1="122.7041" x2="87.5547" y2="130.4787" gradientTransform="matrix(3.6667 0 0 -3.6667 -213.3333 593.3334)">
			<stop  offset="0" style="stop-color:#738591"/>
			<stop  offset="0.55" style="stop-color:#325463"/>
			<stop  offset="1" style="stop-color:#1D3139"/>
		</linearGradient>
		<path fill="url(#SVGID_10_)" d="M75.6,114.8c-0.4,1.8-0.7,3.7-1.1,5.5c-2.2,8.4-4.4,16.9-7.3,25.3h81c0.7-6.6-3.3-16.5-5.5-25.3
			c-0.4-1.8-0.7-3.7-1.1-5.5H75.6z"/>
		
			<linearGradient id="SVGID_11_" gradientUnits="userSpaceOnUse" x1="87.5538" y1="122.7041" x2="87.5538" y2="130.4787" gradientTransform="matrix(3.6667 0 0 -3.6667 -213.3333 593.3334)">
			<stop  offset="0" style="stop-color:#6E818C"/>
			<stop  offset="0.55" style="stop-color:#315362"/>
			<stop  offset="1" style="stop-color:#1E323A"/>
		</linearGradient>
		<path fill="url(#SVGID_11_)" d="M75.6,114.8c-0.4,1.8-0.7,3.7-1.1,5.5c-2.2,8.4-4.4,16.9-7.3,25.3h81c0.7-6.6-3.7-16.5-5.5-25.3
			c-0.4-1.8-0.7-3.7-1.1-5.5H75.6z"/>
		
			<linearGradient id="SVGID_12_" gradientUnits="userSpaceOnUse" x1="87.4959" y1="122.7041" x2="87.4959" y2="130.4787" gradientTransform="matrix(3.6667 0 0 -3.6667 -213.3333 593.3334)">
			<stop  offset="0" style="stop-color:#6A7D88"/>
			<stop  offset="0.55" style="stop-color:#315260"/>
			<stop  offset="1" style="stop-color:#1F343C"/>
		</linearGradient>
		<path fill="url(#SVGID_12_)" d="M75.2,114.8c-0.4,1.8-0.7,3.7-1.1,5.5c-2.2,8.4-4.4,16.9-7.3,25.3h81.4c0.4-7-3.7-16.5-5.9-25.3
			c-0.4-1.8-0.7-3.7-1.1-5.5H75.2z"/>
		
			<linearGradient id="SVGID_13_" gradientUnits="userSpaceOnUse" x1="87.4927" y1="122.7041" x2="87.4927" y2="130.4787" gradientTransform="matrix(3.6667 0 0 -3.6667 -213.3333 593.3334)">
			<stop  offset="0" style="stop-color:#657984"/>
			<stop  offset="0.55" style="stop-color:#31525F"/>
			<stop  offset="1" style="stop-color:#20353D"/>
		</linearGradient>
		<path fill="url(#SVGID_13_)" d="M75.2,114.8c-0.4,1.8-0.7,3.7-1.1,5.5c-2.2,8.4-4.4,16.9-7.3,25.3h81.4c0-7-4-16.5-5.9-25.3
			c-0.4-1.8-0.7-3.7-1.1-5.5H75.2z"/>
		
			<linearGradient id="SVGID_14_" gradientUnits="userSpaceOnUse" x1="87.5427" y1="122.7041" x2="87.5427" y2="130.4787" gradientTransform="matrix(3.6667 0 0 -3.6667 -213.3333 593.3334)">
			<stop  offset="0" style="stop-color:#60747F"/>
			<stop  offset="0.55" style="stop-color:#30515E"/>
			<stop  offset="1" style="stop-color:#21373F"/>
		</linearGradient>
		<path fill="url(#SVGID_14_)" d="M75.2,114.8c-0.4,1.8-0.7,3.7-1.1,5.5c-2.2,8.4-4.4,16.9-7.3,25.3h81.8c0-7-4-16.5-6.2-25.3
			c-0.4-1.8-0.7-3.7-1.1-5.5H75.2z"/>
		
			<linearGradient id="SVGID_15_" gradientUnits="userSpaceOnUse" x1="87.4427" y1="122.7041" x2="87.4427" y2="130.4787" gradientTransform="matrix(3.6667 0 0 -3.6667 -213.3333 593.3334)">
			<stop  offset="0" style="stop-color:#5C707B"/>
			<stop  offset="0.55" style="stop-color:#30505D"/>
			<stop  offset="1" style="stop-color:#223840"/>
		</linearGradient>
		<path fill="url(#SVGID_15_)" d="M74.8,114.8c-0.4,1.8-0.7,3.7-1.1,5.5c-2.2,8.4-4.4,16.9-7.3,25.3h81.8
			c-0.4-7.3-4.4-16.5-6.2-25.3c-0.4-1.8-0.7-3.7-1.1-5.5H74.8z"/>
		
			<linearGradient id="SVGID_16_" gradientUnits="userSpaceOnUse" x1="87.4927" y1="122.7041" x2="87.4927" y2="130.4787" gradientTransform="matrix(3.6667 0 0 -3.6667 -213.3333 593.3334)">
			<stop  offset="0" style="stop-color:#576C77"/>
			<stop  offset="0.55" style="stop-color:#2F4F5B"/>
			<stop  offset="1" style="stop-color:#233A42"/>
		</linearGradient>
		<path fill="url(#SVGID_16_)" d="M74.8,114.8c-0.4,1.8-0.7,3.7-1.1,5.5c-2.2,8.4-4.4,16.9-7.3,25.3h82.1
			c-0.7-7.3-4.4-16.5-6.6-25.3c-0.4-1.8-0.7-3.7-1.1-5.5H74.8z"/>
		
			<linearGradient id="SVGID_17_" gradientUnits="userSpaceOnUse" x1="87.3927" y1="122.7041" x2="87.3927" y2="130.4787" gradientTransform="matrix(3.6667 0 0 -3.6667 -213.3333 593.3334)">
			<stop  offset="0" style="stop-color:#526873"/>
			<stop  offset="0.55" style="stop-color:#2F4E5A"/>
			<stop  offset="1" style="stop-color:#243B44"/>
		</linearGradient>
		<path fill="url(#SVGID_17_)" d="M74.5,114.8c-0.4,1.8-0.7,3.7-1.1,5.5c-2.2,8.4-4.4,16.9-7.3,25.3h82.1
			c-0.7-7.3-4.8-16.5-6.6-25.3c-0.4-1.8-0.7-3.7-1.1-5.5H74.5z"/>
		
			<linearGradient id="SVGID_18_" gradientUnits="userSpaceOnUse" x1="87.4427" y1="122.7041" x2="87.4427" y2="130.4787" gradientTransform="matrix(3.6667 0 0 -3.6667 -213.3333 593.3334)">
			<stop  offset="0" style="stop-color:#4D646E"/>
			<stop  offset="0.55" style="stop-color:#2F4D59"/>
			<stop  offset="1" style="stop-color:#253D45"/>
		</linearGradient>
		<path fill="url(#SVGID_18_)" d="M74.5,114.8c-0.4,1.8-0.7,3.7-1.1,5.5c-2.2,8.4-4.4,16.9-7.3,25.3h82.5c-1.1-7.7-4.8-16.5-7-25.3
			c-0.4-1.8-0.7-3.7-1.1-5.5H74.5z"/>
		
			<linearGradient id="SVGID_19_" gradientUnits="userSpaceOnUse" x1="87.4427" y1="122.7041" x2="87.4427" y2="130.4787" gradientTransform="matrix(3.6667 0 0 -3.6667 -213.3333 593.3334)">
			<stop  offset="0" style="stop-color:#49606A"/>
			<stop  offset="0.55" style="stop-color:#2E4C58"/>
			<stop  offset="1" style="stop-color:#263E47"/>
		</linearGradient>
		<path fill="url(#SVGID_19_)" d="M74.5,114.8c-0.4,1.8-0.7,3.7-1.1,5.5c-2.2,8.4-4.4,16.9-7.3,25.3h82.5c-1.5-7.7-5.1-16.5-7-25.3
			c-0.4-1.8-0.7-3.7-1.1-5.5H74.5z"/>
		
			<linearGradient id="SVGID_20_" gradientUnits="userSpaceOnUse" x1="87.3927" y1="122.7041" x2="87.3927" y2="130.4787" gradientTransform="matrix(3.6667 0 0 -3.6667 -213.3333 593.3334)">
			<stop  offset="0" style="stop-color:#445C66"/>
			<stop  offset="0.55" style="stop-color:#2E4B56"/>
			<stop  offset="1" style="stop-color:#274048"/>
		</linearGradient>
		<path fill="url(#SVGID_20_)" d="M74.1,114.8c-0.4,1.8-0.7,3.7-1.1,5.5c-2.2,8.4-4.4,16.9-7.3,25.3h82.9
			c-1.5-7.7-5.1-16.5-7.3-25.3c-0.4-1.8-0.7-3.7-1.1-5.5H74.1z"/>
		
			<linearGradient id="SVGID_21_" gradientUnits="userSpaceOnUse" x1="87.3927" y1="122.7041" x2="87.3927" y2="130.4787" gradientTransform="matrix(3.6667 0 0 -3.6667 -213.3333 593.3334)">
			<stop  offset="0" style="stop-color:#3F5861"/>
			<stop  offset="0.55" style="stop-color:#2D4B55"/>
			<stop  offset="1" style="stop-color:#28414A"/>
		</linearGradient>
		<path fill="url(#SVGID_21_)" d="M74.1,114.8c-0.4,1.8-0.7,3.7-1.1,5.5c-2.2,8.4-4.4,16.9-7.3,25.3h82.9
			c-1.8-8.1-5.5-16.5-7.3-25.3c-0.4-1.8-0.7-3.7-1.1-5.5H74.1z"/>
		
			<linearGradient id="SVGID_22_" gradientUnits="userSpaceOnUse" x1="87.3427" y1="122.7041" x2="87.3427" y2="130.4787" gradientTransform="matrix(3.6667 0 0 -3.6667 -213.3333 593.3334)">
			<stop  offset="0" style="stop-color:#3A535D"/>
			<stop  offset="0.55" style="stop-color:#2D4A54"/>
			<stop  offset="1" style="stop-color:#29434B"/>
		</linearGradient>
		<path fill="url(#SVGID_22_)" d="M73.7,114.8c-0.4,1.8-0.7,3.7-1.1,5.5c-2.2,8.4-4.4,16.9-7.3,25.3h83.2
			c-2.2-8.1-5.5-16.5-7.7-25.3c-0.4-1.8-0.7-3.7-1.1-5.5H73.7z"/>
		
			<linearGradient id="SVGID_23_" gradientUnits="userSpaceOnUse" x1="87.3427" y1="122.7041" x2="87.3427" y2="130.4787" gradientTransform="matrix(3.6667 0 0 -3.6667 -213.3333 593.3334)">
			<stop  offset="0" style="stop-color:#354F59"/>
			<stop  offset="0.55" style="stop-color:#2D4953"/>
			<stop  offset="1" style="stop-color:#2A444D"/>
		</linearGradient>
		<path fill="url(#SVGID_23_)" d="M73.7,114.8c-0.4,1.8-0.7,3.7-1.1,5.5c-2.2,8.4-4.4,16.9-7.3,25.3h83.2
			c-2.6-8.1-5.9-16.5-7.7-25.3c-0.4-1.8-0.7-3.7-1.1-5.5H73.7z"/>
		
			<linearGradient id="SVGID_24_" gradientUnits="userSpaceOnUse" x1="87.3927" y1="122.7041" x2="87.3927" y2="130.4787" gradientTransform="matrix(3.6667 0 0 -3.6667 -213.3333 593.3334)">
			<stop  offset="0" style="stop-color:#314B54"/>
			<stop  offset="0.55" style="stop-color:#2C4851"/>
			<stop  offset="1" style="stop-color:#2B464E"/>
		</linearGradient>
		<path fill="url(#SVGID_24_)" d="M73.7,114.8c-0.4,1.8-0.7,3.7-1.1,5.5c-2.2,8.4-4.4,16.9-7.3,25.3h83.6
			c-2.6-8.4-5.9-16.5-8.1-25.3c-0.4-1.8-0.7-3.7-1.1-5.5H73.7z"/>
		<path fill="#2C4750" d="M73.4,114.8c-0.4,1.8-0.7,3.7-1.1,5.5c-2.2,8.4-4.4,16.9-7.3,25.3h83.6c-2.9-8.4-6.2-16.9-8.1-25.3
			c-0.4-1.8-0.7-3.7-1.1-5.5H73.4z"/>
	</g>
	
		<linearGradient id="SVGID_25_" gradientUnits="userSpaceOnUse" x1="87.3427" y1="124.6416" x2="87.3427" y2="134.0506" gradientTransform="matrix(3.6667 0 0 -3.6667 -213.3333 593.3334)">
		<stop  offset="0" style="stop-color:#F9F9F8"/>
		<stop  offset="0.25" style="stop-color:#F9F9F8"/>
		<stop  offset="0.83" style="stop-color:#676F70"/>
		<stop  offset="1" style="stop-color:#2E3C40"/>
	</linearGradient>
	<path fill="url(#SVGID_25_)" d="M106.4,100.8H73c0.7,6.6,0.7,13.2-0.7,19.4c-2.6,10.6-5.5,20.5-8.8,30.8h42.9h44
		c-3.3-10.6-7.3-20.5-9.9-30.8c-1.5-6.2-1.8-12.8-0.7-19.4L106.4,100.8L106.4,100.8z"/>
	
		<linearGradient id="SVGID_26_" gradientUnits="userSpaceOnUse" x1="87.2927" y1="120.4105" x2="87.2927" y2="120.6653" gradientTransform="matrix(3.6667 0 0 -3.6667 -213.3333 593.3334)">
		<stop  offset="0" style="stop-color:#F9F9F8"/>
		<stop  offset="1" style="stop-color:#808382"/>
	</linearGradient>
	<rect x="63.5" y="151.1" fill="url(#SVGID_26_)" width="86.5" height="0.7"/>
	<polygon fill="#DBDDE4" points="69.3,35.9 72.3,34.1 146,34.1 148.5,35.9 148.5,45.1 69.3,45.1 	"/>
	
		<linearGradient id="SVGID_27_" gradientUnits="userSpaceOnUse" x1="87.9427" y1="152.1392" x2="87.9427" y2="148.6239" gradientTransform="matrix(3.6667 0 0 -3.6667 -213.3333 593.3334)">
		<stop  offset="0" style="stop-color:#788995"/>
		<stop  offset="0.55" style="stop-color:#325564"/>
		<stop  offset="1" style="stop-color:#1C2F37"/>
	</linearGradient>
	<rect x="71.5" y="35.9" fill="url(#SVGID_27_)" width="75.2" height="9.2"/>
	
		<linearGradient id="SVGID_28_" gradientUnits="userSpaceOnUse" x1="80.3565" y1="161.8158" x2="98.7306" y2="145.8434" gradientTransform="matrix(3.6667 0 0 -3.6667 -213.3333 593.3334)">
		<stop  offset="0" style="stop-color:#D5D4D3"/>
		<stop  offset="1" style="stop-color:#FFFFFF"/>
	</linearGradient>
	<path fill="url(#SVGID_28_)" d="M86.2,3.3c9.2,0,18.3,0,27.5,0h29.7l0.7,41.4c-11.7,0-23.5,0-34.8,0c-11.7,0-23.5,0-34.8,0
		c0.4-5.5,0.7-11,1.1-16.1c0.4-5.1,0.7-10.3,1.1-15.4C76.3,7.7,81.1,3.3,86.2,3.3L86.2,3.3z M95,15.8c-2.2,0-4.4,1.8-4.4,4.4
		c0,1.1,0,2.2,0,2.9c0,2.6,1.8,4.4,4.4,4.4c4.8,0,9.5,0,14.7,0c4.8,0,9.5,0,14.7,0c2.6,0,4.4-2.2,4.4-4.4c0-1.1,0-2.2,0-2.9
		c0-2.6-2.2-4.4-4.4-4.4c-4.8,0-9.5,0-14.3,0C104.2,15.8,99.4,15.8,95,15.8z"/>
	
		<linearGradient id="SVGID_29_" gradientUnits="userSpaceOnUse" x1="93.6103" y1="152.24" x2="76.0901" y2="161.9516" gradientTransform="matrix(3.6667 0 0 -3.6667 -213.3333 593.3334)">
		<stop  offset="0" style="stop-color:#D5D4D3"/>
		<stop  offset="1" style="stop-color:#FFFFFF"/>
	</linearGradient>
	<path fill="url(#SVGID_29_)" d="M85.8,2.6c9.2,0,18.3,0,27.5,0s20.9,0,30.1,0c0,0.4,0,0.7,0,1.1c-9.2,0-20.5,0-29.7,0
		c-9.2,0-18.3,0-27.1,0c-5.1,0-9.9,4.4-10.3,9.9c-0.4,4.8-0.7,9.9-1.1,14.7c-0.4,5.1-0.7,10.3-1.1,15.8h-0.4
		c0.4-5.5,0.7-11,1.1-16.1c0.4-5.1,0.7-10.3,1.1-15.4C75.9,6.6,80.7,2.6,85.8,2.6L85.8,2.6z M126.9,17.6c0,0.4,0.4,1.1,0.4,1.5
		c0,1.1,0,2.2,0,2.9c0,2.6-1.8,4.4-4.4,4.4c-4.8,0-9.5,0-14.7,0c-4.8,0-9.5,0-14.7,0c-1.5,0-2.9-0.7-3.7-2.2c0.4,1.8,2.2,2.9,4,2.9
		c4.8,0,9.5,0,14.7,0c4.8,0,9.5,0,14.7,0c2.6,0,4.4-2.2,4.4-4.4c0-1.1,0-2.2,0-2.9C127.6,19.1,127.3,18.3,126.9,17.6z"/>
	
		<linearGradient id="SVGID_30_" gradientUnits="userSpaceOnUse" x1="83.8888" y1="156.7257" x2="94.2319" y2="141.9542" gradientTransform="matrix(3.6667 0 0 -3.6667 -213.3333 593.3334)">
		<stop  offset="0" style="stop-color:#1C2F37"/>
		<stop  offset="1" style="stop-color:#FFFFFF"/>
	</linearGradient>
	<path fill="url(#SVGID_30_)" d="M74.1,35.6c11.7,0,23.5,0,35.2,0s23.5,0,35.2,0c0.4,2.9,0.4,6.2,0.7,9.2c-11.7,0-23.8,0-35.6,0
		s-23.8,0-35.6,0C73.4,41.4,73.7,38.5,74.1,35.6z"/>
	<path fill="#808688" d="M86.2,2.9c9.2,0,18.3,0,27.5,0c9.2,0,20.2,0,29.3,0v0.4h-29.3C104.5,3.3,95.4,3.3,86.2,2.9
		c-5.1,0.4-9.9,4.8-10.3,10.3c-0.4,5.1-0.7,10.3-1.1,15.4l-1.1,15.8l0,0c0.4-5.5,0.7-11,1.1-16.1c0.4-5.1,0.7-10.3,1.1-15.4
		C76.3,7.3,81.1,2.9,86.2,2.9L86.2,2.9z M127.6,19.1c0,0.4,0,0.4,0,0.7c0,1.1,0,2.2,0,2.9c0,2.6-1.8,4.4-4.4,4.4
		c-4.8,0-9.5,0-14.7,0c-4.8,0-9.5,0-14.7,0c-1.8,0-3.7-1.5-4-2.9c0.4,1.8,2.2,3.3,4,3.3c4.8,0,9.5,0,14.7,0c4.8,0,9.5,0,14.7,0
		c2.6,0,4.4-2.2,4.4-4.4c0-1.1,0-2.2,0-2.9C127.6,19.8,127.6,19.4,127.6,19.1z"/>
	
		<linearGradient id="SVGID_31_" gradientUnits="userSpaceOnUse" x1="63.0764" y1="145.0147" x2="100.6545" y2="145.0147" gradientTransform="matrix(3.6667 0 0 -3.6667 -213.3333 593.3334)">
		<stop  offset="0" style="stop-color:#7A8B97"/>
		<stop  offset="1" style="stop-color:#FFFFFF"/>
	</linearGradient>
	<path fill="url(#SVGID_31_)" d="M182.3,57.2c0-0.4,0-0.4,0-0.7l0,0c-1.1,2.9-4.8,3.3-9.9,3.3c-56.5,0.4-87.6,0.4-144.5,0.4
		c-2.9,0-5.5,3.3-7,5.9l0,0c0,0.4,0,0.4,0,0.7c1.5-2.6,4-5.5,7-5.5c56.5,0,88-0.4,144.8-0.4C177.9,60.5,181.5,59.8,182.3,57.2z"/>
	<polygon fill="#DBDDE4" points="175.7,42.9 201.7,42.9 204.3,55.7 182.3,55.7 	"/>
	
		<linearGradient id="SVGID_32_" gradientUnits="userSpaceOnUse" x1="109.2427" y1="150.4384" x2="109.2427" y2="152.9141" gradientTransform="matrix(3.6667 0 0 -3.6667 -213.3333 593.3334)">
		<stop  offset="0" style="stop-color:#F2F2F5"/>
		<stop  offset="1" style="stop-color:#FFFFFF"/>
	</linearGradient>
	<polygon fill="url(#SVGID_32_)" points="175.7,42.9 201.7,42.9 196.6,36.7 172.7,36.7 	"/>
	<g>
		<ellipse fill="#DBDDE4" cx="46.6" cy="70.8" rx="3.3" ry="3.3"/>
		<ellipse fill="#DCDBDB" cx="46.6" cy="70.8" rx="2.9" ry="3.3"/>
		<ellipse fill="#DDD8D3" cx="46.6" cy="70.8" rx="2.9" ry="2.9"/>
		<ellipse fill="#DED6CA" cx="46.6" cy="70.8" rx="2.9" ry="2.9"/>
		<ellipse fill="#DED4C2" cx="46.6" cy="70.8" rx="2.9" ry="2.9"/>
		<ellipse fill="#DFD1B9" cx="46.6" cy="70.8" rx="2.9" ry="2.9"/>
		<ellipse fill="#E0CFB1" cx="46.6" cy="70.8" rx="2.6" ry="2.9"/>
		<ellipse fill="#E1CCA8" cx="46.6" cy="70.8" rx="2.6" ry="2.6"/>
		<ellipse fill="#E2CAA0" cx="46.6" cy="70.8" rx="2.6" ry="2.6"/>
		<ellipse fill="#E3C897" cx="46.6" cy="70.8" rx="2.6" ry="2.6"/>
		<ellipse fill="#E4C58E" cx="46.6" cy="70.8" rx="2.6" ry="2.6"/>
		<ellipse fill="#E5C386" cx="46.6" cy="70.8" rx="2.6" ry="2.6"/>
		<ellipse fill="#E6C17D" cx="46.6" cy="70.8" rx="2.2" ry="2.6"/>
		<ellipse fill="#E6BE75" cx="46.6" cy="70.8" rx="2.2" ry="2.2"/>
		<ellipse fill="#E7BC6C" cx="46.6" cy="70.8" rx="2.2" ry="2.2"/>
		<ellipse fill="#E8B964" cx="46.6" cy="70.8" rx="2.2" ry="2.2"/>
		<ellipse fill="#E9B75B" cx="46.6" cy="70.8" rx="2.2" ry="2.2"/>
	</g>
	<g>
		<path fill="#FFFFFF" d="M176.8,45.1h22c0.7,0,1.5,0.4,1.5,0.7l1.8,8.4c0,0.4-0.4,0.7-1.1,0.7h-18.7L176.8,45.1z"/>
		<path fill="#303C3C" d="M176.4,44.7h22c0.7,0,1.5,0.4,1.5,0.7l1.8,8.4c0,0.4-0.4,0.7-1.1,0.7h-19.1L176.4,44.7z"/>
		<path fill="#808688" d="M176.8,44.7h22c0.7,0,1.5,0.4,1.5,0.7l1.8,8.4c0,0.4-0.4,0.7-1.1,0.7h-18.7L176.8,44.7z"/>
		<path fill="#BCC3C7" d="M176.8,45.1H198c0.7,0,1.5,0.4,1.5,0.7l1.5,7.7c0,0.4-0.4,0.7-1.1,0.7h-18.3L176.8,45.1L176.8,45.1z"/>
		
			<linearGradient id="SVGID_33_" gradientUnits="userSpaceOnUse" x1="106.7179" y1="149.234" x2="109.4762" y2="148.2843" gradientTransform="matrix(3.6667 0 0 -3.6667 -213.3333 593.3334)">
			<stop  offset="0" style="stop-color:#CACEC8"/>
			<stop  offset="1" style="stop-color:#FFFFFF"/>
		</linearGradient>
		<path fill="url(#SVGID_33_)" d="M176.8,45.1h16.9c-4,3.3-8.4,6.6-12.8,8.4L176.8,45.1L176.8,45.1z"/>
	</g>
	<ellipse fill="#E09C1A" cx="46.6" cy="70.4" rx="2.2" ry="2.2"/>
	
		<linearGradient id="SVGID_34_" gradientUnits="userSpaceOnUse" x1="70.8856" y1="142.2111" x2="70.9067" y2="143.42" gradientTransform="matrix(3.6667 0 0 -3.6667 -213.3333 593.3334)">
		<stop  offset="0" style="stop-color:#EB8D00"/>
		<stop  offset="1" style="stop-color:#FFFFFF"/>
	</linearGradient>
	<ellipse fill="url(#SVGID_34_)" cx="46.6" cy="70.4" rx="1.8" ry="1.8"/>
	
		<linearGradient id="SVGID_35_" gradientUnits="userSpaceOnUse" x1="70.7605" y1="142.3538" x2="70.9476" y2="143.0062" gradientTransform="matrix(3.6667 0 0 -3.6667 -213.3333 593.3334)">
		<stop  offset="0" style="stop-color:#EB8D00"/>
		<stop  offset="1" style="stop-color:#FFFFFF"/>
	</linearGradient>
	<ellipse fill="url(#SVGID_35_)" cx="46.6" cy="69.7" rx="1.5" ry="0.7"/>
	
		<linearGradient id="SVGID_36_" gradientUnits="userSpaceOnUse" x1="87.8927" y1="146.8824" x2="87.8927" y2="150.118" gradientTransform="matrix(3.6667 0 0 -3.6667 -213.3333 593.3334)">
		<stop  offset="0" style="stop-color:#5C7481"/>
		<stop  offset="1" style="stop-color:#1C2F37"/>
	</linearGradient>
	<polygon fill="url(#SVGID_36_)" points="72.3,59 108.9,59 145.6,59 144.9,44.7 108.9,44.7 73.4,44.7 	"/>
</g>
</svg>
