<?xml version="1.0" encoding="utf-8"?>
<!-- Generator: Adobe Illustrator 16.0.0, SVG Export Plug-In . SVG Version: 6.00 Build 0)  -->
<!DOCTYPE svg PUBLIC "-//W3C//DTD SVG 1.1//EN" "http://www.w3.org/Graphics/SVG/1.1/DTD/svg11.dtd">
<svg version="1.1" id="图层_1" xmlns="http://www.w3.org/2000/svg" xmlns:xlink="http://www.w3.org/1999/xlink" x="0px" y="0px"
	 width="424px" height="504px" viewBox="0 0 424 504" enable-background="new 0 0 424 504" xml:space="preserve">
<g>
	
		<rect x="2.48" y="5.569" fill="#B5B5B6" stroke="#595757" stroke-width="9.4357" stroke-miterlimit="10" width="420.097" height="492.169"/>
	
		<rect x="82.183" y="52.434" fill-rule="evenodd" clip-rule="evenodd" fill="#EFEFEF" stroke="#B5B5B6" stroke-width="4.8099" stroke-miterlimit="10" width="260.692" height="390.038"/>
	
		<rect x="176.168" y="405.648" fill-rule="evenodd" clip-rule="evenodd" fill="#EFEFEF" stroke="#B5B5B6" stroke-width="2" stroke-miterlimit="10" width="73.5" height="24.709"/>
	
		<rect x="94.825" y="66.053" fill-rule="evenodd" clip-rule="evenodd" fill="#EFEFEF" stroke="#B5B5B6" stroke-width="2.0265" stroke-miterlimit="10" width="24.709" height="136.824"/>
	<rect x="101.713" y="72.51" fill-rule="evenodd" clip-rule="evenodd" fill="#595757" width="10.934" height="10.934"/>
	<rect x="101.713" y="87.632" fill-rule="evenodd" clip-rule="evenodd" fill="#595757" width="10.934" height="10.933"/>
	
		<rect x="94.825" y="218.453" fill-rule="evenodd" clip-rule="evenodd" fill="#EFEFEF" stroke="#B5B5B6" stroke-width="2.0265" stroke-miterlimit="10" width="24.709" height="134.763"/>
	
		<rect x="94.826" y="359.839" fill-rule="evenodd" clip-rule="evenodd" fill="#EFEFEF" stroke="#B5B5B6" stroke-width="2" stroke-miterlimit="10" width="24.709" height="40.143"/>
	
		<rect x="126.966" y="405.648" fill-rule="evenodd" clip-rule="evenodd" fill="#EFEFEF" stroke="#B5B5B6" stroke-width="2" stroke-miterlimit="10" width="40.143" height="24.709"/>
	<rect x="101.713" y="102.753" fill-rule="evenodd" clip-rule="evenodd" fill="#595757" width="10.934" height="10.933"/>
	<rect x="101.713" y="117.874" fill-rule="evenodd" clip-rule="evenodd" fill="#595757" width="10.934" height="10.934"/>
	<rect x="101.713" y="136.995" fill-rule="evenodd" clip-rule="evenodd" fill="#595757" width="10.934" height="10.934"/>
	<rect x="101.713" y="152.116" fill-rule="evenodd" clip-rule="evenodd" fill="#595757" width="10.934" height="10.934"/>
	<rect x="101.713" y="167.238" fill-rule="evenodd" clip-rule="evenodd" fill="#595757" width="10.934" height="10.933"/>
	<rect x="101.713" y="182.359" fill-rule="evenodd" clip-rule="evenodd" fill="#595757" width="10.934" height="10.933"/>
	<rect x="133.752" y="412.536" fill-rule="evenodd" clip-rule="evenodd" fill="#B5B5B6" width="10.934" height="10.934"/>
	<rect x="149.389" y="412.536" fill-rule="evenodd" clip-rule="evenodd" fill="#B5B5B6" width="10.934" height="10.934"/>
	
		<rect x="259.966" y="405.648" fill-rule="evenodd" clip-rule="evenodd" fill="#EFEFEF" stroke="#B5B5B6" stroke-width="2" stroke-miterlimit="10" width="40.143" height="24.709"/>
	<rect x="266.752" y="412.536" fill-rule="evenodd" clip-rule="evenodd" fill="#B5B5B6" width="10.934" height="10.934"/>
	<rect x="282.389" y="412.536" fill-rule="evenodd" clip-rule="evenodd" fill="#B5B5B6" width="10.934" height="10.934"/>
	<g>
		<rect x="182.027" y="410.946" fill-rule="evenodd" clip-rule="evenodd" fill="#9FA0A0" width="3.451" height="14.113"/>
	</g>
	<g>
		<rect x="187.861" y="410.946" fill-rule="evenodd" clip-rule="evenodd" fill="#9FA0A0" width="3.449" height="14.113"/>
	</g>
	<g>
		<rect x="193.693" y="410.946" fill-rule="evenodd" clip-rule="evenodd" fill="#9FA0A0" width="3.451" height="14.113"/>
	</g>
	<g>
		<rect x="199.527" y="410.946" fill-rule="evenodd" clip-rule="evenodd" fill="#9FA0A0" width="3.449" height="14.113"/>
	</g>
	<g>
		<rect x="205.359" y="410.946" fill-rule="evenodd" clip-rule="evenodd" fill="#9FA0A0" width="3.451" height="14.113"/>
	</g>
	<g>
		<rect x="211.193" y="410.946" fill-rule="evenodd" clip-rule="evenodd" fill="#9FA0A0" width="3.449" height="14.113"/>
	</g>
	<g>
		<rect x="217.025" y="410.946" fill-rule="evenodd" clip-rule="evenodd" fill="#9FA0A0" width="3.451" height="14.113"/>
	</g>
	<g>
		<rect x="222.859" y="410.946" fill-rule="evenodd" clip-rule="evenodd" fill="#9FA0A0" width="3.449" height="14.113"/>
	</g>
	<g>
		<rect x="228.691" y="410.946" fill-rule="evenodd" clip-rule="evenodd" fill="#9FA0A0" width="3.451" height="14.113"/>
	</g>
	<g>
		<rect x="234.525" y="410.946" fill-rule="evenodd" clip-rule="evenodd" fill="#9FA0A0" width="3.449" height="14.113"/>
	</g>
	<g>
		<rect x="240.357" y="410.946" fill-rule="evenodd" clip-rule="evenodd" fill="#9FA0A0" width="3.451" height="14.113"/>
	</g>
	<rect x="101.713" y="224.41" fill-rule="evenodd" clip-rule="evenodd" fill="#595757" width="10.934" height="10.934"/>
	<rect x="101.713" y="239.532" fill-rule="evenodd" clip-rule="evenodd" fill="#595757" width="10.934" height="10.933"/>
	<rect x="101.713" y="254.653" fill-rule="evenodd" clip-rule="evenodd" fill="#595757" width="10.934" height="10.933"/>
	<rect x="101.713" y="269.774" fill-rule="evenodd" clip-rule="evenodd" fill="#595757" width="10.934" height="10.934"/>
	<rect x="101.713" y="288.896" fill-rule="evenodd" clip-rule="evenodd" fill="#595757" width="10.934" height="10.934"/>
	<rect x="101.713" y="304.017" fill-rule="evenodd" clip-rule="evenodd" fill="#595757" width="10.934" height="10.934"/>
	<rect x="101.713" y="319.139" fill-rule="evenodd" clip-rule="evenodd" fill="#595757" width="10.934" height="10.933"/>
	<rect x="101.713" y="334.26" fill-rule="evenodd" clip-rule="evenodd" fill="#595757" width="10.934" height="10.933"/>
	<rect x="101.713" y="366.486" fill-rule="evenodd" clip-rule="evenodd" fill="#595757" width="10.934" height="10.933"/>
	<rect x="101.713" y="381.607" fill-rule="evenodd" clip-rule="evenodd" fill="#595757" width="10.934" height="10.933"/>
	
		<rect x="305.966" y="359.839" fill-rule="evenodd" clip-rule="evenodd" fill="#EFEFEF" stroke="#B5B5B6" stroke-width="2" stroke-miterlimit="10" width="24.709" height="40.143"/>
	<rect x="312.853" y="366.486" fill-rule="evenodd" clip-rule="evenodd" fill="#595757" width="10.934" height="10.933"/>
	<rect x="312.853" y="381.607" fill-rule="evenodd" clip-rule="evenodd" fill="#595757" width="10.934" height="10.933"/>
	
		<rect x="305.966" y="66.053" fill-rule="evenodd" clip-rule="evenodd" fill="#EFEFEF" stroke="#B5B5B6" stroke-width="2.0265" stroke-miterlimit="10" width="24.709" height="136.824"/>
	<rect x="312.854" y="72.51" fill-rule="evenodd" clip-rule="evenodd" fill="#595757" width="10.934" height="10.934"/>
	<rect x="312.854" y="87.632" fill-rule="evenodd" clip-rule="evenodd" fill="#595757" width="10.934" height="10.933"/>
	
		<rect x="305.966" y="218.453" fill-rule="evenodd" clip-rule="evenodd" fill="#EFEFEF" stroke="#B5B5B6" stroke-width="2.0265" stroke-miterlimit="10" width="24.709" height="134.763"/>
	<rect x="312.854" y="102.753" fill-rule="evenodd" clip-rule="evenodd" fill="#595757" width="10.934" height="10.933"/>
	<rect x="312.854" y="117.874" fill-rule="evenodd" clip-rule="evenodd" fill="#595757" width="10.934" height="10.934"/>
	<rect x="312.854" y="136.995" fill-rule="evenodd" clip-rule="evenodd" fill="#595757" width="10.934" height="10.934"/>
	<rect x="312.854" y="152.116" fill-rule="evenodd" clip-rule="evenodd" fill="#595757" width="10.934" height="10.934"/>
	<rect x="312.854" y="167.238" fill-rule="evenodd" clip-rule="evenodd" fill="#595757" width="10.934" height="10.933"/>
	<rect x="312.854" y="182.359" fill-rule="evenodd" clip-rule="evenodd" fill="#595757" width="10.934" height="10.933"/>
	<rect x="312.854" y="224.41" fill-rule="evenodd" clip-rule="evenodd" fill="#595757" width="10.934" height="10.934"/>
	<rect x="312.854" y="239.532" fill-rule="evenodd" clip-rule="evenodd" fill="#595757" width="10.934" height="10.933"/>
	<rect x="312.854" y="254.653" fill-rule="evenodd" clip-rule="evenodd" fill="#595757" width="10.934" height="10.933"/>
	<rect x="312.854" y="269.774" fill-rule="evenodd" clip-rule="evenodd" fill="#595757" width="10.934" height="10.934"/>
	<rect x="312.854" y="288.896" fill-rule="evenodd" clip-rule="evenodd" fill="#595757" width="10.934" height="10.934"/>
	<rect x="312.854" y="304.017" fill-rule="evenodd" clip-rule="evenodd" fill="#595757" width="10.934" height="10.934"/>
	<rect x="312.854" y="319.139" fill-rule="evenodd" clip-rule="evenodd" fill="#595757" width="10.934" height="10.933"/>
	<rect x="312.854" y="334.26" fill-rule="evenodd" clip-rule="evenodd" fill="#595757" width="10.934" height="10.933"/>
	<g>
		
			<text transform="matrix(1 0 0 1 66.6426 128.8076)" fill="#3E3A39" font-family="'MicrosoftYaHei'" font-size="14" glyph-orientation-vertical="0" writing-mode="tb">总线一</text>
	</g>
	<g>
		
			<text transform="matrix(1 0 0 1 66.6426 283.2393)" fill="#3E3A39" font-family="'MicrosoftYaHei'" font-size="14" glyph-orientation-vertical="0" writing-mode="tb">总线二</text>
	</g>
	<g>
		
			<text transform="matrix(1 0 0 1 351.0752 128.8076)" fill="#3E3A39" font-family="'MicrosoftYaHei'" font-size="14" glyph-orientation-vertical="0" writing-mode="tb">总线三</text>
	</g>
	<g>
		
			<text transform="matrix(1 0 0 1 351.0752 283.2393)" fill="#3E3A39" font-family="'MicrosoftYaHei'" font-size="14" glyph-orientation-vertical="0" writing-mode="tb">总线四</text>
	</g>
	<text transform="matrix(1 0 0 1 122.0215 80.9873)" fill="#595757" font-family="'MicrosoftYaHei'" font-size="10">电源1+</text>
	<text transform="matrix(1 0 0 1 122.0215 111.2295)" fill="#595757" font-family="'MicrosoftYaHei'" font-size="10">智能口1A1</text>
	<text transform="matrix(1 0 0 1 122.0215 126.3506)" fill="#595757" font-family="'MicrosoftYaHei'" font-size="10">智能口1B1</text>
	<text transform="matrix(1 0 0 1 122.0215 96.1074)" fill="#595757" font-family="'MicrosoftYaHei'" font-size="10">电源1-</text>
	<text transform="matrix(1 0 0 1 122.0215 145.4717)" fill="#595757" font-family="'MicrosoftYaHei'" font-size="10">电源2+</text>
	<text transform="matrix(1 0 0 1 122.0215 175.7148)" fill="#595757" font-family="'MicrosoftYaHei'" font-size="10">智能口1A1</text>
	<text transform="matrix(1 0 0 1 122.0215 190.8359)" fill="#595757" font-family="'MicrosoftYaHei'" font-size="10">智能口1B1</text>
	<text transform="matrix(1 0 0 1 122.0215 160.5938)" fill="#595757" font-family="'MicrosoftYaHei'" font-size="10">电源2-</text>
	<text transform="matrix(1 0 0 1 270.3555 80.9873)" fill="#595757" font-family="'MicrosoftYaHei'" font-size="10">电源5+</text>
	<text transform="matrix(1 0 0 1 270.3555 96.1074)" fill="#595757" font-family="'MicrosoftYaHei'" font-size="10">电源5-</text>
	<text transform="matrix(1 0 0 1 270.3555 145.4717)" fill="#595757" font-family="'MicrosoftYaHei'" font-size="10">电源6+</text>
	<text transform="matrix(1 0 0 1 270.3555 160.5938)" fill="#595757" font-family="'MicrosoftYaHei'" font-size="10">电源6-</text>
	<text transform="matrix(1 0 0 1 122.0215 232.8872)" fill="#595757" font-family="'MicrosoftYaHei'" font-size="10">电源3+</text>
	<text transform="matrix(1 0 0 1 122.0215 263.1299)" fill="#595757" font-family="'MicrosoftYaHei'" font-size="10">智能口2A1</text>
	<text transform="matrix(1 0 0 1 122.0215 278.252)" fill="#595757" font-family="'MicrosoftYaHei'" font-size="10">智能口2B1</text>
	<text transform="matrix(1 0 0 1 122.0215 248.0078)" fill="#595757" font-family="'MicrosoftYaHei'" font-size="10">电源3-</text>
	<text transform="matrix(1 0 0 1 122.0215 297.373)" fill="#595757" font-family="'MicrosoftYaHei'" font-size="10">电源4+</text>
	<text transform="matrix(1 0 0 1 122.0215 327.6152)" fill="#595757" font-family="'MicrosoftYaHei'" font-size="10">智能口2A1</text>
	<text transform="matrix(1 0 0 1 122.0215 342.7363)" fill="#595757" font-family="'MicrosoftYaHei'" font-size="10">智能口2B1</text>
	<text transform="matrix(1 0 0 1 122.0215 373.9785)" fill="#595757" font-family="'MicrosoftYaHei'" font-size="10">控制4</text>
	<text transform="matrix(1 0 0 1 122.0215 389.2373)" fill="#595757" font-family="'MicrosoftYaHei'" font-size="10">控制4</text>
	<text transform="matrix(1 0 0 1 199.5273 398.4873)" fill="#595757" font-family="'MicrosoftYaHei'" font-size="10">电源</text>
	<text transform="matrix(1 0 0 1 274.6885 373.9785)" fill="#595757" font-family="'MicrosoftYaHei'" font-size="10">控制3</text>
	<text transform="matrix(1 0 0 1 274.6885 389.2373)" fill="#595757" font-family="'MicrosoftYaHei'" font-size="10">控制3</text>
	<text transform="matrix(1 0 0 1 122.0215 312.4941)" fill="#595757" font-family="'MicrosoftYaHei'" font-size="10">电源4-</text>
	<g>
		<text transform="matrix(1 0 0 1 232.5254 111.2295)" fill="#595757" font-family="'MicrosoftYaHei'" font-size="10">智能口3A3/IN1</text>
	</g>
	<text transform="matrix(1 0 0 1 233.2871 126.3506)" fill="#595757" font-family="'MicrosoftYaHei'" font-size="10">智能口3B3/IN2</text>
	<text transform="matrix(1 0 0 1 232.5254 175.7148)" fill="#595757" font-family="'MicrosoftYaHei'" font-size="10">智能口3A3/IN3</text>
	<text transform="matrix(1 0 0 1 233.2871 190.8359)" fill="#595757" font-family="'MicrosoftYaHei'" font-size="10">智能口3B3/IN4</text>
	<text transform="matrix(1 0 0 1 270.3555 232.8872)" fill="#595757" font-family="'MicrosoftYaHei'" font-size="10">电源7+</text>
	<text transform="matrix(1 0 0 1 270.3555 248.0088)" fill="#595757" font-family="'MicrosoftYaHei'" font-size="10">电源7-</text>
	<text transform="matrix(1 0 0 1 270.3555 297.373)" fill="#595757" font-family="'MicrosoftYaHei'" font-size="10">电源8+</text>
	<text transform="matrix(1 0 0 1 270.3555 312.4941)" fill="#595757" font-family="'MicrosoftYaHei'" font-size="10">电源8-</text>
	<g>
		<text transform="matrix(1 0 0 1 232.5254 263.1299)" fill="#595757" font-family="'MicrosoftYaHei'" font-size="10">智能口4A4/IN5</text>
	</g>
	<text transform="matrix(1 0 0 1 233.2871 278.252)" fill="#595757" font-family="'MicrosoftYaHei'" font-size="10">智能口4B4/IN6</text>
	<text transform="matrix(1 0 0 1 232.5254 327.6152)" fill="#595757" font-family="'MicrosoftYaHei'" font-size="10">智能口4A4/IN7</text>
	<text transform="matrix(1 0 0 1 233.2871 342.7363)" fill="#595757" font-family="'MicrosoftYaHei'" font-size="10">智能口4B4/IN8</text>
	
		<text transform="matrix(1 0 0 1 139.2188 430.3574)" fill="#595757" font-family="'MicrosoftYaHei'" font-size="10" glyph-orientation-vertical="0" writing-mode="tb">主通讯口A</text>
	
		<text transform="matrix(1 0 0 1 154.8555 430.3574)" fill="#595757" font-family="'MicrosoftYaHei'" font-size="10" glyph-orientation-vertical="0" writing-mode="tb">主通讯口B</text>
	
		<text transform="matrix(1 0 0 1 272.2188 430.3574)" fill="#595757" font-family="'MicrosoftYaHei'" font-size="10" glyph-orientation-vertical="0" writing-mode="tb">扩展口A</text>
	
		<text transform="matrix(1 0 0 1 287.8555 430.3574)" fill="#595757" font-family="'MicrosoftYaHei'" font-size="10" glyph-orientation-vertical="0" writing-mode="tb">扩展口B</text>
</g>
</svg>
