<?xml version="1.0" encoding="utf-8"?>
<!-- Generator: Adobe Illustrator 21.0.0, SVG Export Plug-In . SVG Version: 6.00 Build 0)  -->
<svg version="1.0" id="图层_1" xmlns="http://www.w3.org/2000/svg" xmlns:xlink="http://www.w3.org/1999/xlink" x="0px" y="0px" width="220px" height="220px"
	 viewBox="0 0 220 220" xml:space="preserve">
<g>
	<g>
		<path fill="#00111C" d="M211.2,3.5c0,0-175.3,0-193.6,0c-18,0-15.8,11-15.8,11v129.8c0,0,0,0.7,0,1.8v1.1l0,0
			c0.7,3.3,2.9,7.7,11,7.7c25.7,0,25.7,0,198,0c0,0,10.3-0.7,10.6-9.2l0,0c0,0,0-111.1,0-128C222.2,1,211.2,3.5,211.2,3.5z"/>
		<rect x="13.2" y="13.4" fill="#4B91AF" width="196.9" height="129.8"/>
		
			<radialGradient id="SVGID_1_" cx="102.6735" cy="146.2201" r="24.8644" gradientTransform="matrix(3.6667 0 0 -3.6667 -213.3333 593.3334)" gradientUnits="userSpaceOnUse">
			<stop  offset="0" style="stop-color:#0C2E3B"/>
			<stop  offset="0.3907" style="stop-color:#092734"/>
			<stop  offset="0.9781" style="stop-color:#00121F"/>
			<stop  offset="1" style="stop-color:#00111E"/>
		</radialGradient>
		<rect x="16.5" y="16" fill="url(#SVGID_1_)" width="189.9" height="124.3"/>
		<g>
			<g>
				<line fill="none" stroke="#4B91AF" stroke-width="0.2" x1="206.8" y1="16.4" x2="18.7" y2="17.1"/>
				<line fill="none" stroke="#4B91AF" stroke-width="0.2" x1="206.8" y1="34" x2="16.9" y2="34"/>
				<line fill="none" stroke="#4B91AF" stroke-width="0.2" x1="206.8" y1="51.6" x2="16.9" y2="51.6"/>
				<line fill="none" stroke="#4B91AF" stroke-width="0.2" x1="206.8" y1="69.2" x2="16.9" y2="69.2"/>
				<line fill="none" stroke="#4B91AF" stroke-width="0.2" x1="206.8" y1="86.8" x2="16.9" y2="86.8"/>
				<line fill="none" stroke="#4B91AF" stroke-width="0.2" x1="206.8" y1="104.4" x2="16.9" y2="104.4"/>
				<line fill="none" stroke="#4B91AF" stroke-width="0.2" x1="206.8" y1="122" x2="16.9" y2="122"/>
				<line fill="none" stroke="#4B91AF" stroke-width="0.2" x1="206.8" y1="139.6" x2="16.9" y2="139.6"/>
			</g>
			<g>
				<line fill="none" stroke="#4B91AF" stroke-width="0.2" x1="33" y1="16" x2="33" y2="140.3"/>
				<line fill="none" stroke="#4B91AF" stroke-width="0.2" x1="50.2" y1="16" x2="50.2" y2="140.3"/>
				<line fill="none" stroke="#4B91AF" stroke-width="0.2" x1="67.8" y1="16" x2="67.8" y2="140.3"/>
				<line fill="none" stroke="#4B91AF" stroke-width="0.2" x1="85.4" y1="16" x2="85.4" y2="140.3"/>
				<line fill="none" stroke="#4B91AF" stroke-width="0.2" x1="103" y1="16" x2="103" y2="140.3"/>
				<line fill="none" stroke="#4B91AF" stroke-width="0.2" x1="120.6" y1="16" x2="120.6" y2="140.3"/>
				<line fill="none" stroke="#4B91AF" stroke-width="0.2" x1="138.2" y1="16" x2="138.2" y2="140.3"/>
				<line fill="none" stroke="#4B91AF" stroke-width="0.2" x1="155.8" y1="16" x2="155.8" y2="140.3"/>
				<line fill="none" stroke="#4B91AF" stroke-width="0.2" x1="173.4" y1="16" x2="173.4" y2="140.3"/>
				<line fill="none" stroke="#4B91AF" stroke-width="0.2" x1="191" y1="16" x2="191" y2="140.3"/>
			</g>
		</g>
	</g>
	<path fill="#6BC7F1" d="M34.5,140.3h-2.2c15.4-51,17.6-54.3,18.3-54.6h0.7c0.4,0,1.5,0.4,16.9,33l18.3-72.2l11,36.7l4.8-5.9
		l10.3,23.1l7.7-47.7h1.8c1.5,19.8,3.7,53.9,4.4,67.1c1.5-4.4,3.7-10.6,5.1-15l1.1-3.3l0.7,3.3c0.7,3.3,1.5,6.6,2.2,9.2
		c1.5-9.2,5.9-35.6,8.4-50.6h1.8l11.7,40l31.5-34.8h18v1.8h-16.9l-33,36.7l-11.4-39.2c-2.2,12.8-8.1,48.8-8.4,49.9v0.7h-0.7
		c-0.7,0-1.1,0-3.7-9.9c-2.2,7-5.1,15.8-5.5,16.9v1.1h-1.1c-0.4,0-0.7,0-0.7-1.1l0,0v-0.4c-0.4-1.5-0.4-4.4-0.7-10.6
		c-0.4-6.6-1.1-15.8-1.8-24.9L121,61.5l-7.7,46.2l-11.7-26l-5.1,6.2l-9.9-33.7l-18,70.4l-1.1-2.2C62,111,53.5,93.7,51,89
		C48.4,94.8,39.6,122.7,34.5,140.3z"/>
	<g>
		<path fill="#FFFFFF" d="M22.7,24.4h0.4c0.4,0,0.4,0,0.4-0.4c0-0.4,0-0.4-0.4-0.4c-0.4,0-0.7-0.4-0.7-0.7c0-0.4,0.4-0.7,0.7-0.7
			c0.4,0,0.4,0,0.4,0v0.4h-0.4c-0.4,0-0.4,0-0.4,0.4c0,0.4,0,0.4,0.4,0.4c0.4,0,0.4,0.4,0.4,0.7c0,0.4-0.4,0.7-0.7,0.7
			C23.1,24.8,22.7,24.8,22.7,24.4L22.7,24.4z"/>
		<path fill="#FFFFFF" d="M25.7,22.6v1.8v0.4l0,0v-0.4l0,0l-0.4,0.4c-0.4,0-0.7-0.4-0.7-0.7c0-0.4,0.4-0.7,0.7-0.7s0.4,0,0.4,0.4
			l0,0V22.6L25.7,22.6z M25.3,23.7L25.3,23.7c0-0.4-0.4-0.4-0.4-0.4c-0.4,0-0.4,0.4-0.4,0.7c0,0.4,0,0.7,0.4,0.7s0.4,0,0.4-0.4
			C25.3,24.1,25.3,24.1,25.3,23.7L25.3,23.7z"/>
		<path fill="#FFFFFF" d="M27.5,24.4v0.4h-0.4L27.5,24.4L27.5,24.4c-0.4,0.4-0.4,0.4-0.7,0.4s-0.4,0-0.4-0.7v-0.7h0.4v0.7
			c0,0.4,0,0.4,0.4,0.4C27.1,24.4,27.1,24.4,27.5,24.4C27.1,24.4,27.1,24.4,27.5,24.4l-0.4-1.1h0.4V24.4z"/>
		<path fill="#FFFFFF" d="M29,24.4v0.4l0,0V24.4L29,24.4c-0.4,0.4-0.4,0.4-0.7,0.4c-0.4,0-0.4-0.4-0.4-0.4c0-0.4,0.4-0.7,1.1-0.7
			l0,0c0,0,0-0.4-0.4-0.4h-0.4V23h0.4c0.4,0,0.7,0.4,0.7,0.7v0.7H29z M28.6,24.1c-0.4,0-0.7,0-0.7,0.4c0,0.4,0,0.4,0.4,0.4
			C28.6,24.8,28.6,24.4,28.6,24.1C28.6,24.4,28.6,24.4,28.6,24.1L28.6,24.1z"/>
		<path fill="#FFFFFF" d="M29.3,24.4h0.4c0.4,0,0.4,0,0.4-0.4c0,0,0-0.4-0.4-0.4c-0.4,0-0.4-0.4-0.4-0.4c0,0,0.4,0,0.7,0h0.4v0.4
			c0,0,0,0-0.4,0c0,0-0.4,0-0.4,0.4c0,0,0,0.4,0.4,0.4c0.4,0,0.4,0.4,0.4,0.4C30.4,24.8,30.1,24.8,29.3,24.4
			C29.7,24.8,29.3,24.8,29.3,24.4L29.3,24.4z"/>
		<path fill="#FFFFFF" d="M32.3,22.6v1.8v0.4h-0.4v-0.4l0,0l-0.4,0.4c-0.4,0-0.7-0.4-0.7-0.7c0-0.4,0.4-0.7,0.7-0.7
			c0.4,0,0.4,0,0.4,0.4l0,0L32.3,22.6L32.3,22.6z M31.9,23.7L31.9,23.7c0-0.4-0.4-0.4-0.4-0.4c-0.4,0-0.4,0.4-0.4,0.7
			c0,0.4,0,0.7,0.4,0.7c0.4,0,0.4,0,0.4-0.4C31.9,24.1,31.9,24.1,31.9,23.7L31.9,23.7z"/>
		<path fill="#FFFFFF" d="M32.6,24.8v-1.5h-0.4l0,0h0.4l0,0c0-0.4,0-0.4,0-0.4H33h0.4v0.4l0,0C33,22.6,33,23,33,23.3l0,0h0.4l0,0H33
			L32.6,24.8L32.6,24.8z"/>
		<path fill="#FFFFFF" d="M34.5,24.4v0.4l0,0V24.4L34.5,24.4c-0.4,0.4-0.4,0.4-0.7,0.4c-0.4,0-0.4-0.4-0.4-0.4
			c0-0.4,0.4-0.7,1.1-0.7l0,0c0,0,0-0.4-0.4-0.4h-0.4V23h0.4c0.4,0,0.7,0.4,0.7,0.7v0.7H34.5z M34.5,24.1c-0.4,0-0.7,0-0.7,0.4
			c0,0.4,0,0.4,0.4,0.4C34.1,24.8,34.1,24.4,34.5,24.1C34.5,24.4,34.5,24.4,34.5,24.1L34.5,24.1z"/>
		<path fill="#FFFFFF" d="M34.8,24.4h0.4c0.4,0,0.4,0,0.4-0.4c0,0,0-0.4-0.4-0.4c-0.4,0-0.4-0.4-0.4-0.4c0,0,0.4,0,0.7,0h0.4v0.4
			c0,0,0,0-0.4,0c0,0-0.4,0-0.4,0.4c0,0,0,0.4,0.4,0.4s0.4,0.4,0.4,0.4C35.9,24.8,35.6,24.8,34.8,24.4
			C35.2,24.8,35.2,24.8,34.8,24.4L34.8,24.4z"/>
		<path fill="#FFFFFF" d="M38.1,23.7h-0.7v0.7h1.1v0.4h-1.1v-2.2h1.1V23h-0.7v0.7H38.1L38.1,23.7z"/>
		<path fill="#FFFFFF" d="M38.5,23.3L38.5,23.3c0.4,0.4,0.4,0.4,0.4,0.7l0,0c0,0,0,0,0-0.4l0.4-0.4h0.4l-0.4,0.7l0.4,0.7h-0.4
			l-0.4-0.4c0,0,0,0,0-0.4l0,0c0,0,0,0,0,0.4l-0.4,0.4h-0.4l0.4-0.7V23.3L38.5,23.3z"/>
		<path fill="#FFFFFF" d="M40,23.7c0-0.4,0-0.4,0-0.4h0.4L40,23.7L40,23.7c0.4-0.4,0.7-0.4,0.7-0.4c0.4,0,0.7,0.4,0.7,0.7
			c0,0.7-0.4,0.7-0.7,0.7s-0.4,0-0.4-0.4l0,0v0.7H40V23.7z M40.3,24.1L40.3,24.1c0,0.4,0.4,0.4,0.4,0.4c0.4,0,0.4-0.4,0.4-0.7
			c0-0.4,0-0.7-0.4-0.7c-0.4,0-0.4,0-0.4,0.4C40.3,23.7,40.3,23.7,40.3,24.1L40.3,24.1z"/>
		<path fill="#FFFFFF" d="M41.8,23.7v-0.4h0.4L41.8,23.7L41.8,23.7c0.4-0.4,0.4-0.4,0.7-0.4l0,0l0,0l0,0
			C42.2,23.3,42.2,23.7,41.8,23.7C42.2,23.7,42.2,24.1,41.8,23.7l0.4,1.1h-0.4V23.7z"/>
		<path fill="#FFFFFF" d="M43.3,23v0.4h0.4l0,0h-0.4v0.7c0,0.4,0,0.4,0.4,0.4l0,0v0.4c0,0,0,0-0.4,0h-0.4v-0.4v-1.1h-0.4l0,0h0.4
			L43.3,23L43.3,23z"/>
		<path fill="#FFFFFF" d="M44,22.6L44,22.6l0.4,1.1l0,0l0.4-0.4c0.4,0,0.7,0.4,0.7,0.7c0,0.7-0.4,0.7-0.7,0.7c-0.4,0-0.4,0-0.4-0.4
			l0,0v0.4H44v-0.4V22.6z M44.4,24.1L44.4,24.1c0,0.4,0.4,0.4,0.4,0.4c0.4,0,0.4-0.4,0.4-0.7c0-0.4,0-0.7-0.4-0.7s-0.4,0-0.4,0.4
			C44.4,23.7,44.4,23.7,44.4,24.1L44.4,24.1z"/>
		<path fill="#FFFFFF" d="M45.8,23.3l0.4,0.7v0.4l0,0v-0.4l0.4-0.7h0.4l-0.7,1.5h-0.4L45.8,23.3L45.8,23.3z"/>
		<path fill="#FFFFFF" d="M48.8,24.4c0,0.4,0,0.7-0.4,0.7c0,0-0.4,0.4-0.7,0.4c-0.4,0-0.4,0-0.4,0v-0.4h0.4
			C48,25.2,48.4,25.2,48.8,24.4L48.8,24.4L48.8,24.4c-0.4,0-0.4,0.4-0.7,0.4c-0.4,0-0.7-0.4-0.7-0.7c0-0.4,0.4-0.7,0.7-0.7
			c0.4,0,0.4,0,0.4,0.4l0,0v-0.4h0.4v0.4C48.8,23.7,48.8,24.4,48.8,24.4z M48.4,23.7L48.4,23.7c0-0.4-0.4-0.4-0.4-0.4
			c-0.4,0-0.4,0.4-0.4,0.7c0,0.4,0,0.7,0.4,0.7c0,0,0.4,0,0.4-0.4C48.4,24.1,48.4,24.1,48.4,23.7L48.4,23.7z"/>
		<path fill="#FFFFFF" d="M48.8,25.2C48.8,25.2,49.1,25.2,48.8,25.2c0.4-0.4,0.4-0.4,0.4-0.7v-1.1h0.4v1.5c0,0.4,0,0.4-0.4,0.7
			C49.1,25.5,48.8,25.5,48.8,25.2L48.8,25.2z M49.5,23L49.5,23C49.1,23,49.1,23,49.5,23C49.1,22.6,49.1,22.6,49.5,23
			C49.5,22.6,49.5,22.6,49.5,23z"/>
		<path fill="#FFFFFF" d="M51,24.4v0.4h-0.4L51,24.4L51,24.4c-0.4,0.4-0.4,0.4-0.7,0.4c-0.4,0-0.4-0.4-0.4-0.4
			c0-0.4,0.4-0.7,1.1-0.7l0,0c0,0,0-0.4-0.4-0.4h-0.4V23h0.4c0.4,0,0.7,0.4,0.7,0.7v0.7H51z M50.6,24.1c-0.4,0-0.7,0-0.7,0.4
			c0,0.4,0,0.4,0.4,0.4C50.6,24.8,50.6,24.4,50.6,24.1C50.6,24.4,50.6,24.4,50.6,24.1L50.6,24.1z"/>
		<path fill="#FFFFFF" d="M52.4,24.1l-0.4,0.7h-0.4l0.7-2.2h0.4l0.7,2.2h-0.4l-0.4-0.7H52.4z M53.2,24.1l-0.4-0.7V23l0,0v0.4
			l-0.4,0.7H53.2z"/>
		<path fill="#FFFFFF" d="M53.9,23.7v-0.4h0.4L53.9,23.7L53.9,23.7c0.4-0.4,0.4-0.4,0.7-0.4c0.4,0,0.4,0,0.4,0.7v1.1l0,0v-0.7
			c0-0.4,0-0.4-0.4-0.4C54.6,23.3,54.3,23.7,53.9,23.7C54.3,23.7,54.3,23.7,53.9,23.7l0.4,1.1h-0.4V23.7z"/>
		<path fill="#FFFFFF" d="M56.8,24.4v0.4h-0.4L56.8,24.4L56.8,24.4c-0.4,0.4-0.4,0.4-0.7,0.4c-0.4,0-0.4-0.4-0.4-0.4
			c0-0.4,0.4-0.7,1.1-0.7l0,0c0,0,0-0.4-0.4-0.4h-0.4V23h0.4c0.4,0,0.7,0.4,0.7,0.7v0.7H56.8z M56.5,24.1c-0.4,0-0.7,0-0.7,0.4
			c0,0.4,0,0.4,0.4,0.4C56.5,24.8,56.5,24.4,56.5,24.1C56.5,24.4,56.5,24.4,56.5,24.1L56.5,24.1z"/>
		<path fill="#FFFFFF" d="M57.2,22.6L57.2,22.6l0.4,2.2h-0.4V22.6z"/>
		<path fill="#FFFFFF" d="M58.3,23L58.3,23C58.3,23,57.9,23,58.3,23C57.9,22.6,58.3,22.6,58.3,23C58.3,22.6,58.3,22.6,58.3,23z
			 M57.9,24.8v-1.5h0.4L57.9,24.8L57.9,24.8z"/>
		<path fill="#FFFFFF" d="M59,23v0.4h0.4l0,0H59v0.7c0,0.4,0,0.4,0.4,0.4l0,0v0.4c0,0,0,0-0.4,0h-0.4v-0.4v-1.1l0,0l0,0H59V23L59,23
			z"/>
		<path fill="#FFFFFF" d="M61.2,22.6v1.8v0.4h-0.4v-0.4l0,0l-0.4,0.4c-0.4,0-0.7-0.4-0.7-0.7c0-0.4,0.4-0.7,0.7-0.7
			c0.4,0,0.4,0,0.4,0.4l0,0L61.2,22.6L61.2,22.6z M60.9,23.7L60.9,23.7c0-0.4-0.4-0.4-0.4-0.4c-0.4,0-0.4,0.4-0.4,0.7
			c0,0.4,0,0.7,0.4,0.7c0.4,0,0.4,0,0.4-0.4C60.9,24.1,60.9,24.1,60.9,23.7L60.9,23.7z"/>
		<path fill="#FFFFFF" d="M61.6,24.8v-1.5h-0.4l0,0h0.4l0,0c0-0.4,0-0.4,0-0.4H62c0,0,0,0,0.4,0v0.4l0,0c-0.4,0-0.4,0.4-0.4,0.4l0,0
			h0.4v-0.4H62L61.6,24.8L61.6,24.8z"/>
		<path fill="#FFFFFF" d="M63.8,24.4v0.4h-0.4L63.8,24.4L63.8,24.4c-0.4,0.4-0.4,0.4-0.7,0.4c-0.4,0-0.4-0.4-0.4-0.4
			c0-0.4,0.4-0.7,1.1-0.7l0,0c0,0,0-0.4-0.4-0.4h-0.4V23h0.4c0.4,0,0.7,0.4,0.7,0.7v0.7H63.8z M63.4,24.1c-0.4,0-0.7,0-0.7,0.4
			c0,0.4,0,0.4,0.4,0.4C63.4,24.8,63.4,24.4,63.4,24.1C63.4,24.4,63.4,24.4,63.4,24.1L63.4,24.1z"/>
		<path fill="#FFFFFF" d="M64.2,24.4h0.4c0.4,0,0.4,0,0.4-0.4c0,0,0-0.4-0.4-0.4c-0.4,0-0.4-0.4-0.4-0.4c0-0.4,0.4-0.4,0.4-0.4h0.4
			v0.4c0,0,0,0-0.4,0c0,0-0.4,0-0.4,0.4c0,0,0,0.4,0.4,0.4c0.4,0,0.4,0.4,0.4,0.4C64.9,24.8,64.9,24.8,64.2,24.4
			C64.2,24.8,64.2,24.8,64.2,24.4L64.2,24.4z"/>
	</g>
	<g>
		<path fill="#FFFFFF" d="M22.7,29.2h0.4c0.4,0,0.4,0,0.4-0.4c0-0.4,0-0.4-0.4-0.4c-0.4,0-0.7-0.4-0.7-0.7c0-0.4,0.4-0.7,0.7-0.7
			c0.4,0,0.4,0,0.4,0v0.4h-0.4c-0.4,0-0.4,0-0.4,0.4s0,0.4,0.4,0.4c0.4,0,0.4,0.4,0.4,0.7c0,0.4-0.4,0.7-0.7,0.7
			C23.1,29.6,22.7,29.6,22.7,29.2L22.7,29.2z"/>
		<path fill="#FFFFFF" d="M25.7,27.4v1.8v0.4l0,0v-0.4l0,0l-0.4,0.4c-0.4,0-0.7-0.4-0.7-0.7c0-0.4,0.4-0.7,0.7-0.7s0.4,0,0.4,0.4
			l0,0V27.4L25.7,27.4z M25.3,28.5L25.3,28.5c0-0.4-0.4-0.4-0.4-0.4c-0.4,0-0.4,0.4-0.4,0.7c0,0.4,0,0.7,0.4,0.7s0.4,0,0.4-0.4
			C25.3,28.8,25.3,28.8,25.3,28.5L25.3,28.5z"/>
		<path fill="#FFFFFF" d="M27.5,29.2v0.4h-0.4L27.5,29.2L27.5,29.2c-0.4,0.4-0.4,0.4-0.7,0.4s-0.4,0-0.4-0.7v-0.7h0.4v0.7
			c0,0.4,0,0.4,0.4,0.4C27.1,29.2,27.1,29.2,27.5,29.2C27.1,29.2,27.1,28.8,27.5,29.2l-0.4-1.1h0.4V29.2z"/>
		<path fill="#FFFFFF" d="M29,29.2v0.4l0,0V29.2L29,29.2c-0.4,0.4-0.4,0.4-0.7,0.4c-0.4,0-0.4-0.4-0.4-0.4c0-0.4,0.4-0.7,1.1-0.7
			l0,0c0,0,0-0.4-0.4-0.4h-0.4v-0.4h0.4c0.4,0,0.7,0.4,0.7,0.7v0.7H29z M28.6,28.8c-0.4,0-0.7,0-0.7,0.4s0,0.4,0.4,0.4
			C28.6,29.2,28.6,29.2,28.6,28.8C28.6,29.2,28.6,29.2,28.6,28.8L28.6,28.8z"/>
		<path fill="#FFFFFF" d="M29.3,29.2h0.4c0.4,0,0.4,0,0.4-0.4c0,0,0-0.4-0.4-0.4c-0.4,0-0.4-0.4-0.4-0.4c0-0.4,0.4-0.4,0.4-0.4h0.4
			v0.4c0,0,0,0-0.4,0c0,0-0.4,0-0.4,0.4c0,0,0,0.4,0.4,0.4c0.4,0,0.4,0.4,0.4,0.4C30.4,29.2,30.1,29.6,29.3,29.2
			C29.7,29.6,29.3,29.6,29.3,29.2L29.3,29.2z"/>
		<path fill="#FFFFFF" d="M32.3,27.4v1.8v0.4h-0.4v-0.4l0,0l-0.4,0.4c-0.4,0-0.7-0.4-0.7-0.7c0-0.4,0.4-0.7,0.7-0.7
			c0.4,0,0.4,0,0.4,0.4l0,0L32.3,27.4L32.3,27.4z M31.9,28.5L31.9,28.5c0-0.4-0.4-0.4-0.4-0.4c-0.4,0-0.4,0.4-0.4,0.7
			c0,0.4,0,0.7,0.4,0.7c0.4,0,0.4,0,0.4-0.4C31.9,28.8,31.9,28.8,31.9,28.5L31.9,28.5z"/>
		<path fill="#FFFFFF" d="M32.6,29.6v-1.5h-0.4v-0.4h0.4l0,0c0-0.4,0-0.4,0-0.4H33h0.4v0.4l0,0c-0.4-0.4-0.4,0-0.4,0l0,0h0.4v0.4H33
			L32.6,29.6L32.6,29.6z"/>
		<path fill="#FFFFFF" d="M34.5,29.2v0.4l0,0V29.2L34.5,29.2c-0.4,0.4-0.4,0.4-0.7,0.4c-0.4,0-0.4-0.4-0.4-0.4
			c0-0.4,0.4-0.7,1.1-0.7l0,0c0,0,0-0.4-0.4-0.4h-0.4v-0.4h0.4c0.4,0,0.7,0.4,0.7,0.7v0.7H34.5z M34.5,28.8c-0.4,0-0.7,0-0.7,0.4
			s0,0.4,0.4,0.4C34.1,29.2,34.1,29.2,34.5,28.8C34.5,29.2,34.5,29.2,34.5,28.8L34.5,28.8z"/>
		<path fill="#FFFFFF" d="M34.8,29.2h0.4c0.4,0,0.4,0,0.4-0.4c0,0,0-0.4-0.4-0.4c-0.4,0-0.4-0.4-0.4-0.4c0-0.4,0.4-0.4,0.4-0.4h0.4
			v0.4c0,0,0,0-0.4,0c0,0-0.4,0-0.4,0.4c0,0,0,0.4,0.4,0.4c0.4,0,0.4,0.4,0.4,0.4C35.9,29.2,35.6,29.6,34.8,29.2
			C35.2,29.6,35.2,29.6,34.8,29.2L34.8,29.2z"/>
		<path fill="#FFFFFF" d="M38.1,28.5h-0.7v0.7h1.1v0.4h-1.1v-2.2h1.1v0.4h-0.7v0.7H38.1L38.1,28.5z"/>
		<path fill="#FFFFFF" d="M38.5,28.1L38.5,28.1c0.4,0.4,0.4,0.4,0.4,0.7l0,0c0,0,0,0,0-0.4l0.4-0.4h0.4l-0.4,0.7l0.4,0.7h-0.4
			l-0.4-0.4c0,0,0,0,0-0.4l0,0c0,0,0,0,0,0.4l-0.4,0.4h-0.4l0.4-0.7V28.1L38.5,28.1z"/>
		<path fill="#FFFFFF" d="M40,28.5c0-0.4,0-0.4,0-0.4h0.4L40,28.5L40,28.5c0.4-0.4,0.7-0.4,0.7-0.4c0.4,0,0.7,0.4,0.7,0.7
			c0,0.7-0.4,0.7-0.7,0.7s-0.4,0-0.4-0.4l0,0v0.7H40C40,29.9,40,28.5,40,28.5z M40.3,28.8L40.3,28.8c0,0.4,0.4,0.4,0.4,0.4
			c0.4,0,0.4-0.4,0.4-0.7c0-0.4,0-0.7-0.4-0.7c-0.4,0-0.4,0-0.4,0.4C40.3,28.5,40.3,28.5,40.3,28.8L40.3,28.8z"/>
		<path fill="#FFFFFF" d="M41.8,28.5v-0.4h0.4L41.8,28.5L41.8,28.5c0.4-0.4,0.4-0.4,0.7-0.4l0,0v0.4l0,0
			C42.2,28.1,42.2,28.5,41.8,28.5C42.2,28.5,42.2,28.5,41.8,28.5l0.4,1.1h-0.4V28.5z"/>
		<path fill="#FFFFFF" d="M43.3,27.7v0.4h0.4v0.4h-0.4v0.7c0,0.4,0,0.4,0.4,0.4l0,0v0.4c0,0,0,0-0.4,0h-0.4v-0.4v-0.7h-0.4v-0.4h0.4
			L43.3,27.7L43.3,27.7z"/>
		<path fill="#FFFFFF" d="M44,27.4L44,27.4l0.4,1.1l0,0l0.4-0.4c0.4,0,0.7,0.4,0.7,0.7c0,0.7-0.4,0.7-0.7,0.7c-0.4,0-0.4,0-0.4-0.4
			l0,0v0.4H44v-0.4V27.4z M44.4,28.8L44.4,28.8c0,0.4,0.4,0.4,0.4,0.4c0.4,0,0.4-0.4,0.4-0.7c0-0.4,0-0.7-0.4-0.7s-0.4,0-0.4,0.4
			C44.4,28.5,44.4,28.5,44.4,28.8L44.4,28.8z"/>
		<path fill="#FFFFFF" d="M45.8,28.1l0.4,0.7v0.4l0,0v-0.4l0.4-0.7h0.4l-0.7,1.5h-0.4L45.8,28.1L45.8,28.1z"/>
		<path fill="#FFFFFF" d="M48.8,29.2c0,0.4,0,0.7-0.4,0.7c0,0-0.4,0.4-0.7,0.4c-0.4,0-0.4,0-0.4,0v-0.4h0.4
			C48,29.9,48.4,29.9,48.8,29.2L48.8,29.2L48.8,29.2c-0.4,0-0.4,0.4-0.7,0.4c-0.4,0-0.7-0.4-0.7-0.7c0-0.4,0.4-0.7,0.7-0.7
			c0.4,0,0.4,0,0.4,0.4l0,0v-0.4h0.4v0.4C48.8,28.5,48.8,29.2,48.8,29.2z M48.4,28.5L48.4,28.5c0-0.4-0.4-0.4-0.4-0.4
			c-0.4,0-0.4,0.4-0.4,0.7c0,0.4,0,0.7,0.4,0.7c0,0,0.4,0,0.4-0.4C48.4,28.8,48.4,28.8,48.4,28.5L48.4,28.5z"/>
		<path fill="#FFFFFF" d="M48.8,29.9C48.8,29.9,49.1,29.9,48.8,29.9c0.4-0.4,0.4-0.4,0.4-0.7v-1.5h0.4v1.5c0,0.4,0,0.4-0.4,0.7
			C49.1,30.3,48.8,30.3,48.8,29.9L48.8,29.9z M49.5,27.4C49.5,27.7,49.5,27.7,49.5,27.4C49.1,27.7,49.1,27.7,49.5,27.4
			C49.1,27.4,49.1,27.4,49.5,27.4L49.5,27.4z"/>
		<path fill="#FFFFFF" d="M51,29.2v0.4h-0.4L51,29.2L51,29.2c-0.4,0.4-0.4,0.4-0.7,0.4c-0.4,0-0.4-0.4-0.4-0.4
			c0-0.4,0.4-0.7,1.1-0.7l0,0c0,0,0-0.4-0.4-0.4h-0.4v-0.4h0.4c0.4,0,0.7,0.4,0.7,0.7v0.7H51z M50.6,28.8c-0.4,0-0.7,0-0.7,0.4
			s0,0.4,0.4,0.4C50.6,29.2,50.6,29.2,50.6,28.8C50.6,29.2,50.6,29.2,50.6,28.8L50.6,28.8z"/>
		<path fill="#FFFFFF" d="M52.4,28.8l-0.4,0.7h-0.4l0.7-2.2h0.4l0.7,2.2h-0.4l-0.4-0.7H52.4z M53.2,28.5l-0.4-0.7v-0.4l0,0v0.4
			l-0.4,0.7H53.2z"/>
		<path fill="#FFFFFF" d="M53.9,28.5v-0.4h0.4L53.9,28.5L53.9,28.5c0.4-0.4,0.4-0.4,0.7-0.4c0.4,0,0.4,0,0.4,0.7v1.1l0,0v-0.7
			c0-0.4,0-0.4-0.4-0.4C54.6,28.1,54.3,28.5,53.9,28.5C54.3,28.5,54.3,28.5,53.9,28.5l0.4,1.1h-0.4V28.5z"/>
		<path fill="#FFFFFF" d="M56.8,29.2v0.4h-0.4L56.8,29.2L56.8,29.2c-0.4,0.4-0.4,0.4-0.7,0.4c-0.4,0-0.4-0.4-0.4-0.4
			c0-0.4,0.4-0.7,1.1-0.7l0,0c0,0,0-0.4-0.4-0.4h-0.4v-0.4h0.4c0.4,0,0.7,0.4,0.7,0.7v0.7H56.8z M56.5,28.8c-0.4,0-0.7,0-0.7,0.4
			s0,0.4,0.4,0.4C56.5,29.2,56.5,29.2,56.5,28.8C56.5,29.2,56.5,29.2,56.5,28.8L56.5,28.8z"/>
		<path fill="#FFFFFF" d="M57.2,27.4L57.2,27.4l0.4,2.2h-0.4V27.4z"/>
		<path fill="#FFFFFF" d="M58.3,27.4C58.3,27.7,58.3,27.7,58.3,27.4C58.3,27.7,57.9,27.7,58.3,27.4C57.9,27.4,58.3,27.4,58.3,27.4
			L58.3,27.4z M57.9,29.6v-1.5h0.4L57.9,29.6L57.9,29.6z"/>
		<path fill="#FFFFFF" d="M59,27.7v0.4h0.4v0.4H59v0.7c0,0.4,0,0.4,0.4,0.4l0,0v0.4c0,0,0,0-0.4,0h-0.4v-0.4v-0.7l0,0v-0.4H59V27.7
			L59,27.7z"/>
		<path fill="#FFFFFF" d="M61.2,27.4v1.8v0.4h-0.4v-0.4l0,0l-0.4,0.4c-0.4,0-0.7-0.4-0.7-0.7c0-0.4,0.4-0.7,0.7-0.7
			c0.4,0,0.4,0,0.4,0.4l0,0L61.2,27.4L61.2,27.4z M60.9,28.5L60.9,28.5c0-0.4-0.4-0.4-0.4-0.4c-0.4,0-0.4,0.4-0.4,0.7
			c0,0.4,0,0.7,0.4,0.7c0.4,0,0.4,0,0.4-0.4C60.9,28.8,60.9,28.8,60.9,28.5L60.9,28.5z"/>
		<path fill="#FFFFFF" d="M61.6,29.6v-1.5h-0.4v-0.4h0.4l0,0c0-0.4,0-0.4,0-0.4H62c0,0,0,0,0.4,0v0.4l0,0c-0.4,0-0.4,0.4-0.4,0.4
			l0,0h0.4v0.4H62L61.6,29.6L61.6,29.6z"/>
		<path fill="#FFFFFF" d="M63.8,29.2v0.4h-0.4L63.8,29.2L63.8,29.2c-0.4,0.4-0.4,0.4-0.7,0.4c-0.4,0-0.4-0.4-0.4-0.4
			c0-0.4,0.4-0.7,1.1-0.7l0,0c0,0,0-0.4-0.4-0.4h-0.4v-0.4h0.4c0.4,0,0.7,0.4,0.7,0.7v0.7H63.8z M63.4,28.8c-0.4,0-0.7,0-0.7,0.4
			s0,0.4,0.4,0.4C63.4,29.2,63.4,29.2,63.4,28.8C63.4,29.2,63.4,29.2,63.4,28.8L63.4,28.8z"/>
		<path fill="#FFFFFF" d="M64.2,29.2h0.4c0.4,0,0.4,0,0.4-0.4c0,0,0-0.4-0.4-0.4c-0.4,0-0.4-0.4-0.4-0.4c0-0.4,0.4-0.4,0.4-0.4h0.4
			v0.4c0,0,0,0-0.4,0c0,0-0.4,0-0.4,0.4c0,0,0,0.4,0.4,0.4c0.4,0,0.4,0.4,0.4,0.4S64.9,29.6,64.2,29.2
			C64.2,29.6,64.2,29.6,64.2,29.2L64.2,29.2z"/>
	</g>
	<g>
		<path fill="#FFFFFF" d="M22.7,34.3h0.4c0.4,0,0.4,0,0.4-0.4s0-0.4-0.4-0.4c-0.4,0-0.7-0.4-0.7-0.7c0-0.4,0.4-0.7,0.7-0.7
			c0.4,0,0.4,0,0.4,0v0.4h-0.4c-0.4,0-0.4,0-0.4,0.4c0,0.4,0,0.4,0.4,0.4c0.4,0,0.4,0.4,0.4,0.7s-0.4,0.7-0.7,0.7
			C23.1,34.7,22.7,34.7,22.7,34.3L22.7,34.3z"/>
		<path fill="#FFFFFF" d="M25.7,32.5v1.8v0.4l0,0v-0.4l0,0l-0.4,0.4c-0.4,0-0.7-0.4-0.7-0.7s0.4-0.7,0.7-0.7s0.4,0,0.4,0.4l0,0V32.5
			L25.7,32.5z M25.3,34L25.3,34c0-0.4-0.4-0.4-0.4-0.4c-0.4,0-0.4,0.4-0.4,0.7s0,0.7,0.4,0.7s0.4,0,0.4-0.4
			C25.3,34.3,25.3,34.3,25.3,34L25.3,34z"/>
		<path fill="#FFFFFF" d="M27.5,34.3v0.4h-0.4L27.5,34.3L27.5,34.3c-0.4,0.4-0.4,0.4-0.7,0.4s-0.4,0-0.4-0.7v-0.7h0.4V34
			c0,0.4,0,0.4,0.4,0.4C27.1,34.7,27.1,34.3,27.5,34.3C27.1,34.3,27.1,34.3,27.5,34.3l-0.4-1.1h0.4V34.3z"/>
		<path fill="#FFFFFF" d="M29,34.3v0.4l0,0V34.3L29,34.3c-0.4,0.4-0.4,0.4-0.7,0.4c-0.4,0-0.4-0.4-0.4-0.4c0-0.4,0.4-0.7,1.1-0.7
			l0,0c0,0,0-0.4-0.4-0.4h-0.4v-0.4h0.4c0.4,0,0.7,0.4,0.7,0.7v0.7H29z M28.6,34c-0.4,0-0.7,0-0.7,0.4s0,0.4,0.4,0.4
			C28.6,34.7,28.6,34.7,28.6,34C28.6,34.3,28.6,34.3,28.6,34L28.6,34z"/>
		<path fill="#FFFFFF" d="M29.3,34.7h0.4c0.4,0,0.4,0,0.4-0.4c0,0,0-0.4-0.4-0.4c-0.4,0-0.4-0.4-0.4-0.4c0-0.4,0.4-0.4,0.4-0.4h0.4
			v0.4c0,0,0,0-0.4,0c0,0-0.4,0-0.4,0.4c0,0,0,0,0.4,0.4c0.4,0,0.4,0.4,0.4,0.4C30.4,34.7,30.1,34.7,29.3,34.7
			C29.7,34.7,29.3,34.7,29.3,34.7L29.3,34.7z"/>
		<path fill="#FFFFFF" d="M32.3,32.5v1.8v0.4h-0.4v-0.4l0,0l-0.4,0.4c-0.4,0-0.7-0.4-0.7-0.7s0.4-0.7,0.7-0.7c0.4,0,0.4,0,0.4,0.4
			l0,0L32.3,32.5L32.3,32.5z M31.9,34L31.9,34c0-0.4-0.4-0.4-0.4-0.4c-0.4,0-0.4,0.4-0.4,0.7s0,0.7,0.4,0.7c0.4,0,0.4,0,0.4-0.4
			C31.9,34.3,31.9,34.3,31.9,34L31.9,34z"/>
		<path fill="#FFFFFF" d="M32.6,34.7v-1.5h-0.4v-0.4h0.4l0,0c0-0.4,0-0.4,0-0.4H33h0.4v0.4l0,0c-0.4,0-0.4,0-0.4,0.4l0,0h0.4v0.4H33
			L32.6,34.7L32.6,34.7z"/>
		<path fill="#FFFFFF" d="M34.5,34.3v0.4l0,0V34.3L34.5,34.3c-0.4,0.4-0.4,0.4-0.7,0.4c-0.4,0-0.4-0.4-0.4-0.4
			c0-0.4,0.4-0.7,1.1-0.7l0,0c0,0,0-0.4-0.4-0.4h-0.4v-0.4h0.4c0.4,0,0.7,0.4,0.7,0.7v0.7H34.5z M34.5,34c-0.4,0-0.7,0-0.7,0.4
			s0,0.4,0.4,0.4C34.1,34.7,34.1,34.7,34.5,34C34.5,34.3,34.5,34.3,34.5,34L34.5,34z"/>
		<path fill="#FFFFFF" d="M34.8,34.7h0.4c0.4,0,0.4,0,0.4-0.4c0,0,0-0.4-0.4-0.4c-0.4,0-0.4-0.4-0.4-0.4c0-0.4,0.4-0.4,0.4-0.4h0.4
			v0.4c0,0,0,0-0.4,0c0,0-0.4,0-0.4,0.4c0,0,0,0,0.4,0.4c0.4,0,0.4,0.4,0.4,0.4C35.9,34.7,35.6,34.7,34.8,34.7
			C35.2,34.7,35.2,34.7,34.8,34.7L34.8,34.7z"/>
		<path fill="#FFFFFF" d="M38.1,34h-0.7v0.7h1.1v0.4h-1.1v-2.2h1.1v0.4h-0.7V34L38.1,34L38.1,34z"/>
		<path fill="#FFFFFF" d="M38.5,33.2L38.5,33.2c0.4,0.4,0.4,0.4,0.4,0.7l0,0c0,0,0,0,0-0.4l0.4-0.4h0.4L39.2,34l0.4,0.7h-0.4l0-0.4
			c0,0,0,0,0-0.4l0,0c0,0,0,0,0,0.4l-0.4,0.4h-0.4l0.4-0.7L38.5,33.2L38.5,33.2z"/>
		<path fill="#FFFFFF" d="M40,34c0-0.4,0-0.4,0-0.4h0.4L40,34L40,34c0.4-0.4,0.7-0.4,0.7-0.4c0.4,0,0.7,0.4,0.7,0.7
			c0,0.7-0.4,0.7-0.7,0.7s-0.4,0-0.4-0.4l0,0v0.7H40C40,35.4,40,34,40,34z M40.3,34.3L40.3,34.3c0,0.4,0.4,0.4,0.4,0.4
			c0.4,0,0.4-0.4,0.4-0.7s0-0.7-0.4-0.7c-0.4,0-0.4,0-0.4,0.4S40.3,34,40.3,34.3L40.3,34.3z"/>
		<path fill="#FFFFFF" d="M41.8,33.6v-0.4h0.4L41.8,33.6L41.8,33.6c0.4-0.4,0.4-0.4,0.7-0.4l0,0v0.4l0,0
			C42.2,33.6,42.2,33.6,41.8,33.6C42.2,34,42.2,34,41.8,33.6l0.4,1.1h-0.4V33.6z"/>
		<path fill="#FFFFFF" d="M43.3,32.9v0.4h0.4v0.4h-0.4v0.7c0,0.4,0,0.4,0.4,0.4l0,0v0.4c0,0,0,0-0.4,0h-0.4v-0.4V34h-0.4v-0.4h0.4
			L43.3,32.9L43.3,32.9z"/>
		<path fill="#FFFFFF" d="M44,32.5L44,32.5l0.4,1.1l0,0l0.4-0.4c0.4,0,0.7,0.4,0.7,0.7s-0.4,0.7-0.7,0.7c-0.4,0-0.4,0-0.4-0.4l0,0
			v0.4H44v-0.4V32.5z M44.4,34.3L44.4,34.3c0,0.4,0.4,0.4,0.4,0.4c0.4,0,0.4-0.4,0.4-0.7s0-0.7-0.4-0.7s-0.4,0-0.4,0.4
			S44.4,34,44.4,34.3L44.4,34.3z"/>
		<path fill="#FFFFFF" d="M45.8,33.2l0.4,0.7v0.4l0,0V34l0.4-0.7h0.4l-0.7,1.5h-0.4L45.8,33.2L45.8,33.2z"/>
		<path fill="#FFFFFF" d="M48.8,34.7c0,0.4,0,0.7-0.4,0.7c0,0-0.4,0.4-0.7,0.4c-0.4,0-0.4,0-0.4,0v-0.4h0.4
			C48,35.4,48.4,35.1,48.8,34.7L48.8,34.7L48.8,34.7c-0.4,0-0.4,0.4-0.7,0.4c-0.4,0-0.7-0.4-0.7-0.7s0.4-0.7,0.7-0.7
			c0.4,0,0.4,0,0.4,0.4l0,0v-0.4h0.4V34C48.8,34,48.8,34.7,48.8,34.7z M48.4,34L48.4,34c0-0.4-0.4-0.4-0.4-0.4
			c-0.4,0-0.4,0.4-0.4,0.7s0,0.7,0.4,0.7c0,0,0.4,0,0.4-0.4C48.4,34.3,48.4,34.3,48.4,34L48.4,34z"/>
		<path fill="#FFFFFF" d="M48.8,35.4C48.8,35.4,49.1,35.1,48.8,35.4c0.4-0.4,0.4-0.4,0.4-0.7v-1.5h0.4v1.5c0,0.4,0,0.4-0.4,0.7
			C49.1,35.4,48.8,35.4,48.8,35.4L48.8,35.4z M49.5,32.9L49.5,32.9C49.1,32.9,49.1,32.9,49.5,32.9C49.1,32.9,49.1,32.9,49.5,32.9
			L49.5,32.9z"/>
		<path fill="#FFFFFF" d="M51,34.3v0.4h-0.4L51,34.3L51,34.3c-0.4,0.4-0.4,0.4-0.7,0.4c-0.4,0-0.4-0.4-0.4-0.4
			c0-0.4,0.4-0.7,1.1-0.7l0,0c0,0,0-0.4-0.4-0.4h-0.4v-0.4h0.4c0.4,0,0.7,0.4,0.7,0.7v0.7H51z M50.6,34c-0.4,0-0.7,0-0.7,0.4
			s0,0.4,0.4,0.4C50.6,34.7,50.6,34.7,50.6,34C50.6,34.3,50.6,34.3,50.6,34L50.6,34z"/>
		<path fill="#FFFFFF" d="M52.4,34.3l-0.4,0.7h-0.4l0.7-2.2h0.4l0.7,2.2h-0.4l0-0.7H52.4z M53.2,34l-0.4-0.7v-0.4l0,0v0.4L52.4,34
			H53.2z"/>
		<path fill="#FFFFFF" d="M53.9,33.6v-0.4h0.4L53.9,33.6L53.9,33.6c0.4-0.4,0.4-0.4,0.7-0.4c0.4,0,0.4,0,0.4,0.7v0.7l0,0V34
			c0-0.4,0-0.4-0.4-0.4C54.6,33.6,54.3,33.6,53.9,33.6C54.3,34,54.3,34,53.9,33.6l0.4,1.1h-0.4V33.6z"/>
		<path fill="#FFFFFF" d="M56.8,34.3v0.4h-0.4L56.8,34.3L56.8,34.3c-0.4,0.4-0.4,0.4-0.7,0.4c-0.4,0-0.4-0.4-0.4-0.4
			c0-0.4,0.4-0.7,1.1-0.7l0,0c0,0,0-0.4-0.4-0.4h-0.4v-0.4h0.4c0.4,0,0.7,0.4,0.7,0.7v0.7H56.8z M56.5,34c-0.4,0-0.7,0-0.7,0.4
			s0,0.4,0.4,0.4C56.5,34.7,56.5,34.7,56.5,34C56.5,34.3,56.5,34.3,56.5,34L56.5,34z"/>
		<path fill="#FFFFFF" d="M57.2,32.5L57.2,32.5l0.4,2.2h-0.4V32.5z"/>
		<path fill="#FFFFFF" d="M58.3,32.9L58.3,32.9C58.3,32.9,57.9,32.9,58.3,32.9C57.9,32.9,58.3,32.9,58.3,32.9L58.3,32.9z M57.9,34.7
			v-1.5h0.4L57.9,34.7L57.9,34.7z"/>
		<path fill="#FFFFFF" d="M59,32.9v0.4h0.4v0.4H59v0.7c0,0.4,0,0.4,0.4,0.4l0,0v0.4c0,0,0,0-0.4,0h-0.4v-0.4V34l0,0v-0.4H59V32.9
			L59,32.9z"/>
		<path fill="#FFFFFF" d="M61.2,32.5v1.8v0.4h-0.4v-0.4l0,0l-0.4,0.4c-0.4,0-0.7-0.4-0.7-0.7s0.4-0.7,0.7-0.7c0.4,0,0.4,0,0.4,0.4
			l0,0L61.2,32.5L61.2,32.5z M60.9,34L60.9,34c0-0.4-0.4-0.4-0.4-0.4c-0.4,0-0.4,0.4-0.4,0.7s0,0.7,0.4,0.7c0.4,0,0.4,0,0.4-0.4
			C60.9,34.3,60.9,34.3,60.9,34L60.9,34z"/>
		<path fill="#FFFFFF" d="M61.6,34.7v-1.5h-0.4v-0.4h0.4l0,0c0-0.4,0-0.4,0-0.4H62c0,0,0,0,0.4,0v0.4l0,0c-0.4,0-0.4,0.4-0.4,0.4
			l0,0h0.4v0.4H62L61.6,34.7L61.6,34.7z"/>
		<path fill="#FFFFFF" d="M63.8,34.3v0.4h-0.4L63.8,34.3L63.8,34.3c-0.4,0.4-0.4,0.4-0.7,0.4c-0.4,0-0.4-0.4-0.4-0.4
			c0-0.4,0.4-0.7,1.1-0.7l0,0c0,0,0-0.4-0.4-0.4h-0.4v-0.4h0.4c0.4,0,0.7,0.4,0.7,0.7v0.7H63.8z M63.4,34c-0.4,0-0.7,0-0.7,0.4
			s0,0.4,0.4,0.4C63.4,34.7,63.4,34.7,63.4,34C63.4,34.3,63.4,34.3,63.4,34L63.4,34z"/>
		<path fill="#FFFFFF" d="M64.2,34.7h0.4c0.4,0,0.4,0,0.4-0.4c0,0,0-0.4-0.4-0.4c-0.4,0-0.4-0.4-0.4-0.4c0-0.4,0.4-0.4,0.4-0.4h0.4
			v0.4c0,0,0,0-0.4,0c0,0-0.4,0-0.4,0.4c0,0,0,0,0.4,0.4c0.4,0,0.4,0.4,0.4,0.4S64.9,34.7,64.2,34.7L64.2,34.7L64.2,34.7z"/>
	</g>
	<g>
		<path fill="#FFFFFF" d="M22.7,133.7c0,0,0.4,0,0.7,0c0.4,0,0.4,0,0.4-0.4c0-0.4,0-0.4-0.4-0.4c-0.4,0-0.7-0.4-0.7-0.7
			c0-0.4,0.4-0.7,0.7-0.7c0.4,0,0.4,0,0.4,0v0.4h-0.4c-0.4,0-0.4,0.4-0.4,0.4c0,0.4,0,0.4,0.4,0.4c0.4,0,0.7,0.4,0.7,0.7
			c0,0.4-0.4,0.7-0.7,0.7C23.1,134.1,22.7,134.1,22.7,133.7L22.7,133.7z"/>
		<path fill="#FFFFFF" d="M26,131.5v2.2v0.4l0,0v-0.4l0,0c0,0.4-0.4,0.4-0.7,0.4s-0.7-0.4-0.7-0.7c0-0.7,0.4-1.1,0.7-1.1
			s0.4,0,0.4,0.4l0,0L26,131.5L26,131.5z M26,133L26,133c0-0.4-0.4-0.4-0.4-0.4c-0.4,0-0.4,0.4-0.4,0.7s0,0.7,0.4,0.7
			c0.4,0,0.4,0,0.4-0.4C26,133.7,26,133.3,26,133L26,133z"/>
		<path fill="#FFFFFF" d="M28.2,133.7c0,0.4,0,0.4,0,0.4h-0.4L28.2,133.7L28.2,133.7c-0.4,0.4-0.7,0.4-0.7,0.4c-0.4,0-0.7,0-0.7-0.7
			v-1.1h0.4v1.1c0,0.4,0,0.7,0.4,0.7C27.5,134.1,27.9,133.7,28.2,133.7C27.9,133.7,27.9,133.7,28.2,133.7l-0.4-1.5h0.4V133.7z"/>
		<path fill="#FFFFFF" d="M30.1,133.7v0.4h-0.4L30.1,133.7L30.1,133.7c-0.4,0.4-0.7,0.4-0.7,0.4c-0.4,0-0.4-0.4-0.4-0.4
			c0-0.4,0.4-0.7,1.1-0.7l0,0c0,0,0-0.4-0.4-0.4h-0.4v-0.4c0,0,0.4,0,0.7,0c0.4,0,0.7,0.4,0.7,0.7v0.7H30.1z M29.7,133.3
			c-0.4,0-0.7,0-0.7,0.4c0,0.4,0,0.4,0.4,0.4s0.4,0,0.4-0.4C29.7,133.7,29.7,133.7,29.7,133.3L29.7,133.3z"/>
		<path fill="#FFFFFF" d="M30.4,133.7h0.4c0.4,0,0.4,0,0.4-0.4c0,0,0-0.4-0.4-0.4s-0.4-0.4-0.4-0.4c0-0.4,0.4-0.4,0.7-0.4h0.4v0.4
			h-0.4c-0.4,0-0.4,0-0.4,0.4c0,0,0,0.4,0.4,0.4c0.4,0,0.4,0.4,0.4,0.4c0,0.4-0.4,0.4-0.7,0.4C30.8,134.1,30.4,134.1,30.4,133.7
			L30.4,133.7z"/>
		<path fill="#FFFFFF" d="M33.4,131.5v2.2v0.4l0,0v-0.4l0,0c0,0.4-0.4,0.4-0.7,0.4c-0.4,0-0.7-0.4-0.7-0.7c0-0.7,0.4-1.1,0.7-1.1
			c0.4,0,0.4,0,0.4,0.4l0,0L33.4,131.5L33.4,131.5z M33.4,133L33.4,133c0-0.4-0.4-0.4-0.4-0.4c-0.4,0-0.4,0.4-0.4,0.7s0,0.7,0.4,0.7
			s0.4,0,0.4-0.4C33.4,133.7,33.4,133.3,33.4,133L33.4,133z"/>
		<path fill="#FFFFFF" d="M34.1,134.1v-1.5h-0.4v-0.4h0.4l0,0c0-0.4,0-0.4,0.4-0.7h0.4h0.4v0.4c0,0,0,0-0.4,0
			c-0.4,0-0.4,0.4-0.4,0.4l0,0h0.4v0.4h-0.4L34.1,134.1L34.1,134.1z"/>
		<path fill="#FFFFFF" d="M36.3,133.7v0.4l0,0V133.7L36.3,133.7c-0.4,0.4-0.7,0.4-0.7,0.4c-0.4,0-0.4-0.4-0.4-0.4
			c0-0.4,0.4-0.7,1.1-0.7l0,0c0,0,0-0.4-0.4-0.4h-0.4v-0.4c0,0,0.4,0,0.7,0c0.4,0,0.7,0.4,0.7,0.7v0.7H36.3z M35.9,133.3
			c-0.4,0-0.7,0-0.7,0.4c0,0.4,0,0.4,0.4,0.4s0.4,0,0.4-0.4C35.9,133.7,35.9,133.7,35.9,133.3L35.9,133.3z"/>
		<path fill="#FFFFFF" d="M37,133.7h0.4c0.4,0,0.4,0,0.4-0.4c0,0,0-0.4-0.4-0.4c-0.4,0-0.4-0.4-0.4-0.4c0-0.4,0.4-0.4,0.7-0.4h0.4
			v0.4h-0.4c-0.4,0-0.4,0-0.4,0.4c0,0,0,0.4,0.4,0.4c0.4,0,0.4,0.4,0.4,0.4c0,0.4-0.4,0.4-0.7,0.4C37,134.1,37,134.1,37,133.7
			L37,133.7z"/>
		<path fill="#FFFFFF" d="M40.3,133h-1.1v0.7h1.1v0.4h-1.5v-2.6h1.5v0.4h-1.1v0.7L40.3,133L40.3,133z"/>
		<path fill="#FFFFFF" d="M41.1,132.2l0.4,0.4v0.4l0,0v-0.4l0.4-0.4h0.4l-0.4,1.1l0.7,1.1h-0.4l-0.4-0.4c0,0,0-0.4-0.4-0.4l0,0
			c0,0,0,0.4-0.4,0.4l-0.4,0.4h-0.4l0.7-0.7L41.1,132.2L41.1,132.2z"/>
		<path fill="#FFFFFF" d="M42.5,133c0-0.4,0-0.4,0-0.7h0.4L42.5,133L42.5,133c0.4-0.4,0.7-0.7,1.1-0.7s0.7,0.4,0.7,0.7
			c0,0.7-0.4,1.1-0.7,1.1c-0.4,0-0.4,0-0.4-0.4l0,0v1.1h-0.4V133H42.5z M42.9,133.3C42.9,133.3,42.9,133.7,42.9,133.3
			c0,0.4,0.4,0.4,0.4,0.4c0.4,0,0.4-0.4,0.4-0.7c0-0.4-0.4-0.7-0.4-0.7c-0.4,0-0.4,0-0.4,0.4C42.9,133,42.9,133,42.9,133.3
			L42.9,133.3z"/>
		<path fill="#FFFFFF" d="M44.7,133c0-0.4,0-0.4,0-0.7h0.4L44.7,133L44.7,133c0.4-0.4,0.7-0.7,0.7-0.7l0,0v0.4l0,0
			C45.5,132.6,45.1,133,44.7,133C45.1,133,45.1,133.3,44.7,133l0.4,1.1h-0.4V133z"/>
		<path fill="#FFFFFF" d="M46.6,131.9v0.4h0.4v0.4h-0.4v1.1c0,0.4,0,0.4,0.4,0.4c0,0,0,0,0.4,0v0.4c0,0,0,0-0.4,0h-0.4v-0.4V133
			h-0.4v-0.4h0.4V131.9L46.6,131.9z"/>
		<path fill="#FFFFFF" d="M47.3,131.5L47.3,131.5l0.4,1.1l0,0c0-0.4,0.4-0.4,0.7-0.4c0.4,0,0.7,0.4,0.7,0.7c0,0.7-0.4,1.1-0.7,1.1
			c-0.4,0-0.4,0-0.7-0.4l0,0v0.4h-0.4v-0.4V131.5z M47.7,133.3C47.7,133.3,47.7,133.7,47.7,133.3c0,0.4,0.4,0.4,0.4,0.4
			c0.4,0,0.4-0.4,0.4-0.7c0-0.4-0.4-0.7-0.4-0.7c-0.4,0-0.4,0-0.4,0.4C47.7,133,47.7,133,47.7,133.3L47.7,133.3z"/>
		<path fill="#FFFFFF" d="M49.5,132.2l0.4,1.1v0.4l0,0v-0.4l0.4-1.1h0.4l-0.7,1.8h-0.4L49.5,132.2L49.5,132.2z"/>
		<path fill="#FFFFFF" d="M52.4,134.1c0,0.4,0,0.7-0.4,0.7c0,0-0.4,0.4-0.7,0.4c-0.4,0-0.4,0-0.7,0v-0.4H51
			C52.1,134.8,52.4,134.4,52.4,134.1L52.4,134.1L52.4,134.1c-0.4,0-0.7,0.4-0.7,0.4c-0.4,0-0.7-0.4-0.7-0.7c0-0.7,0.4-1.1,0.7-1.1
			c0.4,0,0.4,0,0.7,0.4l0,0v-0.4h0.4v0.4v1.1H52.4z M52.4,133L52.4,133c0-0.4-0.4-0.4-0.4-0.4c-0.7,0-0.7,0.4-0.7,0.7
			c0,0.4,0,0.7,0.4,0.7c0.4,0,0.4,0,0.4-0.4C52.4,133.7,52.4,133.3,52.4,133L52.4,133z"/>
		<path fill="#FFFFFF" d="M52.8,134.8L52.8,134.8c0.4-0.4,0.4-0.4,0.4-0.7v-1.5h0.4v1.5c0,0.4,0,0.7-0.4,0.7H52.8L52.8,134.8z
			 M53.5,131.9C53.5,131.9,53.5,132.2,53.5,131.9c-0.4,0.4-0.4,0-0.4,0S53.2,131.9,53.5,131.9L53.5,131.9z"/>
		<path fill="#FFFFFF" d="M55.4,133.7v0.4H55L55.4,133.7L55.4,133.7c-0.4,0.4-0.7,0.4-0.7,0.4c-0.4,0-0.4-0.4-0.4-0.4
			c0-0.4,0.4-0.7,1.1-0.7l0,0c0,0,0-0.4-0.4-0.4h-0.4v-0.4c0,0,0.4,0,0.7,0c0.4,0,0.7,0.4,0.7,0.7v0.7H55.4z M55,133.3
			c-0.4,0-0.7,0-0.7,0.4c0,0.4,0,0.4,0.4,0.4c0.4,0,0.4,0,0.4-0.4C55,133.7,55,133.7,55,133.3L55,133.3z"/>
		<path fill="#FFFFFF" d="M56.8,133.3l-0.4,0.7h-0.4l0.7-2.6h0.4l0.7,2.6h-0.4l0.4-0.7H56.8z M57.9,133.3l-0.4-0.7v-0.4l0,0v0.4
			l-0.4,0.7H57.9z"/>
		<path fill="#FFFFFF" d="M58.7,133c0-0.4,0-0.4,0-0.4H59L58.7,133L58.7,133c0.4-0.4,0.7-0.4,0.7-0.4c0.4,0,0.7,0,0.7,0.7v1.1h-0.4
			v-1.1c0-0.4,0-0.4-0.4-0.4C59.4,132.6,59.4,133,58.7,133C59,133,59,133,58.7,133l0.4,1.5h-0.4V133z"/>
		<path fill="#FFFFFF" d="M62,133.7v0.4h-0.4L62,133.7L62,133.7c-0.4,0.4-0.7,0.4-0.7,0.4c-0.4,0-0.4-0.4-0.4-0.4
			c0-0.4,0.4-0.7,1.1-0.7l0,0c0,0,0-0.4-0.4-0.4h-0.4v-0.4c0,0,0.4,0,0.7,0s0.7,0.4,0.7,0.7v0.7H62z M62,133.3c-0.4,0-0.7,0-0.7,0.4
			c0,0.4,0,0.4,0.4,0.4s0.4,0,0.4-0.4C62,133.7,62,133.7,62,133.3L62,133.3z"/>
		<path fill="#FFFFFF" d="M62.7,131.5L62.7,131.5l0.4,2.6h-0.4V131.5z"/>
		<path fill="#FFFFFF" d="M63.8,131.9C63.8,131.9,63.8,132.2,63.8,131.9c-0.4,0.4-0.4,0-0.4,0S63.4,131.9,63.8,131.9L63.8,131.9z
			 M63.4,134.1v-1.8h0.4L63.4,134.1L63.4,134.1z"/>
		<path fill="#FFFFFF" d="M64.9,131.9v0.4h0.4v0.4h-0.4v1.1c0,0.4,0,0.4,0.4,0.4c0,0,0,0,0.4,0v0.4c0,0,0,0-0.4,0h-0.4v-0.4V133
			h-0.4v-0.4h0.4V131.9L64.9,131.9z"/>
		<path fill="#FFFFFF" d="M67.1,131.5v2.2v0.4h-0.4v-0.4l0,0c0,0.4-0.4,0.4-0.7,0.4s-0.7-0.4-0.7-0.7c0-0.7,0.4-1.1,0.7-1.1
			s0.4,0,0.4,0.4l0,0L67.1,131.5L67.1,131.5z M66.7,133L66.7,133c0-0.4-0.4-0.4-0.4-0.4c-0.4,0-0.4,0.4-0.4,0.7s0,0.7,0.4,0.7
			s0.4,0,0.4-0.4C66.7,133.7,66.7,133.3,66.7,133L66.7,133z"/>
		<path fill="#FFFFFF" d="M67.8,134.1v-1.5h-0.4v-0.4h0.4l0,0c0-0.4,0-0.4,0.4-0.7h0.4h0.4v0.4c0,0,0,0-0.4,0s-0.4,0.4-0.4,0.4l0,0
			h0.4v0.4h-0.4L67.8,134.1L67.8,134.1z"/>
		<path fill="#FFFFFF" d="M70,133.7v0.4h-0.4L70,133.7L70,133.7c-0.4,0.4-0.7,0.4-0.7,0.4c-0.4,0-0.4-0.4-0.4-0.4
			c0-0.4,0.4-0.7,1.1-0.7l0,0c0,0,0-0.4-0.4-0.4h-0.4v-0.4c0,0,0.4,0,0.7,0c0.4,0,0.7,0.4,0.7,0.7v0.7H70z M69.7,133.3
			c-0.4,0-0.7,0-0.7,0.4c0,0.4,0,0.4,0.4,0.4s0.4,0,0.4-0.4C69.7,133.7,69.7,133.7,69.7,133.3L69.7,133.3z"/>
		<path fill="#FFFFFF" d="M70.4,133.7h0.4c0.4,0,0.4,0,0.4-0.4c0,0,0-0.4-0.4-0.4s-0.4-0.4-0.4-0.4c0-0.4,0.4-0.4,0.7-0.4h0.4v0.4
			h-0.4c-0.4,0-0.4,0-0.4,0.4c0,0,0,0.4,0.4,0.4s0.4,0.4,0.4,0.4c0,0.4-0.4,0.4-0.7,0.4C70.8,134.1,70.4,134.1,70.4,133.7
			L70.4,133.7z"/>
	</g>
	<g>
		<path fill="#FFFFFF" d="M71.9,133.7c0,0,0.4,0,0.7,0s0.4,0,0.4-0.4c0-0.4,0-0.4-0.4-0.4s-0.7-0.4-0.7-0.7c0-0.4,0.4-0.7,0.7-0.7
			s0.4,0,0.4,0v0.4h-0.4c-0.4,0-0.4,0.4-0.4,0.4c0,0.4,0,0.4,0.4,0.4s0.7,0.4,0.7,0.7c0,0.4-0.4,0.7-0.7,0.7S71.9,134.1,71.9,133.7
			L71.9,133.7z"/>
		<path fill="#FFFFFF" d="M75.2,131.5v2.2v0.4h-0.4v-0.4l0,0c0,0.4-0.4,0.4-0.7,0.4s-0.7-0.4-0.7-0.7c0-0.7,0.4-1.1,0.7-1.1
			s0.4,0,0.4,0.4l0,0L75.2,131.5L75.2,131.5z M74.8,133L74.8,133c0-0.4-0.4-0.4-0.4-0.4c-0.4,0-0.4,0.4-0.4,0.7s0,0.7,0.4,0.7
			s0.4,0,0.4-0.4C74.8,133.7,74.8,133.3,74.8,133L74.8,133z"/>
		<path fill="#FFFFFF" d="M77.4,133.7c0,0.4,0,0.4,0,0.4H77L77.4,133.7L77.4,133.7c-0.4,0.4-0.7,0.4-0.7,0.4c-0.4,0-0.7,0-0.7-0.7
			v-1.1h0.4v1.1c0,0.4,0,0.7,0.4,0.7C76.6,134.1,77,133.7,77.4,133.7C77,133.7,77,133.7,77.4,133.7l-0.4-1.5h0.4V133.7z"/>
		<path fill="#FFFFFF" d="M79.2,133.7v0.4h-0.4L79.2,133.7L79.2,133.7c-0.4,0.4-0.7,0.4-0.7,0.4c-0.4,0-0.4-0.4-0.4-0.4
			c0-0.4,0.4-0.7,1.1-0.7l0,0c0,0,0-0.4-0.4-0.4h-0.4v-0.4c0,0,0.4,0,0.7,0s0.7,0.4,0.7,0.7v0.7H79.2z M78.8,133.3
			c-0.4,0-0.7,0-0.7,0.4c0,0.4,0,0.4,0.4,0.4s0.4,0,0.4-0.4C78.8,133.7,78.8,133.7,78.8,133.3L78.8,133.3z"/>
		<path fill="#FFFFFF" d="M79.6,133.7h0.4c0.4,0,0.4,0,0.4-0.4c0,0,0-0.4-0.4-0.4s-0.4-0.4-0.4-0.4c0-0.4,0.4-0.4,0.7-0.4h0.4v0.4
			h-0.4c-0.4,0-0.4,0-0.4,0.4c0,0,0,0.4,0.4,0.4c0.4,0,0.4,0.4,0.4,0.4c0,0.4-0.4,0.4-0.7,0.4C79.9,134.1,79.6,134.1,79.6,133.7
			L79.6,133.7z"/>
		<path fill="#FFFFFF" d="M82.5,131.5v2.2v0.4h-0.4v-0.4l0,0c0,0.4-0.4,0.4-0.7,0.4c-0.4,0-0.7-0.4-0.7-0.7c0-0.7,0.4-1.1,0.7-1.1
			c0.4,0,0.4,0,0.4,0.4l0,0L82.5,131.5L82.5,131.5z M82.1,133L82.1,133c0-0.4-0.4-0.4-0.4-0.4c-0.4,0-0.4,0.4-0.4,0.7s0,0.7,0.4,0.7
			s0.4,0,0.4-0.4C82.1,133.7,82.1,133.3,82.1,133L82.1,133z"/>
		<path fill="#FFFFFF" d="M83.2,134.1v-1.5h-0.4v-0.4h0.4l0,0c0-0.4,0-0.4,0.4-0.7H84h0.4v0.4c0,0,0,0-0.4,0s-0.4,0.4-0.4,0.4l0,0
			H84v0.4h-0.4L83.2,134.1L83.2,134.1z"/>
		<path fill="#FFFFFF" d="M85.4,133.7v0.4h-0.4L85.4,133.7L85.4,133.7c-0.4,0.4-0.7,0.4-0.7,0.4c-0.4,0-0.4-0.4-0.4-0.4
			c0-0.4,0.4-0.7,1.1-0.7l0,0c0,0,0-0.4-0.4-0.4h-0.4v-0.4c0,0,0.4,0,0.7,0s0.7,0.4,0.7,0.7v0.7H85.4z M85.1,133.3
			c-0.4,0-0.7,0-0.7,0.4c0,0.4,0,0.4,0.4,0.4s0.4,0,0.4-0.4C85.1,133.7,85.1,133.7,85.1,133.3L85.1,133.3z"/>
		<path fill="#FFFFFF" d="M85.8,133.7h0.4c0.4,0,0.4,0,0.4-0.4c0,0,0-0.4-0.4-0.4c-0.4,0-0.4-0.4-0.4-0.4c0-0.4,0.4-0.4,0.7-0.4h0.4
			v0.4h-0.4c-0.4,0-0.4,0-0.4,0.4c0,0,0,0.4,0.4,0.4c0.4,0,0.4,0.4,0.4,0.4c0,0.4-0.4,0.4-0.7,0.4C86.2,134.1,85.8,134.1,85.8,133.7
			L85.8,133.7z"/>
		<path fill="#FFFFFF" d="M89.5,133h-1.1v0.7h1.1v0.4H88v-2.6h1.5v0.4h-1.1v0.7L89.5,133L89.5,133z"/>
		<path fill="#FFFFFF" d="M90.2,132.2l0.4,0.4c0,0,0,0.4,0.4,0.4l0,0v-0.4l0.4-0.4h0.4l-0.7,1.1l0.7,1.1h-0.4l-0.4-0.4
			c0,0,0-0.4-0.4-0.4l0,0c0,0,0,0.4-0.4,0.4l-0.4,0.4h-0.4l0.7-0.7L90.2,132.2L90.2,132.2z"/>
		<path fill="#FFFFFF" d="M91.7,133c0-0.4,0-0.4,0-0.7H92L91.7,133L91.7,133c0.4-0.4,0.7-0.7,1.1-0.7c0.4,0,0.7,0.4,0.7,0.7
			c0,0.7-0.4,1.1-0.7,1.1c-0.4,0-0.4,0-0.4-0.4l0,0v1.1h-0.7V133z M92,133.3C92,133.3,92,133.7,92,133.3c0,0.4,0.4,0.4,0.4,0.4
			c0.4,0,0.4-0.4,0.4-0.7c0-0.4-0.4-0.7-0.4-0.7c-0.4,0-0.4,0-0.4,0.4C92,133,92,133,92,133.3L92,133.3z"/>
		<path fill="#FFFFFF" d="M93.9,133c0-0.4,0-0.4,0-0.7h0.4L93.9,133L93.9,133c0.4-0.4,0.7-0.7,0.7-0.7l0,0v0.4l0,0
			C94.2,132.6,94.2,133,93.9,133C94.2,133,94.2,133.3,93.9,133l0.4,1.1h-0.4V133z"/>
		<path fill="#FFFFFF" d="M95.3,131.9v0.4h0.4v0.4h-0.4v1.1c0,0.4,0,0.4,0.4,0.4c0,0,0,0,0.4,0v0.4c0,0,0,0-0.4,0h-0.4v-0.4V133H95
			v-0.4h0.4V131.9L95.3,131.9z"/>
		<path fill="#FFFFFF" d="M96.4,131.5L96.4,131.5l0.4,1.1l0,0c0-0.4,0.4-0.4,0.7-0.4c0.4,0,0.7,0.4,0.7,0.7c0,0.7-0.4,1.1-0.7,1.1
			c-0.4,0-0.4,0-0.7-0.4l0,0v0.4h-0.4v-0.4V131.5z M96.8,133.3C96.8,133.3,96.8,133.7,96.8,133.3c0,0.4,0.4,0.4,0.4,0.4
			c0.4,0,0.4-0.4,0.4-0.7c0-0.4,0-0.7-0.4-0.7s-0.4,0-0.4,0.4C96.8,133,96.8,133,96.8,133.3L96.8,133.3z"/>
		<path fill="#FFFFFF" d="M98.6,132.2l0.4,1.1v0.4l0,0v-0.4l0.4-1.1h0.4l-0.7,1.8l0,0L98.6,132.2L98.6,132.2z"/>
		<path fill="#FFFFFF" d="M101.6,134.1c0,0.4,0,0.7-0.4,0.7c0,0-0.4,0.4-0.7,0.4s-0.4,0-0.7,0v-0.4h0.4
			C101.2,134.8,101.2,134.4,101.6,134.1L101.6,134.1L101.6,134.1c-0.4,0-0.7,0.4-0.7,0.4c-0.4,0-0.7-0.4-0.7-0.7
			c0-0.7,0.4-1.1,0.7-1.1s0.4,0,0.7,0.4l0,0v-0.4h0.4v0.4v1.1H101.6z M101.2,133L101.2,133c0-0.4-0.4-0.4-0.4-0.4
			c-0.4,0-0.4,0.4-0.4,0.7s0,0.7,0.4,0.7s0.4,0,0.4-0.4C101.2,133.7,101.2,133.3,101.2,133L101.2,133z"/>
		<path fill="#FFFFFF" d="M101.9,134.8L101.9,134.8c0.4-0.4,0.4-0.4,0.4-0.7v-1.5h0.4v1.5c0,0.4,0,0.7-0.4,0.7H101.9L101.9,134.8z
			 M102.7,131.9C102.7,131.9,102.7,132.2,102.7,131.9c-0.4,0.4-0.4,0-0.4,0S102.3,131.9,102.7,131.9L102.7,131.9z"/>
		<path fill="#FFFFFF" d="M104.5,133.7v0.4h-0.4L104.5,133.7L104.5,133.7c-0.4,0.4-0.7,0.4-0.7,0.4c-0.4,0-0.4-0.4-0.4-0.4
			c0-0.4,0.4-0.7,1.1-0.7l0,0c0,0,0-0.4-0.4-0.4h-0.4v-0.4c0,0,0.4,0,0.7,0s0.7,0.4,0.7,0.7v0.7H104.5z M104.1,133.3
			c-0.4,0-0.7,0-0.7,0.4c0,0.4,0,0.4,0.4,0.4c0.4,0,0.4,0,0.4-0.4C104.1,133.7,104.1,133.7,104.1,133.3L104.1,133.3z"/>
		<path fill="#FFFFFF" d="M106,133.3l-0.4,0.7h-0.4l0.7-2.6h0.4l0.7,2.6h-0.4l0.4-0.7H106z M106.7,133.3l-0.4-0.7v-0.4l0,0v0.4
			l-0.4,0.7H106.7z"/>
		<path fill="#FFFFFF" d="M107.8,133c0-0.4,0-0.4,0-0.4h0.4L107.8,133L107.8,133c0.4-0.4,0.7-0.4,0.7-0.4c0.4,0,0.7,0,0.7,0.7v1.1
			h-0.4v-1.1c0-0.4,0-0.4-0.4-0.4C108.5,132.6,108.2,133,107.8,133C108.2,133,108.2,133,107.8,133l0.4,1.5h-0.4V133z"/>
		<path fill="#FFFFFF" d="M111.1,133.7v0.4h-0.4L111.1,133.7L111.1,133.7c-0.4,0.4-0.7,0.4-0.7,0.4c-0.4,0-0.4-0.4-0.4-0.4
			c0-0.4,0.4-0.7,1.1-0.7l0,0c0,0,0-0.4-0.4-0.4h-0.4v-0.4c0,0,0.4,0,0.7,0s0.7,0.4,0.7,0.7v0.7H111.1z M110.7,133.3
			c-0.4,0-0.7,0-0.7,0.4c0,0.4,0,0.4,0.4,0.4s0.4,0,0.4-0.4C110.7,133.7,110.7,133.7,110.7,133.3L110.7,133.3z"/>
		<path fill="#FFFFFF" d="M111.8,131.5L111.8,131.5l0.4,2.6h-0.4V131.5z"/>
		<path fill="#FFFFFF" d="M112.9,131.9C112.9,131.9,112.9,132.2,112.9,131.9c-0.4,0.4-0.4,0-0.4,0
			C112.6,131.9,112.6,131.9,112.9,131.9L112.9,131.9z M112.6,134.1v-1.8h0.4L112.6,134.1L112.6,134.1z"/>
		<path fill="#FFFFFF" d="M113.7,131.9v0.4h0.4v0.4h-0.4v1.1c0,0.4,0,0.4,0.4,0.4c0,0,0,0,0.4,0v0.4c0,0,0,0-0.4,0h-0.4v-0.4V133
			h-0.4v-0.4h0.4V131.9L113.7,131.9z"/>
		<path fill="#FFFFFF" d="M116.2,131.5v2.2v0.4h-0.4v-0.4l0,0c0,0.4-0.4,0.4-0.7,0.4s-0.7-0.4-0.7-0.7c0-0.7,0.4-1.1,0.7-1.1
			s0.4,0,0.4,0.4l0,0L116.2,131.5L116.2,131.5z M115.9,133L115.9,133c0-0.4-0.4-0.4-0.4-0.4c-0.4,0-0.4,0.4-0.4,0.7s0,0.7,0.4,0.7
			s0.4,0,0.4-0.4C115.9,133.7,115.9,133.3,115.9,133L115.9,133z"/>
		<path fill="#FFFFFF" d="M116.6,134.1v-1.5h-0.4v-0.4h0.4l0,0c0-0.4,0-0.4,0.4-0.7h0.4h0.4v0.4c0,0,0,0-0.4,0s-0.4,0.4-0.4,0.4l0,0
			h0.4v0.4H117L116.6,134.1L116.6,134.1z"/>
		<path fill="#FFFFFF" d="M119.2,133.7v0.4h-0.4L119.2,133.7L119.2,133.7c-0.4,0.4-0.7,0.4-0.7,0.4c-0.4,0-0.4-0.4-0.4-0.4
			c0-0.4,0.4-0.7,1.1-0.7l0,0c0,0,0-0.4-0.4-0.4h-0.4v-0.4c0,0,0.4,0,0.7,0c0.4,0,0.7,0.4,0.7,0.7v0.7H119.2z M118.8,133.3
			c-0.4,0-0.7,0-0.7,0.4c0,0.4,0,0.4,0.4,0.4s0.4,0,0.4-0.4C118.8,133.7,118.8,133.7,118.8,133.3L118.8,133.3z"/>
		<path fill="#FFFFFF" d="M119.5,133.7h0.4c0.4,0,0.4,0,0.4-0.4c0,0,0-0.4-0.4-0.4s-0.4-0.4-0.4-0.4c0-0.4,0.4-0.4,0.7-0.4h0.4v0.4
			h-0.4c-0.4,0-0.4,0-0.4,0.4c0,0,0,0.4,0.4,0.4s0.4,0.4,0.4,0.4c0,0.4-0.4,0.4-0.7,0.4C119.9,134.1,119.5,134.1,119.5,133.7
			L119.5,133.7z"/>
	</g>
	<g>
		<path fill="#FFFFFF" d="M70,24.4h0.4c0.4,0,0.4,0,0.4-0.4c0-0.4,0-0.4-0.4-0.4c-0.4,0-0.7-0.4-0.7-0.4c0-0.4,0.4-0.7,0.7-0.7
			s0.4,0,0.4,0V23h-0.4C70,23,70,23,70,23.3s0,0.4,0.4,0.4s0.4,0.4,0.4,0.7c0,0.4-0.4,0.7-0.7,0.7C70,24.8,70,24.8,70,24.4L70,24.4z
			"/>
		<path fill="#FFFFFF" d="M73,22.6v1.8v0.4h-0.4v-0.4l0,0l-0.4,0.4c-0.4,0-0.7-0.4-0.7-0.7c0-0.4,0.4-0.7,0.7-0.7s0.4,0,0.4,0.4l0,0
			L73,22.6L73,22.6z M72.6,23.7L72.6,23.7c0-0.4-0.4-0.4-0.4-0.4c-0.4,0-0.4,0.4-0.4,0.7c0,0.4,0,0.7,0.4,0.7s0.4,0,0.4-0.4
			C72.6,24.1,72.6,24.1,72.6,23.7L72.6,23.7z"/>
		<path fill="#FFFFFF" d="M74.4,24.4v0.4h-0.4L74.4,24.4L74.4,24.4c-0.4,0.4-0.4,0.4-0.7,0.4s-0.4,0-0.4-0.7v-0.7h0.4v0.7
			c0,0.4,0,0.4,0.4,0.4C74.1,24.4,74.1,24.4,74.4,24.4L74.4,24.4v-1.1h0.4v1.1H74.4z"/>
		<path fill="#FFFFFF" d="M76.3,24.4v0.4h-0.4L76.3,24.4L76.3,24.4c-0.4,0.4-0.4,0.4-0.7,0.4c-0.4,0-0.4-0.4-0.4-0.4
			c0-0.4,0.4-0.7,1.1-0.7l0,0c0,0,0-0.4-0.4-0.4h-0.4V23h0.4c0.4,0,0.7,0.4,0.7,0.7v0.7H76.3z M75.9,24.1c-0.4,0-0.7,0-0.7,0.4
			c0,0.4,0,0.4,0.4,0.4C75.5,24.8,75.9,24.4,75.9,24.1C75.9,24.4,75.9,24.4,75.9,24.1L75.9,24.1z"/>
		<path fill="#FFFFFF" d="M76.6,24.4H77c0.4,0,0.4,0,0.4-0.4c0,0,0-0.4-0.4-0.4s-0.4-0.4-0.4-0.4C76.6,23,77,23,77,23h0.4v0.4
			c0,0,0,0-0.4,0c0,0-0.4,0-0.4,0.4c0,0,0,0.4,0.4,0.4s0.4,0.4,0.4,0.4C77.4,24.8,77.4,24.8,76.6,24.4
			C76.6,24.8,76.6,24.8,76.6,24.4L76.6,24.4z"/>
		<path fill="#FFFFFF" d="M79.2,22.6v1.8v0.4h-0.4v-0.4l0,0l-0.4,0.4c-0.4,0-0.7-0.4-0.7-0.7c0-0.4,0.4-0.7,0.7-0.7s0.4,0,0.4,0.4
			l0,0L79.2,22.6L79.2,22.6z M78.8,23.7L78.8,23.7c0-0.4-0.4-0.4-0.4-0.4c-0.4,0-0.4,0.4-0.4,0.7c0,0.4,0,0.7,0.4,0.7s0.4,0,0.4-0.4
			C78.8,24.1,78.8,24.1,78.8,23.7L78.8,23.7z"/>
		<path fill="#FFFFFF" d="M79.6,24.8v-1.5h-0.4l0,0h0.4l0,0c0-0.4,0-0.4,0-0.4h0.4h0.4v0.4l0,0c-0.4,0-0.4,0.4-0.4,0.4l0,0h0.4v-0.4
			h-0.4L79.6,24.8L79.6,24.8z"/>
		<path fill="#FFFFFF" d="M81.8,24.4v0.4h-0.4L81.8,24.4L81.8,24.4c-0.4,0.4-0.4,0.4-0.7,0.4c-0.4,0-0.4-0.4-0.4-0.4
			c0-0.4,0.4-0.7,1.1-0.7l0,0c0,0,0-0.4-0.4-0.4H81V23h0.4c0.4,0,0.7,0.4,0.7,0.7v0.7H81.8z M81.4,24.1c-0.4,0-0.7,0-0.7,0.4
			c0,0.4,0,0.4,0.4,0.4C81,24.8,81.4,24.4,81.4,24.1C81.4,24.4,81.4,24.4,81.4,24.1L81.4,24.1z"/>
		<path fill="#FFFFFF" d="M82.1,24.4h0.4c0.4,0,0.4,0,0.4-0.4c0,0,0-0.4-0.4-0.4s-0.4-0.4-0.4-0.4c0-0.4,0.4-0.4,0.4-0.4h0.4v0.4
			c0,0,0,0-0.4,0c0,0-0.4,0-0.4,0.4c0,0,0,0.4,0.4,0.4s0.4,0.4,0.4,0.4C82.9,24.8,82.9,24.8,82.1,24.4
			C82.1,24.8,82.1,24.8,82.1,24.4L82.1,24.4z"/>
		<path fill="#FFFFFF" d="M85.1,23.7h-0.7v0.7h1.1v0.4h-1.1v-2.2h1.1V23h-1.1v0.7H85.1L85.1,23.7z"/>
		<path fill="#FFFFFF" d="M85.8,23.3L85.8,23.3c0.4,0.4,0.4,0.4,0.4,0.7l0,0c0,0,0,0,0-0.4l0.4-0.4h0.4l-0.4,0.7l0.4,0.7h-0.4
			l-0.4-0.4c0,0,0,0,0-0.4l0,0c0,0,0,0,0,0.4l-0.4,0.4h-0.4l0.4-0.7V23.3L85.8,23.3z"/>
		<path fill="#FFFFFF" d="M87.3,23.7c0-0.4,0-0.4,0-0.4h0.4L87.3,23.7L87.3,23.7c0.4-0.4,0.4-0.4,0.7-0.4s0.7,0.4,0.7,0.7
			c0,0.7-0.4,0.7-0.7,0.7s-0.4,0-0.4-0.4l0,0v0.7h-0.4V23.7z M87.3,24.1L87.3,24.1c0,0.4,0.4,0.4,0.4,0.4c0.4,0,0.4-0.4,0.4-0.7
			c0-0.4,0-0.7-0.4-0.7s-0.4,0-0.4,0.4C87.3,23.7,87.3,23.7,87.3,24.1L87.3,24.1z"/>
		<path fill="#FFFFFF" d="M89.1,23.7v-0.4h0.4L89.1,23.7L89.1,23.7c0.4-0.4,0.4-0.4,0.7-0.4l0,0l0,0l0,0
			C89.5,23.3,89.1,23.7,89.1,23.7S89.1,24.1,89.1,23.7l0.4,1.1h-0.4V23.7z"/>
		<path fill="#FFFFFF" d="M90.2,23v0.4h0.4l0,0h-0.4v0.7c0,0.4,0,0.4,0.4,0.4l0,0v0.4c0,0,0,0-0.4,0h-0.4v-0.4v-1.1h-0.4l0,0h0.4
			L90.2,23L90.2,23z"/>
		<path fill="#FFFFFF" d="M90.9,22.6L90.9,22.6l0.4,1.1l0,0l0.4-0.4c0.4,0,0.7,0.4,0.7,0.7c0,0.7-0.4,0.7-0.7,0.7s-0.4,0-0.4-0.4
			l0,0v0.4h-0.4v-0.4V22.6z M91.3,24.1L91.3,24.1c0,0.4,0.4,0.4,0.4,0.4c0.4,0,0.4-0.4,0.4-0.7c0-0.4,0-0.7-0.4-0.7s-0.4,0-0.4,0.4
			C91.3,23.7,91.3,23.7,91.3,24.1L91.3,24.1z"/>
		<path fill="#FFFFFF" d="M93.1,23.3l0.4,0.7v0.4l0,0v-0.4l0.4-0.7h0.4l-0.7,1.5h-0.4V23.3L93.1,23.3z"/>
		<path fill="#FFFFFF" d="M95.7,24.4c0,0.4,0,0.7-0.4,0.7c0,0-0.4,0.4-0.7,0.4s-0.4,0-0.4,0v-0.4h0.4C95.3,25.2,95.3,25.2,95.7,24.4
			L95.7,24.4L95.7,24.4c-0.4,0-0.4,0.4-0.7,0.4s-0.7-0.4-0.7-0.7c0-0.4,0.4-0.7,0.7-0.7c0.4,0,0.4,0,0.4,0l0,0V23h0.4v0.4V24.4z
			 M95.3,23.7L95.3,23.7c0-0.4-0.4-0.4-0.4-0.4c-0.4,0-0.4,0.4-0.4,0.7c0,0.4,0,0.7,0.4,0.7c0,0,0.4,0,0.4-0.4
			C95.3,24.1,95.3,24.1,95.3,23.7L95.3,23.7z"/>
		<path fill="#FFFFFF" d="M95.7,25.2C96.1,25.2,96.1,25.2,95.7,25.2c0.4-0.4,0.4-0.4,0.4-0.7v-1.1h0.4v1.5c0,0.4,0,0.4-0.4,0.7
			C96.1,25.5,96.1,25.5,95.7,25.2L95.7,25.2z M96.4,23L96.4,23C96.1,23,96.1,23,96.4,23C96.1,22.6,96.4,22.6,96.4,23
			C96.4,22.6,96.4,22.6,96.4,23z"/>
		<path fill="#FFFFFF" d="M97.9,24.4v0.4h-0.4L97.9,24.4L97.9,24.4c-0.4,0.4-0.4,0.4-0.7,0.4s-0.4-0.4-0.4-0.4
			c0-0.4,0.4-0.7,1.1-0.7l0,0c0,0,0-0.4-0.4-0.4h-0.4V23h0.4c0.4,0,0.7,0.4,0.7,0.7v0.7H97.9z M97.9,24.1c-0.4,0-0.7,0-0.7,0.4
			c0,0.4,0,0.4,0.4,0.4C97.5,24.8,97.5,24.4,97.9,24.1C97.9,24.4,97.9,24.4,97.9,24.1L97.9,24.1z"/>
		<path fill="#FFFFFF" d="M99.4,24.1L99,24.8l0,0l0.7-2.2h0.4l0.7,2.2h-0.4l-0.4-0.7H99.4z M100.1,24.1v-0.7V23l0,0v0.4l-0.4,0.7
			H100.1z"/>
		<path fill="#FFFFFF" d="M101.2,23.7v-0.4h0.4L101.2,23.7L101.2,23.7c0.4-0.4,0.4-0.4,0.7-0.4s0.4,0,0.4,0.7v1.1h-0.4v-0.7
			c0-0.4,0-0.4-0.4-0.4C101.6,23.3,101.6,23.7,101.2,23.7C101.6,23.7,101.6,23.7,101.2,23.7l0.4,1.1h-0.4V23.7z"/>
		<path fill="#FFFFFF" d="M104.1,24.4v0.4h-0.4L104.1,24.4L104.1,24.4c-0.4,0.4-0.4,0.4-0.7,0.4c-0.4,0-0.4-0.4-0.4-0.4
			c0-0.4,0.4-0.7,1.1-0.7l0,0c0,0,0-0.4-0.4-0.4h-0.4V23h0.4c0.4,0,0.7,0.4,0.7,0.7v0.7H104.1z M103.8,24.1c-0.4,0-0.7,0-0.7,0.4
			c0,0.4,0,0.4,0.4,0.4C103.4,24.8,103.8,24.4,103.8,24.1C103.8,24.4,103.8,24.4,103.8,24.1L103.8,24.1z"/>
		<path fill="#FFFFFF" d="M104.5,22.6L104.5,22.6l0.4,2.2h-0.4V22.6z"/>
		<path fill="#FFFFFF" d="M105.6,23L105.6,23C105.2,23,105.2,23,105.6,23C105.2,22.6,105.2,22.6,105.6,23
			C105.6,22.6,105.6,22.6,105.6,23z M105.2,24.8v-1.5h0.4L105.2,24.8L105.2,24.8z"/>
		<path fill="#FFFFFF" d="M106.3,23v0.4h0.4l0,0h-0.4v0.7c0,0.4,0,0.4,0.4,0.4l0,0v0.4c0,0,0,0-0.4,0H106v-0.4v-1.1h-0.4l0,0h0.4
			L106.3,23L106.3,23z"/>
		<path fill="#FFFFFF" d="M108.2,22.6v1.8v0.4h-0.4v-0.4l0,0l-0.4,0.4c-0.4,0-0.7-0.4-0.7-0.7c0-0.4,0.4-0.7,0.7-0.7s0.4,0,0.4,0.4
			l0,0L108.2,22.6L108.2,22.6z M108.2,23.7L108.2,23.7c0-0.4-0.4-0.4-0.4-0.4c-0.4,0-0.4,0.4-0.4,0.7c0,0.4,0,0.7,0.4,0.7
			s0.4,0,0.4-0.4C108.2,24.1,108.2,24.1,108.2,23.7L108.2,23.7z"/>
		<path fill="#FFFFFF" d="M108.9,24.8v-1.5h-0.4l0,0h0.4l0,0c0-0.4,0-0.4,0-0.4h0.4c0,0,0,0,0.4,0v0.4l0,0c-0.4,0-0.4,0.4-0.4,0.4
			l0,0h0.4v-0.4h-0.4L108.9,24.8L108.9,24.8z"/>
		<path fill="#FFFFFF" d="M110.7,24.4v0.4h-0.4L110.7,24.4L110.7,24.4c-0.4,0.4-0.4,0.4-0.7,0.4s-0.4-0.4-0.4-0.4
			c0-0.4,0.4-0.7,1.1-0.7l0,0c0,0,0-0.4-0.4-0.4H110V23h0.4c0.4,0,0.7,0.4,0.7,0.7v0.7H110.7z M110.4,24.1c-0.4,0-0.7,0-0.7,0.4
			c0,0.4,0,0.4,0.4,0.4C110.4,24.8,110.4,24.4,110.4,24.1C110.4,24.4,110.4,24.4,110.4,24.1L110.4,24.1z"/>
		<path fill="#FFFFFF" d="M111.1,24.4h0.4c0.4,0,0.4,0,0.4-0.4c0,0,0-0.4-0.4-0.4s-0.4-0.4-0.4-0.4c0-0.4,0.4-0.4,0.4-0.4h0.4v0.4
			c0,0,0,0-0.4,0c0,0-0.4,0-0.4,0.4c0,0,0,0.4,0.4,0.4s0.4,0.4,0.4,0.4C112.2,24.8,111.8,24.8,111.1,24.4
			C111.5,24.8,111.1,24.8,111.1,24.4L111.1,24.4z"/>
	</g>
	<g>
		<path fill="#FFFFFF" d="M116.6,24.4h0.4c0.4,0,0.4,0,0.4-0.4c0-0.4,0-0.4-0.4-0.4s-0.7-0.4-0.7-0.7c0-0.4,0.4-0.7,0.7-0.7
			s0.4,0,0.4,0v0.4H117c-0.4,0-0.4,0-0.4,0.4c0,0.4,0,0.4,0.4,0.4s0.4,0.4,0.4,0.7c0,0.4-0.4,0.7-0.7,0.7
			C117,24.8,116.6,24.8,116.6,24.4L116.6,24.4z"/>
		<path fill="#FFFFFF" d="M119.5,22.6v1.8v0.4h-0.4v-0.4l0,0l-0.4,0.4c-0.4,0-0.7-0.4-0.7-0.7c0-0.4,0.4-0.7,0.7-0.7
			c0.4,0,0.4,0,0.4,0.4l0,0L119.5,22.6L119.5,22.6z M119.2,23.7L119.2,23.7c0-0.4-0.4-0.4-0.4-0.4c-0.4,0-0.4,0.4-0.4,0.7
			c0,0.4,0,0.7,0.4,0.7s0.4,0,0.4-0.4C119.2,24.1,119.2,24.1,119.2,23.7L119.2,23.7z"/>
		<path fill="#FFFFFF" d="M121.4,24.4v0.4H121L121.4,24.4L121.4,24.4c-0.4,0.4-0.4,0.4-0.7,0.4c-0.4,0-0.4,0-0.4-0.7v-0.7h0.4v0.7
			c0,0.4,0,0.4,0.4,0.4C120.6,24.4,121,24.4,121.4,24.4C121,24.4,121,24.4,121.4,24.4l-0.4-1.1h0.4V24.4z"/>
		<path fill="#FFFFFF" d="M122.8,24.4v0.4h-0.4L122.8,24.4L122.8,24.4c-0.4,0.4-0.4,0.4-0.7,0.4c-0.4,0-0.4-0.4-0.4-0.4
			c0-0.4,0.4-0.7,1.1-0.7l0,0c0,0,0-0.4-0.4-0.4h-0.4V23h0.4c0.4,0,0.7,0.4,0.7,0.7v0.7H122.8z M122.5,24.1c-0.4,0-0.7,0-0.7,0.4
			c0,0.4,0,0.4,0.4,0.4C122.5,24.8,122.5,24.4,122.5,24.1C122.5,24.4,122.5,24.4,122.5,24.1L122.5,24.1z"/>
		<path fill="#FFFFFF" d="M123.2,24.4h0.4c0.4,0,0.4,0,0.4-0.4c0,0,0-0.4-0.4-0.4s-0.4-0.4-0.4-0.4c0-0.4,0.4-0.4,0.4-0.4h0.4v0.4
			c0,0,0,0-0.4,0c0,0-0.4,0-0.4,0.4c0,0,0,0.4,0.4,0.4s0.4,0.4,0.4,0.4C124.3,24.8,123.9,24.8,123.2,24.4
			C123.6,24.8,123.2,24.8,123.2,24.4L123.2,24.4z"/>
		<path fill="#FFFFFF" d="M125.8,22.6v1.8v0.4h-0.4v-0.4l0,0l-0.4,0.4c-0.4,0-0.7-0.4-0.7-0.7c0-0.4,0.4-0.7,0.7-0.7
			c0.4,0,0.4,0,0.4,0.4l0,0L125.8,22.6L125.8,22.6z M125.8,23.7L125.8,23.7c0-0.4-0.4-0.4-0.4-0.4c-0.4,0-0.4,0.4-0.4,0.7
			c0,0.4,0,0.7,0.4,0.7s0.4,0,0.4-0.4C125.8,24.1,125.8,24.1,125.8,23.7L125.8,23.7z"/>
		<path fill="#FFFFFF" d="M126.5,24.8v-1.5h-0.4l0,0h0.4l0,0c0-0.4,0-0.4,0-0.4h0.4h0.4v0.4l0,0c-0.4,0-0.4,0.4-0.4,0.4l0,0h0.4
			v-0.4h-0.4L126.5,24.8L126.5,24.8z"/>
		<path fill="#FFFFFF" d="M128.3,24.4v0.4H128L128.3,24.4L128.3,24.4c-0.4,0.4-0.4,0.4-0.7,0.4c-0.4,0-0.4-0.4-0.4-0.4
			c0-0.4,0.4-0.7,1.1-0.7l0,0c0,0,0-0.4-0.4-0.4h-0.4V23h0.4c0.4,0,0.7,0.4,0.7,0.7v0.7H128.3z M128,24.1c-0.4,0-0.7,0-0.7,0.4
			c0,0.4,0,0.4,0.4,0.4C128,24.8,128,24.4,128,24.1C128,24.4,128,24.4,128,24.1L128,24.1z"/>
		<path fill="#FFFFFF" d="M128.7,24.4h0.4c0.4,0,0.4,0,0.4-0.4c0,0,0-0.4-0.4-0.4c-0.4,0-0.4-0.4-0.4-0.4c0-0.4,0.4-0.4,0.4-0.4h0.4
			v0.4c0,0,0,0-0.4,0c0,0-0.4,0-0.4,0.4c0,0,0,0.4,0.4,0.4c0.4,0,0.4,0.4,0.4,0.4C129.8,24.8,129.4,24.8,128.7,24.4
			C129.1,24.8,128.7,24.8,128.7,24.4L128.7,24.4z"/>
		<path fill="#FFFFFF" d="M132,23.7h-0.7v0.7h0.7v0.4h-1.1v-2.2h1.1V23h-0.7v0.7H132L132,23.7z"/>
		<path fill="#FFFFFF" d="M132.4,23.3L132.4,23.3c0.4,0.4,0.4,0.4,0.4,0.7l0,0c0,0,0,0,0-0.4l0.4-0.4h0.4l-0.4,0.7l0.4,0.7h-0.4
			l-0.4-0.4c0,0,0,0,0-0.4l0,0c0,0,0,0,0,0.4l-0.4,0.4H132l0.7-0.7L132.4,23.3L132.4,23.3z"/>
		<path fill="#FFFFFF" d="M133.8,23.7c0-0.4,0-0.4,0-0.4h0.4L133.8,23.7L133.8,23.7c0.4-0.4,0.7-0.4,0.7-0.4c0.4,0,0.7,0.4,0.7,0.7
			c0,0.7-0.4,0.7-0.7,0.7c-0.4,0-0.4,0-0.4-0.4l0,0v0.7h-0.4V23.7L133.8,23.7z M134.2,24.1L134.2,24.1c0,0.4,0.4,0.4,0.4,0.4
			c0.4,0,0.4-0.4,0.4-0.7c0-0.4,0-0.7-0.4-0.7c-0.4,0-0.4,0-0.4,0.4C134.2,23.7,134.2,23.7,134.2,24.1L134.2,24.1z"/>
		<path fill="#FFFFFF" d="M135.7,23.7v-0.4h0.4L135.7,23.7L135.7,23.7c0.4-0.4,0.4-0.4,0.7-0.4l0,0l0,0l0,0
			C136,23.3,136,23.7,135.7,23.7C136,23.7,136,24.1,135.7,23.7l0.4,1.1h-0.4V23.7z"/>
		<path fill="#FFFFFF" d="M137.1,23v0.4h0.4l0,0h-0.4v0.7c0,0.4,0,0.4,0.4,0.4l0,0v0.4c0,0,0,0-0.4,0h-0.4v-0.4v-1.1h-0.4l0,0h0.4
			L137.1,23L137.1,23z"/>
		<path fill="#FFFFFF" d="M137.9,22.6L137.9,22.6l0.4,1.1l0,0l0.4-0.4c0.4,0,0.7,0.4,0.7,0.7c0,0.7-0.4,0.7-0.7,0.7s-0.4,0-0.4-0.4
			l0,0v0.4h-0.4v-0.4V22.6z M138.2,24.1L138.2,24.1c0,0.4,0.4,0.4,0.4,0.4c0.4,0,0.4-0.4,0.4-0.7c0-0.4,0-0.7-0.4-0.7
			c-0.4,0-0.4,0-0.4,0.4C138.2,23.7,138.2,23.7,138.2,24.1L138.2,24.1z"/>
		<path fill="#FFFFFF" d="M139.7,23.3l0.4,0.7v0.4l0,0v-0.4l0.4-0.7h0.4l-0.7,1.5h-0.4L139.7,23.3L139.7,23.3z"/>
		<path fill="#FFFFFF" d="M142.3,24.4c0,0.4,0,0.7-0.4,0.7c0,0-0.4,0.4-0.7,0.4s-0.4,0-0.4,0v-0.4h0.4
			C141.9,25.2,142.3,25.2,142.3,24.4L142.3,24.4L142.3,24.4c-0.4,0-0.4,0.4-0.7,0.4c-0.4,0-0.7-0.4-0.7-0.7c0-0.4,0.4-0.7,0.7-0.7
			s0.4,0,0.4,0.4l0,0v-0.4h0.4v0.4L142.3,24.4L142.3,24.4z M142.3,23.7L142.3,23.7c0-0.4-0.4-0.4-0.4-0.4c-0.4,0-0.4,0.4-0.4,0.7
			c0,0.4,0,0.7,0.4,0.7c0,0,0.4,0,0.4-0.4C142.3,24.1,142.3,24.1,142.3,23.7L142.3,23.7z"/>
		<path fill="#FFFFFF" d="M142.6,25.2L142.6,25.2c0.4-0.4,0.4-0.4,0.4-0.7v-1.1h0.4v1.5c0,0.4,0,0.4-0.4,0.7
			C143,25.5,142.6,25.5,142.6,25.2L142.6,25.2z M143.4,23C143.4,23,143,23,143.4,23C143,23,143,23,143.4,23
			C143,22.6,143,22.6,143.4,23C143,22.6,143.4,22.6,143.4,23z"/>
		<path fill="#FFFFFF" d="M144.8,24.4v0.4h-0.4L144.8,24.4L144.8,24.4c-0.4,0.4-0.4,0.4-0.7,0.4s-0.4-0.4-0.4-0.4
			c0-0.4,0.4-0.7,1.1-0.7l0,0c0,0,0-0.4-0.4-0.4h-0.4V23h0.4c0.4,0,0.7,0.4,0.7,0.7v0.7H144.8z M144.5,24.1c-0.4,0-0.7,0-0.7,0.4
			c0,0.4,0,0.4,0.4,0.4C144.5,24.8,144.5,24.4,144.5,24.1C144.5,24.4,144.5,24.4,144.5,24.1L144.5,24.1z"/>
		<path fill="#FFFFFF" d="M146.3,24.1l-0.4,0.7h-0.4l0.7-2.2h0.4l0.7,2.2H147l-0.4-0.7H146.3z M147,24.1l-0.4-0.7V23l0,0v0.4
			l-0.4,0.7H147z"/>
		<path fill="#FFFFFF" d="M147.8,23.7v-0.4h0.4L147.8,23.7L147.8,23.7c0.4-0.4,0.4-0.4,0.7-0.4s0.4,0,0.4,0.7v1.1h-0.4v-0.7
			c0-0.4,0-0.4-0.4-0.4C148.5,23.3,148.1,23.7,147.8,23.7C148.1,23.7,148.1,23.7,147.8,23.7l0.4,1.1h-0.4V23.7z"/>
		<path fill="#FFFFFF" d="M150.7,24.4v0.4h-0.4L150.7,24.4L150.7,24.4c-0.4,0.4-0.4,0.4-0.7,0.4c-0.4,0-0.4-0.4-0.4-0.4
			c0-0.4,0.4-0.7,1.1-0.7l0,0c0,0,0-0.4-0.4-0.4H150V23h0.4c0.4,0,0.7,0.4,0.7,0.7v0.7H150.7z M150.3,24.1c-0.4,0-0.7,0-0.7,0.4
			c0,0.4,0,0.4,0.4,0.4C150.3,24.8,150.3,24.4,150.3,24.1C150.3,24.4,150.3,24.4,150.3,24.1L150.3,24.1z"/>
		<path fill="#FFFFFF" d="M151.1,22.6L151.1,22.6l0.4,2.2h-0.4V22.6z"/>
		<path fill="#FFFFFF" d="M152.2,23L152.2,23C151.8,23,151.8,23,152.2,23C151.8,22.6,151.8,22.6,152.2,23
			C152.2,22.6,152.2,22.6,152.2,23z M151.8,24.8v-1.5h0.4L151.8,24.8L151.8,24.8z"/>
		<path fill="#FFFFFF" d="M152.9,23v0.4h0.4l0,0h-0.4v0.7c0,0.4,0,0.4,0.4,0.4l0,0v0.4c0,0,0,0-0.4,0h-0.4v-0.4v-1.1h-0.4l0,0h0.4
			L152.9,23L152.9,23z"/>
		<path fill="#FFFFFF" d="M155.1,22.6v1.8v0.4h-0.4v-0.4l0,0l-0.4,0.4c-0.4,0-0.7-0.4-0.7-0.7c0-0.4,0.4-0.7,0.7-0.7
			c0.4,0,0.4,0,0.4,0.4l0,0L155.1,22.6L155.1,22.6z M154.7,23.7L154.7,23.7c0-0.4-0.4-0.4-0.4-0.4c-0.4,0-0.4,0.4-0.4,0.7
			c0,0.4,0,0.7,0.4,0.7c0.4,0,0.4,0,0.4-0.4C154.7,24.1,154.7,24.1,154.7,23.7L154.7,23.7z"/>
		<path fill="#FFFFFF" d="M155.5,24.8v-1.5h-0.4l0,0h0.4l0,0c0-0.4,0-0.4,0-0.4h0.4h0.4v0.4l0,0c-0.4,0-0.4,0.4-0.4,0.4l0,0h0.4
			v-0.4h-0.4L155.5,24.8L155.5,24.8z"/>
		<path fill="#FFFFFF" d="M157.7,24.4v0.4h-0.4L157.7,24.4L157.7,24.4c-0.4,0.4-0.4,0.4-0.7,0.4s-0.4-0.4-0.4-0.4
			c0-0.4,0.4-0.7,1.1-0.7l0,0c0,0,0-0.4-0.4-0.4h-0.4V23h0.4c0.4,0,0.7,0.4,0.7,0.7v0.7H157.7z M157.3,24.1c-0.4,0-0.7,0-0.7,0.4
			c0,0.4,0,0.4,0.4,0.4C156.9,24.8,157.3,24.4,157.3,24.1C157.3,24.4,157.3,24.4,157.3,24.1L157.3,24.1z"/>
		<path fill="#FFFFFF" d="M158,24.4h0.4c0.4,0,0.4,0,0.4-0.4c0,0,0-0.4-0.4-0.4c-0.4,0-0.4-0.4-0.4-0.4c0-0.4,0.4-0.4,0.4-0.4h0.4
			v0.4c0,0,0,0-0.4,0c0,0-0.4,0-0.4,0.4c0,0,0,0.4,0.4,0.4c0.4,0,0.4,0.4,0.4,0.4C158.8,24.8,158.8,24.8,158,24.4
			C158,24.8,158,24.8,158,24.4L158,24.4z"/>
	</g>
	<g>
		<path fill="#FFFFFF" d="M70,29.2h0.4c0.4,0,0.4,0,0.4-0.4c0-0.4,0-0.4-0.4-0.4s-0.7-0.4-0.7-0.7c0-0.4,0.4-0.7,0.7-0.7
			s0.4,0,0.4,0v0.4h-0.4c-0.4,0-0.4,0-0.4,0.4s0,0.4,0.4,0.4s0.4,0.4,0.4,0.7c0,0.4-0.4,0.7-0.7,0.7C70,29.6,70,29.6,70,29.2
			L70,29.2z"/>
		<path fill="#FFFFFF" d="M73,27.4v1.8v0.4h-0.4v-0.4l0,0l-0.4,0.4c-0.4,0-0.7-0.4-0.7-0.7c0-0.4,0.4-0.7,0.7-0.7s0.4,0,0.4,0.4l0,0
			L73,27.4L73,27.4z M72.6,28.5L72.6,28.5c0-0.4-0.4-0.4-0.4-0.4c-0.4,0-0.4,0.4-0.4,0.7c0,0.4,0,0.7,0.4,0.7s0.4,0,0.4-0.4
			C72.6,28.8,72.6,28.8,72.6,28.5L72.6,28.5z"/>
		<path fill="#FFFFFF" d="M74.4,29.2v0.4h-0.4L74.4,29.2L74.4,29.2c-0.4,0.4-0.4,0.4-0.7,0.4s-0.4,0-0.4-0.7v-0.7h0.4v0.7
			c0,0.4,0,0.4,0.4,0.4C74.1,29.2,74.1,29.2,74.4,29.2C74.4,29.2,74.4,28.8,74.4,29.2l-0.4-1.1h0.4V29.2z"/>
		<path fill="#FFFFFF" d="M76.3,29.2v0.4h-0.4L76.3,29.2L76.3,29.2c-0.4,0.4-0.4,0.4-0.7,0.4c-0.4,0-0.4-0.4-0.4-0.4
			c0-0.4,0.4-0.7,1.1-0.7l0,0c0,0,0-0.4-0.4-0.4h-0.4v-0.4h0.4c0.4,0,0.7,0.4,0.7,0.7v0.7H76.3z M75.9,28.8c-0.4,0-0.7,0-0.7,0.4
			s0,0.4,0.4,0.4C75.5,29.2,75.9,29.2,75.9,28.8C75.9,29.2,75.9,29.2,75.9,28.8L75.9,28.8z"/>
		<path fill="#FFFFFF" d="M76.6,29.2H77c0.4,0,0.4,0,0.4-0.4c0,0,0-0.4-0.4-0.4s-0.4-0.4-0.4-0.4c0-0.4,0.4-0.4,0.4-0.4h0.4v0.4
			c0,0,0,0-0.4,0c0,0-0.4,0-0.4,0.4c0,0,0,0.4,0.4,0.4s0.4,0.4,0.4,0.4S77.4,29.6,76.6,29.2C76.6,29.6,76.6,29.6,76.6,29.2
			L76.6,29.2z"/>
		<path fill="#FFFFFF" d="M79.2,27.4v1.8v0.4h-0.4v-0.4l0,0l-0.4,0.4c-0.4,0-0.7-0.4-0.7-0.7c0-0.4,0.4-0.7,0.7-0.7s0.4,0,0.4,0.4
			l0,0L79.2,27.4L79.2,27.4z M78.8,28.5L78.8,28.5c0-0.4-0.4-0.4-0.4-0.4c-0.4,0-0.4,0.4-0.4,0.7c0,0.4,0,0.7,0.4,0.7s0.4,0,0.4-0.4
			C78.8,28.8,78.8,28.8,78.8,28.5L78.8,28.5z"/>
		<path fill="#FFFFFF" d="M79.6,29.6v-1.5h-0.4v-0.4h0.4l0,0c0-0.4,0-0.4,0-0.4h0.4h0.4v0.4l0,0c-0.4,0-0.4,0.4-0.4,0.4l0,0h0.4v0.4
			h-0.4L79.6,29.6L79.6,29.6z"/>
		<path fill="#FFFFFF" d="M81.8,29.2v0.4h-0.4L81.8,29.2L81.8,29.2c-0.4,0.4-0.4,0.4-0.7,0.4c-0.4,0-0.4-0.4-0.4-0.4
			c0-0.4,0.4-0.7,1.1-0.7l0,0c0,0,0-0.4-0.4-0.4H81v-0.4h0.4c0.4,0,0.7,0.4,0.7,0.7v0.7H81.8z M81.4,28.8c-0.4,0-0.7,0-0.7,0.4
			s0,0.4,0.4,0.4C81,29.2,81.4,29.2,81.4,28.8C81.4,29.2,81.4,29.2,81.4,28.8L81.4,28.8z"/>
		<path fill="#FFFFFF" d="M82.1,29.2h0.4c0.4,0,0.4,0,0.4-0.4c0,0,0-0.4-0.4-0.4s-0.4-0.4-0.4-0.4c0-0.4,0.4-0.4,0.4-0.4h0.4v0.4
			c0,0,0,0-0.4,0c0,0-0.4,0-0.4,0.4c0,0,0,0.4,0.4,0.4s0.4,0.4,0.4,0.4S82.9,29.6,82.1,29.2C82.1,29.6,82.1,29.6,82.1,29.2
			L82.1,29.2z"/>
		<path fill="#FFFFFF" d="M85.1,28.5h-0.7v0.7h1.1v0.4h-1.1v-2.2h1.1v0.4h-1.1v0.7H85.1L85.1,28.5z"/>
		<path fill="#FFFFFF" d="M85.8,28.1L85.8,28.1c0.4,0.4,0.4,0.4,0.4,0.7l0,0c0,0,0,0,0-0.4l0.4-0.4h0.4l-0.4,0.7l0.4,0.7h-0.4
			l-0.4-0.4c0,0,0,0,0-0.4l0,0c0,0,0,0,0,0.4l-0.4,0.4h-0.4l0.4-0.7V28.1L85.8,28.1z"/>
		<path fill="#FFFFFF" d="M87.3,28.5c0-0.4,0-0.4,0-0.4h0.4L87.3,28.5L87.3,28.5c0.4-0.4,0.7-0.4,0.7-0.4c0.4,0,0.7,0.4,0.7,0.7
			c0,0.7-0.4,0.7-0.7,0.7s-0.4,0-0.4-0.4l0,0v0.7h-0.4V28.5z M87.3,28.8L87.3,28.8c0,0.4,0.4,0.4,0.4,0.4c0.4,0,0.4-0.4,0.4-0.7
			c0-0.4,0-0.7-0.4-0.7s-0.4,0-0.4,0.4C87.3,28.5,87.3,28.5,87.3,28.8L87.3,28.8z"/>
		<path fill="#FFFFFF" d="M89.1,28.5v-0.4h0.4L89.1,28.5L89.1,28.5c0.4-0.4,0.4-0.4,0.7-0.4l0,0v0.4l0,0
			C89.5,28.1,89.1,28.5,89.1,28.5L89.1,28.5l0.4,1.1h-0.4V28.5z"/>
		<path fill="#FFFFFF" d="M90.2,27.7v0.4h0.4v0.4h-0.4v0.7c0,0.4,0,0.4,0.4,0.4l0,0v0.4c0,0,0,0-0.4,0h-0.4v-0.4v-0.7h-0.4v-0.4h0.4
			L90.2,27.7L90.2,27.7z"/>
		<path fill="#FFFFFF" d="M90.9,27.4L90.9,27.4l0.4,1.1l0,0l0.4-0.4c0.4,0,0.7,0.4,0.7,0.7c0,0.7-0.4,0.7-0.7,0.7s-0.4,0-0.4-0.4
			l0,0v0.4h-0.4v-0.4V27.4z M91.3,28.8L91.3,28.8c0,0.4,0.4,0.4,0.4,0.4c0.4,0,0.4-0.4,0.4-0.7c0-0.4,0-0.7-0.4-0.7s-0.4,0-0.4,0.4
			C91.3,28.5,91.3,28.5,91.3,28.8L91.3,28.8z"/>
		<path fill="#FFFFFF" d="M93.1,28.1l0.4,0.7v0.4l0,0v-0.4l0.4-0.7h0.4l-0.7,1.5h-0.4V28.1L93.1,28.1z"/>
		<path fill="#FFFFFF" d="M95.7,29.2c0,0.4,0,0.7-0.4,0.7c0,0-0.4,0.4-0.7,0.4s-0.4,0-0.4,0v-0.4h0.4C95.3,29.9,95.3,29.9,95.7,29.2
			L95.7,29.2L95.7,29.2c-0.4,0-0.4,0.4-0.7,0.4s-0.7-0.4-0.7-0.7c0-0.4,0.4-0.7,0.7-0.7s0.4,0,0.4,0.4l0,0v-0.4h0.4v0.4V29.2z
			 M95.3,28.5L95.3,28.5c0-0.4-0.4-0.4-0.4-0.4c-0.4,0-0.4,0.4-0.4,0.7c0,0.4,0,0.7,0.4,0.7c0,0,0.4,0,0.4-0.4
			C95.3,28.8,95.3,28.8,95.3,28.5L95.3,28.5z"/>
		<path fill="#FFFFFF" d="M95.7,29.9C96.1,29.9,96.1,29.9,95.7,29.9c0.4-0.4,0.4-0.4,0.4-0.7v-1.5h0.4v1.5c0,0.4,0,0.4-0.4,0.7
			C96.1,30.3,96.1,30.3,95.7,29.9L95.7,29.9z M96.4,27.4C96.4,27.7,96.4,27.7,96.4,27.4C96.1,27.7,96.1,27.7,96.4,27.4
			C96.1,27.4,96.4,27.4,96.4,27.4L96.4,27.4z"/>
		<path fill="#FFFFFF" d="M97.9,29.2v0.4h-0.4L97.9,29.2L97.9,29.2c-0.4,0.4-0.4,0.4-0.7,0.4s-0.4-0.4-0.4-0.4
			c0-0.4,0.4-0.7,1.1-0.7l0,0c0,0,0-0.4-0.4-0.4h-0.4v-0.4h0.4c0.4,0,0.7,0.4,0.7,0.7v0.7H97.9z M97.9,28.8c-0.4,0-0.7,0-0.7,0.4
			s0,0.4,0.4,0.4C97.5,29.2,97.5,29.2,97.9,28.8C97.9,29.2,97.9,29.2,97.9,28.8L97.9,28.8z"/>
		<path fill="#FFFFFF" d="M99.4,28.8L99,29.6l0,0l0.7-2.2h0.4l0.7,2.2h-0.4l-0.4-0.7H99.4z M100.1,28.5l-0.4-0.7v-0.4l0,0v0.4
			l-0.4,0.7H100.1z"/>
		<path fill="#FFFFFF" d="M101.2,28.5v-0.4h0.4L101.2,28.5L101.2,28.5c0.4-0.4,0.4-0.4,0.7-0.4s0.4,0,0.4,0.7v1.1h-0.4v-0.7
			c0-0.4,0-0.4-0.4-0.4C101.6,28.1,101.6,28.5,101.2,28.5C101.6,28.5,101.6,28.5,101.2,28.5l0.4,1.1h-0.4V28.5z"/>
		<path fill="#FFFFFF" d="M104.1,29.2v0.4h-0.4L104.1,29.2L104.1,29.2c-0.4,0.4-0.4,0.4-0.7,0.4c-0.4,0-0.4-0.4-0.4-0.4
			c0-0.4,0.4-0.7,1.1-0.7l0,0c0,0,0-0.4-0.4-0.4h-0.4v-0.4h0.4c0.4,0,0.7,0.4,0.7,0.7v0.7H104.1z M103.8,28.8c-0.4,0-0.7,0-0.7,0.4
			s0,0.4,0.4,0.4C103.4,29.2,103.8,29.2,103.8,28.8C103.8,29.2,103.8,29.2,103.8,28.8L103.8,28.8z"/>
		<path fill="#FFFFFF" d="M104.5,27.4L104.5,27.4l0.4,2.2h-0.4V27.4z"/>
		<path fill="#FFFFFF" d="M105.6,27.4C105.6,27.7,105.6,27.7,105.6,27.4C105.2,27.7,105.2,27.7,105.6,27.4
			C105.2,27.4,105.2,27.4,105.6,27.4L105.6,27.4z M105.2,29.6v-1.5h0.4L105.2,29.6L105.2,29.6z"/>
		<path fill="#FFFFFF" d="M106.3,27.7v0.4h0.4v0.4h-0.4v0.7c0,0.4,0,0.4,0.4,0.4l0,0v0.4c0,0,0,0-0.4,0H106v-0.4v-0.7h-0.4v-0.4h0.4
			L106.3,27.7L106.3,27.7z"/>
		<path fill="#FFFFFF" d="M108.2,27.4v1.8v0.4h-0.4v-0.4l0,0l-0.4,0.4c-0.4,0-0.7-0.4-0.7-0.7c0-0.4,0.4-0.7,0.7-0.7s0.4,0,0.4,0.4
			l0,0L108.2,27.4L108.2,27.4z M108.2,28.5L108.2,28.5c0-0.4-0.4-0.4-0.4-0.4c-0.4,0-0.4,0.4-0.4,0.7c0,0.4,0,0.7,0.4,0.7
			s0.4,0,0.4-0.4C108.2,28.8,108.2,28.8,108.2,28.5L108.2,28.5z"/>
		<path fill="#FFFFFF" d="M108.9,29.6v-1.5h-0.4v-0.4h0.4l0,0c0-0.4,0-0.4,0-0.4h0.4c0,0,0,0,0.4,0v0.4l0,0c-0.4,0-0.4,0.4-0.4,0.4
			l0,0h0.4v0.4h-0.4L108.9,29.6L108.9,29.6z"/>
		<path fill="#FFFFFF" d="M110.7,29.2v0.4h-0.4L110.7,29.2L110.7,29.2c-0.4,0.4-0.4,0.4-0.7,0.4s-0.4-0.4-0.4-0.4
			c0-0.4,0.4-0.7,1.1-0.7l0,0c0,0,0-0.4-0.4-0.4H110v-0.4h0.4c0.4,0,0.7,0.4,0.7,0.7v0.7H110.7z M110.4,28.8c-0.4,0-0.7,0-0.7,0.4
			s0,0.4,0.4,0.4C110.4,29.2,110.4,29.2,110.4,28.8C110.4,29.2,110.4,29.2,110.4,28.8L110.4,28.8z"/>
		<path fill="#FFFFFF" d="M111.1,29.2h0.4c0.4,0,0.4,0,0.4-0.4c0,0,0-0.4-0.4-0.4s-0.4-0.4-0.4-0.4c0-0.4,0.4-0.4,0.4-0.4h0.4v0.4
			c0,0,0,0-0.4,0c0,0-0.4,0-0.4,0.4c0,0,0,0.4,0.4,0.4s0.4,0.4,0.4,0.4C112.2,29.2,111.8,29.6,111.1,29.2
			C111.5,29.6,111.1,29.6,111.1,29.2L111.1,29.2z"/>
	</g>
	
		<linearGradient id="SVGID_2_" gradientUnits="userSpaceOnUse" x1="88.7318" y1="148.0974" x2="88.7318" y2="155.6167" gradientTransform="matrix(3.6667 0 0 -3.6667 -213.3333 593.3334)">
		<stop  offset="0" style="stop-color:#FFFFFF"/>
		<stop  offset="1.218760e-02" style="stop-color:#FAFCFD"/>
		<stop  offset="0.1763" style="stop-color:#B9D8E4"/>
		<stop  offset="0.3378" style="stop-color:#80B9CE"/>
		<stop  offset="0.4929" style="stop-color:#529FBC"/>
		<stop  offset="0.64" style="stop-color:#2F8BAE"/>
		<stop  offset="0.7774" style="stop-color:#157DA4"/>
		<stop  offset="0.9013" style="stop-color:#05749E"/>
		<stop  offset="1" style="stop-color:#00719C"/>
	</linearGradient>
	<path opacity="0.22" fill="url(#SVGID_2_)" enable-background="new    " d="M18,65.9c1.1,0,114.8-16.1,188.1,48.8V17.1L18.3,16.7
		L18,65.9z"/>
</g>
</svg>
