<?xml version="1.0" encoding="utf-8"?>
<!-- Generator: Adobe Illustrator 21.0.0, SVG Export Plug-In . SVG Version: 6.00 Build 0)  -->
<svg version="1.0" id="图层_1" xmlns="http://www.w3.org/2000/svg" xmlns:xlink="http://www.w3.org/1999/xlink" x="0px" y="0px" width="117" height="201"
	 viewBox="0 0 117 201" xml:space="preserve">
<g>
	
		<linearGradient id="SVGID_1_" gradientUnits="userSpaceOnUse" x1="40.7085" y1="96.1033" x2="45.3944" y2="96.1033" gradientTransform="matrix(1.95 0 0 -1.95 -27.55 368.45)">
		<stop  offset="0" style="stop-color:#8C7A6C"/>
		<stop  offset="2.688172e-02" style="stop-color:#675548"/>
		<stop  offset="0.5161" style="stop-color:#FFFFFF"/>
		<stop  offset="0.9301" style="stop-color:#817268"/>
		<stop  offset="1" style="stop-color:#97806F"/>
	</linearGradient>
	<rect x="51.8" y="174.1" fill="url(#SVGID_1_)" width="9.3" height="13.9"/>
	<path fill="none" stroke="#31485B" stroke-width="4" stroke-miterlimit="10" d="M81.1,8.8H64.7c-0.9-7.7-3.1-5.9-5.9-5.9
		S53.9,1.1,53,8.8H36.6c-4.6,0-8,1.9-8,8.3v24.4h59.9V17.1C88.2,10.7,85.7,8.8,81.1,8.8z"/>
	<path fill="#B4B4B4" d="M106.7,161.1H12.5c-1.2,0-3.4-3.1-4.6-7.7L10,37.8c0-2.8,1.2-5.3,2.5-5.3l92.1-4.6c2.8,1.9,6.8,7.1,6.8,9.9
		v118C111.1,158.6,108.3,161.1,106.7,161.1z"/>
	<path fill="#EBEAE6" d="M100.6,155.9H13.7c-3.4,0-6.2-2.8-6.2-6.2V33.8c0-3.4,2.8-6.2,6.2-6.2h86.8c3.4,0,6.2,2.8,6.2,6.2v115.9
		C106.7,153.1,104,155.9,100.6,155.9z"/>
	<g>
		<path fill="#33383D" d="M81.7,72.1h-47c-3.4,0-6.2-2.8-6.2-6.2V53c0-3.4,2.8-6.2,6.2-6.2h47c3.4,0,6.2,2.8,6.2,6.2v13
			C87.9,69.4,85.1,72.1,81.7,72.1z"/>
		<rect x="32.9" y="51.1" fill="#879787" width="50.7" height="16.7"/>
		<polyline opacity="0.15" fill="#FFFFFF" enable-background="new    " points="32.9,68.1 32.9,51.1 83.6,51.1 		"/>
	</g>
	<g>
		
			<linearGradient id="SVGID_2_" gradientUnits="userSpaceOnUse" x1="42.8854" y1="135.3028" x2="42.8854" y2="127.567" gradientTransform="matrix(1.95 0 0 -1.95 -27.55 368.45)">
			<stop  offset="0" style="stop-color:#D4CEC2"/>
			<stop  offset="1" style="stop-color:#C2ABA2"/>
		</linearGradient>
		<rect x="26.4" y="103.3" fill="url(#SVGID_2_)" width="59.3" height="19.2"/>
		<path fill="#8E9CA7" d="M72.1,109.5H46.8c-0.6,0-0.9-0.6-0.9-0.9l0,0c0-0.6,0.6-0.9,0.9-0.9h25.3c0.6,0,0.9,0.6,0.9,0.9l0,0
			C73.1,109.2,72.8,109.5,72.1,109.5z"/>
		<path fill="#8E9CA7" d="M67.8,113.9h-21c-0.6,0-0.9-0.6-0.9-0.9l0,0c0-0.6,0.6-0.9,0.9-0.9h21c0.6,0,0.9,0.6,0.9,0.9l0,0
			C68.7,113.5,68.4,113.9,67.8,113.9z"/>
		<path fill="#8E9CA7" d="M74.3,118.2H46.8c-0.6,0-0.9-0.6-0.9-0.9l0,0c0-0.6,0.6-0.9,0.9-0.9h27.5c0.6,0,0.9,0.6,0.9,0.9l0,0
			C75.2,117.6,74.6,118.2,74.3,118.2z"/>
		<line fill="none" stroke="#8E9CA7" stroke-miterlimit="10" x1="41.2" y1="105.5" x2="41.2" y2="120.3"/>
	</g>
	<g>
		
			<linearGradient id="SVGID_3_" gradientUnits="userSpaceOnUse" x1="37.3882" y1="104.9758" x2="48.3616" y2="104.9758" gradientTransform="matrix(1.95 0 0 -1.95 -27.55 368.45)">
			<stop  offset="0" style="stop-color:#8C7A6C"/>
			<stop  offset="2.688172e-02" style="stop-color:#675548"/>
			<stop  offset="0.5161" style="stop-color:#FFFFFF"/>
			<stop  offset="0.9301" style="stop-color:#817268"/>
			<stop  offset="1" style="stop-color:#97806F"/>
		</linearGradient>
		<rect x="45.3" y="156.8" fill="url(#SVGID_3_)" width="21.3" height="13.9"/>
		
			<linearGradient id="SVGID_4_" gradientUnits="userSpaceOnUse" x1="37.3882" y1="99.985" x2="48.3616" y2="99.985" gradientTransform="matrix(1.95 0 0 -1.95 -27.55 368.45)">
			<stop  offset="0" style="stop-color:#2A2520"/>
			<stop  offset="2.688172e-02" style="stop-color:#40342C"/>
			<stop  offset="0.5161" style="stop-color:#EFEFEF"/>
			<stop  offset="0.9301" style="stop-color:#3F3832"/>
			<stop  offset="1" style="stop-color:#2A241F"/>
		</linearGradient>
		<polygon fill="url(#SVGID_4_)" points="64.1,176.3 48,176.3 45.3,170.7 66.9,170.7 		"/>
		
			<linearGradient id="SVGID_5_" gradientUnits="userSpaceOnUse" x1="42.8854" y1="98.5054" x2="42.8854" y2="101.365" gradientTransform="matrix(1.95 0 0 -1.95 -27.55 368.45)">
			<stop  offset="0.7366" style="stop-color:#2A241F;stop-opacity:0"/>
			<stop  offset="1" style="stop-color:#2A241F;stop-opacity:0.2"/>
		</linearGradient>
		<polygon fill="url(#SVGID_5_)" points="64.1,176.3 48,176.3 45.3,170.7 66.9,170.7 		"/>
		
			<linearGradient id="SVGID_6_" gradientUnits="userSpaceOnUse" x1="42.8854" y1="101.365" x2="42.8854" y2="98.5054" gradientTransform="matrix(1.95 0 0 -1.95 -27.55 368.45)">
			<stop  offset="0.5215" style="stop-color:#2A241F;stop-opacity:0"/>
			<stop  offset="1" style="stop-color:#2A241F;stop-opacity:0.5"/>
		</linearGradient>
		<polygon fill="url(#SVGID_6_)" points="64.1,176.3 48,176.3 45.3,170.7 66.9,170.7 		"/>
	</g>
</g>
</svg>
