<?xml version="1.0" encoding="utf-8"?>
<!-- Generator: Adobe Illustrator 21.0.0, SVG Export Plug-In . SVG Version: 6.00 Build 0)  -->
<svg version="1.1" id="图层_1" xmlns="http://www.w3.org/2000/svg" xmlns:xlink="http://www.w3.org/1999/xlink" x="0px" y="0px" width="220px" height="220px"
	 viewBox="0 0 60 60"  xml:space="preserve">
<style type="text/css">
	.st0{fill:#5C5C5C;}
	.st1{fill:url(#SVGID_1_);}
	.st2{fill:url(#SVGID_2_);}
	.st3{fill:#424242;}
	.st4{fill:url(#SVGID_3_);}
	.st5{fill:url(#SVGID_4_);}
	.st6{fill:url(#SVGID_5_);}
	.st7{fill:url(#SVGID_6_);}
	.st8{fill:url(#SVGID_7_);}
	.st9{fill:url(#SVGID_8_);}
	.st10{fill:url(#SVGID_9_);}
	.st11{fill:url(#SVGID_10_);}
	.st12{fill:url(#SVGID_11_);}
	.st13{fill:url(#SVGID_12_);}
	.st14{fill:url(#SVGID_13_);}
	.st15{fill:url(#SVGID_14_);}
	.st16{fill:#4A4A4A;}
	.st17{fill:#595959;}
	.st18{fill:#757575;}
	.st19{fill:#141414;}
	.st20{fill:url(#SVGID_15_);}
	.st21{fill:url(#SVGID_16_);}
	.st22{fill:url(#SVGID_17_);}
	.st23{fill:#9E9E9E;}
	.st24{fill:url(#SVGID_18_);}
	.st25{fill:url(#SVGID_19_);}
	.st26{fill:url(#SVGID_20_);}
</style>
<g>
	<g>
		<path class="st0" d="M2.7,45.7c-1.3,0-2.4-1.1-2.4-2.4l0,0V5.2c0-1.3,1.1-2.4,2.4-2.4l0,0h15.5c1.3,0,2.4,1.1,2.4,2.4l0,0v38.1
			c0,1.3-1.1,2.4-2.4,2.4l0,0H2.7L2.7,45.7z M0.8,5.2v38.1c0,1.1,0.9,1.9,1.9,1.9l0,0h15.5c1.1,0,1.9-0.9,1.9-1.9l0,0l0,0V5.2
			c0-1.1-0.9-1.9-1.9-1.9l0,0H2.7C1.7,3.2,0.8,4.1,0.8,5.2L0.8,5.2z"/>
		<linearGradient id="SVGID_1_" gradientUnits="userSpaceOnUse" x1="0.5726" y1="24.196" x2="20.3966" y2="24.196">
			<stop  offset="0" style="stop-color:#0D0D0D"/>
			<stop  offset="6.713431e-02" style="stop-color:#282828"/>
			<stop  offset="0.1099" style="stop-color:#333333"/>
			<stop  offset="0.3785" style="stop-color:#303030"/>
			<stop  offset="0.6123" style="stop-color:#252525"/>
			<stop  offset="0.8324" style="stop-color:#131313"/>
			<stop  offset="1" style="stop-color:#000000"/>
		</linearGradient>
		<path class="st1" d="M20.4,43.2c0,1.2-1,2.2-2.2,2.2H2.7c-1.2,0-2.2-1-2.2-2.2V5.2C0.6,4,1.5,3,2.7,3h15.5c1.2,0,2.2,1,2.2,2.2
			V43.2z"/>
		<linearGradient id="SVGID_2_" gradientUnits="userSpaceOnUse" x1="0.5323" y1="18.3466" x2="20.3563" y2="18.3466">
			<stop  offset="0" style="stop-color:#0D0D0D"/>
			<stop  offset="6.713431e-02" style="stop-color:#282828"/>
			<stop  offset="0.1099" style="stop-color:#333333"/>
			<stop  offset="0.2402" style="stop-color:#3A3A3A"/>
			<stop  offset="0.4303" style="stop-color:#4D4D4D"/>
			<stop  offset="0.6569" style="stop-color:#6D6D6D"/>
			<stop  offset="0.9096" style="stop-color:#999999"/>
			<stop  offset="1" style="stop-color:#ABABAB"/>
		</linearGradient>
		<path class="st2" d="M13.2,3H2.7C1.5,3,0.6,4,0.6,5.2v28.5L13.2,3z"/>
		<path class="st3" d="M2.7,45.5c-1.3,0-2.3-1-2.3-2.3l0,0V5.2c0-1.3,1-2.3,2.3-2.3l0,0h15.5c1.3,0,2.3,1,2.3,2.3l0,0v38.1
			c0,1.3-1,2.3-2.3,2.3l0,0H2.7L2.7,45.5z M0.7,5.2v38.1c0,1.1,0.9,2,2,2l0,0h15.5c1.1,0,2-0.9,2-2l0,0V5.2c0-1.1-0.9-2-2-2l0,0H2.7
			C1.6,3.1,0.7,4,0.7,5.2L0.7,5.2z"/>
		<path d="M2.7,45.6L2.7,45.6L2.7,45.6l15.5-0.1c1.3,0,2.3-1,2.3-2.3l0,0V5.2c0-1.3-1-2.3-2.3-2.3l0,0H2.7c-1.3,0-2.3,1-2.3,2.3l0,0
			v38.1C0.5,44.5,1.5,45.5,2.7,45.6L2.7,45.6L2.7,45.6L2.7,45.6c-1.3,0-2.4-1.1-2.4-2.4l0,0V5.2c0-1.3,1.1-2.4,2.4-2.4l0,0h15.5
			c1.3,0,2.4,1.1,2.4,2.4l0,0v38.1c0,1.3-1.1,2.4-2.4,2.4l0,0H2.7L2.7,45.6z M2.7,45.3c-1.1,0-2.1-0.9-2.1-2.1l0,0V5.2h0l0,0
			c0-1.1,0.9-2.1,2.1-2.1l0,0h15.5c1.1,0,2.1,0.9,2.1,2.1l0,0v38.1c0,1.1-0.9,2.1-2.1,2.1l0,0H2.7L2.7,45.3z M0.8,43.2
			c0,1.1,0.9,2,2,2l0,0h15.5c1.1,0,2-0.9,2-2l0,0V5.2c0-1.1-0.9-2-2-2l0,0H2.7c-1.1,0-2,0.9-2,2l0,0V43.2L0.8,43.2z"/>
		<linearGradient id="SVGID_3_" gradientUnits="userSpaceOnUse" x1="10.4475" y1="53.367" x2="10.4475" y2="45.8404">
			<stop  offset="0" style="stop-color:#FFFFFF"/>
			<stop  offset="1" style="stop-color:#EDEDED"/>
		</linearGradient>
		<path class="st4" d="M20.4,53.4V48c0-1.2-1-2.2-2.2-2.2H2.7c-1.2,0-2.2,1-2.2,2.2v5.3H20.4z"/>
		<g>
			<linearGradient id="SVGID_4_" gradientUnits="userSpaceOnUse" x1="1.9807" y1="6.8463" x2="19.0139" y2="6.8463">
				<stop  offset="0" style="stop-color:#0D0D0D"/>
				<stop  offset="5.049417e-02" style="stop-color:#1B1B1B"/>
				<stop  offset="0.1099" style="stop-color:#262626"/>
				<stop  offset="0.416" style="stop-color:#232323"/>
				<stop  offset="0.6825" style="stop-color:#181818"/>
				<stop  offset="0.9335" style="stop-color:#060606"/>
				<stop  offset="1" style="stop-color:#000000"/>
			</linearGradient>
			<rect x="2" y="5.4" class="st5" width="17" height="2.8"/>
			<linearGradient id="SVGID_5_" gradientUnits="userSpaceOnUse" x1="19.0139" y1="6.8463" x2="2.06" y2="6.8463">
				<stop  offset="0" style="stop-color:#0D0D0D"/>
				<stop  offset="6.713431e-02" style="stop-color:#282828"/>
				<stop  offset="0.1099" style="stop-color:#333333"/>
				<stop  offset="0.2402" style="stop-color:#3A3A3A"/>
				<stop  offset="0.4303" style="stop-color:#4D4D4D"/>
				<stop  offset="0.6569" style="stop-color:#6D6D6D"/>
				<stop  offset="0.9096" style="stop-color:#999999"/>
				<stop  offset="1" style="stop-color:#ABABAB"/>
			</linearGradient>
			<rect x="2" y="6.2" class="st6" width="17" height="1.2"/>
		</g>
		<linearGradient id="SVGID_6_" gradientUnits="userSpaceOnUse" x1="1.9807" y1="10.281" x2="19.0139" y2="10.281">
			<stop  offset="0" style="stop-color:#0D0D0D"/>
			<stop  offset="5.049417e-02" style="stop-color:#1B1B1B"/>
			<stop  offset="0.1099" style="stop-color:#262626"/>
			<stop  offset="0.416" style="stop-color:#232323"/>
			<stop  offset="0.6825" style="stop-color:#181818"/>
			<stop  offset="0.9335" style="stop-color:#060606"/>
			<stop  offset="1" style="stop-color:#000000"/>
		</linearGradient>
		<rect x="2" y="8.9" class="st7" width="17" height="2.8"/>
		<linearGradient id="SVGID_7_" gradientUnits="userSpaceOnUse" x1="19.0139" y1="10.281" x2="2.06" y2="10.281">
			<stop  offset="0" style="stop-color:#0D0D0D"/>
			<stop  offset="6.713431e-02" style="stop-color:#282828"/>
			<stop  offset="0.1099" style="stop-color:#333333"/>
			<stop  offset="0.2402" style="stop-color:#3A3A3A"/>
			<stop  offset="0.4303" style="stop-color:#4D4D4D"/>
			<stop  offset="0.6569" style="stop-color:#6D6D6D"/>
			<stop  offset="0.9096" style="stop-color:#999999"/>
			<stop  offset="1" style="stop-color:#ABABAB"/>
		</linearGradient>
		<rect x="2" y="9.7" class="st8" width="17" height="1.2"/>
		<linearGradient id="SVGID_8_" gradientUnits="userSpaceOnUse" x1="19.0139" y1="41.0471" x2="2.06" y2="41.0471">
			<stop  offset="0" style="stop-color:#0D0D0D"/>
			<stop  offset="6.713431e-02" style="stop-color:#282828"/>
			<stop  offset="0.1099" style="stop-color:#333333"/>
			<stop  offset="0.2402" style="stop-color:#3A3A3A"/>
			<stop  offset="0.4303" style="stop-color:#4D4D4D"/>
			<stop  offset="0.6569" style="stop-color:#6D6D6D"/>
			<stop  offset="0.9096" style="stop-color:#999999"/>
			<stop  offset="1" style="stop-color:#ABABAB"/>
		</linearGradient>
		<rect x="2" y="40.7" class="st9" width="17" height="0.6"/>
		<linearGradient id="SVGID_9_" gradientUnits="userSpaceOnUse" x1="19.0139" y1="43.0548" x2="2.06" y2="43.0548">
			<stop  offset="0" style="stop-color:#0D0D0D"/>
			<stop  offset="6.713431e-02" style="stop-color:#282828"/>
			<stop  offset="0.1099" style="stop-color:#333333"/>
			<stop  offset="0.2402" style="stop-color:#3A3A3A"/>
			<stop  offset="0.4303" style="stop-color:#4D4D4D"/>
			<stop  offset="0.6569" style="stop-color:#6D6D6D"/>
			<stop  offset="0.9096" style="stop-color:#999999"/>
			<stop  offset="1" style="stop-color:#ABABAB"/>
		</linearGradient>
		<rect x="2" y="42.7" class="st10" width="17" height="0.6"/>
		<linearGradient id="SVGID_10_" gradientUnits="userSpaceOnUse" x1="1.9807" y1="42.0509" x2="19.0139" y2="42.0509">
			<stop  offset="0" style="stop-color:#0D0D0D"/>
			<stop  offset="9.454763e-02" style="stop-color:#0B0B0B"/>
			<stop  offset="1" style="stop-color:#000000"/>
		</linearGradient>
		<rect x="2" y="41.4" class="st11" width="17" height="1.4"/>
		<linearGradient id="SVGID_11_" gradientUnits="userSpaceOnUse" x1="12.3388" y1="33.0894" x2="9.1562" y2="26.5521">
			<stop  offset="0.1099" style="stop-color:#333333"/>
			<stop  offset="0.2402" style="stop-color:#3A3A3A"/>
			<stop  offset="0.4303" style="stop-color:#4D4D4D"/>
			<stop  offset="0.6569" style="stop-color:#6D6D6D"/>
			<stop  offset="0.9096" style="stop-color:#999999"/>
			<stop  offset="1" style="stop-color:#ABABAB"/>
		</linearGradient>
		<circle class="st12" cx="10.5" cy="29.3" r="3.6"/>
		<radialGradient id="SVGID_12_" cx="10.4976" cy="29.3078" r="3.0717" gradientUnits="userSpaceOnUse">
			<stop  offset="0.1099" style="stop-color:#333333"/>
			<stop  offset="0.3785" style="stop-color:#303030"/>
			<stop  offset="0.6123" style="stop-color:#252525"/>
			<stop  offset="0.8324" style="stop-color:#131313"/>
			<stop  offset="1" style="stop-color:#000000"/>
		</radialGradient>
		<circle class="st13" cx="10.5" cy="29.3" r="3.1"/>
	</g>
	<g>
		<linearGradient id="SVGID_13_" gradientUnits="userSpaceOnUse" x1="38.8221" y1="37.5997" x2="38.8221" y2="44.9978">
			<stop  offset="0" style="stop-color:#000000"/>
			<stop  offset="0.2293" style="stop-color:#030303"/>
			<stop  offset="0.3945" style="stop-color:#0C0C0C"/>
			<stop  offset="0.5395" style="stop-color:#1C1C1C"/>
			<stop  offset="0.6728" style="stop-color:#323232"/>
			<stop  offset="0.7972" style="stop-color:#4E4E4F"/>
			<stop  offset="0.8352" style="stop-color:#585859"/>
			<stop  offset="1" style="stop-color:#353636"/>
		</linearGradient>
		<path class="st14" d="M47.4,44.4c-2.2-3.7-2.7-6.3-2.7-6.3c-0.1-0.7-2.2-0.6-3.9-0.5v1.3c0,0.8-0.9,1.4-2.1,1.4
			c-1.1,0-2.1-0.6-2.1-1.4v-1.3c-1.7-0.1-3.8-0.1-3.9,0.5c0,0-0.4,2.6-2.7,6.3l-0.1,0.5l8.6,0.1l8.6-0.1L47.4,44.4z"/>
		<linearGradient id="SVGID_14_" gradientUnits="userSpaceOnUse" x1="38.8224" y1="37.8039" x2="38.8224" y2="44.7902">
			<stop  offset="0" style="stop-color:#000000"/>
			<stop  offset="0.1825" style="stop-color:#030303"/>
			<stop  offset="0.3139" style="stop-color:#0C0C0C"/>
			<stop  offset="0.4294" style="stop-color:#1C1C1C"/>
			<stop  offset="0.5356" style="stop-color:#323232"/>
			<stop  offset="0.6355" style="stop-color:#4E4F4F"/>
			<stop  offset="0.7307" style="stop-color:#717272"/>
			<stop  offset="0.8205" style="stop-color:#9A9B9C"/>
			<stop  offset="0.8352" style="stop-color:#A1A2A3"/>
			<stop  offset="1" style="stop-color:#353636"/>
		</linearGradient>
		<path class="st15" d="M35.1,37.7c-0.6,0-1.1,0-1.5,0.1c-0.4,0.1-0.5,0.2-0.5,0.3c0,0-0.4,2.6-2.7,6.3l0,0.2l8.4,0.1l8.4-0.1l0-0.2
			c-2.2-3.7-2.7-6.3-2.7-6.3c0,0-0.1-0.2-0.5-0.3c-0.4-0.1-0.9-0.1-1.5-0.1c-0.5,0-1,0-1.4,0.1v1.1c0,1-1.1,1.6-2.3,1.6
			c-1.2,0-2.2-0.7-2.3-1.6v-1.1C36.1,37.8,35.6,37.7,35.1,37.7z"/>
		<path class="st16" d="M60.3,38c0,0.7-0.6,1.3-1.3,1.3H18.7c-0.7,0-1.3-0.6-1.3-1.3V11.5c0-0.7,0.6-1.3,1.3-1.3h40.4
			c0.7,0,1.3,0.6,1.3,1.3V38z"/>
		<path class="st17" d="M18.7,10.2c-0.7,0-1.3,0.6-1.3,1.3V38c0,0.7,0.6,1.3,1.3,1.3h0.8c8.2-16.6,23.5-25.1,33.3-29.1H18.7z"/>
		<path d="M59.1,10.5H18.7c-0.5,0-1,0.4-1,1V38c0,0.5,0.4,1,1,1h40.4c0.5,0,1-0.4,1-1V11.5C60,10.9,59.6,10.5,59.1,10.5z"/>
		<path class="st18" d="M59.1,10.3H18.7c-0.6,0-1.2,0.5-1.2,1.2V38c0,0.6,0.5,1.2,1.2,1.2h40.4c0.6,0,1.2-0.5,1.2-1.2V11.5
			C60.2,10.8,59.7,10.3,59.1,10.3z M60.1,38L60.1,38L60.1,38L60.1,38c0,0.6-0.5,1.1-1.1,1.1H18.7c-0.6,0-1.1-0.5-1.1-1.1V11.5
			c0-0.6,0.5-1.1,1.1-1.1h40.4c0.6,0,1.1,0.5,1.1,1.1V38z"/>
		<path class="st19" d="M59.1,10.7H18.7c-0.4,0-0.8,0.4-0.8,0.8l0,26.5c0,0.4,0.4,0.8,0.8,0.8h40.4c0.4,0,0.8-0.4,0.8-0.8V11.5
			C59.9,11,59.5,10.7,59.1,10.7z"/>
		<linearGradient id="SVGID_15_" gradientUnits="userSpaceOnUse" x1="20.1219" y1="31.7628" x2="40.9893" y2="2.0847">
			<stop  offset="0" style="stop-color:#212021"/>
			<stop  offset="1" style="stop-color:#7D7D7D"/>
		</linearGradient>
		<path class="st20" d="M18.7,10.7c-0.4,0-0.8,0.4-0.8,0.8V38c0,0.4,0.4,0.8,0.8,0.8h1c7.9-15.7,22.2-24,31.9-28.1H18.7z"/>
		<path d="M57.5,36.2c0,0.1-0.1,0.2-0.3,0.2H20.6c-0.1,0-0.3-0.1-0.3-0.2V13.3c0-0.1,0.1-0.2,0.3-0.2h36.6c0.1,0,0.3,0.1,0.3,0.2
			V36.2z"/>
		<path d="M20.6,13c-0.1,0-0.3,0.1-0.3,0.2v22.9c0,0.1,0.1,0.2,0.3,0.2h0.4c6.7-11.7,17-19,25.6-23.4H20.6z"/>
		<linearGradient id="SVGID_16_" gradientUnits="userSpaceOnUse" x1="20.4299" y1="24.7477" x2="57.3154" y2="24.7477">
			<stop  offset="1.123600e-02" style="stop-color:#9EE2FF"/>
			<stop  offset="1" style="stop-color:#2EA4D8"/>
		</linearGradient>
		<path class="st21" d="M57.3,13.3c0,0,0-0.1-0.1-0.1H20.6c-0.1,0-0.1,0.1-0.1,0.1v22.9c0,0,0,0.1,0.1,0.1h36.6
			c0.1,0,0.1-0.1,0.1-0.1V13.3z"/>
		<linearGradient id="SVGID_17_" gradientUnits="userSpaceOnUse" x1="23.25" y1="27.1572" x2="47.9428" y2="-6.926">
			<stop  offset="1.123600e-02" style="stop-color:#9EE2FF"/>
			<stop  offset="0.1759" style="stop-color:#99DFFD"/>
			<stop  offset="0.3722" style="stop-color:#8AD7F8"/>
			<stop  offset="0.5846" style="stop-color:#72CAF0"/>
			<stop  offset="0.8069" style="stop-color:#51B7E4"/>
			<stop  offset="1" style="stop-color:#2EA4D8"/>
		</linearGradient>
		<path class="st22" d="M45.9,13.2L45.9,13.2H20.6v0c-0.1,0-0.1,0.1-0.1,0.1v22.9c0,0,0,0.1,0.1,0.1H21
			c6.6-11.5,16.7-18.7,25.2-23.1H45.9z"/>
		<path class="st23" d="M17.6,34.4V11.5c0-0.6,0.5-1.1,1.1-1.1h21.1c0.1,0,0.1-0.1,0.2-0.1H18.7c-0.6,0-1.2,0.5-1.2,1.2v23.1
			C17.6,34.5,17.6,34.5,17.6,34.4z"/>
		<linearGradient id="SVGID_18_" gradientUnits="userSpaceOnUse" x1="38.8571" y1="45.2278" x2="38.8571" y2="44.3247">
			<stop  offset="0" style="stop-color:#000000"/>
			<stop  offset="0.1825" style="stop-color:#030303"/>
			<stop  offset="0.3139" style="stop-color:#0C0C0C"/>
			<stop  offset="0.4294" style="stop-color:#1C1C1C"/>
			<stop  offset="0.5356" style="stop-color:#323232"/>
			<stop  offset="0.6355" style="stop-color:#4E4F4F"/>
			<stop  offset="0.7307" style="stop-color:#717272"/>
			<stop  offset="0.8205" style="stop-color:#9A9B9C"/>
			<stop  offset="0.8352" style="stop-color:#A1A2A3"/>
			<stop  offset="1" style="stop-color:#353636"/>
		</linearGradient>
		<path class="st24" d="M51.2,44.2H26.5c-0.6,0-1,0.4-1,1h26.7C52.2,44.7,51.7,44.2,51.2,44.2z"/>
		<linearGradient id="SVGID_19_" gradientUnits="userSpaceOnUse" x1="38.8571" y1="45.6515" x2="38.8571" y2="45.2685">
			<stop  offset="0" style="stop-color:#000000"/>
			<stop  offset="0.3316" style="stop-color:#030303"/>
			<stop  offset="0.5703" style="stop-color:#0C0C0C"/>
			<stop  offset="0.7799" style="stop-color:#1B1C1C"/>
			<stop  offset="0.9717" style="stop-color:#313232"/>
			<stop  offset="1" style="stop-color:#353636"/>
		</linearGradient>
		<rect x="25.5" y="45.2" class="st25" width="26.7" height="0.4"/>
	</g>
	<linearGradient id="SVGID_20_" gradientUnits="userSpaceOnUse" x1="38.8571" y1="51.7164" x2="38.8571" y2="43.1122">
		<stop  offset="0" style="stop-color:#FFFFFF"/>
		<stop  offset="1" style="stop-color:#EDEDED"/>
	</linearGradient>
	<rect x="25.5" y="45.7" class="st26" width="26.7" height="6.5"/>
</g>
</svg>
