<?xml version="1.0" encoding="utf-8"?>
<!-- Generator: Adobe Illustrator 21.0.0, SVG Export Plug-In . SVG Version: 6.00 Build 0)  -->
<svg version="1.0" id="图层_1" xmlns="http://www.w3.org/2000/svg" xmlns:xlink="http://www.w3.org/1999/xlink" x="0px" y="0px" width="136.8" height="78.7"
	 viewBox="0 0 60 60" xml:space="preserve">
<polygon fill="#2567FF" points="74,33.9 67.5,37.7 67.5,21 74,24.8 "/>
<polygon fill="#061E4C" points="-21.4,44.2 25,44.2 28.9,40.3 28.9,19.7 25,15.8 -21.4,15.8 "/>
<path fill="#2567FF" d="M-21.4,44.2h7.7V15.8h-7.7c-1.4,0-2.6,1.2-2.6,2.6v23.2C-24,43-22.8,44.2-21.4,44.2z"/>
<path fill="#2567FF" d="M25,44.2h-7.7V15.8H25c1.4,0,2.6,1.2,2.6,2.6v23.2C27.6,43,26.4,44.2,25,44.2z"/>
<rect x="-12.4" y="31.3" transform="matrix(-1 -4.489532e-11 4.489532e-11 -1 3.5663 67.7349)" fill="#2567FF" width="28.4" height="5.2"/>
<rect x="34" y="26.1" transform="matrix(-1 -4.515156e-11 4.515156e-11 -1 74.4699 61.2892)" fill="#2567FF" width="6.4" height="9"/>
<polygon fill="#006B3F" points="41.7,53.2 65,53.2 65,41.6 67.5,41.6 67.5,17.1 65,17.1 65,0.3 41.7,0.3 41.7,17.1 39.2,17.1 
	39.2,41.6 41.7,41.6 "/>
<rect x="-12.4" y="23.6" transform="matrix(-1 -4.489532e-11 4.489532e-11 -1 3.5663 52.2651)" fill="#5C8DFF" width="28.4" height="5.2"/>
<rect x="-12.4" y="39" transform="matrix(-1 -4.489532e-11 4.489532e-11 -1 3.5663 83.2048)" fill="#2567FF" width="28.4" height="5.2"/>
<rect x="-12.4" y="15.8" transform="matrix(-1 -4.489532e-11 4.489532e-11 -1 3.5663 36.7952)" fill="#2567FF" width="28.4" height="5.2"/>
<path fill="#2567FF" d="M12.1,14.5H-8.5c-2.1,0-3.9-1.7-3.9-3.9V5.5H16v5.2C16,12.8,14.2,14.5,12.1,14.5z"/>
<polygon fill="#2567FF" points="34,36.4 28.9,40.3 28.9,19.7 34,24.8 "/>
<polygon fill="#0D3AA6" points="-12.4,53.2 16,53.2 12.1,45.5 -8.5,45.5 "/>
<rect x="-24" y="53.2" transform="matrix(-1 -4.491353e-11 4.491353e-11 -1 59 112.8554)" fill="#0D3AA6" width="107" height="6.4"/>
<rect x="37.9" y="10.7" transform="matrix(-1 -4.494595e-11 4.494595e-11 -1 106.6988 23.9036)" fill="#0D3AA6" width="30.9" height="2.6"/>
<rect x="37.9" y="6.8" transform="matrix(-1 -4.494595e-11 4.494595e-11 -1 106.6988 16.1687)" fill="#0D3AA6" width="30.9" height="2.6"/>
<rect x="37.9" y="46.8" transform="matrix(-1 -4.497570e-11 4.497570e-11 -1 106.6988 96.0964)" fill="#0D3AA6" width="30.9" height="2.6"/>
<rect x="37.9" y="42.9" transform="matrix(-1 -4.491664e-11 4.491664e-11 -1 106.6988 88.3614)" fill="#0D3AA6" width="30.9" height="2.6"/>
<g>
	<polygon fill="#2CAC7C" points="40.5,18.4 43,18.4 43,13.2 63.7,13.2 63.7,18.4 66.2,18.4 66.2,40.3 63.7,40.3 63.7,42.9 43,42.9 
		43,40.3 40.5,40.3 	"/>
	<rect x="43" y="49.3" fill="#2CAC7C" width="20.6" height="3.9"/>
	<rect x="43" y="1.6" fill="#2CAC7C" width="20.6" height="5.2"/>
</g>
</svg>
