<?xml version="1.0" encoding="utf-8"?>
<!-- Generator: Adobe Illustrator 21.0.0, SVG Export Plug-In . SVG Version: 6.00 Build 0)  -->
<svg version="1.1" id="图层_1" xmlns="http://www.w3.org/2000/svg" xmlns:xlink="http://www.w3.org/1999/xlink" x="0px" y="0px" width="163.3" height="131.5"
	 viewBox="0 0 60 60" xml:space="preserve">
<style type="text/css">
	.st0{fill:#2567FF;}
	.st1{fill:#E5E5E5;}
	.st2{fill:#CCCCCC;}
	.st3{fill:url(#SVGID_1_);}
	.st4{fill:url(#SVGID_2_);}
	.st5{fill:url(#SVGID_3_);}
	.st6{fill:url(#SVGID_4_);}
	.st7{fill:url(#SVGID_5_);}
	.st8{fill:url(#SVGID_6_);}
	.st9{fill:url(#SVGID_7_);}
	.st10{fill:url(#SVGID_8_);}
	.st11{fill:url(#SVGID_9_);}
	.st12{fill:url(#SVGID_10_);}
	.st13{fill:url(#SVGID_11_);}
	.st14{fill:url(#SVGID_12_);}
</style>
<rect x="0.2" y="8" class="st0" width="53.4" height="2.6"/>
<rect x="0.2" y="10" class="st1" width="53.4" height="18.9"/>
<polygon class="st2" points="53.6,8 0.2,8 6.8,-0.3 60.2,-0.3 "/>
<polygon class="st0" points="60.2,2.4 53.6,10.6 53.6,8 60.2,-0.3 "/>
<rect x="0.2" y="28.9" class="st0" width="53.4" height="2.6"/>
<rect x="0.2" y="31.5" class="st1" width="53.4" height="25.5"/>
<polygon class="st0" points="60.2,23.2 53.6,31.5 53.6,28.9 60.2,20.6 "/>
<polygon class="st2" points="60.2,20.6 53.6,28.9 53.6,10.6 60.2,2.4 "/>
<polygon class="st2" points="60.2,49 53.6,57.3 53.6,31.5 60.2,23.2 "/>
<g>
	
		<linearGradient id="SVGID_1_" gradientUnits="userSpaceOnUse" x1="2.3674" y1="909.9427" x2="6.7625" y2="905.5476" gradientTransform="matrix(1 0 0 1 0 -889)">
		<stop  offset="0" style="stop-color:#242424"/>
		<stop  offset="1" style="stop-color:#5B5B5B"/>
	</linearGradient>
	<rect x="1.8" y="17.2" class="st3" width="5.6" height="3.2"/>
	
		<linearGradient id="SVGID_2_" gradientUnits="userSpaceOnUse" x1="9.3858" y1="909.9427" x2="13.7809" y2="905.5476" gradientTransform="matrix(1 0 0 1 0 -889)">
		<stop  offset="0" style="stop-color:#242424"/>
		<stop  offset="1" style="stop-color:#5B5B5B"/>
	</linearGradient>
	<rect x="8.8" y="17.2" class="st4" width="5.6" height="3.2"/>
	
		<linearGradient id="SVGID_3_" gradientUnits="userSpaceOnUse" x1="16.4041" y1="909.9427" x2="20.7992" y2="905.5476" gradientTransform="matrix(1 0 0 1 0 -889)">
		<stop  offset="0" style="stop-color:#242424"/>
		<stop  offset="1" style="stop-color:#5B5B5B"/>
	</linearGradient>
	<rect x="15.8" y="17.2" class="st5" width="5.6" height="3.2"/>
	
		<linearGradient id="SVGID_4_" gradientUnits="userSpaceOnUse" x1="23.4225" y1="909.9427" x2="27.8175" y2="905.5476" gradientTransform="matrix(1 0 0 1 0 -889)">
		<stop  offset="0" style="stop-color:#242424"/>
		<stop  offset="1" style="stop-color:#5B5B5B"/>
	</linearGradient>
	<rect x="22.8" y="17.2" class="st6" width="5.6" height="3.2"/>
	
		<linearGradient id="SVGID_5_" gradientUnits="userSpaceOnUse" x1="37.872" y1="909.9427" x2="42.2671" y2="905.5476" gradientTransform="matrix(1 0 0 1 0 -889)">
		<stop  offset="0" style="stop-color:#242424"/>
		<stop  offset="1" style="stop-color:#5B5B5B"/>
	</linearGradient>
	<rect x="37.3" y="17.2" class="st7" width="5.6" height="3.2"/>
	
		<linearGradient id="SVGID_6_" gradientUnits="userSpaceOnUse" x1="44.8904" y1="909.9427" x2="49.2854" y2="905.5476" gradientTransform="matrix(1 0 0 1 0 -889)">
		<stop  offset="0" style="stop-color:#242424"/>
		<stop  offset="1" style="stop-color:#5B5B5B"/>
	</linearGradient>
	<rect x="44.3" y="17.2" class="st8" width="5.6" height="3.2"/>
</g>
<g>
	
		<linearGradient id="SVGID_7_" gradientUnits="userSpaceOnUse" x1="2.0028" y1="936.0642" x2="7.1287" y2="930.9383" gradientTransform="matrix(1 0 0 1 0 -889)">
		<stop  offset="0" style="stop-color:#242424"/>
		<stop  offset="1" style="stop-color:#5B5B5B"/>
	</linearGradient>
	<rect x="1.8" y="42.2" class="st9" width="5.6" height="4.7"/>
	
		<linearGradient id="SVGID_8_" gradientUnits="userSpaceOnUse" x1="9.0211" y1="936.0642" x2="14.147" y2="930.9383" gradientTransform="matrix(1 0 0 1 0 -889)">
		<stop  offset="0" style="stop-color:#242424"/>
		<stop  offset="1" style="stop-color:#5B5B5B"/>
	</linearGradient>
	<rect x="8.8" y="42.2" class="st10" width="5.6" height="4.7"/>
	
		<linearGradient id="SVGID_9_" gradientUnits="userSpaceOnUse" x1="16.0394" y1="936.0642" x2="21.1654" y2="930.9383" gradientTransform="matrix(1 0 0 1 0 -889)">
		<stop  offset="0" style="stop-color:#242424"/>
		<stop  offset="1" style="stop-color:#5B5B5B"/>
	</linearGradient>
	<rect x="15.8" y="42.2" class="st11" width="5.6" height="4.7"/>
	
		<linearGradient id="SVGID_10_" gradientUnits="userSpaceOnUse" x1="23.0578" y1="936.0642" x2="28.1837" y2="930.9383" gradientTransform="matrix(1 0 0 1 0 -889)">
		<stop  offset="0" style="stop-color:#242424"/>
		<stop  offset="1" style="stop-color:#5B5B5B"/>
	</linearGradient>
	<rect x="22.8" y="42.2" class="st12" width="5.6" height="4.7"/>
	
		<linearGradient id="SVGID_11_" gradientUnits="userSpaceOnUse" x1="37.5073" y1="936.0642" x2="42.6333" y2="930.9383" gradientTransform="matrix(1 0 0 1 0 -889)">
		<stop  offset="0" style="stop-color:#242424"/>
		<stop  offset="1" style="stop-color:#5B5B5B"/>
	</linearGradient>
	<rect x="37.3" y="42.2" class="st13" width="5.6" height="4.7"/>
	
		<linearGradient id="SVGID_12_" gradientUnits="userSpaceOnUse" x1="44.5257" y1="936.0642" x2="49.6516" y2="930.9383" gradientTransform="matrix(1 0 0 1 0 -889)">
		<stop  offset="0" style="stop-color:#242424"/>
		<stop  offset="1" style="stop-color:#5B5B5B"/>
	</linearGradient>
	<rect x="44.3" y="42.2" class="st14" width="5.6" height="4.7"/>
</g>
</svg>
