<?xml version="1.0" encoding="utf-8"?>
<!-- Generator: Adobe Illustrator 21.0.0, SVG Export Plug-In . SVG Version: 6.00 Build 0)  -->
<svg version="1.1" id="图层_1" xmlns="http://www.w3.org/2000/svg" xmlns:xlink="http://www.w3.org/1999/xlink" x="0px" y="0px" width="220px" height="220px"
	 viewBox="0 0 60 60"  xml:space="preserve">
<style type="text/css">
	.st0{fill:url(#SVGID_1_);}
	.st1{fill:#2B567B;}
	.st2{opacity:0.7;fill:url(#SVGID_2_);}
	.st3{opacity:0.5;fill:url(#SVGID_3_);}
	.st4{fill:#636263;}
	.st5{fill:url(#SVGID_4_);}
	.st6{fill:url(#SVGID_5_);}
	.st7{fill:url(#SVGID_6_);}
	.st8{fill:url(#SVGID_7_);}
	.st9{fill:url(#SVGID_8_);}
	.st10{fill:url(#SVGID_9_);}
	.st11{fill:url(#SVGID_10_);}
	.st12{opacity:0.5;fill:url(#SVGID_11_);}
	.st13{opacity:0.5;fill:url(#SVGID_12_);}
	.st14{opacity:0.5;fill:url(#SVGID_13_);}
	.st15{opacity:0.5;fill:url(#SVGID_14_);}
	.st16{opacity:0.5;fill:url(#SVGID_15_);}
	.st17{opacity:0.5;fill:url(#SVGID_16_);}
	.st18{opacity:0.5;fill:url(#SVGID_17_);}
	.st19{opacity:0.5;fill:url(#SVGID_18_);}
	.st20{opacity:0.5;fill:url(#SVGID_19_);}
	.st21{fill:url(#SVGID_20_);}
	.st22{fill:url(#SVGID_21_);}
	.st23{opacity:0.5;fill:url(#SVGID_22_);}
	.st24{fill:url(#SVGID_23_);}
</style>
<g>
	<g>
		<g>
			<linearGradient id="SVGID_1_" gradientUnits="userSpaceOnUse" x1="38.6167" y1="44.384" x2="38.6167" y2="0.2533">
				<stop  offset="0" style="stop-color:#3C6588"/>
				<stop  offset="0.3048" style="stop-color:#6686A1"/>
				<stop  offset="1" style="stop-color:#C1D0D9"/>
			</linearGradient>
			<circle class="st0" cx="38.6" cy="22.3" r="22.1"/>
			<path class="st1" d="M38.6,0.5c-12,0-21.8,9.8-21.8,21.8c0,12,9.8,21.8,21.8,21.8c12,0,21.8-9.8,21.8-21.8
				C60.4,10.3,50.7,0.5,38.6,0.5z M59.3,21.8h-4.9c-0.1-5.3-1.4-9.3-3.2-12.4c1-0.3,1.9-0.6,2.7-1C57.1,11.9,59.1,16.6,59.3,21.8z
				 M44.6,2.5c3.2,1,6.1,2.7,8.4,5c-0.8,0.3-1.6,0.6-2.5,0.9C48.7,5.7,46.6,3.8,44.6,2.5z M53.2,21.8h-7.6
				c-0.1-3.9-0.8-7.6-1.7-10.7c2.2-0.3,4.3-0.8,6.2-1.4C51.9,12.6,53.1,16.6,53.2,21.8z M49.5,8.7c-1.8,0.5-3.8,1-5.9,1.2
				C42.4,6.2,41,3.3,40,1.7c0.3,0,0.6,0,0.8,0.1C43.2,2.7,46.7,4.7,49.5,8.7z M44.5,21.8H32.8c0.1-3.9,0.8-7.5,1.7-10.6
				c1.3,0.2,2.7,0.2,4.2,0.2c1.4,0,2.8-0.1,4.2-0.2C43.7,14.3,44.4,17.9,44.5,21.8z M33.6,9.9c-2.1-0.3-4.1-0.7-5.9-1.3
				c2.7-4,6.3-6,8.6-6.9c0.3,0,0.6-0.1,0.8-0.1C36.3,3.3,34.8,6.2,33.6,9.9z M26.7,8.3c-0.9-0.3-1.7-0.6-2.5-0.9
				c2.3-2.3,5.2-4,8.4-5C30.7,3.8,28.5,5.7,26.7,8.3z M27.1,9.7c1.9,0.6,4,1,6.2,1.4c-0.9,3.1-1.6,6.8-1.7,10.7H24
				C24.1,16.6,25.4,12.6,27.1,9.7z M31.6,22.9c0.1,3.9,0.8,7.6,1.7,10.7c-2.2,0.3-4.4,0.8-6.3,1.4c-1.7-3-3-6.9-3.1-12.1H31.6z
				 M32,41.9c-2.9-1-5.6-2.6-7.8-4.8c0.7-0.3,1.5-0.6,2.3-0.8C28.2,38.9,30.1,40.7,32,41.9z M27.7,36c1.8-0.5,3.8-1,6-1.3
				c1.2,3.7,2.6,6.6,3.6,8.2c-0.4,0-0.7-0.1-1.1-0.1C33.8,41.9,30.3,39.9,27.7,36z M32.8,22.9h11.7c-0.1,3.9-0.8,7.5-1.7,10.6
				c-1.3-0.2-2.7-0.2-4.2-0.2c-1.4,0-2.8,0.1-4.2,0.2C33.5,30.4,32.8,26.8,32.8,22.9z M43.6,34.7c2.2,0.3,4.2,0.8,6,1.3
				c-2.6,3.9-6,5.9-8.4,6.8c-0.4,0.1-0.8,0.1-1.2,0.1C41,41.3,42.4,38.4,43.6,34.7z M50.7,36.3c0.8,0.3,1.6,0.5,2.3,0.8
				c-2.2,2.1-4.8,3.8-7.8,4.8C47.1,40.7,49.1,38.9,50.7,36.3z M50.2,35c-1.9-0.6-4-1.1-6.3-1.4c0.9-3.1,1.6-6.8,1.7-10.7h7.6
				C53.1,28.1,51.9,32.1,50.2,35z M38.6,1.6C38.6,1.6,38.7,1.6,38.6,1.6c0.9,1.4,2.5,4.4,3.8,8.4c-1.2,0.1-2.5,0.2-3.8,0.2
				c-1.3,0-2.6-0.1-3.8-0.2C36.1,6,37.7,3,38.6,1.6C38.6,1.6,38.6,1.6,38.6,1.6z M23.4,8.4c0.8,0.3,1.8,0.7,2.7,1
				c-1.8,3.1-3.1,7.1-3.2,12.4h-4.9C18.1,16.6,20.1,11.9,23.4,8.4z M17.9,22.9h4.9c0.1,5.3,1.3,9.4,3.1,12.5
				c-0.9,0.3-1.8,0.6-2.6,0.9C20.1,32.7,18.1,28,17.9,22.9z M38.5,43c-0.8-1.4-2.4-4.4-3.7-8.4c1.2-0.1,2.5-0.2,3.8-0.2
				c1.3,0,2.6,0.1,3.8,0.2c-1.3,4-2.9,7-3.7,8.4C38.7,43,38.6,43,38.5,43C38.6,43,38.6,43,38.5,43z M53.9,36.3
				c-0.8-0.3-1.7-0.6-2.6-0.9c1.8-3.1,3-7.1,3.1-12.5h4.9C59.1,28,57.1,32.7,53.9,36.3z"/>
			<linearGradient id="SVGID_2_" gradientUnits="userSpaceOnUse" x1="38.6167" y1="24.8199" x2="38.6167" y2="1.3846">
				<stop  offset="0" style="stop-color:#424242"/>
				<stop  offset="1" style="stop-color:#FFFFFF"/>
			</linearGradient>
			<path class="st2" d="M38.6,1.4c-11.5,0-20.8,9.1-20.8,20.3c0,0.3,0,0.7,0,1c6.3,1.4,13.4,2.2,20.8,2.2c7.4,0,14.5-0.8,20.8-2.2
				c0-0.3,0-0.7,0-1C59.4,10.5,50.1,1.4,38.6,1.4z"/>
		</g>
		<linearGradient id="SVGID_3_" gradientUnits="userSpaceOnUse" x1="32.7485" y1="44.384" x2="32.7485" y2="22.9205">
			<stop  offset="0" style="stop-color:#8A9AA9"/>
			<stop  offset="0.5" style="stop-color:#8A9AA9"/>
			<stop  offset="1" style="stop-color:#8A9AA9"/>
		</linearGradient>
		<path class="st3" d="M38.6,34.4l-3.8-3.9l-10.5,0.9v-0.8v-4.9l-2.7-2.7l-5.1,0.9c0.7,11.5,10.3,20.6,22,20.6
			c3.7,0,7.2-0.9,10.3-2.5L46.2,38l-7.6,0.9L38.6,34.4z"/>
		<g>
			<polygon class="st4" points="0.7,59.9 46.2,59.9 46.2,38 34.8,38 34.8,30.5 21.7,30.5 21.7,22.9 0.7,22.9 			"/>
			<linearGradient id="SVGID_4_" gradientUnits="userSpaceOnUse" x1="34.8177" y1="59.2279" x2="34.8177" y2="53.1232">
				<stop  offset="0" style="stop-color:#EE5D20"/>
				<stop  offset="1" style="stop-color:#FF9E47"/>
			</linearGradient>
			<polygon class="st5" points="23.4,53.1 46.2,53.1 46.2,59.2 23.4,59.2 			"/>
			<linearGradient id="SVGID_5_" gradientUnits="userSpaceOnUse" x1="11.1693" y1="59.2279" x2="11.1693" y2="53.1232">
				<stop  offset="0" style="stop-color:#C13900"/>
				<stop  offset="1" style="stop-color:#F27624"/>
			</linearGradient>
			<polygon class="st6" points="0.7,53.1 21.7,53.1 21.7,59.2 0.7,59.2 			"/>
			<linearGradient id="SVGID_6_" gradientUnits="userSpaceOnUse" x1="41.3984" y1="51.6772" x2="41.3984" y2="45.5726">
				<stop  offset="0" style="stop-color:#EE5D20"/>
				<stop  offset="1" style="stop-color:#FF9E47"/>
			</linearGradient>
			<polygon class="st7" points="36.6,45.6 46.2,45.6 46.2,51.7 36.6,51.7 			"/>
			<linearGradient id="SVGID_7_" gradientUnits="userSpaceOnUse" x1="23.4393" y1="51.6772" x2="23.4393" y2="45.5726">
				<stop  offset="0" style="stop-color:#C13900"/>
				<stop  offset="1" style="stop-color:#F27624"/>
			</linearGradient>
			<polygon class="st8" points="12.1,45.6 34.8,45.6 34.8,51.7 12.1,51.7 			"/>
			<linearGradient id="SVGID_8_" gradientUnits="userSpaceOnUse" x1="5.4801" y1="51.6772" x2="5.4801" y2="45.5726">
				<stop  offset="0" style="stop-color:#EE5D20"/>
				<stop  offset="1" style="stop-color:#FF9E47"/>
			</linearGradient>
			<polygon class="st9" points="0.7,45.6 10.3,45.6 10.3,51.7 0.7,51.7 			"/>
			<linearGradient id="SVGID_9_" gradientUnits="userSpaceOnUse" x1="23.4393" y1="36.5759" x2="23.4393" y2="30.4712">
				<stop  offset="0" style="stop-color:#C13900"/>
				<stop  offset="1" style="stop-color:#F27624"/>
			</linearGradient>
			<polygon class="st10" points="12.1,30.5 34.8,30.5 34.8,36.6 12.1,36.6 			"/>
			<linearGradient id="SVGID_10_" gradientUnits="userSpaceOnUse" x1="5.4801" y1="36.5759" x2="5.4801" y2="30.4712">
				<stop  offset="0" style="stop-color:#EE5D20"/>
				<stop  offset="1" style="stop-color:#FF9E47"/>
			</linearGradient>
			<polygon class="st11" points="0.7,30.5 10.3,30.5 10.3,36.6 0.7,36.6 			"/>
			<linearGradient id="SVGID_11_" gradientUnits="userSpaceOnUse" x1="23.4391" y1="37.2342" x2="23.4391" y2="36.5757">
				<stop  offset="0" style="stop-color:#8A9AA9"/>
				<stop  offset="0.5" style="stop-color:#8A9AA9"/>
				<stop  offset="1" style="stop-color:#8A9AA9"/>
			</linearGradient>
			<polygon class="st12" points="12.1,36.6 34.8,36.6 34.8,37.2 12.1,37.2 			"/>
			<linearGradient id="SVGID_12_" gradientUnits="userSpaceOnUse" x1="34.8177" y1="44.785" x2="34.8177" y2="44.1266">
				<stop  offset="0" style="stop-color:#8A9AA9"/>
				<stop  offset="0.5" style="stop-color:#8A9AA9"/>
				<stop  offset="1" style="stop-color:#8A9AA9"/>
			</linearGradient>
			<polygon class="st13" points="23.4,44.1 46.2,44.1 46.2,44.8 23.4,44.8 			"/>
			<linearGradient id="SVGID_13_" gradientUnits="userSpaceOnUse" x1="23.4391" y1="52.3357" x2="23.4391" y2="51.6772">
				<stop  offset="0" style="stop-color:#8A9AA9"/>
				<stop  offset="0.5" style="stop-color:#8A9AA9"/>
				<stop  offset="1" style="stop-color:#8A9AA9"/>
			</linearGradient>
			<polygon class="st14" points="12.1,51.7 34.8,51.7 34.8,52.3 12.1,52.3 			"/>
			<linearGradient id="SVGID_14_" gradientUnits="userSpaceOnUse" x1="41.3984" y1="52.3357" x2="41.3984" y2="51.6772">
				<stop  offset="0" style="stop-color:#8A9AA9"/>
				<stop  offset="0.5" style="stop-color:#8A9AA9"/>
				<stop  offset="1" style="stop-color:#8A9AA9"/>
			</linearGradient>
			<polygon class="st15" points="36.6,51.7 46.2,51.7 46.2,52.3 36.6,52.3 			"/>
			
				<linearGradient id="SVGID_15_" gradientUnits="userSpaceOnUse" x1="50.1513" y1="52.3357" x2="50.1513" y2="51.6772" gradientTransform="matrix(-1 0 0 1 55.6313 0)">
				<stop  offset="0" style="stop-color:#8A9AA9"/>
				<stop  offset="0.5" style="stop-color:#8A9AA9"/>
				<stop  offset="1" style="stop-color:#8A9AA9"/>
			</linearGradient>
			<rect x="0.7" y="51.7" class="st16" width="9.6" height="0.7"/>
			<linearGradient id="SVGID_16_" gradientUnits="userSpaceOnUse" x1="11.1693" y1="44.785" x2="11.1693" y2="44.1266">
				<stop  offset="0" style="stop-color:#8A9AA9"/>
				<stop  offset="0.5" style="stop-color:#8A9AA9"/>
				<stop  offset="1" style="stop-color:#8A9AA9"/>
			</linearGradient>
			<polygon class="st17" points="0.7,44.1 21.7,44.1 21.7,44.8 0.7,44.8 			"/>
			<linearGradient id="SVGID_17_" gradientUnits="userSpaceOnUse" x1="34.8177" y1="59.8864" x2="34.8177" y2="59.2279">
				<stop  offset="0" style="stop-color:#8A9AA9"/>
				<stop  offset="0.5" style="stop-color:#8A9AA9"/>
				<stop  offset="1" style="stop-color:#8A9AA9"/>
			</linearGradient>
			<polygon class="st18" points="23.4,59.2 46.2,59.2 46.2,59.9 23.4,59.9 			"/>
			<linearGradient id="SVGID_18_" gradientUnits="userSpaceOnUse" x1="11.1693" y1="59.8864" x2="11.1693" y2="59.2279">
				<stop  offset="0" style="stop-color:#8A9AA9"/>
				<stop  offset="0.5" style="stop-color:#8A9AA9"/>
				<stop  offset="1" style="stop-color:#8A9AA9"/>
			</linearGradient>
			<polygon class="st19" points="0.7,59.2 21.7,59.2 21.7,59.9 0.7,59.9 			"/>
			<linearGradient id="SVGID_19_" gradientUnits="userSpaceOnUse" x1="5.48" y1="37.2342" x2="5.48" y2="36.5757">
				<stop  offset="0" style="stop-color:#8A9AA9"/>
				<stop  offset="0.5" style="stop-color:#8A9AA9"/>
				<stop  offset="1" style="stop-color:#8A9AA9"/>
			</linearGradient>
			<polygon class="st20" points="0.7,36.6 10.3,36.6 10.3,37.2 0.7,37.2 			"/>
			<linearGradient id="SVGID_20_" gradientUnits="userSpaceOnUse" x1="34.8177" y1="44.1266" x2="34.8177" y2="38.0219">
				<stop  offset="0" style="stop-color:#EE5D20"/>
				<stop  offset="1" style="stop-color:#FF9E47"/>
			</linearGradient>
			<polygon class="st21" points="23.4,38 46.2,38 46.2,44.1 23.4,44.1 			"/>
			<linearGradient id="SVGID_21_" gradientUnits="userSpaceOnUse" x1="11.1693" y1="44.1266" x2="11.1693" y2="38.0219">
				<stop  offset="0" style="stop-color:#EE5D20"/>
				<stop  offset="1" style="stop-color:#FF9E47"/>
			</linearGradient>
			<polygon class="st22" points="0.7,38 21.7,38 21.7,44.1 0.7,44.1 			"/>
			<linearGradient id="SVGID_22_" gradientUnits="userSpaceOnUse" x1="11.1693" y1="29.6836" x2="11.1693" y2="29.0251">
				<stop  offset="0" style="stop-color:#8A9AA9"/>
				<stop  offset="0.5" style="stop-color:#8A9AA9"/>
				<stop  offset="1" style="stop-color:#8A9AA9"/>
			</linearGradient>
			<polygon class="st23" points="0.7,29 21.7,29 21.7,29.7 0.7,29.7 			"/>
			<linearGradient id="SVGID_23_" gradientUnits="userSpaceOnUse" x1="11.1693" y1="29.0251" x2="11.1693" y2="22.9205">
				<stop  offset="0" style="stop-color:#EE5D20"/>
				<stop  offset="1" style="stop-color:#FF9E47"/>
			</linearGradient>
			<polygon class="st24" points="0.7,22.9 21.7,22.9 21.7,29 0.7,29 			"/>
		</g>
	</g>
</g>
</svg>
