<?xml version="1.0" encoding="utf-8"?>
<!-- Generator: Adobe Illustrator 21.0.0, SVG Export Plug-In . SVG Version: 6.00 Build 0)  -->
<svg version="1.0" id="图层_1" xmlns="http://www.w3.org/2000/svg" xmlns:xlink="http://www.w3.org/1999/xlink" x="0px" y="0px" width="165px" height="60px"
	 viewBox="0 0 165 60" xml:space="preserve">
<g>
	<g>
		<path fill="#EFEFEF" d="M34.6,57.6c-15,0-27.3-12.2-27.3-27.3C7.4,15.3,19.6,3,34.6,3h103c15,0,27.3,12.2,27.3,27.3
			c0,15-12.2,27.3-27.3,27.3H34.6z"/>
		<path d="M137.6,3.4c14.8,0,26.8,12,26.8,26.8s-12,26.8-26.8,26.8h-103c-14.8,0-26.8-12-26.8-26.8s12-26.8,26.8-26.8H137.6
			 M137.6,2.6h-103C19.4,2.6,6.9,15,6.9,30.3C6.9,45.5,19.4,58,34.6,58h103c15.2,0,27.7-12.5,27.7-27.7
			C165.3,15,152.9,2.6,137.6,2.6L137.6,2.6z"/>
	</g>
	<text transform="matrix(1 0 0 1 65.6152 25.8008)" fill="#FF403F" font-family="'ArialMT'" font-size="17.5414px">001D019</text>
	<circle fill="#EFEFEF" stroke="#000000" stroke-width="0.8661" stroke-miterlimit="10" cx="29.8" cy="30" r="28"/>
	<text transform="matrix(1 0 0 1 64.7041 47.2676)" fill="#FF403F" font-family="'MicrosoftYaHei'" font-size="17.0136px">总开关</text>
	<g>
		<path fill="#2CAC7C" d="M29.7,51.3C18.1,51.3,8.5,41.6,8.5,30C8.5,18.2,18.3,8.5,30,8.7c11.7,0.1,21.3,9.8,21.1,21.4
			C51,41.8,41.4,51.4,29.7,51.3z M30.1,43.8c0.9-0.2,2.2-0.3,3.5-0.6c9.7-2.6,13.4-15.1,6.5-22.3c-0.6-0.6-1.5-1-2.4-1
			c-0.5,0-1.4,0.9-1.4,1.3c0.1,0.9,0.4,1.9,1,2.6c3.2,4.2,2.9,9.9-1,13.4c-3.7,3.4-9.4,3.4-13.1,0c-3.8-3.5-4.2-9.2-0.9-13.3
			c1-1.2,1.9-2.5,0.3-3.7c-1.6-1.2-2.7,0.1-3.5,1.2c-3.4,4.5-4.1,9.4-1.7,14.5C19.8,41,24.1,43.5,30.1,43.8z M31.9,24.9
			c0-1.7,0-3.4,0-5.1c0-1.3-0.6-2.2-2-2.2c-1.4,0-2,1-2,2.2c0,3.3,0,6.5,0,9.8c0,1.3,0.5,2.3,1.9,2.3c1.5,0,2.1-0.9,2.1-2.4
			C31.9,28,31.9,26.4,31.9,24.9z"/>
		<path fill="#FFFFFF" d="M30.1,43.8c-6-0.3-10.2-2.8-12.6-8c-2.4-5.1-1.7-10,1.7-14.5c0.9-1.2,2-2.4,3.5-1.2
			c1.6,1.2,0.7,2.5-0.3,3.7c-3.3,4.2-2.9,9.8,0.9,13.3c3.7,3.4,9.4,3.4,13.1,0c3.8-3.5,4.2-9.2,1-13.4c-0.6-0.7-0.9-1.7-1-2.6
			c0-0.4,0.9-1.3,1.4-1.3c0.8,0.1,1.8,0.5,2.4,1c6.8,7.3,3.2,19.7-6.5,22.3C32.3,43.6,31,43.7,30.1,43.8z"/>
		<path fill="#FFFFFF" d="M31.9,24.9c0,1.6,0,3.1,0,4.7c0,1.4-0.7,2.4-2.1,2.4c-1.4,0-1.9-1.1-1.9-2.3c0-3.3,0-6.5,0-9.8
			c0-1.3,0.6-2.2,2-2.2c1.4,0,2,0.9,2,2.2C32,21.5,31.9,23.2,31.9,24.9z"/>
	</g>
</g>
</svg>
