<?xml version="1.0" encoding="utf-8"?>
<svg viewBox="0 0 256 240" width="256" height="240" hape-rendering="geometricPrecision" xmlns:a="http://www.adobe.com/svg10-extensions" xmlns="http://www.w3.org/2000/svg" xmlns:xlink="http://www.w3.org/1999/xlink">
  <desc>600</desc>
  
  <defs>
    <linearGradient id="46_0_0_1_0_linearGradient" x1="0" y1="0" x2="0" y2="1">
      <stop offset="0.00" stop-color="rgb(146,208,80)" stop-opacity="1.0"/>
      <stop offset="0.5" stop-color="rgb(104,128,55)" stop-opacity="1.0"/>
      <stop offset="1" stop-color="rgb(146,208,80)" stop-opacity="1.0"/>
    </linearGradient>
    <linearGradient id="46_0_0_1_1_linearGradient" x1="0" y1="0" x2="0" y2="1">
      <stop offset="0.00" stop-color="rgb(146,208,80)" stop-opacity="1.0"/>
      <stop offset="0.5" stop-color="rgb(104,128,55)" stop-opacity="1.0"/>
      <stop offset="1" stop-color="rgb(146,208,80)" stop-opacity="1.0"/>
    </linearGradient>
    <linearGradient id="46_0_0_2_linearGradient" x1="0" y1="0" x2="0" y2="1">
      <stop offset="0.00" stop-color="rgb(146,208,80)" stop-opacity="1.0"/>
      <stop offset="0.5" stop-color="rgb(104,128,55)" stop-opacity="1.0"/>
      <stop offset="1" stop-color="rgb(146,208,80)" stop-opacity="1.0"/>
    </linearGradient>
    <linearGradient id="46_0_0_3_linearGradient" x1="0" y1="0" x2="0" y2="1">
      <stop offset="0.00" stop-color="rgb(146,208,80)" stop-opacity="1.0"/>
      <stop offset="0.5" stop-color="rgb(104,128,55)" stop-opacity="1.0"/>
      <stop offset="1" stop-color="rgb(146,208,80)" stop-opacity="1.0"/>
    </linearGradient>
    <linearGradient id="46_0_0_4_linearGradient" x1="0" y1="0" x2="0" y2="1">
      <stop offset="0.00" stop-color="rgb(104,128,55)" stop-opacity="1.0"/>
      <stop offset="0.5" stop-color="rgb(242,242,242)" stop-opacity="1.0"/>
      <stop offset="1" stop-color="rgb(104,128,55)" stop-opacity="1.0"/>
    </linearGradient>
    <linearGradient id="46_0_0_5_linearGradient" x1="0" y1="0" x2="0" y2="1">
      <stop offset="0.00" stop-color="rgb(104,128,55)" stop-opacity="1.0"/>
      <stop offset="0.5" stop-color="rgb(146,208,80)" stop-opacity="1.0"/>
      <stop offset="1" stop-color="rgb(104,128,55)" stop-opacity="1.0"/>
    </linearGradient>
    <radialGradient id="57_0_0_7_radialgradient" fx="0.5" fy="0.5" gradientUnits="objectBoundingBox">
      <stop offset="0.00" stop-color="rgb(255,255,255)" stop-opacity="1.0"/>
      <stop offset="1.00" stop-color="rgb(255,255,255)" stop-opacity="1.0"/>
    </radialGradient>
    <linearGradient id="48_0_0_8_linearGradient" x1="0" y1="0" x2="1" y2="0">
      <stop offset="0.00" stop-color="rgb(64,64,64)" stop-opacity="1.0"/>
      <stop offset="0.5" stop-color="rgb(191,191,191)" stop-opacity="1.0"/>
      <stop offset="1" stop-color="rgb(64,64,64)" stop-opacity="1.0"/>
    </linearGradient>
    <linearGradient id="48_0_0_9_linearGradient" x1="0" y1="0" x2="1" y2="0">
      <stop offset="0.00" stop-color="rgb(64,64,64)" stop-opacity="1.0"/>
      <stop offset="0.5" stop-color="rgb(191,191,191)" stop-opacity="1.0"/>
      <stop offset="1" stop-color="rgb(64,64,64)" stop-opacity="1.0"/>
    </linearGradient>
    <linearGradient id="46_0_0_10_linearGradient" x1="0" y1="0" x2="0" y2="1">
      <stop offset="0.00" stop-color="rgb(146,208,80)" stop-opacity="1.0"/>
      <stop offset="0.5" stop-color="rgb(104,128,55)" stop-opacity="1.0"/>
      <stop offset="1" stop-color="rgb(146,208,80)" stop-opacity="1.0"/>
    </linearGradient>
    <linearGradient id="46_0_0_11_linearGradient" x1="0" y1="0" x2="0" y2="1">
      <stop offset="0.00" stop-color="rgb(146,208,80)" stop-opacity="1.0"/>
      <stop offset="0.5" stop-color="rgb(104,128,55)" stop-opacity="1.0"/>
      <stop offset="1" stop-color="rgb(146,208,80)" stop-opacity="1.0"/>
    </linearGradient>
    <linearGradient id="46_0_0_12_linearGradient" x1="0" y1="0" x2="0" y2="1">
      <stop offset="0.00" stop-color="rgb(146,208,80)" stop-opacity="1.0"/>
      <stop offset="0.5" stop-color="rgb(104,128,55)" stop-opacity="1.0"/>
      <stop offset="1" stop-color="rgb(146,208,80)" stop-opacity="1.0"/>
    </linearGradient>
    <radialGradient id="56_0_1_0_0_radialgradient" fx="0.5" fy="0.5" gradientUnits="objectBoundingBox">
      <stop offset="0.00" stop-color="rgb(0,196,0)" stop-opacity="1.0"/>
      <stop offset="1.00" stop-color="rgb(39,123,0)" stop-opacity="1.0"/>
    </radialGradient>
    <radialGradient id="56_0_1_0_1_radialgradient" fx="0.5" fy="0.5" gradientUnits="objectBoundingBox">
      <stop offset="0.00" stop-color="rgb(0,196,0)" stop-opacity="1.0"/>
      <stop offset="1.00" stop-color="rgb(39,123,0)" stop-opacity="1.0"/>
    </radialGradient>
    <radialGradient id="56_0_1_0_2_radialgradient" fx="0.5" fy="0.5" gradientUnits="objectBoundingBox">
      <stop offset="0.00" stop-color="rgb(0,196,0)" stop-opacity="1.0"/>
      <stop offset="1.00" stop-color="rgb(39,123,0)" stop-opacity="1.0"/>
    </radialGradient>
    <radialGradient id="57_0_1_1_1_radialgradient" fx="0.5" fy="0.5" gradientUnits="objectBoundingBox">
      <stop offset="0.00" stop-color="rgb(255,255,0)" stop-opacity="1.0"/>
      <stop offset="1.00" stop-color="rgb(39,123,0)" stop-opacity="1.0"/>
    </radialGradient>
  </defs>
  <g id="0">
    <g id="0_0">
      <g id="0_0_0" fill="rgb(89,89,89)" stroke="rgb(0,0,0)" stroke-width="1" stroke-opacity="1.0" stroke-linecap="butt" stroke-linejoin="miter" stroke-miterlimit="10">
        <path id="path_0_0_0" d="M 123 25 L 135 25 135 46 123 46 123 25 Z"/>
        <text id="Text_0_0_0" x="127.000000" text-anchor="start" y="36.000000" vertical-align="top" font-family="SimSun" font-size="9.000000pt" fill="rgb(0,0,0)" stroke="none" stextLength="0" font-weight="400" xml:space="preserve"> </text>
      </g>
      <g id="0_0_1">
        <g id="0_0_1_0" fill="url(#46_0_0_1_0_linearGradient)" stroke="rgb(0,0,0)" stroke-width="1" stroke-opacity="1.0" stroke-linecap="butt" stroke-linejoin="miter" stroke-miterlimit="10">
          <path id="path_0_0_1_0" d="M 15 228 L 65 197 83 197 33 228 15 228 Z"/>
        </g>
        <g id="0_0_1_1" fill="url(#46_0_0_1_1_linearGradient)" stroke="rgb(0,0,0)" stroke-width="1" stroke-opacity="1.0" stroke-linecap="butt" stroke-linejoin="miter" stroke-miterlimit="10">
          <path id="path_0_0_1_1" d="M 83 201 L 34 232 15 232 15 228 C 18 228 34 227 34 227 34 227 79 198 83 197 L 83 201 Z"/>
        </g>
        <text id="Text_0_0_1" x="49" text-anchor="middle" y="256" font-family="Times New Roman" font-size="9.000000pt" fill="rgb(0,0,0)" stroke="none" stextLength="0" font-weight="400" xml:space="preserve"/>
      </g>
      <g id="0_0_2" fill="url(#46_0_0_2_linearGradient)" stroke="rgb(0,0,0)" stroke-width="1" stroke-opacity="1.0" stroke-linecap="butt" stroke-linejoin="miter" stroke-miterlimit="10">
        <path id="path_0_0_2" d="M 52 170 L 42 222 26 222 43 142 52 170 Z"/>
      </g>
      <g id="0_0_3" fill="url(#46_0_0_3_linearGradient)" stroke="rgb(0,0,0)" stroke-width="1" stroke-opacity="1.0" stroke-linecap="butt" stroke-linejoin="miter" stroke-miterlimit="10">
        <path id="path_0_0_3" d="M 188 232 L 238 201 256 201 206 232 188 232 Z"/>
      </g>
      <g id="0_0_4" fill="url(#46_0_0_4_linearGradient)" stroke="rgb(0,0,0)" stroke-width="1" stroke-opacity="1.0" stroke-linecap="butt" stroke-linejoin="miter" stroke-miterlimit="10">
        <path id="path_0_0_4" d="M 255 113 C 255 81 229 53 194 47 L 127 39 144 53 C 118 64 100 87 100 113 100 145 127 172 161 178 L 125 212 204 176 C 211 174 217 171 222 168 242 156 255 136 255 113 L 255 113 Z"/>
      </g>
      <g id="0_0_5" fill="url(#46_0_0_5_linearGradient)" stroke="rgb(0,0,0)" stroke-width="1" stroke-opacity="1.0" stroke-linecap="butt" stroke-linejoin="miter" stroke-miterlimit="10">
        <path id="path_0_0_5" d="M 95 218 L 95 218 C 43 218 0 174 0 123 L 0 123 C 0 71 43 27 95 27 L 95 27 C 147 27 190 71 190 123 L 190 123 C 190 174 147 218 95 218 L 95 218 Z"/>
        <text id="Text_0_0_5" x="95" text-anchor="middle" y="128" vertical-align="middle" font-family="Times New Roman" font-size="9.000000pt" fill="rgb(0,0,0)" stroke="none" stextLength="0" font-weight="400" xml:space="preserve"> </text>
      </g>
      <g id="0_0_6" fill="none" stroke="none" stroke-width="0" stroke-opacity="0" stroke-linecap="butt" stroke-linejoin="miter" stroke-miterlimit="10">
        <path id="path_0_0_6" d="M 96 200 C 139 200 174 164 174 121 174 78 139 43 96 43 53 43 18 78 18 121 18 164 53 200 96 200"/>
      </g>
      <g id="0_0_7" fill="url(#57_0_0_7_radialgradient)" stroke="rgb(0,0,0)" stroke-width="1" stroke-opacity="1.0" stroke-linecap="butt" stroke-linejoin="miter" stroke-miterlimit="10">
        <path id="path_0_0_7" d="M 95 202 L 95 202 C 52 202 17 166 17 123 L 17 123 C 17 80 52 44 95 44 L 96 44 C 139 44 174 80 174 123 L 174 123 C 174 166 139 202 96 202 L 95 202 Z"/>
        <text id="Text_0_0_7" x="21.000000" text-anchor="start" y="55.000000" vertical-align="top" font-family="SimSun" font-size="9.000000pt" fill="rgb(0,0,0)" stroke="none" stextLength="0" font-weight="400" xml:space="preserve"> </text>
      </g>
      <g id="0_0_8" fill="url(#48_0_0_8_linearGradient)" stroke="rgb(0,0,0)" stroke-width="1" stroke-opacity="1.0" stroke-linecap="butt" stroke-linejoin="miter" stroke-miterlimit="10">
        <path id="path_0_0_8" d="M 119 16 L 139 16 139 25 119 25 119 16 Z"/>
        <text id="Text_0_0_8" x="123.000000" text-anchor="start" y="27.000000" vertical-align="top" font-family="SimSun" font-size="9.000000pt" fill="rgb(0,0,0)" stroke="none" stextLength="0" font-weight="400" xml:space="preserve"> </text>
      </g>
      <g id="0_0_9" fill="url(#48_0_0_9_linearGradient)" stroke="rgb(0,0,0)" stroke-width="1" stroke-opacity="1.0" stroke-linecap="butt" stroke-linejoin="miter" stroke-miterlimit="10">
        <path id="path_0_0_9" d="M 112 0 L 146 0 146 16 112 16 112 0 Z"/>
        <text id="Text_0_0_9" x="116.000000" text-anchor="start" y="11.000000" vertical-align="top" font-family="SimSun" font-size="9.000000pt" fill="rgb(0,0,0)" stroke="none" stextLength="0" font-weight="400" xml:space="preserve"> </text>
      </g>
      <g id="0_0_10" fill="url(#46_0_0_10_linearGradient)" stroke="rgb(0,0,0)" stroke-width="1" stroke-opacity="1.0" stroke-linecap="butt" stroke-linejoin="miter" stroke-miterlimit="10">
        <path id="path_0_0_10" d="M 180 175 L 195 227 213 227 194 166 180 175 Z"/>
      </g>
      <g id="0_0_11" fill="url(#46_0_0_11_linearGradient)" stroke="rgb(0,0,0)" stroke-width="1" stroke-opacity="1.0" stroke-linecap="butt" stroke-linejoin="miter" stroke-miterlimit="10">
        <path id="path_0_0_11" d="M 224 161 L 236 203 251 203 234 151 224 161 Z"/>
      </g>
      <g id="0_0_12" fill="url(#46_0_0_12_linearGradient)" stroke="rgb(0,0,0)" stroke-width="1" stroke-opacity="1.0" stroke-linecap="butt" stroke-linejoin="miter" stroke-miterlimit="10">
        <path id="path_0_0_12" d="M 206 238 L 256 204 256 201 206 232 206 238 188 237 188 232 206 232 206 238 Z"/>
      </g>
      <g id="0_0_13" fill="none" stroke="rgb(0,0,0)" stroke-width="1" stroke-opacity="1.0" stroke-linecap="butt" stroke-linejoin="miter" stroke-miterlimit="10">
        <path id="path_0_0_13" d="M 34 227 L 34 232"/>
        <text id="Text_0_0_13" x="38.000000" text-anchor="start" y="238.000000" vertical-align="top" font-family="SimSun" font-size="9.000000pt" fill="rgb(0,0,0)" stroke="none" stextLength="0" font-weight="400" xml:space="preserve"> </text>
      </g>
      <text id="Text_0_0" x="128.500000" text-anchor="start" y="263" font-family="SimSun" font-size="9.000000pt" fill="rgb(0,0,0)" stroke="none" stextLength="0" font-weight="400" xml:space="preserve"/>
    </g>
    <g id="0_1">
      <g id="0_1_0">
        <g id="0_1_0_0" fill="url(#56_0_1_0_0_radialgradient)" stroke="none" stroke-width="0" stroke-opacity="0" stroke-linecap="butt" stroke-linejoin="miter" stroke-miterlimit="10">
          <path id="path_0_1_0_0" d="M 58 90 C 58 103 73 101 87 109 96 115 94 126 94 126 94 126 106 115 110 109 113 105 123 94 120 82 118 76 104 64 72 77 65 79 57 83 58 90 L 58 90 Z"/>
        </g>
        <g id="0_1_0_1" fill="url(#56_0_1_0_1_radialgradient)" stroke="none" stroke-width="0" stroke-opacity="0" stroke-linecap="butt" stroke-linejoin="miter" stroke-miterlimit="10">
          <path id="path_0_1_0_1" d="M 82 175 C 93 168 84 157 84 141 84 129 94 126 94 126 94 126 80 121 73 120 67 119 53 117 44 126 40 130 36 147 64 170 69 174 77 179 82 175 L 82 175 Z"/>
        </g>
        <g id="0_1_0_2" fill="url(#56_0_1_0_2_radialgradient)" stroke="none" stroke-width="0" stroke-opacity="0" stroke-linecap="butt" stroke-linejoin="miter" stroke-miterlimit="10">
          <path id="path_0_1_0_2" d="M 143 111 C 132 106 127 119 113 127 103 132 94 126 94 126 94 126 98 141 100 147 103 152 108 166 120 169 125 171 142 165 148 130 149 124 150 114 143 111 L 143 111 Z"/>
        </g>
        <text id="Text_0_1_0" x="94.500000" text-anchor="start" y="201" font-family="SimSun" font-size="9.000000pt" fill="rgb(0,0,0)" stroke="none" stextLength="0" font-weight="400" xml:space="preserve"/>
        <animateTransform id="Rotate_1" fill="freeze" type="rotate" repeatCount="indefinite" calcMode="linear" attributeType="XML" attributeName="transform" additive="replace" accumulate="none" from="0.000000,94,123" to="360.000000,94,123" begin="indefinite" end="indefinite" dur="1.000000s" restart="whenNotActive"/>
      </g>
      <g id="0_1_1">
        <g id="0_1_1_0" fill="rgb(18,123,0)" stroke="none" stroke-width="0" stroke-opacity="0" stroke-linecap="butt" stroke-linejoin="miter" stroke-miterlimit="10">
          <path id="path_0_1_1_0" d="M 94 198 C 53 198 20 164 20 124 20 83 53 49 94 49 135 49 169 83 169 124 169 164 135 198 94 198 L 94 198 Z M 94 58 C 58 58 29 87 29 124 29 160 58 189 94 189 131 189 160 160 160 124 160 87 131 58 94 58 L 94 58 Z"/>
          <text id="Text_0_1_1_0" x="95" text-anchor="middle" y="129" vertical-align="middle" font-family="Times New Roman" font-size="9.000000pt" fill="rgb(0,0,0)" stroke="none" stextLength="0" font-weight="400" xml:space="preserve"> </text>
        </g>
        <g id="0_1_1_1" fill="url(#57_0_1_1_1_radialgradient)" stroke="rgb(255,255,255)" stroke-width="1" stroke-opacity="1.0" stroke-linecap="butt" stroke-linejoin="miter" stroke-miterlimit="10">
          <path id="path_0_1_1_1" d="M 94 142 L 94 142 C 85 142 76 133 76 124 L 76 123 C 76 114 85 105 94 105 L 95 105 C 104 105 113 114 113 123 L 113 124 C 113 133 104 142 95 142 L 94 142 Z"/>
          <text id="Text_0_1_1_1" x="80.000000" text-anchor="start" y="116.000000" vertical-align="top" font-family="SimSun" font-size="9.000000pt" fill="rgb(0,0,0)" stroke="none" stextLength="0" font-weight="400" xml:space="preserve"> </text>
        </g>
        <text id="Text_0_1_1" x="94.500000" text-anchor="start" y="223" font-family="SimSun" font-size="9.000000pt" fill="rgb(0,0,0)" stroke="none" stextLength="0" font-weight="400" xml:space="preserve"/>
      </g>
      <text id="Text_0_1" x="94.500000" text-anchor="start" y="223" font-family="SimSun" font-size="9.000000pt" fill="rgb(0,0,0)" stroke="none" stextLength="0" font-weight="400" xml:space="preserve"/>
    </g>
    <text id="Text_0" x="128.500000" text-anchor="start" y="263" font-family="SimSun" font-size="9.000000pt" fill="rgb(0,0,0)" stroke="none" stextLength="0" font-weight="400" xml:space="preserve"/>
  </g>
</svg>
