<?xml version="1.0" encoding="utf-8"?>
<svg viewBox="0 0 256 238" width="256" height="238" hape-rendering="geometricPrecision" xmlns:a="http://www.adobe.com/svg10-extensions" xmlns="http://www.w3.org/2000/svg" xmlns:xlink="http://www.w3.org/1999/xlink" >
  <desc>238</desc>
  <defs>
    <linearGradient id="46_0_1_0_linearGradient" x1="0" y1="0" x2="0" y2="1">
      <stop offset="0.00" stop-color="rgb(217,104,13)" stop-opacity="1.0"/>
      <stop offset="0.5" stop-color="rgb(242,242,242)" stop-opacity="1.0"/>
      <stop offset="1" stop-color="rgb(217,104,13)" stop-opacity="1.0"/>
    </linearGradient>
    <linearGradient id="46_0_1_1_linearGradient" x1="0" y1="0" x2="0" y2="1">
      <stop offset="0.00" stop-color="rgb(217,104,13)" stop-opacity="1.0"/>
      <stop offset="0.5" stop-color="rgb(242,242,242)" stop-opacity="1.0"/>
      <stop offset="1" stop-color="rgb(217,104,13)" stop-opacity="1.0"/>
    </linearGradient>
    <linearGradient id="46_0_2_linearGradient" x1="0" y1="0" x2="0" y2="1">
      <stop offset="0.00" stop-color="rgb(217,104,13)" stop-opacity="1.0"/>
      <stop offset="0.5" stop-color="rgb(242,242,242)" stop-opacity="1.0"/>
      <stop offset="1" stop-color="rgb(217,104,13)" stop-opacity="1.0"/>
    </linearGradient>
    <linearGradient id="46_0_3_linearGradient" x1="0" y1="0" x2="0" y2="1">
      <stop offset="0.00" stop-color="rgb(217,104,13)" stop-opacity="1.0"/>
      <stop offset="0.5" stop-color="rgb(242,242,242)" stop-opacity="1.0"/>
      <stop offset="1" stop-color="rgb(217,104,13)" stop-opacity="1.0"/>
    </linearGradient>
    <linearGradient id="46_0_4_linearGradient" x1="0" y1="0" x2="0" y2="1">
      <stop offset="0.00" stop-color="rgb(217,104,13)" stop-opacity="1.0"/>
      <stop offset="0.5" stop-color="rgb(242,242,242)" stop-opacity="1.0"/>
      <stop offset="1" stop-color="rgb(217,104,13)" stop-opacity="1.0"/>
    </linearGradient>
    <linearGradient id="46_0_5_linearGradient" x1="0" y1="0" x2="0" y2="1">
      <stop offset="0.00" stop-color="rgb(248,181,126)" stop-opacity="1.0"/>
      <stop offset="0.5" stop-color="rgb(217,104,13)" stop-opacity="1.0"/>
      <stop offset="1" stop-color="rgb(248,181,126)" stop-opacity="1.0"/>
    </linearGradient>
    <radialGradient id="57_0_7_radialgradient" fx="0.5" fy="0.5" gradientUnits="objectBoundingBox">
      <stop offset="0.00" stop-color="rgb(217,217,217)" stop-opacity="1.0"/>
      <stop offset="1.00" stop-color="rgb(255,255,255)" stop-opacity="1.0"/>
    </radialGradient>
    <linearGradient id="48_0_8_linearGradient" x1="0" y1="0" x2="1" y2="0">
      <stop offset="0.00" stop-color="rgb(64,64,64)" stop-opacity="1.0"/>
      <stop offset="0.5" stop-color="rgb(191,191,191)" stop-opacity="1.0"/>
      <stop offset="1" stop-color="rgb(64,64,64)" stop-opacity="1.0"/>
    </linearGradient>
    <linearGradient id="48_0_9_linearGradient" x1="0" y1="0" x2="1" y2="0">
      <stop offset="0.00" stop-color="rgb(64,64,64)" stop-opacity="1.0"/>
      <stop offset="0.5" stop-color="rgb(191,191,191)" stop-opacity="1.0"/>
      <stop offset="1" stop-color="rgb(64,64,64)" stop-opacity="1.0"/>
    </linearGradient>
    <linearGradient id="46_0_10_linearGradient" x1="0" y1="0" x2="0" y2="1">
      <stop offset="0.00" stop-color="rgb(217,104,13)" stop-opacity="1.0"/>
      <stop offset="0.5" stop-color="rgb(242,242,242)" stop-opacity="1.0"/>
      <stop offset="1" stop-color="rgb(217,104,13)" stop-opacity="1.0"/>
    </linearGradient>
    <linearGradient id="46_0_11_linearGradient" x1="0" y1="0" x2="0" y2="1">
      <stop offset="0.00" stop-color="rgb(217,104,13)" stop-opacity="1.0"/>
      <stop offset="0.5" stop-color="rgb(242,242,242)" stop-opacity="1.0"/>
      <stop offset="1" stop-color="rgb(217,104,13)" stop-opacity="1.0"/>
    </linearGradient>
    <linearGradient id="46_0_12_linearGradient" x1="0" y1="0" x2="0" y2="1">
      <stop offset="0.00" stop-color="rgb(217,104,13)" stop-opacity="1.0"/>
      <stop offset="0.5" stop-color="rgb(242,242,242)" stop-opacity="1.0"/>
      <stop offset="1" stop-color="rgb(217,104,13)" stop-opacity="1.0"/>
    </linearGradient>
    <linearGradient id="46_1_0_linearGradient" x1="0" y1="0" x2="0" y2="1">
      <stop offset="0.00" stop-color="rgb(242,130,38)" stop-opacity="1.0"/>
      <stop offset="0.5" stop-color="rgb(217,104,13)" stop-opacity="1.0"/>
      <stop offset="1" stop-color="rgb(242,130,38)" stop-opacity="1.0"/>
    </linearGradient>
    <linearGradient id="46_1_1_linearGradient" x1="0" y1="0" x2="0" y2="1">
      <stop offset="0.00" stop-color="rgb(242,130,38)" stop-opacity="1.0"/>
      <stop offset="0.5" stop-color="rgb(217,104,13)" stop-opacity="1.0"/>
      <stop offset="1" stop-color="rgb(242,130,38)" stop-opacity="1.0"/>
    </linearGradient>
    <linearGradient id="46_1_2_linearGradient" x1="0" y1="0" x2="0" y2="1">
      <stop offset="0.00" stop-color="rgb(242,130,38)" stop-opacity="1.0"/>
      <stop offset="0.5" stop-color="rgb(217,104,13)" stop-opacity="1.0"/>
      <stop offset="1" stop-color="rgb(242,130,38)" stop-opacity="1.0"/>
    </linearGradient>
    <radialGradient id="57_1_3_radialgradient" fx="0.5" fy="0.5" gradientUnits="objectBoundingBox">
      <stop offset="0.00" stop-color="rgb(255,255,255)" stop-opacity="1.0"/>
      <stop offset="1.00" stop-color="rgb(255,0,0)" stop-opacity="1.0"/>
    </radialGradient>
  </defs>
  <g id="0">
    <g id="0_0" fill="rgb(89,89,89)" stroke="rgb(0,0,0)" stroke-width="1" stroke-opacity="1.0" stroke-linecap="butt" stroke-linejoin="miter" stroke-miterlimit="10">
      <path id="path_0_0" d="M 125 27 L 137 27 137 48 125 48 125 27 Z"/>
      <text id="Text_0_0" x="129.000000" text-anchor="start" y="38.000000" vertical-align="top" font-family="SimSun" font-size="9.000000pt" fill="rgb(0,0,0)" stroke="none" stextLength="0" font-weight="400" xml:space="preserve"> </text>
    </g>
    <g id="0_1">
      <g id="0_1_0" fill="url(#46_0_1_0_linearGradient)" stroke="rgb(0,0,0)" stroke-width="1" stroke-opacity="1.0" stroke-linecap="butt" stroke-linejoin="miter" stroke-miterlimit="10">
        <path id="path_0_1_0" d="M 17 230 L 67 199 85 199 35 230 17 230 Z"/>
      </g>
      <g id="0_1_1" fill="url(#46_0_1_1_linearGradient)" stroke="rgb(0,0,0)" stroke-width="1" stroke-opacity="1.0" stroke-linecap="butt" stroke-linejoin="miter" stroke-miterlimit="10">
        <path id="path_0_1_1" d="M 85 203 L 36 234 17 234 17 230 C 20 230 36 229 36 229 36 229 81 200 85 199 L 85 203 Z"/>
      </g>
      <text id="Text_0_1" x="51" text-anchor="middle" y="258" font-family="Times New Roman" font-size="9.000000pt" fill="rgb(0,0,0)" stroke="none" stextLength="0" font-weight="400" xml:space="preserve"/>
    </g>
    <g id="0_2" fill="url(#46_0_2_linearGradient)" stroke="rgb(0,0,0)" stroke-width="1" stroke-opacity="1.0" stroke-linecap="butt" stroke-linejoin="miter" stroke-miterlimit="10">
      <path id="path_0_2" d="M 54 172 L 44 224 28 224 45 144 54 172 Z"/>
    </g>
    <g id="0_3" fill="url(#46_0_3_linearGradient)" stroke="rgb(0,0,0)" stroke-width="1" stroke-opacity="1.0" stroke-linecap="butt" stroke-linejoin="miter" stroke-miterlimit="10">
      <path id="path_0_3" d="M 190 234 L 240 203 258 203 208 234 190 234 Z"/>
    </g>
    <g id="0_4" fill="url(#46_0_4_linearGradient)" stroke="rgb(0,0,0)" stroke-width="1" stroke-opacity="1.0" stroke-linecap="butt" stroke-linejoin="miter" stroke-miterlimit="10">
      <path id="path_0_4" d="M 257 115 C 257 83 231 55 196 49 L 129 41 146 55 C 120 66 102 89 102 115 102 147 129 174 163 180 L 127 214 206 178 C 213 176 219 173 224 170 244 158 257 138 257 115 L 257 115 Z"/>
    </g>
    <g id="0_5" fill="url(#46_0_5_linearGradient)" stroke="rgb(0,0,0)" stroke-width="1" stroke-opacity="1.0" stroke-linecap="butt" stroke-linejoin="miter" stroke-miterlimit="10">
      <path id="path_0_5" d="M 97 220 L 97 220 C 45 220 2 176 2 125 L 2 125 C 2 73 45 29 97 29 L 97 29 C 149 29 192 73 192 125 L 192 125 C 192 176 149 220 97 220 L 97 220 Z"/>
      <text id="Text_0_5" x="97" text-anchor="middle" y="130" vertical-align="middle" font-family="Times New Roman" font-size="9.000000pt" fill="rgb(0,0,0)" stroke="none" stextLength="0" font-weight="400" xml:space="preserve"> </text>
    </g>
    <g id="0_6" fill="none" stroke="none" stroke-width="0" stroke-opacity="0" stroke-linecap="butt" stroke-linejoin="miter" stroke-miterlimit="10">
      <path id="path_0_6" d="M 98 202 C 141 202 176 166 176 123 176 80 141 45 98 45 55 45 20 80 20 123 20 166 55 202 98 202"/>
    </g>
    <g id="0_7" fill="url(#57_0_7_radialgradient)" stroke="rgb(0,0,0)" stroke-width="1" stroke-opacity="1.0" stroke-linecap="butt" stroke-linejoin="miter" stroke-miterlimit="10">
      <path id="path_0_7" d="M 97 204 L 97 204 C 54 204 19 168 19 125 L 19 125 C 19 82 54 46 97 46 L 98 46 C 141 46 176 82 176 125 L 176 125 C 176 168 141 204 98 204 L 97 204 Z"/>
      <text id="Text_0_7" x="23.000000" text-anchor="start" y="57.000000" vertical-align="top" font-family="SimSun" font-size="9.000000pt" fill="rgb(0,0,0)" stroke="none" stextLength="0" font-weight="400" xml:space="preserve"> </text>
    </g>
    <g id="0_8" fill="url(#48_0_8_linearGradient)" stroke="rgb(0,0,0)" stroke-width="1" stroke-opacity="1.0" stroke-linecap="butt" stroke-linejoin="miter" stroke-miterlimit="10">
      <path id="path_0_8" d="M 121 18 L 141 18 141 27 121 27 121 18 Z"/>
      <text id="Text_0_8" x="125.000000" text-anchor="start" y="29.000000" vertical-align="top" font-family="SimSun" font-size="9.000000pt" fill="rgb(0,0,0)" stroke="none" stextLength="0" font-weight="400" xml:space="preserve"> </text>
    </g>
    <g id="0_9" fill="url(#48_0_9_linearGradient)" stroke="rgb(0,0,0)" stroke-width="1" stroke-opacity="1.0" stroke-linecap="butt" stroke-linejoin="miter" stroke-miterlimit="10">
      <path id="path_0_9" d="M 114 2 L 148 2 148 18 114 18 114 2 Z"/>
      <text id="Text_0_9" x="118.000000" text-anchor="start" y="13.000000" vertical-align="top" font-family="SimSun" font-size="9.000000pt" fill="rgb(0,0,0)" stroke="none" stextLength="0" font-weight="400" xml:space="preserve"> </text>
    </g>
    <g id="0_10" fill="url(#46_0_10_linearGradient)" stroke="rgb(0,0,0)" stroke-width="1" stroke-opacity="1.0" stroke-linecap="butt" stroke-linejoin="miter" stroke-miterlimit="10">
      <path id="path_0_10" d="M 182 177 L 197 229 215 229 196 168 182 177 Z"/>
    </g>
    <g id="0_11" fill="url(#46_0_11_linearGradient)" stroke="rgb(0,0,0)" stroke-width="1" stroke-opacity="1.0" stroke-linecap="butt" stroke-linejoin="miter" stroke-miterlimit="10">
      <path id="path_0_11" d="M 226 163 L 238 205 253 205 236 153 226 163 Z"/>
    </g>
    <g id="0_12" fill="url(#46_0_12_linearGradient)" stroke="rgb(0,0,0)" stroke-width="1" stroke-opacity="1.0" stroke-linecap="butt" stroke-linejoin="miter" stroke-miterlimit="10">
      <path id="path_0_12" d="M 208 240 L 258 206 258 203 208 234 208 240 190 239 190 234 208 234 208 240 Z"/>
    </g>
    <g id="0_13" fill="none" stroke="rgb(0,0,0)" stroke-width="1" stroke-opacity="1.0" stroke-linecap="butt" stroke-linejoin="miter" stroke-miterlimit="10">
      <path id="path_0_13" d="M 36 229 L 36 234"/>
      <text id="Text_0_13" x="40.000000" text-anchor="start" y="240.000000" vertical-align="top" font-family="SimSun" font-size="9.000000pt" fill="rgb(0,0,0)" stroke="none" stextLength="0" font-weight="400" xml:space="preserve"> </text>
    </g>
    <text id="Text_0" x="130.500000" text-anchor="start" y="265" font-family="SimSun" font-size="9.000000pt" fill="rgb(0,0,0)" stroke="none" stextLength="0" font-weight="400" xml:space="preserve"/>
  </g>
  <g id="1" onclick="javascript:pWnd.userOperate(evt,20,'模拟量',0)">
    <g id="1_0" fill="url(#46_1_0_linearGradient)" stroke="rgb(0,0,0)" stroke-width="1" stroke-opacity="1.0" stroke-linecap="butt" stroke-linejoin="miter" stroke-miterlimit="10">
      <path id="path_1_0" d="M 52 82 C 52 98 71 95 87 105 98 112 96 126 96 126 96 126 110 112 115 105 119 100 131 87 127 72 125 65 108 51 69 66 61 69 51 74 52 82 L 52 82 Z"/>
    </g>
    <g id="1_1" fill="url(#46_1_1_linearGradient)" stroke="rgb(0,0,0)" stroke-width="1" stroke-opacity="1.0" stroke-linecap="butt" stroke-linejoin="miter" stroke-miterlimit="10">
      <path id="path_1_1" d="M 81 185 C 95 176 84 163 84 144 84 129 96 126 96 126 96 126 79 119 71 118 63 117 46 115 36 126 31 130 26 151 60 179 66 184 75 190 81 185 L 81 185 Z"/>
    </g>
    <g id="1_2" fill="url(#46_1_2_linearGradient)" stroke="rgb(0,0,0)" stroke-width="1" stroke-opacity="1.0" stroke-linecap="butt" stroke-linejoin="miter" stroke-miterlimit="10">
      <path id="path_1_2" d="M 155 107 C 142 101 136 117 119 127 107 133 96 126 96 126 96 126 101 144 103 151 107 157 113 174 127 178 133 180 154 173 161 130 162 123 163 111 155 107 L 155 107 Z"/>
    </g>
    <animateTransform id="Rotate_1" fill="freeze" type="rotate" repeatCount="indefinite" calcMode="linear" attributeType="XML" attributeName="transform" additive="replace" accumulate="none" from="0.000000,96,122" to="360.000000,96,122" begin="indefinite" end="indefinite" dur="1.000000s" restart="whenNotActive"/>
  </g>
</svg>
